<svg version="1.2" xmlns="http://www.w3.org/2000/svg" viewBox="0 0 1280 720" width="1920" height="1080">
	<title>New Project</title>
	<defs>
		<linearGradient id="g1" x1="367" y1="194" x2="367" y2="525" gradientUnits="userSpaceOnUse">
			<stop offset="0" stop-color="#1be8b1"/>
			<stop offset="1" stop-color="#11d2d4" stop-opacity="0"/>
		</linearGradient>
		<linearGradient id="g2" x1="965" y1="525" x2="965" y2="229" gradientUnits="userSpaceOnUse">
			<stop offset="0" stop-color="#1be8b1"/>
			<stop offset="1" stop-color="#11d2d4" stop-opacity="0"/>
		</linearGradient>
	</defs>
	<style>
		.s0 { fill: url(#g1) } 
		.s1 { fill: url(#g2) } 
	</style>
	<path id="Nas" class="s0" aria-label="Nas"  d="m84.9 455.8c-2 0-3.3-0.3-5.4-1 0 0.3-0.3 1-0.3 1.3l1.7 1.4c1.7-1 3.4-0.4 4-1.7zm146.2-237c0-0.3 0-0.3-0.7-0.3 0 0.3 0.4 0.3 0.4 0.3zm0 0.4c0 0 0 0 0 0 0 0 0 0 0 0zm-117.5 206.2c0 1 0 1.7 0.7 2.4 0 0 0-0.4 0-0.4 0-1 0.6-1.6 0.6-2.3 0-0.7-2.3-3.1-3.3-3.4l2.7 3zm122.8-207.9c0 0-0.3 0-0.6 0.3 0.6 0.4 1 0.4 1.6 0.4-0.3-0.4-0.6-0.7-1-0.7zm-131.6 214c0.3 0 0.7 0 1 0 0.7 0 1 0 1.3 0.7 0-0.7-0.3-1.4-0.6-1.7-1 0-2.1 0-2.4 1-0.3-0.7-0.7-1-1.3-1l1.3 1.7zm129.3-216.4c0-0.7 0.3 0 0.3-0.7-0.3 0-0.6 0-0.6 0.4 0 0.3 0.3 0.3 0.3 0.3zm-159.7 238.7c-0.3 0-0.6 0.3-0.6 1 0 2.3 1 5.4 2 7.1 1.3-0.7 1.7-1.4 1.7-2.1 0-4.3-1.7-6-3.1-6zm157.3-236c0 0-0.3 0-0.3 0.4h0.7zm-0.4 2.7c0 0 0 0 0.7-0.7-0.3 0-0.7 0-1 0.3 0.3 0 0.3 0 0.3 0.4zm1.7-1.4l-0.7-0.7c0 0.7 0.4 1 0.4 1 0-0.3 0.3-0.3 0.3-0.3zm-182.9-19.6h-6.1c-0.7 0.4-1.4 1.4-1.4 3.7 0 5.4 3.4 2.7 3.4 5.1 0 0.3-0.3 0.7-1 0.7-0.7 0-1.7-0.7-2.4-0.7 0 8.4 6.4 6.1 6.4 7.4 0 0.4-0.6 1.4-2 1.4h3.1c0.6 0 0.6-2 0.6-9.8 0-3.4 0-7.8-0.6-7.8zm139 5.8c0-1.7 0.4-4.4-1-6.4-0.7 1.3-1.3 2.3-1.3 3.3 0 2.7 0.6 2.4 2.3 3.1zm-104.9 263.3c-0.4 0-0.7 0.3-0.7 0.6 1 0 1.3 0 1.3-0.3 0-0.3 0-0.3-0.6-0.3zm146.8-249.8c0 0-0.3 0-0.3 0 0 0 0 0 0.3 0zm-162.4 244l7.8 0.4c0 0-0.3-0.7-0.7-1.4-1.3 1-3.4 1-7.1 1zm7.8 1.4c-0.3 0.3-0.7 1-0.7 1.7 0 0.3 0.4 0.3 0.4 0.3 0-0.7 1-1 1-1.7 0-0.3 0-0.3-0.7-0.3zm112.7-249.1c-0.6-0.7-0.6-2.4-2.3-3.1 0 1.4 0.3 2.7 0.3 4.1 1 0 1.7-0.4 2-1zm41.9 6c0-0.3-0.3-0.3-0.7-0.3v0.7c0.7 0 0.4-0.4 0.7-0.4zm-142.1 246.4c0 2.1 1.7 1.7 1.7 2.7 0 0.4 0 0.7-0.7 1.1 1.3 0.6 0 2 1.3 2 0.4 0 0.4-0.3 0.4-1 0-3.4-1-3.7-2.7-4.8zm116.1-207.5c0-0.4 0.3-0.4 0.3-0.7-0.6 0-1 0-1 0.3 0.4 0.4 0.7 0.4 0.7 0.4zm-98.9 229.5c-1.4-0.7-4.1 0.3-4.7-2.7 0 0 0.3 0 1-0.7-2.7-0.7-4.7-3.4-7.8-3.4 0 1.1 1.7 2.4 1.7 3.8 0 1.3-0.7 2-0.7 2 0 1 1 0.7 1 1.3 0 0.4-0.3 0.7-1 1.4 1.7 0 3.1 0.3 5.4 0.3 1.7 0 5.8-0.3 5.8-2h-0.4c-0.3 0-0.3 0-0.3 0zm91.1-278.8c4.1 0 9.1-0.7 11.8-6.4 1.4-3.8 2.4-2.1 2.4-3.4 0-1.4-5.7-1.4-8.8-1.4-4 0-2-0.3-4.4-0.3-1 0-2.3 4.4-2.3 5.4 0-0.3 1.3 5.4 1.3 6.1zm31.4 11.8c0.4 0 0.7-0.4 1-0.7l-1.6-1c0 1 0.3 1.7 0.6 1.7zm1-2.4v-0.7l-0.3 0.4v-0.4c0 0.4 0 0.4-0.3 0.7l0.3 0.4c0.3 0 0.3 0 0.3-0.4zm-121.8 77c-0.4-0.4-0.7-0.7-1-0.7l0.3 3c0.7 0 0.7-0.6 0.7-1.3 0-0.3 0-0.7 0-1zm94.5 36.4c0-1 0.3-2.3 0.3-3.7 0-1.3-0.3-2.7-0.3-3.7zm8.1-1.3v-1c-0.7-1.4-2-1.1-3-1.1v1.1c0 0.3 0.3 0.6 0.3 1zm-3-9.5c0.3-0.7 1-0.7 1-1.3 0-0.7-0.7-0.7-1-1.1-0.4 1.1-0.4 2.4-0.4 3.8 0 1 0 2.3 0 3 0.4-0.7 0.7-1 0.7-1.7 0-1-0.3-1.7-0.3-2.7zm4.3 15.2h2.1c0-2.4 1.7-4 1.7-6.1l-1.1-1.3c-0.3 0-0.3 0-0.6-0.4zm-4.4-1.3l1 3 2-2c-0.7-1-2-1-3-1zm0 9.1h0.7c0 0-0.4 0-0.4 0.3 0.4 0 0.7-0.3 1-0.3 0.4 0 0.4 0.3 0.7 0.3 0-1.6-0.7-2-2-2.7zm8.1-13.8l0.3 0.3 1-1c-1.6-0.7-2.7-2.7-4.7-2.7l2.4 2c0.7 0.4 1 0.7 1 1.4zm-13.5 9.1c0.3 0.4 0.3 0.4 0.3 0.7l-0.3-4.4zm4.7 8.4c-0.3-0.3-1-0.3-1.7-0.3 0.4 0.3 0.7 1 1 1.4 0.4-0.4 0.4-0.7 0.7-1.1zm-102.6 94.2l3-2-1.7-2.4c-1 0.4-1.3 0.7-1.3 1.4 0 0.7 0.7 1.3 0.7 2 0 0.3 0 0.7-0.7 1zm-17.9 13.2l-0.3 0.7c1-0.4 2-0.4 3.3-0.4-1.3 0-2.3 0-3-0.3zm-18.2-54.4h24.3c0.3 0 0.7-0.3 0.7-0.3-0.7 0-15.2-12.5-25.7-15.2v12.8c0.7 0 0.7-0.3 3.4 1.7-0.7 0.4-2 0.7-3.7 0.7 0 0 0.6 0.3 1 0.3zm18.9-2c0 0.7 0.7 0.3 0.7 1 0 0.4 0 0.7-0.7 0.7-0.4 0-0.7-0.3-0.7-1.4 0-0.3 0.3-0.3 0.7-0.3zm-6.4-25.3h-12.9c-0.6 0-1 0-1 0.7 0 2 3.1 2 5.1 2 4 0 11.1-0.7 11.1-1.7 0-0.7-0.6-1-2.3-1zm-11.2-78c-0.3 0 0-0.3-1-0.3l0.4 1zm165.7 182.9c0-0.3 0-0.6-0.7-0.6-0.7 0-1 0.6-1 1.3l0.3 0.4c0.4 0 0.7-0.4 1.4-1.1zm-27.7-143.7c0.3-0.7 0.7-1.4 0.7-2.1 0-0.7-0.4-1.3-0.4-2l-0.3-1c-0.3-0.7-0.3-1.7-0.3-2.4l-0.4 11.8c1-0.3 1-1 1-1.3 0-1-0.3-2-0.3-3zm85.7 135.6v-277.1h-49.2v32.4c-9.8 0-19.9-0.3-29.7-0.3 0 12.8 0.6 29-5.4 29-0.7 0-1.1 0.4-1.1 1 2.4 3.4 6.5-1.3 6.5 5.4-0.4 1-0.4 1.7-0.7 1.7-1 0-1-2.3-1.4-2.3-0.6 1.3-3 1.3-5.4 2-1.3 0-1.3-1-3-1-0.7 0-0.7 0.6-1.4 0.6 0 0-0.6-0.6-1-0.6-1.3 2-5 3.7-8.1 6.7l-37.4-74.6h-80v4.4c-22 0-17.2-1.3-20.3 14.2 0 1.7-0.7 3-1.7 4.4 0.4 0.3 1.7 0.3 3.1 0.3 4.7 0 10.4 0 10.4-0.7 0-0.6-2.3-2-2.3-4 0.6-2.4 5.4-0.4 5.4-3.1 0-0.3-0.4-1.6-1-2.7 0.6 0 1.3-0.3 2-0.6-0.4-0.4-0.7-1-0.7-1 0-0.4 0.3-0.7 1-0.7 1.7 0 2.7 3 4.1 4.4v1c-0.4 0.3-0.4 0.7-0.4 1 0 0 0 0.3 0.4 0.3v14.2c-4.8 0-5.4 6.8-5.4 13.8 0 12.5 0.6 20.6 0.6 31.8h21c0.3 0 0.6 1 0.6 2.7 0 2-0.3 3.4-0.3 4.4v4.7c0 1.7-1.7 1.7-3 1.7-0.7 0-1.4 0-1.7 0v0.3c0 0 0.3 0.4 0.7 0.4h4v2.3c0 0.4-0.3 0.7-0.3 2 0 3.4 2.3 1.1 2.3 4.1-2.3 1.3-5.4 1.7-7.4 1.7-5.1 0-8.1-0.4-13.5-0.4-1 0-1.3 0.7-1.3 1.7 2 0 3 1 3 3.1 0 1.3-8.1 1.3-8.1 7.1 0.3 0.3 0.3 0.6 0.3 1.3 0 0.7-0.3 1-0.3 2.4 0 1.7 1.3 3.3 2 4.4 0.7-0.7 1-1.1 1.4-1.1 1 0 2.3 1.7 3 1.7 1 0 2-0.6 3.4-0.6 0.7 0 5.7 0.3 5.7 1.6 0 1.7-11.5 0.7-11.5 1.4 2.1 2 3.8 2.7 5.4 2.7h2.4c1.4 0 15.5 0.3 15.5 4 0 0.7-0.3 1.1-0.3 1.4-1.7 0-5.4-0.3-8.1-0.3-3.7 0-5.4 0.3-5.4 1v19.9c0 0.7-0.7 1-2 1-1 0-2.7-0.3-3.4-0.3-1.4 0-7.4 0.6-7.4 0.6 0.3 0.4 0.3 0.7 0.6 0.7 1.1 0 1.7-0.3 2.4-0.3 14.5 0 23.6 9.4 23.6 9.4 0 0.7-0.3 1.4-0.6 1.4-8.5 0-17.9-6.1-25.4-6.1-1.6 0-1.6 1.7-1.6 6.4 0 4.1 0.3 5.1 3 5.1 2 0 2.7-0.4 6.1-0.4 1.7 0 2.7 0.4 2.7 1.7-0.4 0.7-1.4 1.4-3.1 1.4-2 0-3.3-0.4-5-0.4-2.4 0-3.4 0.7-3.4 2.4 0 2.7 5.7 3.4 14.2 3.4 1.3 0 2-0.4 2-1v-4.4c0-1-0.3-1.4-1-1.4-0.4 0-1 0.4-1.4 0.4-0.6 0-0.6-0.4-0.6-1 0-1.4 2-1.4 3.7-1.4 2 0 3 0.3 3 1.7 0 0.7-0.7 1.3-0.7 3l1.7 1c0.4 0 0.7-0.3 0.7-0.3v-2c0-3.4 1.3-3.1 3.7-3.1l0.3 0.7c0 0.7-1.3 1.7-1.3 2.7 1 0 3 0 3 2 0 0.7-2.3 0.7-3 2.1l2.4 1c0.3 0 0.6 0.3 0.6 1 0 1.7-3 0.3-3 2.4 2.4 0 3.4 4.7 3.4 11.1 0 9.4-0.7 20.9-0.7 20.6-1 0-1.4-0.4-1.4-0.7 0-0.3 0.4-1 0.4-1.3 0-0.4-0.4-0.4-0.7-0.4-2.4 0-2.7 3.1-4.4 3.1-1 0-2.3-1.7-3.4-1.7-1.3 0-1 2-2 2-1 0-2.7-1.4-3-1.4-2 0-3.1 1.4-4.1 1.4-1 0-2.7-1-3.7-1-1.7 0-2.3 1.7-3.4 1.7-0.6 0-1-0.4-1.3-0.4 0 2.4-0.3 5.1-0.3 7.1 0 2.1 0.3 5.8 1.3 5.8 0.3-0.4 1.4-1.7 1.4-2.4-0.7 0-1.1-0.3-1.1-0.3v-0.7c0-0.3 0.7-1 2.1-1-0.7-0.4-1-0.7-1-0.7 0-0.7 0.3-1 1-1 2 0 1.7 1.7 1.7 3 0.6-0.3 1.3-1 1.6-1l1.7 1.7-1.3 2.4c0 0.3 0.3 0.3 0.7 0.3l0.3 0.3c0.7 0 0.7-0.3 2.4-0.3 0.6 0 1 0.3 1 1.4 0 1.6-2.4 1.3-2.4 4 0 0.3 0.3 0.3 0.3 0.7 3.8 0 7.8-1.4 12.5-2 2.4 0-1 2.3 4.1 2.3 0.7 0 1.3 0 1.3 0.4v27.6c0 0.7-6.4 4.4-6.7 4.8-0.7 0-2-0.4-3.7-1.1-0.4 0.4-0.4 0.4-0.4 0.7 0 1 0 1.4 0.4 1.4h0.6c0.7 0 1.7 0.3 2.7 2.3 0.4-0.3 0.7-0.3 1.1-0.3l1.3 1c0-0.7-1.7-2-1.7-3 0-0.4 0.7-0.4 2-0.4 3.1 0 10.8 1 13.5 2.4v6.7h4.1v4.8c3.7 0 6.4 0.3 8.8 0.3 3.3 0 5-1.3 5.7-5.1h31.1v-94.5c8.4 19.9 18.9 43.6 25.6 57.8 0.4-0.4 0.7-1.1 0.7-2.1 0-4.4-0.3-6.7-0.3-11.1v-70.6l21.2 42.2v82.4c0 0.3 0.7 0.7 1.7 0.7h6.1c2 0 3-2.4 3-7.5 0-0.6-1-3.3-1-5.4 0-6 0.3-12.4 0.3-18.5 0-4.7-0.3-8.5-0.3-14.9 0-8.4 1-14.5 1.4-14.1 0.3 0 0.3 0 0.3 0.3l2.4 4.4c0 8.1-0.4 18.2-0.4 27 0 4.7 0.4 9.4 0.4 14.2 0 2-1.1 4-1.1 6 0 0.4 0.4 0.4 0.7 0.4 3.4 0 3.7-3.4 7.1-3.4 0.7 0 1 0.3 1 1.3 0 6.5-1.7 7.1-7.7 7.1-1.1-0.3-1.4-0.3-2.1-0.3 0.4 0.3 1 0.7 2.1 0.7l0.3 3c0 0.7 0.3 1 0.7 1 0.7 0 1-1 1.7-1 4 0 5 1.4 5 3.7 0 1-0.3 4.1-1.3 4.1-1.4-1.4-2.4-2.4-3.7-4.4-0.4 0-0.7 0.3-0.7 0.7 0 9.7 6.1 10.8 11.1 10.8 3.7 0 7.8-1.1 10.8-1.1 3.7 0 6.1 0.4 8.5 0.4 7.7 0 9.1-1 9.1-13.5 0-5.4-0.7-5.1-8.1-5.1-3.7 0-4.7 2.4-6.8 2.4h-11.8c0-1 10.1-4.7 14.9-8.1v5zm-22-264.6c1 1.7 2.1 2 3.4 2 1.7 0 3.4-1 5.1-1 1.3 0 2.7 0.7 3.7 2.7-1 2-2 3.4-2 5.4 0 0.4 0.3 1 0.3 1.4l0.7 0.6c-1.7 1.4-2.1 3.1-2.1 4.4 0 1 0.4 2.4 0.4 3.7 0 1.7-2 3.1-2 5.1 0 2 1.6 4.1 1.6 6.1 0 0.7-0.3 1.7-1.6 2.3 1.3 0.7 1.6 1.1 1.6 1.7 0 1.4-2 2.7-2 4.1 0 0.7 0.4 1 1.4 1.7-1.4 2-1.7 4.4-1.7 6.7 0 4.1 1.3 8.1 3.7 11.2 0 2.3-1.4 3-3.4 3-2.3 0-5.4-0.3-7.1-0.3v-9.5c1 0 1.4-0.3 2.1-0.7-0.7-0.6-1.1-1-2.1-1v-2.7c1.4 0 2.4 1.7 3.4 1.7 0.3 0 0.7 0 1.4-1-3.1-1.7 0-5.4-4.8-5.4v-3c1 0 1.4-0.4 2.1-0.7-1.1-2.7-2.1-2-2.1-5.8 1 0 1.4-0.3 2.1-1-0.7-1.3-2.1 0.4-2.1-1.7v-3.7c1 0 2.4 0 3.1-1 0-1-0.7-1.3-1-2h-2.1v-16.5c1.4 0 2.1-1.1 2.1-2.1 0-1.7-2.4-1.3-2.4-3.3 0-0.4 0-0.7 0.3-1.4zm-195.4 106.7c-0.7 0-1.4-0.4-1.4-0.7 0-0.3 0.4-0.7 0.4-1 0.6 0.7 1.3 0 1.3 1.3zm11.2 4.4h-2.7c0-2 2-1.7 3.3-1.7 0.7 0 1 0.4 1 0.7 0 0.7-0.6 1-1.6 1zm2.7 0c0-0.7-0.4 0-0.4-0.7 0-0.3 0.4-0.3 0.4-1 1 0.4 1.3 0.7 1.3 1zm-5.4 109.4c-0.7-0.3-1-0.7-1-1l0.3-0.7c1 1 1 1 1 1.4 0 0.3 0 0.3-0.3 0.3zm17.2 31.1h-1.7c0.4-1.4-0.3-3.1 0.7-4.4 1 1 1.7 1.7 1.7 2.7 0 0.3-0.3 1-0.7 1.7zm26 2.3c-0.7-2-3-1-3-3 1 0.3 1.7 1.3 2.3 1.3 0.4 0 1.1 0 1.4-0.6zm0.7-22c-1 0.4-2.4-0.3-2.7 0.7 1.3 2.4 1 1 1 1.7-0.4 0-0.4-0.7-0.4-1l-0.6-0.7c-0.7-0.3-1.4-1-2.1-1-0.3 0-0.6 0.3-1 0.3l-0.6 0.7c-0.4-0.3-1.1-0.7-1.7-0.7l-0.7 0.7c0.7 0.7 0.7 1 0.7 1.7 0-0.3-0.7-1-1.4-1l-0.7 1 0.7 0.7c-0.7 0-1 0-1.3 0-0.4 0-0.7 0-0.7 0.6l-3-3c-0.4 0.3-0.7 1-0.7 1.7l0.7 0.7c-0.7 0-1.1-0.4-1.4-0.7-0.7 0.7-0.7 0.7-0.7 1.3l2.1 2.1-0.7 0.6-0.7-0.6c-0.3 0.3-0.7 1-0.7 1.7l0.7 0.6-1.7 1.4c1.7 1.3 2.7 4 5.1 4 0.3 0 0.7 0 1-0.3-1.4 3-4.4 1.7-4.4 5.1l-2.4-2.1c0.7 0 2.4 0 2.4-1.3 0-0.7-1.7-1.7-2-1.7-0.7 0-1 1-1.7 1.3-0.7-1.3-2.7-4-4.7-4-0.7 0-1.4 0.3-2.1 1.3 0 0.7 0 1.7 0.7 2.1l-2.7-1.4c1.4 0 2.7-3 4.4-3 0.3 0 0.7 0.3 1.4 0.7 0.6-0.4 1-0.7 1-1.4-1-0.7-1.7-2.4-3.1-2.4-0.3 1.1-0.7 1.1-0.7 1.7-0.3-0.3-0.6-0.6-1-0.6-1 0-1.3 1-1.3 1.3l1 0.7h-1.7c0.3-4.7-0.3-10.1 0.7-14.5l-0.7-0.7 2-2c-0.3-1-1.3-1-2-1 0.3-0.7 0.7-1.4 0.7-2.1 0-1.7-0.7-3.3-0.7-5 0-0.7 0-1.7 0.7-2.4l1 0.7c-0.7 0.3-1 1-1 1.7l1 0.6c0-0.6 0.7-0.6 1.3-0.6l1.4 1.3c-0.7 0-1 0-1.4-0.7-0.3 0.4-1 0.7-1 1.4 0.4 1.3 0.7 1.7 1.4 1.7 0.7 0 1.7-0.7 2.7-0.7 0.3 0 1 0.3 1.3 1.4 0.4-1.4 3.1-2.1 3.1-3.1 0-0.3-0.4-0.7-1-1.3h-0.7c1.3-0.4 2-3.1 3.4-3.1 0.6 0 1 0.4 1.7 0.7 0-0.7 0.6-0.7 1-0.7 1.3 0 2 0.7 2 1.4l-1.7 1.7 2.4 2c0.3-0.3 0.6-0.7 1.3-0.7l1.4 1.4c0 0 0.3 0.3 0.3 0.3-0.3 0-1-1-1.7-1-0.7 0-0.7 0.3-0.7 1 0 2 1.7 2.7 2.4 2.7 2 0 5.4-1.3 5.4-2.7 0-0.3 0-0.7-0.3-1l-2.4-2 5.1 4.4 1.7-1.7 1.3 1.7-3 2 1.7 2.3c-1.4-1.3-2.7-2.3-4.4-2.3l-1 0.7-0.7-0.7c-0.4 0.3-0.7 0.7-0.7 1.7l0.7 0.6c-0.4 0.4-0.7 0.7-0.7 1.4l0.7 0.7 0.7-0.7c1.3 1 3.7 2 3.7 3.4 0 0.6 0 1-0.7 1.7zm-24-95.2c2.1 1 3.7 2.7 5.8 2.7l2.3-2.1c-0.3 2.7-2.3 4.8-3.7 7.1-0.7-1.7-1.7-2-2.3-2-0.7 0-1.7 0.3-2.4 0.3-1 0-1.7-0.6-2.4-2.7l-1.7 1.1v-3.1c0.4 0 1 0.4 1.7 0.4 0.4 0 1-0.4 1.4-1.1 0.3 0.4 0.6 0.7 1.3 0.7l0.7-0.7zm8.8-62.7c3.7 0 5 2 7.1 3.3-1 1.4-1 3.1-2.4 3.1-1.7 0-2.7-2.1-4-2.1-2.4 0-3.1 4.8-4.4 6.5 2 0 6-0.4 6 1.6-0.6 1.1-1.6 1.4-2.3 1.4-0.7 0-1.4-0.3-2-0.3-1.1 0-2.1 0.3-2.4 1.6 0.3 0.7 0.7 1.4 0.7 2.1 0 1.7-1 3.3-2.4 4-0.7-1.3-1.3-3.4-1.3-5 0-1.7 0.3-3.1 1-4.4v-1.4c-1-1.7-1.4-3.4-1.4-5 0-3.1 1-6.1 1-9.5 0-1.7-0.3-3-1-4.7 0.7-1.4 2-1.7 3.4-1.7 3.4 0 4 2.4 4 3.7 0 1.4-0.6 3-0.6 4.7 0 0.7 0.3 1.4 1 2.1zm10.8 44.2l-0.7-0.7c0.3-0.3 0.7-0.7 0.7-1-0.7-0.4-0.7-0.7-1.4-0.7l-0.6 0.7-1.1-1.4c-0.3-0.3-0.3-0.3-0.6-0.3-0.7 0-1.7 2-2.4 2.7 0.3-0.7 1-1 1-1.4 0 0 0-0.3 0-0.3l-0.7-0.7c-0.3 0.7-0.6 1-1 1-0.3 0-1-0.3-2-0.3 0.3-1.3-0.3-3.4 0.7-4.4 3.7 0 10.1 5.8 10.1 6.4 0 0.4-1.3 2.4-2.7 2.4 0.7-0.3 0.7-1.4 0.7-2zm-8.8 29.3c-0.3 0.7-1 1.1-1.3 1.1-0.4 0-0.7 0-1.4-0.4 0-0.3 1-1 2-1 0.4 0 0.7 0 0.7 0.3zm-4.7-35.7c1 1.3 1.3 1.6 3 1.6v5.1zm4.7 52.3c0.4 0 0.4 0 0.7-0.3l1-1c0.4 0.3 0.7 0.7 0.7 1.7-0.3-0.7-0.7-1-1-1-0.3 0-0.7 0.3-0.7 0.3l-0.7 0.7c0 0 0-0.4 0-0.4 0 0-0.3 0.4-0.3 0.4-0.3 0-0.7-0.4-1-1 0.7 0 1 0.3 1.3 0.6zm8.1-65.8c-1.3 0-4.3 0-4.7 0.3l-1.7 1.7-1.3-8.1c0.3 0.4 1.3 0.7 1.7 1.4 0.6-0.4 1-0.4 2-0.4 2.4 0 5.7 1.7 8.4 1.7-0.3 2.4-3 2.4-4.4 3.4zm-15.8 31.7c-0.7-1-1-2.7-1-4.7 0-1.7 0.3-3.4 0.6-5.1 1.4 0 2.1 0.4 2.7 1.4 0 0.3-0.3 1-0.3 1.3 0 1.1 0.3 2.4 0.3 3.4 0 1.7-0.3 3.1-2.3 3.7zm0.7-27.6c1 1.3 1.3 3.7 1.3 5.7 0 2.4 0 5.1-2 5.1-0.7-1.7-1.4-3.8-1.4-6.1 0-1.7 0.7-3.4 2.1-4.7zm-1.1-5.1c0.7 0.3 2.1-0.3 2.1 1.3 0 1.1-1 1.4-1.7 2.1-0.7-0.4-1-1-1-1.7 0-0.7 0-1 0.6-1.7zm2.4 18.9c0 0.7 0 1 0 1.3 0 0.4 0 0.7-0.7 0.7h-1.3v-3c0.7 0.3 1.7 0 2 1zm-6.4 52c-0.3 0.3-1 0.7-1 1.3l1 0.7 1.3-1.3 1.4 1.3c0.7-0.3 1-0.7 1-1.3l-1-0.7c1.3 0 2.4 2 3.4 2 0.3 0 0.6 0 1-0.7-1.7-1.7-0.4-2.3-1.4-4.4 3.1 0 3.1 3.8 4.8 3.8 0.3 0 1-0.7 1.6-1.7l1.7 1.7c0.4 0 0.7-0.4 0.7-0.7 0-0.7-0.7-1.7-0.7-2.4 0.4 0.7 0.7 0.7 1.4 0.7l0.7-0.7 0.6 0.7c0 0-0.3 0-0.3 0-0.7 0-1 1-1.7 1.7 2.7 4.4 9.1 2 10.8 7.1-0.7 0.3-0.7 0.6-0.7 1 0 1 2.4 1.7 2.4 3.4-1 0.3-1 1.3-1 2l0.3 0.3c0.4 0.4 0.7 0.7 1 1l1 1c0 0-0.3-0.3-1-1l-1-1c-0.3 0-0.7-0.3-1.3-0.3-1 0-1 0.7-1 0.7 0.3 0 0.6-1.7 2-2.7-0.4-0.4-0.4-0.7-0.7-0.7-0.7 0-1.3 0.7-2 0.7l1.3-1.4c-1-2.7-1.7-3.4-2.7-3.4-1.7 0-3.3 2.1-4.7 2.1-1 0-2-0.7-2.7-3.1-0.7 0.7-0.7 0.7-0.7 1.4-1-1-2.3-2.1-3.3-2.1-0.7 0-1.4 0.4-1.7 0.7l1.3-1.7c-0.3-0.3-0.3-0.6-0.7-0.6-0.6 0-1.3 0.6-2.3 0.6l-2.7-2.7-1.7 1.4-1.4-1.4c-0.6 0.4-0.6 0.4-0.6 0.7 0 0.7 0.6 1.4 0.6 2-0.3-0.6-1.3-0.6-2.3-0.6l-0.4 0.6c0-0.6 0-1.7-1-2l-0.7 0.7v-3.7c1.1 0 1.4 1 3.1 1zm30.4 23.9l-0.7-1c0 0 0 0 0.3 0 0.7 0 0.4 1 2.1 1.7-0.7 1-1.4 1.4-2.4 1.4-1 0-2.7-1.4-2.7-3.4 0-0.3 0.3-0.7 0.7-1h0.6c-0.6 0.7-0.6 0.7-0.6 1.3l2 2.4c0.3-0.3 0.7-0.7 0.7-1.4zm3 9.2c0.3 0 0.7 0 1 0 0.7 0 1 0 1.4-0.7l-1.7-1.4c0.7 0 1.3 1 2.3 1 0 0 0.4 0 0.7-0.3l1.4-1.3 0.6 0.6-2 1.4 1.4 1.7 0.6-1 0.7 3c-1-1.7-2-2-3-2-1.7 0-3.4 2.7-5.8 3.7 0-1 1.1-1.7 1.1-3l0.6 0.6c0.7-0.3 0.7-1.3 0.7-2.3zm8.8 7.4v0.7l-2.4-2.1c1.4 0 1.7 0.7 2.4 1.4zm-3.7 0c-0.7-0.7-1-0.7-1.4-0.7-1 0-2 0.7-2.7 0.7-0.3 0-0.7-0.3-1-1.4 0.3 0.4 0.7 0.7 1 0.7 1 0 2-0.7 2.7-0.7 0.7 0 1.4 0.4 1.4 1.4zm-7.5 3c-0.3-0.6-1-0.6-2-0.6l-0.7 0.6c0 0 0-0.3 0-0.3 0-0.7 0.7-1.4 0.7-2-0.3 0-1 0-1.3 0l-0.7 0.6-1.7-1.3c0 0.3-0.3 0.7-0.7 0.7l-0.6 0.6-0.7-0.6c0.3 0 0.7 0.3 1 0.3 0 0 0.3-0.3 0.3-0.3l0.7-0.7c1 0.3 1.7 0.7 2.4 0.7l0.6-0.7c0.4 0.3 0.7 0.3 0.7 0.7 1 0 1.7-0.4 3.1-0.7l-1.7 1.3c0.3 1.1 0.6 1.1 0.6 1.7zm-1.3 4.4c-0.3-0.7-0.7-0.7-0.7-0.7-0.7 0-1.3 0.7-2 0.7 0-1 1-1.3 2-1.7 0.4 0.4 0.7 1 0.7 1.7zm-10.8-13.8c0.3-0.4 0.7-1 0.7-1.7-0.4-0.4-0.4-0.7-0.7-0.7-0.7 0-1.7 1-1.7 1 0 0 0-0.3 0-0.3l1.7-1.4-1-0.6 3 2c-0.7 0.7-1 1.7-1.7 1.7 0 0-0.3 0-0.3 0zm0.7 15.2v0.6c-1 0-2.4-1-2.4-2 1.4 0 1.7 0.7 2.4 1.4zm-0.7-31.4c0.3-0.7 1.3-0.7 2-0.7 0.4 0 0.7 0.3 0.7 0.3 0 0.4-1.7 0.4-2.7 0.4zm2.4-5.8c-0.7 0-1.4 1-2.1 1 0 0-0.3-0.3-0.3-0.3 0.7 0 1.3 0 1.3-1 0-0.3-0.3-0.7-0.6-1-0.4 0.7-0.7 0.7-1 0.7-1.1 0-1.7-0.7-2.4-0.7-0.3 0-0.7 0.3-1 0.7l1.3 1.3c-0.3 0.7-1.3 1-1.3 2 0 0 0 0.4 0 0.4l0.7 0.6c-0.4 0.4-0.7 0.7-0.7 1.4l0.7 0.7c-0.7 0-1.7 0-2.1 1-0.3-0.7-1-1-1.7-1 0-0.7 0.7-1.4 0.7-2.1 0 0 0-0.3-0.7-0.6-0.3 0.3-1 0.3-1.3 0.3-0.7 0-1.7-0.3-2-1.3 0.6-0.4 0.6-1.4 0.6-2.1l-0.6-0.6c0.3-1.1 1-1.4 1.3-1.4 1.4 0 2.7 2 4.1 2 0.6 0 1.7-1.3 1.7-2 0.3 0.7 0.6 0.7 1.3 0.7 0.7 0 1.7-0.4 2.4-0.7l1.7 2c0 0.4 0.3 0.4 0.3 0.7zm-6.8 32.1l-0.6-0.7c0.3-0.3 0.6-0.7 0.6-1.7 0.7 0 1.1 0.7 1.4 1v0.7l-0.7-0.7c-0.7 0.7-0.7 0.7-0.7 1.4zm-4.3-1.4l-1.4-1c0.7-0.3 1-1.3 1.7-1.3 0.7 0 1 0.3 1 0.3 0 0.3-1.7 0-1.7 1 0 0.4 0 0.7 0.4 1zm-11.2-13.1c0.7-0.7 1-1.1 1.4-1.1 0.6 0 0.6 2.1 1.3 2.1 0.4 0 0.4-0.4 1-1l1.7 1.3c-0.3 1-0.7 1.4-1.3 1.4-0.7 0-1.4-0.7-2.1-0.7-0.3 0-0.6 0.3-1 0.7 0-0.7 0-0.7 0.7-1.4zm-1.3-16.9h1l2.7 3.1zm3 5c2 0.4 3 3.7 4.7 3.7 0.7 0 1-0.3 1.7-0.6-0.7-0.4-0.7-0.7-1.3-0.7l0.6-0.7c0-0.3 0-1 0.4-1.3-0.4 0-0.7-0.4-1-0.4v-0.6c0.6 0 1 0.3 1.3 0.6 0 0.4-0.3 0.4-0.3 0.4 0.3 0.3 0.3 0.3 0.3 0.6l-0.7 0.7c0 1 0.7 1.4 0.7 2 0 0.7-0.3 1.7-1.7 1.7-2.7 0-1.7-4-4.7-5.4zm3-12.1c0.4 0.3 0.7 0.7 0.7 1.3-1 0-1.3-0.6-1.3-1 0-0.7 0.3-1.3 1.3-2 1.7 0.3 2.7 2.4 4.4 3.7-1.7 0-2.7-2.7-4-2.7-0.4 0-0.7 0.3-1.1 0.7zm5.1 27.3c0.7 0 1.7 0 2 1-0.3 0.4-1.3 1.4-2 1.4-0.3 0-0.7 0-1-0.7 0-0.7 0.7-1 1-1.7zm2-4l-0.6-1 0.6-0.7c0 0.7 0 1.3 0 1.7l0.7 0.7c-0.3 0-0.3-0.4-0.7-0.7zm14.5 1.3v1.4c-0.6-0.7-1-1-1.3-1-0.3 0-1 0.3-2.4 0.3 0.7-0.7 1.4-1.3 2.1-1.3 0.6 0 1 0.3 1.6 0.6zm1.7 2.4c0 0 0 0 0-0.3 0 0.6 0.4 1 0.7 1 0.7 0 1.4-1 2-1 0 1-0.6 1.6-0.6 2.3 0 0.4 0 0.7 0.6 0.7-0.6 0-1 0-1.3-0.7l-1.4 1.4c0-0.7 0.4-1 0.4-1.7 0-0.7 0-1-0.4-1.7zm1.4 37.5l-1.4-1.4h2.7zm5.1 1.7c-1 0-2.4-1-2.4-2.4 1 0.7 1.4 1.7 2.1 1.7 0 0 0.3 0 0.3 0zm9.4 16.6c-2.3-2.4-3.7-6.1-7-8.8l1.3-1.7c3 3 5.7 6.7 5.7 10.5zm3.8-22.3c-0.7 0-1.7 0.3-1.7 1 0 0.7 1 1 1.7 1.7-1.1 1-3.1 1-3.1 3.4 0 0.3 0 1 0.7 1-0.7 0-1 0-1.4-0.7l-1.3 1.3 0.7 1.1-1.4-1.7 1.4-1.4-2.4-2.3c-0.7 0.3-0.7 1.6-0.7 2.3l-3-3c1 0 1.7 0.7 2.4 0.7 0.3 0 0.3 0 0.6-0.7l-3-3.7c1 0 1.3 0.6 1.7 1 0.3-0.4 0.7-0.7 0.7-1.7 0.6 1 1 1.7 2.3 1.7l0.7-1-3.7-3.4c-1 0.7-1.7 2-3.1 2l5.1-4.4c-0.3 0.4-0.7 0.7-0.7 1.7 0 0.4 0.4 0.7 0.7 0.7 0.3 0 2.4-1.4 2.4-2 0-0.7-1-1-1.4-1.7l1.4-1.4c-0.4-1.7-1-2-2.1-2-0.6 0-1.6 0.3-2.3 0.3-1 0-1.4-0.6-2.4-2-0.7 0.4-0.7 0.7-0.7 1 0 0.7 1.4 1.4 1.4 2.7-1.4-3.7-5.7-2-6.4-6l3.7 3 1.3-1.4c0.7 0 1.4 1.7 1.7 1.7 0.4 0 0.4-0.3 0.7-0.3l2-2.4c-0.6-1.7-3-2-4.4-2l1.4-1.3c3 0.3 3.7 5 5.7 5 0.7 0 1-0.3 1.7-0.7-0.7-0.3-0.7-1-0.7-1.6l3.1 3c-0.7 0.3-1.7 2.4-2.4 3 2 2.1 3.1 5.4 3.1 9.5zm0.6-238c-1.7-0.7-3.3-1-5.4-1-1.3 0-3 0.3-4.7 0.3-1.3 0-3.4-0.6-4.7-0.6-3.4 0-8.5 1.6-13.2 1.6-0.7-0.3-1.3-0.6-2-0.6-0.7 0-1.4 0.3-2.4 0.3-2.7 0-4-1.7-6.7-1.7-1.4 0-2.4 1-3.4 1-0.7 0-1.3-0.3-2-0.3-0.4 0-0.7 0-1 0.3-1.4-0.6-2.7-1-4.1-1-1.7 0-3.4 0.4-4.7 1-0.7-0.6-1.7-1-3.1-1-0.6 0.7-1 1.4-1.6 1.4-0.4 0-1.7-1.4-2.7-1.7h-1.1c0.4 0 0.7 0 1.1 0l66.8 0.3c-0.3 0.7-0.7 1-1.4 1-0.6 0-1.3-0.6-2-0.6-0.7 0-1.3 0.3-1.7 1.3zm15.2 120.8v-0.3l1 2.7c-0.6-0.3-1-1-1-2.4zm78.7 106c-0.7 0-2.4 1.7-5.1 1.7-0.7 0-1.7 0-1.7-2 0-2.4 1-5.1 1.7-5.1 0.3 0 1 0.7 1.7 2.1 0-1.4 0-2.7-0.3-3.7 0-1.7 0.3-3.4 0.3-4.1-1.4-1.3-1-2.4-1-3.7l1.3-0.7c1.4 0 1.7 0.4 2.4 0.4l0.7-0.7zm-7.8-24.3c-1.3 0-2-0.4-2-1 0-1.1 0.3-1.4 0.7-1.4 1.3 0 1.3 1 2 1.4-0.7 0.6-0.7 1-0.7 1zm1.7 7.7c0 0.7 0 1-0.3 1-0.4 0-0.7 0-1.4-0.3 0.3-0.3 0.7-1 0.7-1.3 0.3 0 0.7 0.3 1 0.6zm-7.1-15.8c-1.7-3.1-2.7-6.1-2.7-9.1 4.7 1.3 7.1 9.7 7.8 13.8-1.7 0-3.4-1.7-5.1-4.7zm0.7 33.4c1.7-1 2.3-1.7 2.3-2 0.4 0 0.7 0 1.1 0.3-0.7 2-2.7 6.1-5.1 6.1-0.7 0-1 0-1-0.4 0-1 1-2.3 2.7-4zm2.7-3.4c0-1.3 0.3-2 1-2 0.3 0.3 0.7 0.3 0.7 0.3 0 1.7-0.4 2.4-1 2.4zm1-3.4c0-0.3 0.3-0.7 0.6-0.7l1.1 1.1c-0.7 0 0 0.3-0.7 0.3 0 0-0.4-0.3-1-0.7zm1-6.7c0.3-0.4 0.7-1.4 0.7-1.7 0.3 0.3 0.6 0.6 0.6 0.6l0.4-0.3c0 0 0 0.3 0 1.4zm7.7-11.9c-1 0-2 0.4-3.3 0.4-0.7 0-3.1-0.4-3.1-1 0-1.7 0.7-2.7 2-3.1 1.1 0.7 0.7 2.1 2.1 2.1 0.6-0.7 1.3-1.4 2.3-1.4zm0-6.1c-0.6 0-2 0.7-2.7 0.7-1 0-1.7-0.7-1.7-1.3 0-1.7 1.1-2.4 2.4-2.4 0.7 0 1.4 1 2 1.3zm0-12.1c-4.4 0-2.7 3.4-6 3.4-1.1 0-0.7-1-2.1-1 0 0.6-0.3 1.3-1 2-0.3 0-0.7-0.4-0.7-1 0-3.7 4.1-6.8 8.8-8.1 0.4 0 0.7 0.3 1 0.3zm0-5.4c-5.7-1-12.1-1.7-15.8-1.7 1-2-0.4-3.4 4.4-3.4 4.3 0 6.7 1.1 11.4 1.1zm0-37.5c-0.3 0.3-0.6 0.3-1 0.3-5.4 0-8.8-3-13.1-5.4 0-1 10.1-1.7 14.1-1.7zm0-9.1c-1.3 0.4-2 0.4-2.7 0.4-2.7 0-12.8 0-12.8-1.7v-11.8c0-1.1 2.4-1.1 4.7-1.1 5.4 0 6.1 0.4 8.5 1.4 1.3-0.7 1.7-1 2.3-1zm-14.1-86.8c0-0.3-0.7-1.7-0.7-2.3 7.1-3.4 7.7-3.7 14.8-6.1v18.6l-2.3 1h-10.2c0 0-0.3-0.4-0.6-0.7 0-0.7 8.4-5.1 13.1-8.1-2.7 0-11.4 5.4-13.5 5.4-1 0-1.7-0.3-2.3-0.7 1-2.3-0.7-5.4 1.7-7.1zm-0.4 14.2c2.4 0 2.4-1 3.4-1 0.7 0 0.7 0 0.7 0.3 0 0.7-0.7 1.4-0.7 2.1 0 1 0.7 1.6 1.3 1.6 0.7 0 1.1 0 1.1-0.3 0-0.7-1.1-1.3-1.1-2 0.4-0.7 4.4-1.7 5.4-1.7 0.4 0 1.1 0.3 2.1 0.7 0.3-1 0.6-1 2.3-1v9.4c-4.4 2-7.7 2.7-11.4 2.7-2.4 0-4.1-0.3-4.1-6.1 0-1.7 0.7-2.7 1.4-2.7 0.6 0 0.6 0 0.6 0.4l-0.3 0.3c0 0.3 0.3 0.3 0.7 0.7l0.6-0.7c0-0.7-2-1.3-3.3-2 0-0.4 0.3-0.7 1.3-0.7zm0.4 32.1c4.7 0 12.4 0 12.4 1.7 0 0.6-1 1.3-2.3 1.3-0.4 0-0.7-0.3-1-0.3-4.1 0-4.4 0.3-7.8 0.3-1.3 0-2.4-0.7-3-1.7 0-0.7 0.6-1 1.7-1.3zm-1.7 9.4c0-3.3 1-3.7 3.3-3.7 0.7 0 1.4 0 1.4 0.7 2 0 2.7-1.4 5.7-1.4h5.4v14.9c-1.7 0-3.7-1.4-5.7-1.4h-6.4c-3.1 0-3.7 0-3.7-2 0-2 0.3-3.7 0.3-5.4-0.3-0.7-0.3-1-0.3-1.7zm0 43.6c0-3.1 0.3-4.4 0.6-4.4 4.1 0 8.1 4 15.2 5v2.4c-5.7 0 4.1 5.1-15.5 5.1-0.3 0-0.7-0.4-0.7-1 0-2.1 0-4.4 0.4-7.1zm1.3 14.5c6.4 0 10.8 3.4 14.2 8.4 0-0.3 0.3-0.3 0.3-0.3v5.4c-4.4 0-6.7 0.3-9.8 0.3-3.7 0-6.4 0-6.4-6.7 0-3.1 0.7-5.4 1.7-7.1zm-15.2-65.2c0 3.4-1.7 4.8-4.4 4.8l-2.3-5.1c2 0.3 4.4 0.3 6.7 0.3zm-28 59.1c0-0.7 1-0.7 1.4-1.3 1 0 1.3 1.3 1.3 1.6 0 0.4 0 0.4-0.3 0.7-0.7-0.3-1.7-0.3-2.4-1zm3.4 9.8c-1-0.7-1.4-2-1.4-3.4 0-2.7 0.4-2.7 2.1-2.7 0 0.4-0.4 0.4-0.4 0.7 0 0.7 2.1 2 2.1 3 0 0.4-0.4 1-0.4 1.4 0 0.3 0.4 0.7 0.4 0.7-0.4 0.3-0.4 0.6-1.1 0.6-0.3 0-1-0.3-1.3-0.3zm3.4 5.4c-0.4-0.3-0.7 0.3-0.7-0.7 0-0.3 0.3-0.3 0.3-0.3 0.4 0 0.7 0.3 0.7 0.7 0 0.3 0 0.3-0.3 0.3zm0.3-13.2c0-0.6 0.7-0.6 1-1 0.4 0 1 0 1 0.4 0 1-0.3 1-0.6 1-0.7 0-1.1 0-1.4-0.4zm3.7 10.8c-1.3-0.6-2.7-1.3-3-3 1.3 0 3.7 0.7 4.7 2.4-0.7 0.3-1 1-1.3 1 0 0-0.4 0-0.4-0.4zm1-6c0-0.4-1.7-0.7-1.7-0.7 0-0.4 0.4-0.4 1.1-0.4 0 0 0.3 0.4 0.3 0.4 0.7 0 1.3-0.7 2-0.7 0.4 0 0.7 0.3 1 0.7l0.4 0.3c0 0 0 0.4 0 0.4 0 0.3-1.4 1.3-1.4 1.3-1 0-1.3-0.7-1.7-1.3zm0-26.7v1.7c-0.3-0.4-0.3-0.7-0.3-1 0 0 0-0.4 0.3-0.7zm0.7 12.8c0-0.3-0.7-0.7-0.7-1 0 0 0-0.3 0.4-0.3 0.6 0.3 1.7-0.4 2 0.6-0.3 0.7-0.7 1.1-1 1.1-0.4 0-0.4-0.4-0.7-0.4zm2 10.1c0 0.4-0.6 0.7-1 1.1-0.7 0-1-0.7-1.3-0.7 0-0.4 0.3-0.7 0.6-0.7 0.4 0 1.1 0.3 1.7 0.3zm0 8.1l0.4 0.4c-0.4 0 0 0.3-0.4 0.3h-0.3zm-1-0.7l-0.7-0.3c0.3-0.3 0.7-0.7 1-0.7 0.4 0 0.7 0 0.7 0.4zm0.3 10.4c-0.3-0.3-1-1-1-1.3 0-0.4 0-0.4 0.4-0.7 1 0.3 2.3 0.3 3 1.4-0.7 0.3-1 1-1.7 1-0.3 0-0.3 0-0.7-0.4zm1.7-13.1c0.4-0.4 0.7-1 1.7-1 0.7 0.6 1.4 0.6 1.7 1.6 0 0.7-0.7 1.7-1.7 1.7-1 0-1-1.7-1.7-2.3zm0.4-15.6v-3.7l0.3 3.7zm1.7 25.4c0 0 0-0.4 0-0.4 0-1 1-2 1.3-2 1.4 0 2.1 1.3 2.1 2.4 0 0.3-0.7 1.6-1.4 1.6-1 0-1-1.3-2-1.6zm3-17.3c0 0 0.4-0.3 0.7-0.3 0.3 0 0.3 0 0.7 0.3-0.4 0-0.7 0.4-1 0.4 0 0 0 0-0.4-0.4zm-1 24c-0.3 0-0.7-0.3-1.3-0.3 0-0.7 0.3-1.4 0.6-1.7 1 0 1.7 0.7 1.7 1.3 0 0.7-0.3 0.4-1 0.7zm-1.7 2.4c0.4-0.4 1-0.7 1.4-0.7 0.3 0 0.6 0.3 1 0.3 0 0.4-0.7 1.1-1 1.1-0.4 0-1.4 0-1.4-0.7zm2.7 8.4c-0.3 0-0.7 0.4-1 0.4-0.7 0-1-0.4-1-1.1 0.3-1 0.7-4.7 1.7-4.7 1 0 1.7 0.4 2 1.4-0.3 1.7-1 3-1.7 4zm3.1-7.7l-0.4-0.4c0.4 0 0.7 0 1 0-0.3 0.4-0.3 0.4-0.6 0.4zm2.3 2l-1.7-8.8c0 0.3 0 0.7-0.3 1-0.7-0.3-2 0.4-2-1 0-1 1-1 2-1 0.3 0 0.3 0.3 0.3 0.3v-0.3l3.7 4zm6.5-9.8c-2.1-2-5.4-4.3-5.4-7 0-0.7 0-1.7 0.6-2.4-1-3-5-4.7-5-7.8 0-0.6 0.3-1.7 1-2.7-2-4.4-5.4-6.4-5.8-7.1 0-0.3 0.7-0.3 1.1-0.3-0.7-1.3-1.1-2.4-1.1-3.4 0-0.6 0.4-1 0.4-1.7-0.7-0.6-1.4-1.6-2-2.3l-0.4-0.7c-0.3-1-1-2-1.3-3 0.3 0 0.6-0.4 1-0.7-0.4-2.4-2.4-4.7-2.4-7.1 0-0.7 0.4-1.7 0.7-2.4-0.7-2.3-3.4-4.7-3.4-7 0-0.7 0.4-1.1 0.7-1.7-1-2.7-4.4-5.8-4.4-8.8 0-1 5.4-8.1 9.8-9.1 2 2.3 3 3.7 3.4 6.7 2.7 6.4 9.1 9.1 11.4 15.2-0.6 0.7-1 1.4-1 2 0 2.1 2.4 4.1 2.4 6.5 0 0.6-0.3 1.6-1.4 2.7 0.4 0.6 1.1 1.6 1.1 2.7 0 0.3 0 0.6-0.4 1-0.3-0.4-0.7-0.7-1-0.7-1.3 0.7-1.3 2-1.3 3-1.1-0.6-1.7-0.6-2.1-0.6-2.3 0-2.3 4-4.7 4.3 1.7 1.4 3.4 2.4 5.1 4.1l-2.1 1.7c-1.6-0.7-1.6-2.7-2.7-3.7 0 0.6 0 1-1 1.7l-0.3-0.4-1 1c1.7 1.7 2 4.1 5.4 6.4l0.7-3.3c1.3 0.6 10.4 13.1 10.4 15.8 0 1-1 1.4-1 2.7 0 1.7 1 2.7 2 4.1-2 0.7-2.7 3-4.4 3-0.6 0-1 0-1.6-0.7zm-14.9-31.3l0.3-0.4v0.4zm12.9 3c0 0 0 0.3 0 0.3h-0.7c0-0.3 0.3-0.3 0.7-0.3zm15.2 130c0.3-0.7 1-1.1 2-1.1 2.3 0 5.4 0.7 7.4 0.7 1 0 0.7-1 1.7-1 3.4 0.7 8.8 1.4 8.8 2-2.4 4.4-12.9 11.2-20.3 11.2-3 0-4.7-1-4.7-2.7l0.7-1.4c-0.7-0.3-1.7-1.3-1.7-2 0-1.4 2-2.4 2-3.4 0-0.7-1-1.7-1-3 0-0.7 0.3-1.4 0.3-1.7 1.7 0.7 3.4 1.3 4.8 2.4zm9.4-10.5c-6.1 2.7-11.8 4.7-13.5 4.7-0.3 0-2 0-2-1.3 0-1.7 2-3.1 3-4.1-1.3-1-2-1.7-2-2.3 0-0.4 1-0.7 3-0.7 0-1-0.6-1.7-0.6-2.7 0-0.7 3-0.4 4.7-1.4 3-1 6.1-2 10.1-3.7v10.1zm-10.8 11.9v1.6l0.7-1zm-23-133.6h-0.3c0 0 0 0 0 0.3 0 0 0 0.3 0.3 0.3 0 0 0.4-0.3 0.4-0.3 0 0 0 0-0.4 0zm-93.1 93.5c0 1 1.7 1 2.3 2.4v-1.1c-1.7-0.3-1.3-1.3-2-1.3-0.3 0-0.3 0-0.3 0zm0.6-9.5c-0.3 1.1-0.6 1.4-1.3 1.4-1 0-2.4-1-3-2 0.6-0.4 1-0.7 1-1.4-0.7-0.3-1-0.7-1-1 0-1 1.3-1.3 1.6-2-0.6-0.7-1-1.4-2.3-1.4l1.7 1.4-3.1 3 4.4 4.4-0.7 0.7c-1.3 0-1.6-1-2.3-1.4 0 0.7 0.7 1.4 0.7 2.1 0 0.3 0 0.3-0.7 0.6-0.7-0.3-0.7-0.6-1.4-0.6l2.1 1.3c0.3-0.3 0.6-0.7 1-0.7 0.6 0 1.7 0.7 2 0.7 0.7 0 1-0.3 1.3-1.3l-1.3-1.4 3-3c-0.6 0-1 0-1.7 0.6zm5.8 3.1l1-0.7c0-0.7-0.3-1.3-1-1.7-0.7 0.4-2 0.7-2 1.7l1.3-0.7c0.3 0.7 0.7 0.7 0.7 1.4zm6.1 3.7c-0.7-0.3-1.1-0.7-1.4-0.7 0.3 0.4 0.7 0.7 1.4 0.7zm-3.8 0l-1.3-1.7-1.7 1.7c0.3-0.3 1-0.7 1.4-0.7 0.6 0 1.3 1.4 2 1.4 0.7 0 1-1 1.7-1.7-0.4 0-0.7-0.4-0.7-0.4-0.3 0-0.7 0.4-1.4 1.4zm92.2-79c0-1-2-2-2.7-2.7l-1.4 4.4c0.4 0 0.4 0.3 0.7 0.3 1.4 0 2.4-1.3 3.4-2zm-111.1 77.3c0 0.3 0 0.3 0 0.3 0 1.1 0.7 1.7 0.7 2.1 0.7-0.7 1.4-1.4 2.4-1.4 0.7 0 1.3 0 2 0.7-0.3-1.4-1-1.7-1.7-1.7-0.7 0-1.7 0.7-2.3 0.7-0.4 0-0.7-0.4-1.1-0.7zm0.7 2.4c-0.3 0.3-0.3 0.3-0.7 0.6 0.4-0.3 0.7-0.3 0.7-0.6zm4.4 8.4c0.3 1.4 0.7 1.7 0.7 1.7 0 0 0-1-0.7-1.7zm-0.7-3.4c0 0.7 0.7 1.4 0.7 2.1 0 0.3-0.3 0.6-0.7 0.6l-0.6-0.6v0.6c0.3 0 1 0.4 1.3 0.7 0.3-0.3 0.7-1 0.7-1.3 0-0.7-0.7-1.4-1.4-2.1zm36.5 0.7c-0.7 0.3-0.7 0.7-0.7 0.7 0 0.7 0.7 1.3 0.7 2 0.7-0.7 2.3 0 2.3-1 0-1.7-1.3-1.7-2.3-1.7zm-32.8-142.1c-0.3 0.3-1 1-1 2 0 1.7 1 2.4 2.7 2.7 0-2.3-0.3-3.4-1.7-4.7zm98.3 75.9v0.7c0.3 0 0.3-0.3 0.3-0.3 0 0-0.3-0.4-0.3-0.4zm-102.3-84.7c0 0.7-0.3 1-0.7 1.4 0.7 0 1.4-0.7 1.7-1.4-0.3 0-0.7 0-1 0zm-0.7 1.4c0-0.4-0.3-0.7-0.7-1 0 0.3 0 0.3-0.3 0.6l0.3 1.4c0.4-0.4 0.7-0.7 0.7-1zm-0.3-1.4c0.3 0 0.7 0 1 0 0-0.3-0.7-1-1.7-1.3v1c0 0.3 0.3 0.7 0.3 0.7 0 0 0.4-0.4 0.4-0.4zm-0.4 4.4v-2c-0.3 0.3-0.6 0.7-0.6 1 0 0.3 0.3 0.7 0.6 1zm18.3 139.1c0.3 0 0.3 0.3 0.3 0.3 0-0.3 0-0.3-0.3-0.3zm312.2 38.5l-0.3 0.3c0 0-0.4 0.3-0.4 0.3 0 0.7 0.4 0.7 0.7 0.7 0-1.3 0-1.3 0-1.3zm2.7-16.9c-1 0-1.3 0.7-1.3 2 0.6-0.3 1.3-1.3 2-1.7zm-7.4-11.5c0.3 0 0.6-0.3 0.6-0.6-0.6 0-0.6 0.3-0.6 0.6zm0.3-2c0 0 0 0 0 0l0.7-0.3c-0.4 0-0.7 0-0.7 0.3zm-41.9-128.2c0 0 0.4-0.4 1-1.1l-2-1c0 0.4-0.3 0.4-0.3 0.7 0.7 0.7 0.3 1.4 1.3 1.4zm4.1 11.8l0.3-0.4c-1-0.6-1.3-0.6-1.3-1 0-0.3 0.3-0.7 0.3-1.7l1-1c0-0.3-0.3-0.3-0.7-0.3-1 1-1.6 1.7-1.6 2 0 1 0.6 2 2 2.4zm79.6 33.4c-3.7-0.4-7.7-0.4-11.4-0.4v-15.8c1.7 0 5 1.7 7.7 2 0-0.3 0-0.7 0.4-0.7-1.7-2.3-2.1-2-3.1-2.7v-0.6c0.4-0.7 0.7-1.1 0.7-1.1 0-3-4-2.7-5.7-2.7v-3c0-27.3-22.3-49.3-49.3-49.3v27c-1.4 0-2.4 0.4-3.4 0.4-1.7 0-3.4-0.7-5-2.1 0.6-8.4 5.4-11.4 5.4-17.9 0-1 0-2.3-0.7-4h-5.8c-1 4-1.3 19.6-1.3 29.4 0 6.7 0.3 11.1 4 11.1h6.8v141.4h3.7v8.5c1.4 0.7 2.4 1 3.7 1h3.7c7.1 0 14.5-1.4 21-1.4 4.7 0 8.4 2.1 11.1 2.1 1.3 0 2.4-0.4 4.7-0.4 2.7 0 3.1 1.7 3.1 3.7v2.7h-1.1l-4.3-4.3-0.4 0.3c0 5.1 2 6.1 2.7 10.8h12.8v-2.4h-3c-1-1.3-2-3-2.7-5.7 0.7-0.7 1-1.7 1-2.7 0-0.3-0.3-1.4-0.7-3.4 0.7-0.7 1.1-2 2.4-3.4h3c0-0.6-0.3-1.3-1-2h-0.6c-1.4 0-2.1 1-3.1 1 0-0.3-0.7-1-1.3-1.7l2.3-4.3-2.3-2.1c2-1.3 3-1 3.7-2.3-0.4 0-0.7 0-1.4-0.7v-0.3c1.4-0.7 1.4-1.4 3.7-1.4v-23.3h-1c-0.6 0.7-1.3 1-2 1-0.7 0-1-0.3-1.3-1l4.3-3.7v-32.7c-2.7-3.4-8.4-5.8-9.7-9.8 2.3-0.7 3-1 4.7-3.4 3.4 0 2 1.3 5 2v-7.4c-2 0-7.4-0.3-11.1-0.3l-0.3-14.2c0.3 0 0.3 0 0.3 0 3.4-2.7 7.1-4.4 11.1-4.8zm-22.2 62.2c0.3 0.3 0.6 0.3 0.6 0.3 1.1 0 1.7-1.4 2.4-1.4 0.3 0 0.7 0.4 1 1.1-3 1.6-5.4 5-8.8 5-0.6 0-1-0.3-1.3-0.3 1.3-3.4 6.1-0.7 6.1-4.7zm-6.1-20.6c1.3 0 2 1.3 3 1.3 0.4 0 1-0.3 1.4-0.7 0 0-0.4 0.4-0.4 0.7 0 0.4 0.4 0.7 0.4 1l-0.4-0.6c0-0.4-0.3-0.4-0.6-0.4-1 0-2.1 0.4-2.7 0.4-0.7 0-0.7-0.4-0.7-1.7zm-4.4 14.8l4.4-0.3c-1 1-2 3-3.7 3-0.7-0.3-1-0.7-1-1 0-0.7 0.3-1 0.3-1.7zm-1.7 29c-0.7-0.6-1-1.6-1-2.7 0-0.3 0-0.3 0.3-0.3-0.3 0-0.6 0-0.6 0.3-0.7-1.3-2.1-2.3-2.1-4 0-0.3 0-0.7 0.4-1.4 1.7 0.7 3.4 2.1 3.7 4.1h-0.3c2 0 1-0.7 1.6-1.7 0 1.7-0.3 5.1-2 5.7zm0.7 3.1c0 0 0 0.3-0.3 0.3 0 0-0.4-0.3-0.7-1l0.3-1.7c0.7 0 1 0.4 1 1 0 0.4-0.3 1-0.3 1.4zm-3.7-18.2c-0.4 1-1 1.6-1.7 2 0 0 1.3 0.3 1.3-0.4 1.7 0 2.1 2.1 2.7 2.7-1 0-1.6 0-2.7-1.3-0.3 0-0.6 0.3-0.6 0.3-0.7 0-3.4-1-4.4-1.7 2 0 2.7-2.3 4-2.3 0.4 0 0.7 0.3 1.4 0.7zm-5.4 0.3l-1.4-1.7c0.7-0.3 2.4-1.3 3.7-1.3 0.7 0 1.4 0.3 1.4 1.3-2 0.3-2 1.7-3.4 1.7 0 0-0.3 0-0.3 0zm6.4 1.3c0.3 0 1 0 1.3 0 0.7 0 1.4 0 1.7 0.7l-0.6 4.1c-0.4-1.7-1.4-3.4-2.4-4.8zm2.4-25.6c1 0 0.3 1.7 0.6 2 0 0-0.3 0.4-0.3 0.4-0.7 0-0.7-0.7-0.7-2.1 0 0 0-0.3 0.4-0.3zm-1.4 14.8h-1.7c0-0.6-0.7-1.6-1-2 0 0 0.3 0 1 0 1 0 2.4 0 2.4 1 0 0.4-0.4 0.7-0.7 1zm-3.7-10.4l1-1.4c1.4 0.7 2.4 2.1 2.4 3.7l-3.1 2.7c-0.6-0.6-1.3-1.3-1.3-2.7 0-0.6 0.3-1.6 1-2.3zm-3.4 13.5c0.7-0.4 1-1 1-1.7 0-0.7-1-1.4-1-2 0-1 1.7-1.4 2-2.4 2.1 1.4 3.4 2.4 3.4 5.4-1 0.3-2.3 0.7-3.7 1 0 0 0.3 0.4 0.3 0.7-0.3 0.3-0.6 0.3-1 0.3-1.3 0-2-1.3-2.7-1.3-0.3 0-0.6 0.3-1 0.7 0.4 0.6 0.4 1.3 0.4 2 0 1-0.4 2.3-0.4 3.4 0 1 0.4 1.6 2.4 2 0 2-1.4 2-3.1 2.7-1.6-0.7-2-2-2-3.4 0-1.7 1-4 1-6.4l2.7-2c0.4 1 1 1 1.7 1zm-3-9.5c1 1 0.3 3.1 0.7 4.1l-2.1 0.3c0.7-1.3 1.4-2.7 1.4-4.4zm2.3-3c-2 0-2.7-0.3-3-1.7 0.3-1 0.3-1.7 1.4-2.4 1.3 1.4 1.6 2.4 1.6 4.1zm-5.7-7.8c1.4 0.7 4.4 0.4 4.4 1.7 0 2.4-1.7 3.1-3.4 3.4-0.3-1.7-1.3-5.7-1.3-5.7 0.3 0.3 0.3 0.3 0.3 0.6zm1.4 10.8h-1.1v-1h1.7c0 0.7-0.3 1-0.6 1zm-2.7 5.1h2.3c-0.3 0.7-0.3 1-0.7 1l2.4 1h-1.7l-1-1c0 0-0.3 0.3-0.3 0.3-0.4 0-0.7-0.3-1-0.6zm-1.1-8.1l-0.6 2.3-3.1-1.7c0.7-0.6 1.4-0.6 2.1-0.6 0.6 0 1 0 1.6 0zm-0.6 29.7l-0.7 1.3v-0.7c0-0.3 0.3-0.6 0.7-0.6zm4.7 4c-0.7-3.7 0.3-3-3-6.4l-0.4-0.7 3.1 1.7c0-2.3 2.7-4.7 3-5 2.4 0.3 3 1.6 3 3.3 0 0.7 0 1.4-0.6 1.4-0.7 0-1.1-0.4-1.7-0.4-0.7 1.7-1 2.7-1 3.4 0 0 0.3 0.4 0.3 0.4 0.3-0.7 0.3-1.4 0.7-2.1 0.6 0.4 1.3 0.7 1.7 1.4 0.6-1 1.3-2 1.3-3.4 0-0.3 0-1-0.3-1.7 0.3-0.3 0.6-0.3 0.6-1 0.4 1 0.4 2 0.4 3 0 1.4 0 2.4-1 3.4 0.3 0 0.3 0 0.3 0l2.4-1-2.1 2c0 0.4 0 1-0.6 1l-1 1.1c0 0.3-0.4 0.3-0.4 0.6 0 1 0.7 2.1 0.7 3.1 0 0.3 0 0.6-0.3 0.6 0-1.3-0.4-2.3-1.4-3.3l-7.4 7.4-5.4-5.4zm8.8 1c-0.7 0-0.7 0.3-1.1 0.3l-0.3-0.3 1.4-1.3zm-11.2 30.3c-0.3 0.4-0.7 0.4-1 0.4-0.7 0-1.3-0.7-1.7-1.4-0.3 0-0.3 0-0.3 0.4v-0.7c-0.7-0.3-1-1.4-1-2 0-2.1 2-4.8 3.3-4.8 0.4 0 0.7 0.4 1.1 0.4 0-0.7 0.3-0.7 0.3-1.4l0.3 1.4c1.4 1 2.1 2 2.1 3.4 0 2-1.1 3.7-3.1 4.3zm4.7-5c0 0 0 0 0.4 0 0.3 0 0.7-0.4 1.3-0.4 0 0 0.4 0 0.4 0.4 0 0.3-0.4 0.7-1 0.7-0.4 0-1.1 0-1.1-0.7zm4.4 0.3h-1.3c0-0.3-0.4-0.7-0.4-1l1.7-0.7zm3.7 3.7c-1-1-2-1-2.3-1.6l1.7-0.7c0.6 0.3 1.3 1.3 1.3 1.7 0 0.3 0 0.6-0.7 0.6zm5.1-2c-2 0-2.7-4.7-3.7-7.7 0-0.4 0.3-0.4 0.7-0.4 0.6 0 1 1 1 1 0-4-1-4.7-2.7-4.7-1.4 0-3.7 1-5.4 1-0.4-3.7-1.4-7.1-3.4-9.8 0.3 0 0.7-0.3 1-0.3 1 0 1.7 1.7 3.1 2-0.7 0.7-0.7 2.4-0.7 3.4 1 0.3 2.7 1.3 4 1.3 0.7 0 1 0 1.7-1-0.3 0.4-0.7 0.4-1 0.4 0 0-0.3 0-0.7-0.4 0-2 2.7-1 2.7-3.3 0-1.7-1.7-3.4-1.7-5.5 0-0.6 0-1.3 0.7-2 1.4 0.4 1.7 1.4 1.7 2.7 0 0.7 0 1.4 0 2 0 1.4 0.3 2.8 2.7 3.1-0.3 1.7-1 3.4-1 5.1 0 3.3 3.7 4 3.7 5.7 0 2.4-2.7 4.7-2.7 7.4zm3-21.6l1.1 5.8c-1.7 0-2.4 0.6-4.1 0.6 0-3.7 3.4-7.1 3.4-10.1 0-1-2.4-2.4-2.4-3.4 0-0.3 0.7-0.7 2-1 2.1 1 2.7 2.4 2.7 4.1 0 1.6-1 3.3-2.7 4zm18.3 14.5c0.6 0.7 0.6 2.7 0.6 4.8 0 5.7-2.7 5-5.7 5-1.3 0-3 0-4.7-1l-0.4-0.3c0-2.7 1.7-3.7 2.7-4.1h6.5v-3.4zm5-103.9c-2 1-3.7 2-6.1 2.7v-4.1c0.7 0 2.1 1 3.8 1.4l2-1 0.3 0.3zm-35.4 61.8c-0.4-0.4-1-0.4-1.7-0.4 0 0 0 0-0.3 0.4 0.6 0 1.3 0 2 0zm-33.4-110.7c-0.4 0-0.7 0-0.7-0.4l-0.4 1.4h0.7c0-0.4 0-0.7 0.4-1zm-5.4 1c0-0.4 0-0.7 0.3-1l-2-1.1v1.7c1 0 0 0.4 1.7 0.4zm-45.3-13.9c0-0.3 0.4-0.3 0.4-0.6 0-0.4-0.4-0.7-0.7-1.1 0 1.1 0 1.7 0.3 2.1 0-0.4 0-0.4 0-0.4zm115.1 79.7c0 0 0 0 0 0.3l0.4 0.4c0.6 0 0.6-0.4 2-0.4 0-0.3-0.3-0.6-0.3-1h-1.7c0 0.4-0.4 0.4-0.4 0.7zm-39.1 40.2c0 0 0 0 0.3 0l-0.7-0.4zm-67.8 55.7h0.7c0-0.7 0.3 0 0.3-0.7v-0.3c-0.3 0-0.7-0.3-1-0.7zm83-9.8c0 0.4-0.3 0.7-0.6 0.7 0.3 0.4 0.3 0.4 0.3 0.4 0.3-0.4 0.3-0.7 0.3-1.1zm31.8 11.9h-1.4c0 1 0.3 1.6 1 1.6 0.4-0.3 1.4-0.3 2.4-0.3v-1h-1c-0.4 0-0.7-0.3-1-0.3zm-44.3-38.5c1.1-1 2.7 0.3 2.7-2.1-0.3-1-1.3-1-2-1 0 1 0 2.4-0.7 3.1zm2.1 4c-0.4-0.3-0.4-0.7-0.4-1-0.3 0.7-0.6 1-1 1.7zm-29.7-119.8c-0.7 0-1.3-0.4-1.7-0.4v-8.1h-1c-0.7 2.7-1 5.1-1 7.1 0 2 0 5.4 2 6.8 0.7-3.7-0.3-3.1 3.4-4.8-0.3-0.6-0.7-0.6-1.7-0.6zm35.8 109c0-0.3 0 0.7 1-0.3-0.3-0.4-0.3-0.7-0.7-0.7-0.3 0.3 0 0.7-0.3 1zm-3.7 10.5c1 1-0.4 1 0.7 1l0.6-1c0-0.4 0-1.1-0.3-1.1h-0.3c-0.4 0.4-0.4 0.7-0.7 1.1zm7.7-2.4c-0.3 0.3-1 0.3-1 1 0 0 0.4 0 0.4 0zm-7.8 1.7c0-0.3-0.3-0.3-0.3-0.7-0.4 0.4-0.4 0.7-0.7 1zm-43.9-116.8c0-0.3 1-1.6 2-2.3l-0.3-0.7h-1c-0.4 0-0.7 0-0.7 0.3v-22.9c0 0 0 0 0-14.9h-38.5v25.4c-0.6 1-1 2-1 3v5.4l1-1v16.9h12.9v14.5h32.4l0.3-19.9c-2.7-0.7-5.1-0.7-7.1-0.7zm41.9 119.8c0 0.3 0.3 0.3 0.3 0.7l1.4-1c0-0.4 0-0.4 0-0.7-0.7 0.7-1.1 1-1.7 1zm-4.8 23c0 0-0.3 0-0.6 0 0.3 0 0.6 0 0.6 0zm-2 7.1v-1.1c-0.3 0.4-0.7 0.4-1 0.4-0.3 0-0.7 0-1-0.4v0.4c0.3 0.7 1 1 1.7 1 0 0 0.3-0.3 0.3-0.3zm7.8-32.8l-1.4 0.7c0 0.3 0.4 0.7 0.7 1 0-0.7 0.3-1 0.7-1.7zm-2.7 2.7c0.3 0.3 0.7 0.3 0.7 0.3 0.3 0 0.6 0 1-0.3 0 0-0.4 0-0.4 0zm0 0c-0.3 0-0.3-0.3-0.6-0.7 0.3-0.3 0.3-0.6 0.6-0.6l-1.7 0.6c0 0 0 0.4 0.4 0.7zm-2-6.1c0 0 0 0 0.3 0zm7.8-7.7c0 0 0 0 0 0.3 0.3-0.3 0.3-0.3 0.6-0.3-0.3 0-0.6 0-0.6 0zm-2.1 11.8c0 0 0 0 0 0.3 0-0.3 0-0.3 0-1.3-0.3 0.3-0.3 0.3-0.3 0.6 0 0 0 0.4 0.3 0.4zm-45.5-29.7c3 0 5.7 0 8.7-0.4 0-15.8-0.3-32-0.3-47.6h-6.8v-13.5h-21.6c-29 0-50.3 22-49.6 49.3l0.4 19.6c0.3 22.6 14.5 41.5 35.1 47.3v0.6l1 0.7c-0.4 1-0.4 1-1 1.7 0.3 0.3 1.7 0.7 2.3 0.7 0.4 0 0.7-0.7 0.7-1.4-1-0.3-1.7-1-1.7-2 1.4 1.4 1.7 1.7 3.7 1.7l0.7-0.7c0.3 0 0.3 0 0.7 0.4-0.4 0.3-0.4 0.3-0.4 0.3 0 0 0 0 0.4 0-1 0.3-1.7 1-2 2 2.3 1.7 1.3 1.4 2.7 2 0.6-1.3 0-4 2.3-4 2 0 2.4 0.7 2.4 1.7 0 2-0.7 2.7-1 2.7h-3.4v0.7c0.3 0.6 1 0.6 1.3 0.6h1.7v0.7c-0.3 0.3-2 0.7-2.7 0.7 4.8 1.7 3.7 4.7 6.1 4.7 0-1.3-0.3-0.7-0.3-1.3 0-0.7 0.3-1.4 1-1.7 0.3 0 0.3 0.3 0.7 0.3v2c0 3.7 1.3 7.5 5.4 7.5 1 0 1.6-0.4 1.6-1.1v-2.3c-2-0.4-3.3-1-4-1.7 0-0.7 0.3-4.1 1-4.7 3.7 0 7.8 0 11.8 0.3 4.1 0 8.1 0 11.8-0.7-0.3-7.7-0.3-15.8-0.3-23.6v-24.3h-6.8v-10.1h-10.4v-7.1zm-8.8 15.5c0 1.4-1 2-1.7 2-1 0-1.3-0.3-1.3-1.3l0.3-3.4c1.7 0 2 1.7 2.7 2.7zm-3-2.4h-0.4c0-0.3-0.3-0.6-0.3-1 0 0 0.3-0.3 0.3-0.3 0.4 0.3 0.7 0.7 0.7 1 0 0 0 0.3-0.3 0.3zm0.3 23.7c1.4 0 1.7 1.7 1.7 1.7 0 1.3-1 2.3-1.7 3.3-1-0.3-2-1.6-2-2.7 0-1 0.7-1.6 2-2.3zm-6.7-19.3c0.6 0 2.3 3.4 3.3 3.4 0.4 0 0.4 0 0.4-0.3 0 0.6-0.4 0.6-0.4 0.6-0.6 0-0.6 0-1-0.3 0 1.4-0.3 2.4-1.3 3-2.4 0-2.4-4-2.4-4.7 0-0.7 0.3-1.3 1.4-1.7zm-10.8 29.1c-1.4-0.7-2.1-1.4-2.1-2.4 0-1.7 2.7-4.7 4.1-4.7 1.3 0 2 2.3 2.7 3zm2.3-41.5c0.4-0.7 0.4-1 1.4-1l0.3 1.3c-0.3 0-0.6 0-1 0-0.3 0-0.7 0-0.7-0.3zm3.1-1c-0.4 0-0.4 0-0.4 0 0.7 0 1.1-0.4 1.4-0.7l0.3 0.3c-0.6 0-1 0.7-1 0.7-0.3 0-0.3 0-0.3-0.3zm1 36.4c-0.7 0-0.3-0.6-0.7-0.6l0.4-0.4c0 0.4 0 0.7 0.3 1h0.7c-0.4 0-0.4 0-0.7 0zm-0.7-53.3c-2-2-5.7-0.7-6.7-4.4 0-1.7 0.6-3.4 2-4.4 1.7 0 3.7 0 4.7 1.7-0.3 0.4-0.3 1-0.3 1.4 0 1.3 1.3 2.7 1.3 4 0 0.7-0.3 1-1 1.7zm1.7-8.1c-0.3-0.3-0.7-0.7-0.7-1 0-0.3 0.4-0.3 0.4-0.7 0 0-0.4-0.3-0.4-0.3 0-0.4 0.4-0.7 0.4-1 0.3 0.3 0.3 0.6 0.3 0.6 0 0.7-0.3 1.4-0.3 2.1 0.3 0 0.3 0.6 0.6 0.6v0.7c0-0.3-0.3-0.7-0.3-1zm0.3 10.8c0-0.3-0.3-0.7-0.3-1 0 0 0-0.3 0.3-0.3 0 0.3 0.4 0.3 0.4 0.6 0 0.4-0.4 0.7-0.4 0.7zm0.4 44.6l0.7-1.1c0 1.7 1 1.4 1 1.7 0 0.4 0 0.4 0 0.4-0.4-0.7-1.4-0.4-1.7-1zm2 25.6h-1c0-0.7 0.3-0.7 0.3-1h0.7c0 0.3 0 0.3 0.3 0.3-0.3 0.4-0.3 0.4-0.3 0.7zm4.1-24.3c-1.1 0.3-1.4 1-1.4 1.7 0 2 1.4 4.4 1.4 5.1 0 1-1.1 1.7-1.4 2.7 0.3 0.3 0.3 0.3 0.3 0.6 0-0.6-1-1.3-1.6-1.3-1.4 0-1.1 1-1.7 1-0.7 0-0.7-0.3-0.7-0.7 0-1.3 1-2.3 1-3.7 0-0.3 0-1-0.7-1.3 0.7-0.7 2.1 0.3 2.7-1.1 0-1.3-0.3-2.3-1-3 1-0.3 1.4-1 1.4-1.7 0-0.7-0.4-1.7-0.4-2.3 0-0.4 0-0.7 0.7-0.7 0.7 0 1.7 0.3 1.7 1.7 0 0.3-0.3 0.6-1 0.6 0.3 1.4 0.7 1.4 0.7 2.4zm1.6 25.3l-1.3-1.3c0-1 0.3-2 0.3-3.1 1.7 0.7 3.1 0 3.1 2.7 0 1.1-0.7 1.7-2.1 1.7zm9.5-33.4c-0.7 0-1.4-0.7-2-1 0-2 1-3 2-4.4 0 1 0.7 2.4 0.7 3.7 0 0.7-0.4 1-0.7 1.7zm0.7-15.2c1 0.7 1.3 1.4 1.3 2 0 1.1-0.3 1.7-1.3 1.7-1.4 0-3.1-1-3.1-2 0-0.7 0.7-2 1.7-2 0.4 0 1 0.3 1.4 0.3zm-4.1-2.3c0.7 0 1.4 0.6 1.4 1.3 0 0.3 0 0.3-0.4 0.3-0.3 0-0.6-0.3-1-0.3zm-0.7 18.6c0.7 0.3 0.7 1 0.7 1.7 0 0.6-0.3 1.6-1.3 1.6zm0.3 12.5c0 1.4 0.3 2.7 0.3 3.4 0 0.4-0.3 0.7-0.6 0.7-2.1 0-1-2-2.4-3 1-1.1 1.4-1.1 2.7-1.1zm308.5 24c-0.3 0.3-0.3 0.7-0.3 1.4 0.7 0 1 1 1.3 1.3l2.4-1c-0.7-0.7-0.3-1-1-1.7zm-57.1 13.8c-0.6-0.6 0-0.6-0.6-1.3 0 0.3-0.4 0.7-0.4 1.3l0.4 0.7c0-0.3 0.3-0.7 0.6-0.7zm-7.4-1.3c-0.3 0.3-0.3 0.7-0.3 1.3h1v-0.6zm-82.4-66.9h-4.7l-2-2.7h-30.1c-2.3 0.7-2 1.4-2 2.7h-12.8c0 24 16.9 44.6 39.5 50.3 0.3 0 0.3 0.7 0.3 1h0.7c0-0.3 0-0.6 0.3-1 1.4 0.4 4.4 0.7 4.4 1.7-0.7 0-1 0.7-1 1.4 2.7 1.3 3.7 2 3.7 3.3v1.1c0 5.4 16.6 9.1 23.3 9.1v-53.7h-19.6zm20.3-117.8l0.3-0.3c0-0.4 0-0.4 0.4-0.7-0.4-0.4-0.4-0.7-0.4-1h-1v1.7c0.3 0 0.7 0 0.7 0.3zm22.3 37.8h64.1c0 0-0.3-1.7-0.3-3.7 0-2.7 0.3-5.4 1.3-5.4 10.5 0 25 7.4 29.4 9.4l1-0.6c-2.4-5.8-9.8-6.1-13.2-8.8 0-0.7 0-1 0.4-1.4h0.3c0.7 0.7 2 1.4 3 1.4 1.7 0 2.7-0.7 5.4-1.4l-2-3.3c-2.7 0-6.4 0.3-9.4 0.3-1.4-19.9-13.9-37.1-31.4-44.9h1c0-2-8.1-5.4-9.8-6.7 0 0.6-0.3 1.3-0.3 1.6l3 3.1c-5.7-1.4-7.1 0-9.1-6.8h-0.7v1c0 1.7 0 3.1 0.7 4.1-5.8-1.4-4.7-2-5.4-6.8h-1v1.7c0 1 0.3 2.7 0.6 4.8h-9.1v-6.8h-9.8c0.7 1 0.4 2.4 1.1 3.4-1.1 1-2.1 0.3-2.1 1.7 0 0.6 0.4 1 0.4 1.7h-3.7l2.3-4.1c-1-0.3-1.7-0.7-2.3-0.7 0-0.7 0.3-1.3 0.6-2h-3v3.7c0.3 0 2.7 0.4 2.7 1h-0.3c-0.7 0.7-5.4-0.6-6.8 2.1h-14.2v51.9h15.9zm1.3-62.8c0 0 0.4 0 0.4 0.4h-1zm66.8 75.6c0.3 0 0.3-0.7 0.3-1h-3v0.7zm-79.7-79.4c0-1-0.3-0.6-0.3-2.3h-2.7c0 1-0.3 1-0.3 2l0.3 0.3zm85.1 78.3v0.7c0.6 0.7 1.3 0.7 2.7 0.7 1.3 0 2.7-0.3 3.7-0.3v0.6c0 3.1-3.1 1-3.1 3.1 2.1 0 6.1 0.3 9.2 0.3 4 0 11.4-0.3 11.4-4.4 0-3-0.3-6.7-1-7.7-2.7 8.4-13.5 5-22.9 7zm-78.7-80c0.4-0.3 0.4-0.3 0.4-0.6h-1.1l0.7 1zm-21.3 16.5c0.4 0 1.1 0 1.1-0.3l0.3-0.7c-1 0-0.3-0.3-1.4-0.3 0 0.3 0 0.7-0.3 1 0.3 0 0.3 0 0.3 0.3zm60.5 220.8c0 0.3 0 0.7-0.4 1h1v-0.7c-0.3-0.3-0.3-0.3-0.6-0.3zm-75-210.3c0-0.3 0-0.7 0-0.7-0.3 0-0.3 0.4-0.3 0.4 0.3 0 0.3 0 0.3 0.3zm145.9 153.2v-0.6l1.6-0.4c0-2.3 1.1-8.1 1.1-12.5 0-2.7-0.7-5-1.4-6.4h-1c-0.3 0.4-0.3 1-0.3 1.7 0 2.7 1 3.7 1 5.7 0 3.8-3.4 10.9-3.4 13.9 0.7 0.7 2.4 0.7 3.4 0.7 0.6 0 1-0.4 1.7-0.4-1.4-1.3-0.4-1.7-2.7-1.7zm1.3 4.8l1.4-1v-0.7c-0.7 0-1.1 0-1.4-0.4zm-132.7-156.6l1.4-0.7c-1 0-0.7-0.3-1.4-0.3zm-25.3 170.8l-0.6 0.3c0 1.1-0.4 1.1 1 1.1v-1.1c0 0-0.4 0-0.4-0.3zm54.7-108.7l-1-0.3zm49.6 152.9c0-0.4 0-0.7 0.4-1-0.4 0-0.7 0-1.1-0.4 0 0.7 0 1 0.7 1.4zm-6.4-10.1c0.3 0 0.3 0.3 0.3 0.3l1.1-0.7c-0.4-0.3-1.1-0.3-1.4-0.3zm0.7-3.4h-0.4c0 0.3-0.3 0.3-0.3 1l1-0.3c0-0.4 0-0.7-0.3-0.7zm8.1-2.7l-3.4 3c0 1.7 1 2.7 2 3.4v-0.3c2.4-3.4 3.7-1.4 6.4-2.7v-5.4c-1.6 0-3.3 0.7-5 2zm-1.7 11.1c0 1.4-0.3 1.1-0.3 2.4l1.3-0.3c-0.7-0.7 0-1-0.7-2.1zm39.5-42.5v1.4l0.7-0.4c0-0.6 0-1-0.7-1zm3.4 1v1.7c0-0.3 0.3-0.7 1-0.7l-0.3-1zm-5.4-8.4c1.3-0.3 2-0.3 2.7-0.3v-0.7l-4.1-0.4c0 1.1 0.4 1.4 1.4 1.4zm-75 36.1c-0.3 0-0.3 0-0.3 0.3h0.3c0.4 0.4 0.4 0.4 0.7 0.4v-1.4h-0.7c0 0.4 0 0.7 0 0.7zm43.9-85.7v0.6h1.4c-0.7-0.6-0.7-0.6-1.4-0.6zm-82.3-103l2-1.3c0-2.1-0.4-3.1-1-3.7 0 2.7-15.6 12.4-16.6 13.5l-0.3-3.4c-1.7-0.4-2.4-0.7-2.7-0.7-0.3 0-0.7 0-1.4 0.3v-10.1c0.7-1.3 1.4-3 1.4-3.7 0-0.7-0.7-1-1-1.7l1.3-3.4-1.7-1.6c0 0 0 0 0-14.2-6 0-12.1 1-17.5 3h-2c-0.4 0.3-1 0.7-1.7 1.7-17.9 8.1-30.4 26.3-30.4 47.3v19.9c0 26.6 19.9 48.6 45.6 51.6 6.4 12.8 15.2 14.2 22.9 14.2 0.7 0 1.7-0.3 2.7-0.7v-82.3c0-6.8-0.3-14.2-2.3-19.3l0.3-0.3c0.7-0.4 1.7-0.4 3-0.4v-2c-1.7 0-1-0.3-2.3-0.3v-0.7zm-50.3 20.6h-0.7c0-0.7 0-1 0.7-1zm3.4-2.7l-0.4-0.4c0-0.3 0-0.3 0.4-0.3 0.6 0 1 0 1.6 0.7h1.4c-0.3 0.7-1 0.7-1.4 0.7-0.6 0-1.3 0-1.6-0.7zm-2.1-3.7c-0.6-0.4-0.6-0.7-0.6-1 0-1.1 1.3-2.1 1.3-3.1 0-0.3-0.3-0.7-1-1.3 0.7-0.7 2.4 0 2.4-1.4 0-0.3-0.4-1-0.4-1.3 0 0 0-0.4 0-0.4 3.1 0.4 5.1 5.4 5.8 6.8-0.4 2-1.4 2.3-2.4 2.3-1.7 0-3.4-0.6-5.1-0.6zm39.2 30l-0.7 0.3c0-0.3 0.3-0.3 0.7-0.3zm-0.7-31.7c0 0 0 0.3 0.3 0.7-0.3 0-0.3 0.3-0.6 0.3-0.7 0-1-0.3-1.7-0.3 0-0.7 1.3-0.7 2-0.7zm-3.4 16.5c-0.6 1.4-1.3 2.7-1.3 4.1 0 1 0.3 2.3 1.7 2.3-1.4 1.4 0 5.1-2.4 5.1-0.7-2.4-3-2.4-4-4.7 1.6-2.4 2-6.1 5.4-7.5zm-6.1 12.2h-1v-1h1.7c0 1-0.4 0.7-0.7 1zm5-16.5c-0.3 1.6-2 1.3-2 3.3h-0.7c0-1.7 0.4-3 2.7-3.3zm-3.7-19.6c0.7 0 1 0.3 1 1h-1zm1 23.3c-1.3 0.3-1.3 2-2.3 2-0.4-0.3-0.4-1-0.7-1.3 0.7-1.1 2-0.4 3-0.7zm-5-3.7v0.3c-0.7 0.3-1 0.7-1 1.4 0 0.6 0.3 1.3 0.3 1.6h-1c0-1.3-0.3-2.7-0.7-3.7zm-7.1-7.1l1 0.4h-1zm-9.4 2.3c0-0.6 0.3-0.6 1-0.6 0.7 0 2 0.6 2 1.7-0.3 0.3-0.7 0.3-0.7 0.3-1 0-2-0.7-2.3-1.4zm7.7 14.2c0.4-0.3 1.1-0.3 1.4-0.3 0.7 0 1.3 0.3 1.3 1.3 0 1-0.6 2.7-1.6 2.7-0.7 0 0-0.6-0.7-1 0.3-0.3 0.3-1 0.3-1.3-0.3-0.7-0.7-1-0.7-1.4zm1.7 9.5c-0.6-0.7-0.3-1.7-1.3-2.4 0.3-0.3 1-0.7 1.7-0.7 0.6 0 1.3 0.4 2 1.4-1 0.3-1 2-2 2 0 0-0.4-0.3-0.4-0.3zm2.4 8.4c-0.3 0-0.7 0.3-1 0.3 0 0 0-0.3 0-0.3 0-1.3 1.3-1.3 2.3-1.3 0 1-0.3 1.3-1.3 1.3zm7.1-14.2v1c-1.4 0-2.7 2.1-4.1 2.1-0.3 0-0.6-0.4-1-1.7 0.4 0.3 0.7 0.3 1 0.3 1.4 0 1.4-2.3 2.7-2.3 0.4 0 0.7 0 1.4 0.6zm-3.4 12.5c-0.7 0-1.3 0-1.3-0.7 0-0.6 0-0.6 0.3-0.6 0.7 0 1 0.6 1 1.3zm0-8.1l0.3-0.7c0 0.4 0 0.7-0.3 0.7zm1 46.3c0 0 0.4-0.4 0.4-0.4 0.3 0 0.3 0.4 0.6 0.7-0.3 0-1 0-1-0.3zm0.7-40.2c-0.3-0.3-0.3-0.7-0.3-1 0-0.7 0.6-1.7 1.6-2l2.4 0.3c0.7-1.7 0.7-3.7 2.7-3.7 0.3 0 0.7 0 0.7 0.3 0 0.7-0.4 0.4-0.7 0.7 0 0.3 0.3 0.7 0.3 1 0 1-1.6 1.4-2.7 1.7h-0.3c-0.7 0.3-1 0.7-1.3 1.3 1.3 3.4 4 6.1 5.7 8.5 0 0.3 0 0.3-0.3 0.7-3.8-1.4-3.8-7.1-7.8-7.8zm4 19.9c-0.3 0.7-0.3 1.4-1.3 1.7-0.3 0-0.7-0.7-0.7-1 0-1 0.7-1.7 1.7-1.7 0.3 0 0.7 0.3 0.7 0.3 0 0.4-0.4 0.4-0.4 0.7zm2.4-2c-1.3 0-1-1-1.7-1-0.3 0-0.3 0-0.3 0 1-0.7 2-2.7 3-3.4 0.4 0.3 0.4 1 0.4 1.4 0 1-1.1 2-1.4 3zm3.7 11.1l-0.7 0.4c0 0-0.3-0.4-0.3-1 0-0.4 0.3-0.7 0.7-0.7 0.3 0.3 0.3 0.7 0.3 1.3zm2.7-9.1c-0.3-1-2.3-1.3-2.3-2.3 0-0.4 0-0.7 0.3-1.1-1.4-1-2.4-5.7-2.7-5.7 0 0 0 0 0 0.3 0-1 0.7-2 1.7-2.7 0 0.4-0.4 1-0.4 1.4 0 2 1.4 4 2.4 6.1l1 0.3c-0.3 0.3-0.7 0.7-0.7 1 0 1 1.4 2 1.4 2.4 0 0-0.3 0-0.7 0.3zm1.7-40.8c-0.3-1-1.3-2.1-1.3-2.7 0-0.7 0-1 0.6-1.4 1.4 0.4 0.7 2.7 1.7 3.7-0.3 0.4-0.7 0-1 0.4zm100.9 108.7c0.7-0.4 1.4-0.4 2.1-0.4 0.6 0 1.3 0 2.3 0.4 0.4 0 0.7-0.4 0.7-1.1 0-0.6-1 0-1-0.6 0-1 1 0 1.3-1-0.6-1.4-0.3-2.7-1-4.1-1 1-1.7 1.4-2.3 1.4-0.7 0-1.1-0.4-1.4-0.4-2 2-1 6.1-4 6.1 0.3 0.3 0.3 0.3 0.6 0.3 1 0 1.7-0.6 2.7-0.6zm32.8-0.7v-2c-0.4 0-1 0.3-1.7 1l-0.3-0.4c0-2.7 0.6-1.7 0.6-2.7v-0.3c-0.3-0.3-0.3-0.7-0.3-0.7 2-2 1.7-2.7 1.7-5-1 0.6-2.7 1.3-3.4 1.3-1.3 0-2-1-2.4-3h-5.4c0 5-3.3 4.4-7.4 4.4-1.3 0-2-0.4-2-1.7 0-4.1 4.7-1.7 7.4-6.1h0.7c0.3 0 0.3 0 0.3 0.3-0.3 0.4-0.6 1.4-1 3.1h1.7c2-4.1 2-6.8 2-9.8 0-1-0.3-2-0.6-3.4l2.3-2c-0.7-0.7-2.7-11.2-4.4-11.2 0 1.1 0 1.4-0.3 1.7-1.4 0-2.4-0.6-3.4-1.7v-0.6c0-4.8-6.1-9.1-8.4-11.5l-1-4.7 0.3-1-1-0.7c-6.4-21.3-26.3-36.8-49.3-36.8h-44.9v52h15.9c0 8.4 0 13.5 1 13.8h27.7v4.1h-44.6v52.3h16.6v15.2c3 0 6.7 0 8.4-1 0.3 0.6 0.7 0.6 1.3 1 0-0.4 0.4-0.7 0.4-1.4-0.4 0-0.4 0-0.4-0.3 0-0.4 0.4-1 1.1-2-0.4-1.1-0.7-1.7-1.1-1.7l1.4-1c0-1.7-1.4-4.1-1.4-7.1 0-0.7 0-1.4 0.4-1.7l12.8 0.3 1.7 1v3.1c-2.4 0.6-7.1 1-9.1 1.3 0 3.1 0.3 6.4 0.3 9.5l2-2.4h9.2c0 0.7-0.4 1.4-0.7 1.4l-0.4-0.4c-0.6 0-0.6 0.4-0.6 1.4 5.4 0 4.7-2.4 9.4-2.4 4.4 0 3.4 2.4 7.1 2.4 3.4 0 7.1-1.7 10.5-1.7-6.4 6.4-17.6 23.9-18.9 32 0.3 0 0.6 0.4 1 0.4 2.3-6.8 10.8-15.9 10.8-18.2h0.3c0.4 0 1.4 0.3 2.7 1 0-7.5 10.5-12.9 11.5-16.9 3.4 0 14.8-11.1 14.8-10.8 1.4 0.7 0.4 0 2.1 0.7 2-4.1 5.7-1.4 6.7-6.8 0.4-2 0.7-3.4 1.4-4-0.4 0-0.7 0-1-0.4-4.1 7.8-17.9 11.2-24 17.2-2.7 3.1-4.4 4.8-5.1 5.1h-1.7v-1l1.1-1.4c-1.7-0.6-0.7-3-1.4-5h-7.4v-1c2.3-1.4 6.1-0.4 8.4-2.1-1.7-1.6-4.4 1.4-4.4-4.7 0-0.7 0-1.3-0.3-2 3-1.4 7.8-5.1 10.1-5.1 2.4 0 5.8 0.4 8.8 0.4 3.7 0 7.1-0.4 8.4-2.4-5 0-9.8-1.3-14.1-1.3 6-4.4 6.4-4.1 11.4-4.1-1-1-2.7-1.3-5.4-1.3v-1.1c5.8-2.3 13.9-7 16.2-8.1 4.1 4.1 10.8 3.1 10.8 9.8l1.7-1.7c0.4 1.1 1.4 1.4 2.4 1.4l0.7 2.7c0-0.7 0.3-0.3 0.3-1.4 0-0.6-0.7-1.6-0.7-2.3 2.7-2.4 4.1-5.4 4.1-9.8zm-12.8-30.4c1.6 1.7 2 3.7 2 6.8-0.4 0.3-0.4 0.6-0.4 1.3h-1c0-2.4-1-4.7-1-6.7 0-0.7 0-1.1 0.4-1.4zm-96.6-54.3h-0.7c0-1.1 0.4-1.4 1-1.7 0 0.6 0 1.3-0.3 1.7zm3.4 24.3c0 0 0 0.3-0.4 0.3 0 0-0.3-0.3-0.6-1 0 0 0.3-0.3 0.3-0.3 0.3 0 0.3 0.3 0.7 0.3zm14.8-21.6c-0.3 0.3-1 0.7-1.6 0.7 0-0.7 0-1.7 1-1.7 0.3 0 0.6 0.3 0.6 1zm-9.7 4.4c0 1.3 0 1.7 0.6 2-1 0.7-2.3 1-3 2 0-1.7 1.3-3.4 1.3-4.7 0-0.7-1-1.7-1-2.4 0-0.6 1.4-1.3 2.4-2 0 0.3 0.3 0.3 0.7 0.3 2 0 3.3-5.7 4.7-5.7 0.3 0 1 0.3 1 1 0 1.4-1.7 1.7-1.7 2.7 0 0.4 0.4 0.7 0.7 1 0 0.7-1.4 0.4-1.4 1.4 0 2.3 3.4 0.3 4.8 2.3-1.7 0.4-1 3.4-2.4 3.4-0.3 0-0.7-0.3-1-0.7 0.3-1.3 1.3-1.3 1.7-2.3-1-1-2.7-1-4.1-1.4-2 0.7-1.3 2.7-3.3 3.1zm5.7 8.1v1l-0.7-1.4c0.4 0 0.4 0 0.7 0.4zm0 15.8v-2h0.7c0 0.7-0.4 1.7-0.7 2zm1 2.4c0-1.3 0.7-1.3 1.4-2.4 0 0 0.3 0.4 0.6 0.4-0.6 1-1.3 1.7-2 2zm2.4 12.5c-0.7-0.3-1-1.4-1-2 0.3 0.6 1 1 1 2zm1-5.1c-0.4-0.3-1 0-1.4-0.3 0-1 0.7-1.4 1-2 0.7 0 0.7 0.3 1.4 0.6-0.7 0.4-0.3 1.4-1 1.7zm-6.4 61.8c-0.4 2-2.1 4.4-3.7 4.4 0.3-1 1.6-1.7 1.6-2.7 0 0 0-0.3 0-0.3l1.7-1.4c0 0 0 0.3 0 0.3 0 0 0.4-0.3 0.4-0.3zm-2.4-17.2c0.3-0.4 0.7-1 1-1 0.4 0 0.7 0 1 0.3 0 0.7-0.6 1.4-1 1.4-0.3 0-0.7-0.4-1-0.7zm2-18.2c0 0.3 0 0.3 0 0.6h-1c0-0.3 0.4-1 0.7-1 0 0 0.3 0.4 0.3 0.4zm-5.4-0.7c0 1-0.3 1-0.6 1 0 0-0.4 0-0.4 0 0 0 0.4 0 1-1zm-2 5.4c3 0 3.4 4 3.7 4l-0.7 0.7c0 0 0.4 0.3 0.4 0.3 1.3 0 2.3-2 3.4-2 0 0 0.3 0 0.6 0.7-0.3 1-5.4 4.7-8.1 5.7-0.3-0.3-0.3-0.3-0.3-0.6 0-1.1 1.7-1.7 1.7-2.7-0.7-0.4-2.1-4.1-2.4-4.1 0 0 0 0 0 0.3 0-1 1.4-1.6 1.7-2.3zm-0.7 39.8c0-0.3-0.3-0.7-0.3-1 0-0.3 0-0.3 0.3-0.7 0 0 0.7 0.4 0.7 1 0 0.4-0.3 0.4-0.7 0.7zm3.4-12.8c-0.7 0-0.7 1-1 1.3 0-2-2.7-2-2.7-3.3 0-1.4 1-2.1 3-2.1-0.3 0.7-1.7 0.4-1.7 1.7 1.1 0.7 1.4 2.4 2.7 2.4 0 0-0.3 0-0.3 0zm3.4 15.5c0.3-1 0.3-2 0.7-3h-1.4l-0.3 3.4c-0.7-0.4-1.4-0.4-1.7-1.4 0.3-0.7 0.7-1.7 1.7-2v0.3c0.3-2.3 2-4.4 4-4.7 0 0.7-0.3 1.3-1.3 2 1 0.7 1.7 1.4 1.7 1.7 0 1-1.4 0.7-1.4 1.7 0 0 0.3 0.3 0.3 0.3 0.4 0 0.7-0.3 1.1-0.3-0.7 1-1.4 2.4-2.4 2.4-0.3 0-0.7 0-1-0.4zm3.7 11.8l-0.7-1 0.7-0.3zm0.7-28.7c-0.4 0-0.4 0.3-0.7 0.3-0.3 0-0.7-0.3-0.7-1 0 0 0.7 0 1.4 0.4zm0.6-22.3h-1c0-1 0.7-1.4 1.7-1.4 0 0.7-0.3 1-0.7 1.4zm56.4-39.2c0.3-0.3 0.3-0.3 0.7-0.3 0.7 0 1 0.7 1.7 0.7 0.3 0 0.6 0 1-0.4l0.3-0.3c1 2 3.7 1.7 5.4 2.7-1.7 0-2.7 1.3-3.7 1.3-2.4 0-0.3-2.7-2-3.3-0.7 0.6-1.4 1.3-2 1.3-1.7 0-0.7-1-1.4-1.7zm-2.7 11.5c-0.3 0.3-1 0-1.3 0.3-0.4-0.3-0.4-0.6-0.4-1 0-0.3 0-1 0.7-1 1 0 0.7 1 1 1.7zm-0.7-5.4c0 2-2 0.7-2 2.4 0 0-0.3-0.4-0.3-0.4 0-0.7 1-0.7 1-1 0-0.3-0.4-0.3-0.4-0.7 0 0 1.1-0.3 1.7-0.3zm-1.3-3l-2.4 1.3c0-1.3 0.7-2 1.4-2 0.6 0 1 0.3 1 0.7zm-3.4 10.8c1.7 0.6 2.4 2 4.1 2l0.6-1.4v0.4l0.7-2.1c0.3 0.4 1.7 0.7 1.7 1.4 0 0.3-1 0.7-1.4 0.7l-0.3 0.3c0.3 0.3 0.3 0.3 0.7 0.3-0.4 0.4-3.1 2.7-3.1 2.4v1c-1.6 0-2-0.7-2.3-2-0.4 0-0.4 0.3-0.4 0.3-0.6-0.3-0.6-0.6-0.6-1.3 0-0.7 0-1.4 0.3-2zm-0.7-11.2c-0.6 1 0 2-1 2-0.3 0-0.3-0.6-0.3-0.6 0-1 0.7-0.7 1.3-1.4zm-2.7 2.7c0.7 1.4 2.7 0.7 2.7 2.7l-0.6 0.7c-0.4-0.3-1.1-1.4-1.7-1.4-0.4 0-0.7 0.4-0.7 0.7 0 0-0.3-0.3-0.3-0.7 0-0.6 0.3-1.3 0.6-2zm1.4 4.1c-0.4 0.3 0 2-1.4 2 0-1.4 0-2 1.4-2zm-8.5-8.1c0 0 0 0.6 0.4 0.6h-1zm-0.7 8.1c0.7 0.4 0.7 1.1 1 1.7 0 0 0 0.4-0.3 0.4-0.4-0.4-1-1-1-1.4 0-0.3 0-0.3 0.3-0.7zm-2.7 74.3c-6.1 0-13.8-1.3-13.8-2 1.3-6.8 6.4-4.4 10.8-6.1 0.3 0.7 0.3 1.4 0.3 2 0 0.7-0.3 1.4-0.3 1.7 0 1.4 0.3 2.7 0.6 3.7 0.7 0 1-0.3 1.4-0.3 0.3 0 0.7 0.3 1.3 1zm1.4-76.6c-0.4 0.3-0.7 0.3-0.7 0.3-1 0-1-1-1.3-1.7 0.6 0.7 2 0 2 1.4zm1 69.5l-1-2.3 1.7-0.7c0 1.7-0.4 2.7-0.7 3zm2-51.6c-1 0-1.3-0.4-1.3-1 0 0.3 1-4.4 2.3-4.4 0.4 0 1 0.3 1 1.7 0 1.6-1.6 2.7-2 3.7zm4.1-2.4c-1.4-1.3 0-4-2.1-5.1 0.4-0.6 0-2 1.1-2 0 0 0.3 0 0.3 0l0.7 3.4c1 1 1.7 2 2.7 2 0.3 0 0.6 0 1.3-0.3 0.4 0 0.7 0.3 0.7 0.7 0 2.3-3 1-3 2.3 0 1 1.6 1 1.6 3.1l-0.6 0.3c-0.7-1-2.7-2.4-2.7-4.4zm6.7 8.4c0.4 0 0.4 0 0.4 0-1.4 0-3.8 0-3.8-1.6l2.1-2.1c0.3 1 1.7 0.4 2.3 0.7 0 1-1.3 1.7-1.3 2.4 0 0.3 0.3 0.3 0.3 0.6zm0.7-5c1.3-0.7 0.7-2.7 2-3.4 1.4 2 3.7 4.1 6.4 4.1 0 0 0.4 0 0.4-0.4 0-0.7-0.4-1-0.7-1.7 0-1 1.3-1 1.3-1.7 0-1.3-2.3-1.3-3.3-1.6 0.6 0 0-1.1 0.6-1.1-0.6-0.3-0.6-1-0.6-1.3 0-1 1-1.7 1-2.4 0-0.3-0.4-0.6-1.4-1 0.4-0.7 0.4-1.3 0.4-2 0-1.4-0.7-3-0.7-4.4 0-0.7 1.3-1 2-1.7 0.4 0.7 0.7 1.7 1.4 1.7 0 0 0.3 0 0.6-0.3 0 0.3 0 0.3-0.3 0.3-0.3 0-0.7-0.3-1-0.3-0.3 0-0.7 0.3-0.7 0.3 0 0.3 0.4 0.3 0.7 0.3 0.3 0.7 0.7 1.1 1 1.1 0 0 0.3 0 0.3 0 0 0.6-0.6 1.3-0.6 1.6 0 1.1 2 0.4 2 1.7 0 0.7-0.3 1.7-0.3 2.7 0 0.4 0 0.4 0.3 0.7l-1 1c1.7 0.4 3.4 3.4 3.4 4.1 0 0.6-0.4 1.7-0.4 2.3 0 0.4 0 1 0.7 1.4l-0.3 0.3 1.3 0.4c0 2-3.7 3-3.7 4 0 0.3 0 0.3 0 0.3l0.3 0.7c-0.3 0.4-0.6 0.4-0.6 0.7 0 0.3 1 1 1 1.3 0 2.7-2.7 2.4-3.7 3.1 0-1.4-2.7-2-3.8-3.1l-0.3 0.4-0.3-0.7c0-0.3 0.3-0.7 0.3-0.7 0.3 0 0.7 0.4 1 0.4 0.7 0 1.7-3.4 2.7-4.1-2-2-6.7 0-7.4-3zm13.8 6.7c-0.3 0.7-0.6 0.7-1.3 0.7 0-0.3 0.3-1 1-1 0 0 0.3 0.3 0.3 0.3zm-13.1 2.4c0.3 0 0.6-0.7 1.3-0.7 0.4 0 0.4 0.4 0.7 0.4v1c-0.7-0.4-1.7 0.3-2-0.7zm16.2 13.8c-2.1 1.4-4.8 3.4-7.5 3.4-0.3 0-1 0-1.3-0.3h-1.7c0.3-0.7 1-1 1-2.1 0-0.6-1.3-3.3-2.7-3.3-0.3 1.3 0 3.3-2 3.7-0.3-0.4-0.7-0.7-0.7-1 0-0.7 0.7-1.4 0.7-2.1 0-0.6-0.3-1-1.4-1v-0.6c0.4 0 1.1 0.3 1.4 0.3 0.3 0 0.3 0 0.7-0.3-1.4-1.4-1.4-3.4-2.4-4.8 2.7-0.3-0.3-3.7 3.7-3.7 0 0 0.4 0.4 0.7 0.4v0.6c-1 0-0.7 0.4-1 0.7 0 1 1.7 2.4 1.7 3.7 0 0.4-0.4 0.7-0.4 1 0.7 0.7-0.3 2.1 1.4 2.1 2 0 4.7-3.1 7.4-3.8 1.7 1.7 2.4 4.8 2.4 7.1zm-1-17.9c1.3-0.3 0.3-2.3 2.3-2.3 0 1.3-1.7 1.7-2.3 2.3zm-44.3 87.8c0 0 0 0 0 0.3h0.7c0-0.3-0.3-0.3-0.3-0.6 0 0.3-0.4 0.3-0.4 0.3zm48-49.3c1.3-0.6 3.7-1.7 3.7-2-2.4 0-4.1-0.7-5.1-0.7l-0.3 1zm-32.8 45.3h-1.6v1h2v3.7c0 2.7 0.3 4.4 0.7 5.1 0.6-1.7 0.6-4.1 0.6-6.8-0.3-0.7-0.3-1-0.3-1.7zm-29-23.3c0 0.7 0.3 1 1.3 1 0-0.3-0.3-0.6-0.7-1z"/>
	<path id="sim" class="s1" aria-label="sim"  d="m892.4 480.1c-0.4 0.3-0.4 0.7-0.4 1.4 0.7 0 1.1 1 1.4 1.3l2.4-1c-0.7-0.7-0.4-1-1.1-1.7zm-57 13.8c-0.7-0.6 0-0.6-0.7-1.3 0 0.3-0.3 0.7-0.3 1.3l0.3 0.7c0-0.3 0.4-0.7 0.7-0.7zm-7.4-1.3c-0.4 0.3-0.4 0.7-0.4 1.3h1v-0.6zm-82.3-66.9h-4.7l-2.1-2.7h-30c-2.4 0.7-2 1.4-2 2.7h-12.9c0 24 16.9 44.6 39.5 50.3 0.4 0 0.4 0.7 0.4 1h0.6c0-0.3 0-0.6 0.4-1 1.3 0.4 4.4 0.7 4.4 1.7-0.7 0-1 0.7-1 1.4 2.7 1.3 3.7 2 3.7 3.3v1.1c0 5.4 16.5 9.1 23.3 9.1v-53.7h-19.6zm20.2-117.8l0.4-0.3c0-0.4 0-0.4 0.3-0.7-0.3-0.4-0.3-0.7-0.3-1h-1v1.7c0.3 0 0.6 0 0.6 0.3zm22.3 37.8h64.2c0 0-0.4-1.7-0.4-3.7 0-2.7 0.4-5.4 1.4-5.4 10.4 0 24.9 7.4 29.3 9.4l1-0.6c-2.3-5.8-9.7-6.1-13.1-8.8 0-0.7 0-1 0.3-1.4h0.4c0.6 0.7 2 1.4 3 1.4 1.7 0 2.7-0.7 5.4-1.4l-2-3.3c-2.7 0-6.4 0.3-9.5 0.3-1.3-19.9-13.8-37.1-31.4-44.9h1c0-2-8.1-5.4-9.8-6.8 0 0.7-0.3 1.4-0.3 1.7l3 3.1c-5.7-1.4-7 0-9.1-6.8h-0.6v1c0 1.7 0 3.1 0.6 4.1-5.7-1.4-4.7-2-5.4-6.8h-1v1.7c0 1 0.4 2.7 0.7 4.7h-9.1v-6.7h-9.8c0.7 1 0.3 2.4 1 3.4-1 1-2 0.3-2 1.7 0 0.6 0.3 1 0.3 1.6h-3.7l2.4-4c-1-0.3-1.7-0.7-2.4-0.7 0-0.7 0.3-1.3 0.7-2h-3.1v3.7c0.4 0 2.7 0.3 2.7 1h-0.3c-0.7 0.7-5.4-0.7-6.7 2h-14.2v52h15.8zm1.4-62.8c0 0 0.3 0 0.3 0.4h-1zm66.9 75.6c0.3 0 0.3-0.7 0.3-1h-3v0.7zm-79.7-79.4c0-1-0.3-0.6-0.3-2.3h-2.7c0 1-0.4 1-0.4 2l0.4 0.3zm85 78.3v0.7c0.7 0.7 1.4 0.7 2.7 0.7 1.4 0 2.7-0.3 3.7-0.3v0.6c0 3.1-3 1-3 3.1 2 0 6.1 0.3 9.1 0.3 4.1 0 11.5-0.3 11.5-4.4 0-3-0.4-6.7-1-7.7-2.7 8.4-13.5 5-23 7zm-78.6-80c0.3-0.3 0.3-0.3 0.3-0.6h-1l0.7 1zm-21.3 16.5c0.3 0 1 0 1-0.3l0.3-0.7c-1 0-0.3-0.3-1.3-0.3 0 0.3 0 0.6-0.3 1 0.3 0 0.3 0 0.3 0.3zm60.4 220.8c0 0.3 0 0.7-0.3 1h1v-0.7c-0.3-0.3-0.3-0.3-0.7-0.3zm-74.9-210.3c0-0.4 0-0.7 0-0.7-0.4 0-0.4 0.3-0.4 0.3 0.4 0 0.4 0 0.4 0.4zm145.8 153.2v-0.6l1.7-0.4c0-2.3 1-8.1 1-12.5 0-2.7-0.7-5-1.3-6.4h-1.1c-0.3 0.4-0.3 1-0.3 1.7 0 2.7 1 3.7 1 5.7 0 3.8-3.4 10.8-3.4 13.9 0.7 0.7 2.4 0.7 3.4 0.7 0.7 0 1-0.4 1.7-0.4-1.3-1.3-0.3-1.7-2.7-1.7zm1.4 4.8l1.3-1.1v-0.6c-0.7 0-1 0-1.3-0.4zm-132.7-156.6l1.3-0.7c-1 0-0.6-0.3-1.3-0.3zm-25.3 170.8l-0.7 0.3c0 1.1-0.3 1.1 1 1.1v-1.1c0 0-0.3 0-0.3-0.3zm54.7-108.7l-1-0.3zm49.6 152.9c0-0.4 0-0.7 0.3-1-0.3 0-0.7 0-1-0.4 0 0.7 0 1 0.7 1.4zm-6.4-10.1c0.3 0 0.3 0.3 0.3 0.3l1-0.7c-0.3-0.3-1-0.3-1.3-0.3zm0.6-3.4h-0.3c0 0.3-0.3 0.3-0.3 1l1-0.3c0-0.4 0-0.7-0.4-0.7zm8.1-2.7l-3.3 3c0 1.7 1 2.7 2 3.4v-0.3c2.3-3.4 3.7-1.4 6.4-2.7v-5.4c-1.7 0-3.4 0.7-5.1 2zm-1.7 11.1c0 1.4-0.3 1.1-0.3 2.4l1.4-0.3c-0.7-0.7 0-1-0.7-2.1zm39.5-42.5v1.4l0.7-0.4c0-0.6 0-1-0.7-1zm3.4 1v1.7c0-0.3 0.3-0.7 1-0.7l-0.4-1zm-5.4-8.4c1.4-0.4 2.1-0.4 2.7-0.4v-0.6l-4-0.4c0 1 0.3 1.4 1.3 1.4zm-74.9 36.1c-0.3 0-0.3 0-0.3 0.3h0.3c0.3 0.4 0.3 0.4 0.7 0.4v-1.4h-0.7c0 0.4 0 0.7 0 0.7zm43.9-85.7v0.6h1.3c-0.7-0.6-0.7-0.6-1.3-0.6zm-82.4-103l2-1.3c0-2.1-0.3-3.1-1-3.8 0 2.7-15.5 12.5-16.5 13.6l-0.4-3.4c-1.6-0.4-2.3-0.7-2.7-0.7-0.3 0-0.6 0-1.3 0.3v-10.1c0.7-1.3 1.3-3 1.3-3.7 0-0.7-0.6-1-1-1.7l1.4-3.4-1.7-1.7c0 0 0 0 0-14.1-6.1 0-12.2 1-17.6 3h-2c-0.3 0.3-1 0.7-1.7 1.7-17.9 8.1-30.4 26.3-30.4 47.3v19.9c0 26.6 20 48.6 45.6 51.6 6.4 12.8 15.2 14.2 23 14.2 0.6 0 1.7-0.3 2.7-0.7v-82.3c0-6.8-0.4-14.2-2.4-19.3l0.3-0.3c0.7-0.4 1.7-0.4 3.1-0.4v-2c-1.7 0-1-0.3-2.4-0.3v-0.7zm-50.3 20.6h-0.6c0-0.7 0-1 0.6-1zm3.4-2.7l-0.3-0.4c0-0.3 0-0.3 0.3-0.3 0.7 0 1 0 1.7 0.7h1.3c-0.3 0.7-1 0.7-1.3 0.7-0.7 0-1.4 0-1.7-0.7zm-2-3.7c-0.7-0.4-0.7-0.7-0.7-1 0-1.1 1.4-2.1 1.4-3.1 0-0.3-0.4-0.7-1.1-1.3 0.7-0.7 2.4 0 2.4-1.4 0-0.3-0.3-1-0.3-1.3 0 0 0-0.4 0-0.4 3 0.4 5 5.4 5.7 6.8-0.3 2-1.3 2.3-2.4 2.3-1.6 0-3.3-0.6-5-0.6zm39.1 30l-0.6 0.3c0-0.3 0.3-0.3 0.6-0.3zm-0.6-31.7c0 0 0 0.3 0.3 0.7-0.3 0-0.3 0.3-0.7 0.3-0.7 0-1-0.3-1.7-0.3 0-0.7 1.4-0.7 2.1-0.7zm-3.4 16.5c-0.7 1.4-1.4 2.7-1.4 4.1 0 1 0.4 2.3 1.7 2.3-1.3 1.4 0 5.1-2.3 5.1-0.7-2.4-3.1-2.4-4.1-4.7 1.7-2.4 2-6.1 5.4-7.5zm-6.1 12.2h-1v-1h1.7c0 1-0.3 0.7-0.7 1zm5.1-16.5c-0.3 1.6-2 1.3-2 3.3h-0.7c0-1.7 0.3-3 2.7-3.3zm-3.7-19.6c0.7 0 1 0.3 1 1h-1zm1 23.3c-1.4 0.3-1.4 2-2.4 2-0.3-0.3-0.3-1-0.6-1.3 0.6-1.1 2-0.4 3-0.7zm-5.1-3.7v0.3c-0.6 0.3-1 0.7-1 1.4 0 0.6 0.4 1.3 0.4 1.6h-1.1c0-1.3-0.3-2.7-0.6-3.7zm-7.1-7.1l1 0.4h-1zm-9.5 2.3c0-0.6 0.4-0.6 1-0.6 0.7 0 2.1 0.6 2.1 1.7-0.4 0.3-0.7 0.3-0.7 0.3-1 0-2-0.7-2.4-1.4zm7.8 14.2c0.3-0.3 1-0.3 1.3-0.3 0.7 0 1.4 0.3 1.4 1.3 0 1-0.7 2.7-1.7 2.7-0.7 0 0-0.6-0.7-1 0.4-0.3 0.4-1 0.4-1.3-0.4-0.7-0.7-1-0.7-1.4zm1.7 9.5c-0.7-0.7-0.4-1.7-1.4-2.4 0.4-0.3 1-0.7 1.7-0.7 0.7 0 1.4 0.4 2 1.4-1 0.3-1 2-2 2 0 0-0.3-0.3-0.3-0.3zm2.3 8.4c-0.3 0-0.6 0.3-1 0.3 0 0 0-0.3 0-0.3 0-1.3 1.4-1.3 2.4-1.3 0 1-0.3 1.3-1.4 1.3zm7.1-14.2v1c-1.3 0-2.7 2.1-4 2.1-0.4 0-0.7-0.4-1-1.7 0.3 0.3 0.6 0.3 1 0.3 1.3 0 1.3-2.3 2.7-2.3 0.3 0 0.7 0 1.3 0.6zm-3.3 12.5c-0.7 0-1.4 0-1.4-0.7 0-0.6 0-0.6 0.3-0.6 0.7 0 1.1 0.6 1.1 1.3zm0-8.1l0.3-0.7c0 0.4 0 0.7-0.3 0.7zm1 46.3c0 0 0.3-0.4 0.3-0.4 0.3 0 0.3 0.4 0.7 0.7-0.4 0-1 0-1-0.3zm0.6-40.2c-0.3-0.3-0.3-0.7-0.3-1 0-0.7 0.7-1.7 1.7-2l2.4 0.3c0.6-1.7 0.6-3.7 2.7-3.7 0.3 0 0.6 0 0.6 0.3 0 0.7-0.3 0.4-0.6 0.7 0 0.3 0.3 0.7 0.3 1 0 1-1.7 1.4-2.7 1.7h-0.3c-0.7 0.3-1.1 0.7-1.4 1.3 1.4 3.4 4.1 6.1 5.7 8.5 0 0.3 0 0.3-0.3 0.7-3.7-1.4-3.7-7.1-7.8-7.8zm4.1 19.9c-0.3 0.7-0.3 1.4-1.4 1.7-0.3 0-0.6-0.7-0.6-1 0-1 0.6-1.7 1.7-1.7 0.3 0 0.6 0.3 0.6 0.3 0 0.4-0.3 0.4-0.3 0.7zm2.4-2c-1.4 0-1.1-1-1.7-1-0.4 0-0.4 0-0.4 0 1-0.7 2.1-2.7 3.1-3.4 0.3 0.3 0.3 1 0.3 1.3 0 1.1-1 2.1-1.3 3.1zm3.7 11.1l-0.7 0.4c0 0-0.3-0.4-0.3-1.1 0-0.3 0.3-0.6 0.6-0.6 0.4 0.3 0.4 0.6 0.4 1.3zm2.7-9.1c-0.4-1-2.4-1.3-2.4-2.4 0-0.3 0-0.6 0.3-1-1.3-1-2.3-5.7-2.7-5.7 0 0 0 0 0 0.3 0-1 0.7-2 1.7-2.7 0 0.4-0.3 1-0.3 1.4 0 2 1.3 4 2.4 6.1l1 0.3c-0.4 0.3-0.7 0.7-0.7 1 0 1 1.3 2 1.3 2.4 0 0-0.3 0-0.6 0.3zm1.7-40.8c-0.4-1-1.4-2.1-1.4-2.7 0-0.7 0-1 0.7-1.4 1.3 0.4 0.7 2.7 1.7 3.7-0.4 0.4-0.7 0-1 0.4zm100.9 108.7c0.7-0.4 1.3-0.4 2-0.4 0.7 0 1.4 0 2.4 0.4 0.3 0 0.7-0.4 0.7-1.1 0-0.6-1.1 0-1.1-0.6 0-1 1.1 0 1.4-1-0.7-1.4-0.3-2.7-1-4.1-1 1-1.7 1.4-2.4 1.4-0.7 0-1-0.4-1.3-0.4-2.1 2-1 6.1-4.1 6.1 0.3 0.3 0.3 0.3 0.7 0.3 1 0 1.7-0.6 2.7-0.6zm32.7-0.7v-2c-0.3 0-1 0.3-1.7 1l-0.3-0.4c0-2.7 0.7-1.7 0.7-2.7v-0.3c-0.4-0.3-0.4-0.7-0.4-0.7 2.1-2 1.7-2.7 1.7-5-1 0.6-2.7 1.3-3.3 1.3-1.4 0-2.1-1-2.4-3h-5.4c0 5-3.4 4.4-7.4 4.4-1.4 0-2.1-0.4-2.1-1.7 0-4.1 4.8-1.7 7.5-6.1h0.6c0.4 0 0.4 0 0.4 0.3-0.4 0.4-0.7 1.4-1 3.1h1.7c2-4.1 2-6.8 2-9.8 0-1-0.4-2-0.7-3.4l2.4-2c-0.7-0.7-2.7-11.2-4.4-11.2 0 1.1 0 1.4-0.4 1.7-1.3 0-2.3-0.6-3.3-1.7v-0.6c0-4.8-6.1-9.1-8.5-11.5l-1-4.7 0.4-1-1.1-0.7c-6.4-21.3-26.3-36.8-49.2-36.8h-44.9v52h15.8c0 8.4 0 13.5 1 13.8h27.7v4.1h-44.5v52.3h16.5v15.2c3 0 6.8 0 8.4-1 0.4 0.6 0.7 0.6 1.4 1 0-0.4 0.3-0.7 0.3-1.4-0.3 0-0.3 0-0.3-0.3 0-0.4 0.3-1 1-2-0.3-1.1-0.7-1.7-1-1.7l1.3-1c0-1.7-1.3-4.1-1.3-7.1 0-0.7 0-1.4 0.3-1.7l12.9 0.3 1.6 1v3.1c-2.3 0.6-7 1-9.1 1.3 0 3.1 0.4 6.4 0.4 9.5l2-2.4h9.1c0 0.7-0.3 1.4-0.7 1.4l-0.3-0.4c-0.7 0-0.7 0.4-0.7 1.4 5.4 0 4.7-2.4 9.5-2.4 4.4 0 3.3 2.4 7.1 2.4 3.3 0 7-1.7 10.4-1.7-6.4 6.4-17.5 23.9-18.9 32 0.4 0 0.7 0.4 1 0.4 2.4-6.8 10.8-15.9 10.8-18.2h0.4c0.3 0 1.3 0.3 2.7 1 0-7.5 10.4-12.9 11.4-16.9 3.4 0 14.9-11.1 14.9-10.8 1.4 0.7 0.3 0 2 0.7 2.1-4.1 5.8-1.4 6.8-6.8 0.3-2 0.7-3.4 1.3-4-0.3 0-0.6 0-1-0.4-4 7.8-17.9 11.2-24 17.2-2.7 3.1-4.3 4.8-5 5.1h-1.7v-1l1-1.4c-1.7-0.6-0.7-3-1.3-5h-7.5v-1c2.4-1.4 6.1-0.4 8.5-2.1-1.7-1.6-4.4 1.4-4.4-4.7 0-0.7 0-1.3-0.4-2 3.1-1.4 7.8-5.1 10.2-5.1 2.3 0 5.7 0.4 8.7 0.4 3.8 0 7.1-0.4 8.5-2.4-5.1 0-9.8-1.4-14.2-1.4 6.1-4.3 6.4-4 11.5-4-1-1-2.7-1.4-5.4-1.4v-1c5.7-2.3 13.8-7.1 16.2-8.1 4 4.1 10.8 3.1 10.8 9.8l1.7-1.7c0.3 1 1.3 1.4 2.3 1.4l0.7 2.7c0-0.7 0.4-0.4 0.4-1.4 0-0.6-0.7-1.7-0.7-2.3 2.7-2.4 4-5.4 4-9.8zm-12.8-30.4c1.7 1.7 2 3.7 2 6.8-0.3 0.3-0.3 0.6-0.3 1.3h-1c0-2.4-1-4.7-1-6.7 0-0.7 0-1.1 0.3-1.4zm-96.5-54.3h-0.7c0-1.1 0.3-1.4 1-1.7 0 0.6 0 1.3-0.3 1.7zm3.3 24.3c0 0 0 0.3-0.3 0.3 0 0-0.3-0.3-0.7-1 0 0 0.4-0.4 0.4-0.4 0.3 0 0.3 0.4 0.6 0.4zm14.9-21.6c-0.3 0.3-1 0.7-1.7 0.7 0-0.7 0-1.7 1-1.7 0.4 0 0.7 0.3 0.7 1zm-9.8 4.4c0 1.3 0 1.7 0.7 2-1 0.7-2.4 1-3.1 2 0-1.7 1.4-3.4 1.4-4.7 0-0.7-1-1.7-1-2.4 0-0.6 1.3-1.3 2.3-2 0 0.3 0.4 0.3 0.7 0.3 2 0 3.4-5.7 4.7-5.7 0.4 0 1.1 0.3 1.1 1 0 1.4-1.7 1.7-1.7 2.7 0 0.4 0.3 0.7 0.6 1 0 0.7-1.3 0.4-1.3 1.4 0 2.3 3.4 0.3 4.7 2.3-1.7 0.4-1 3.4-2.3 3.4-0.4 0-0.7-0.3-1.1-0.7 0.4-1.3 1.4-1.3 1.7-2.3-1-1-2.7-1-4-1.4-2 0.7-1.4 2.7-3.4 3.1zm5.7 8.1v1l-0.6-1.4c0.3 0 0.3 0 0.6 0.4zm0 15.8v-2h0.7c0 0.7-0.3 1.7-0.7 2zm1.1 2.4c0-1.3 0.6-1.3 1.3-2.4 0 0 0.3 0.4 0.7 0.4-0.7 1-1.4 1.7-2 2zm2.3 12.5c-0.7-0.3-1-1.4-1-2 0.3 0.6 1 1 1 2zm1-5.1c-0.3-0.3-1 0-1.3-0.3 0-1 0.7-1.4 1-2 0.7 0 0.7 0.3 1.3 0.6-0.6 0.4-0.3 1.4-1 1.7zm-6.4 61.8c-0.3 2-2 4.4-3.7 4.4 0.3-1 1.7-1.7 1.7-2.7 0 0 0-0.4 0-0.4l1.7-1.3c0 0 0 0.3 0 0.3 0 0 0.3-0.3 0.3-0.3zm-2.3-17.2c0.3-0.4 0.6-1 1-1 0.3 0 0.6 0 1 0.3 0 0.7-0.7 1.4-1 1.4-0.4 0-0.7-0.4-1-0.7zm2-18.2c0 0.3 0 0.3 0 0.6h-1c0-0.3 0.3-1 0.6-1 0 0 0.4 0.4 0.4 0.4zm-5.4-0.7c0 1-0.4 1-0.7 1 0 0-0.3 0-0.3 0 0 0 0.3 0 1-1zm-2 5.4c3 0 3.3 4 3.7 4l-0.7 0.7c0 0 0.3 0.3 0.3 0.3 1.4 0 2.4-2 3.4-2 0 0 0.3 0 0.7 0.7-0.4 1-5.4 4.7-8.1 5.7-0.4-0.3-0.4-0.3-0.4-0.6 0-1.1 1.7-1.7 1.7-2.7-0.6-0.4-2-4.1-2.3-4.1 0 0 0 0 0 0.3 0-1 1.3-1.6 1.7-2.3zm-0.7 39.8c0-0.3-0.4-0.7-0.4-1 0-0.3 0-0.3 0.4-0.7 0 0 0.7 0.4 0.7 1 0 0.4-0.4 0.4-0.7 0.7zm3.4-12.8c-0.7 0-0.7 1-1.1 1.3 0-2-2.7-2-2.7-3.3 0-1.4 1.1-2.1 3.1-2.1-0.4 0.7-1.7 0.4-1.7 1.7 1 0.7 1.3 2.4 2.7 2.4 0 0-0.3 0-0.3 0zm3.3 15.5c0.4-1 0.4-2 0.7-3h-1.3l-0.4 3.4c-0.7-0.4-1.3-0.4-1.7-1.4 0.4-0.7 0.7-1.7 1.7-2v0.3c0.4-2.3 2-4.4 4.1-4.7 0 0.7-0.4 1.3-1.4 2 1 0.7 1.7 1.4 1.7 1.7 0 1-1.3 0.7-1.3 1.7 0 0 0.3 0.3 0.3 0.3 0.3 0 0.7-0.3 1-0.3-0.7 1-1.3 2.4-2.4 2.4-0.3 0-0.6 0-1-0.4zm3.7 11.8l-0.6-1 0.6-0.3zm0.7-28.7c-0.3 0-0.3 0.3-0.7 0.3-0.3 0-0.6-0.3-0.6-1 0 0 0.6 0 1.3 0.3zm0.7-22.2h-1c0-1 0.7-1.4 1.7-1.4 0 0.7-0.4 1-0.7 1.4zm56.4-39.2c0.3-0.3 0.3-0.3 0.6-0.3 0.7 0 1 0.7 1.7 0.7 0.4 0 0.7 0 1-0.4l0.4-0.3c1 2 3.7 1.7 5.4 2.7-1.7 0-2.7 1.3-3.7 1.3-2.4 0-0.4-2.7-2.1-3.3-0.6 0.6-1.3 1.3-2 1.3-1.7 0-0.7-1-1.3-1.7zm-2.7 11.5c-0.4 0.3-1.1 0-1.4 0.3-0.3-0.3-0.3-0.6-0.3-1 0-0.3 0-1 0.6-1 1.1 0 0.7 1 1.1 1.7zm-0.7-5.4c0 2-2 0.7-2 2.4 0 0-0.4-0.4-0.4-0.4 0-0.7 1-0.7 1-1 0-0.3-0.3-0.3-0.3-0.7 0 0 1-0.3 1.7-0.3zm-1.4-3l-2.3 1.3c0-1.3 0.6-2 1.3-2 0.7 0 1 0.3 1 0.7zm-3.3 10.8c1.6 0.6 2.3 2 4 2l0.7-1.4v0.4l0.7-2.1c0.3 0.4 1.6 0.7 1.6 1.4 0 0.3-1 0.7-1.3 0.7l-0.3 0.3c0.3 0.3 0.3 0.3 0.6 0.3-0.3 0.4-3 2.7-3 2.4v1c-1.7 0-2-0.7-2.4-2-0.3 0-0.3 0.3-0.3 0.3-0.7-0.3-0.7-0.6-0.7-1.3 0-0.7 0-1.4 0.4-2zm-0.7-11.2c-0.7 1 0 2-1 2-0.4 0-0.4-0.6-0.4-0.6 0-1 0.7-0.7 1.4-1.4zm-2.7 2.7c0.7 1.4 2.7 0.7 2.7 2.7l-0.7 0.7c-0.3-0.3-1-1.4-1.7-1.4-0.3 0-0.7 0.4-0.7 0.7 0 0-0.3-0.3-0.3-0.7 0-0.6 0.3-1.3 0.7-2zm1.3 4.1c-0.3 0.3 0 2-1.3 2 0-1.4 0-2 1.3-2zm-8.4-8.1c0 0 0 0.6 0.3 0.6h-1zm-0.7 8.1c0.7 0.4 0.7 1.1 1.1 1.7 0 0 0 0.4-0.4 0.4-0.3-0.4-1-1-1-1.4 0-0.3 0-0.3 0.3-0.7zm-2.7 74.3c-6 0-13.8-1.3-13.8-2 1.4-6.8 6.4-4.4 10.8-6.1 0.3 0.7 0.3 1.4 0.3 2 0 0.7-0.3 1.4-0.3 1.7 0 1.4 0.3 2.7 0.7 3.7 0.7 0 1-0.3 1.3-0.3 0.4 0 0.7 0.3 1.4 1zm1.3-76.6c-0.3 0.3-0.6 0.3-0.6 0.3-1.1 0-1.1-1-1.4-1.7 0.7 0.7 2 0 2 1.4zm1 69.5l-1-2.3 1.7-0.7c0 1.7-0.3 2.7-0.7 3zm2.1-51.6c-1 0-1.4-0.4-1.4-1 0 0.3 1-4.4 2.4-4.4 0.3 0 1 0.3 1 1.7 0 1.6-1.7 2.7-2 3.7zm4-2.4c-1.3-1.3 0-4-2-5.1 0.3-0.6 0-2 1-2 0 0 0.3 0 0.3 0l0.7 3.4c1 1 1.7 2 2.7 2 0.4 0 0.7 0 1.4-0.3 0.3 0 0.6 0.3 0.6 0.7 0 2.3-3 1-3 2.3 0 1 1.7 1 1.7 3.1l-0.7 0.3c-0.7-1-2.7-2.4-2.7-4.4zm6.8 8.4c0.3 0 0.3 0 0.3 0-1.3 0-3.7 0-3.7-1.6l2-2.1c0.4 1 1.7 0.4 2.4 0.7 0 1-1.4 1.7-1.4 2.4 0 0.3 0.4 0.3 0.4 0.6zm0.6-5c1.4-0.7 0.7-2.7 2.1-3.4 1.3 2 3.7 4.1 6.4 4.1 0 0 0.3 0 0.3-0.4 0-0.7-0.3-1-0.7-1.7 0-1 1.4-1 1.4-1.7 0-1.3-2.4-1.3-3.4-1.6 0.7 0 0-1.1 0.7-1.1-0.7-0.3-0.7-1-0.7-1.3 0-1 1-1.7 1-2.4 0-0.3-0.3-0.6-1.3-1 0.3-0.7 0.3-1.3 0.3-2 0-1.4-0.7-3-0.7-4.4 0-0.7 1.4-1 2.1-1.7 0.3 0.7 0.6 1.7 1.3 1.7 0 0 0.4 0 0.7-0.3 0 0.3 0 0.3-0.3 0.3-0.4 0-0.7-0.3-1.1-0.3-0.3 0-0.6 0.3-0.6 0.3 0 0.3 0.3 0.3 0.6 0.3 0.4 0.7 0.7 1.1 1.1 1.1 0 0 0.3 0 0.3 0 0 0.6-0.7 1.3-0.7 1.6 0 1.1 2.1 0.4 2.1 1.7 0 0.7-0.4 1.7-0.4 2.7 0 0.4 0 0.4 0.4 0.7l-1.1 1c1.7 0.4 3.4 3.4 3.4 4.1 0 0.6-0.3 1.7-0.3 2.3 0 0.4 0 1 0.7 1.4l-0.4 0.3 1.4 0.4c0 2-3.7 3-3.7 4 0 0.3 0 0.3 0 0.3l0.3 0.7c-0.3 0.4-0.7 0.4-0.7 0.7 0 0.3 1 1 1 1.3 0 2.7-2.7 2.4-3.7 3.1 0-1.4-2.7-2-3.7-3.1l-0.3 0.4-0.4-0.7c0-0.3 0.4-0.7 0.4-0.7 0.3 0 0.6 0.4 1 0.4 0.6 0 1.7-3.4 2.7-4.1-2.1-2-6.8 0-7.5-3zm13.9 6.7c-0.3 0.7-0.7 0.7-1.4 0.7 0-0.3 0.4-1 1.1-1 0 0 0.3 0.3 0.3 0.3zm-13.2 2.4c0.4 0 0.7-0.7 1.4-0.7 0.3 0 0.3 0.4 0.6 0.4v1c-0.6-0.4-1.6 0.3-2-0.7zm16.2 13.8c-2 1.4-4.7 3.4-7.4 3.4-0.3 0-1 0-1.4-0.3h-1.6c0.3-0.7 1-1 1-2.1 0-0.6-1.4-3.3-2.7-3.3-0.4 1.3 0 3.3-2.1 3.7-0.3-0.4-0.6-0.7-0.6-1 0-0.7 0.6-1.4 0.6-2.1 0-0.6-0.3-1-1.3-1v-0.6c0.3 0 1 0.3 1.3 0.3 0.4 0 0.4 0 0.7-0.3-1.3-1.4-1.3-3.4-2.3-4.8 2.7-0.3-0.4-3.7 3.7-3.7 0 0 0.3 0.4 0.6 0.4v0.6c-1 0-0.6 0.4-1 0.7 0 1 1.7 2.4 1.7 3.7 0 0.4-0.3 0.7-0.3 1 0.7 0.7-0.4 2.1 1.3 2.1 2.1 0 4.8-3.1 7.5-3.8 1.7 1.7 2.3 4.8 2.3 7.1zm-1-17.9c1.4-0.3 0.4-2.3 2.4-2.3 0 1.3-1.7 1.7-2.4 2.3zm-44.2 87.8c0 0 0 0 0 0.3h0.7c0-0.3-0.4-0.3-0.4-0.6 0 0.3-0.3 0.3-0.3 0.3zm47.9-49.3c1.4-0.7 3.7-1.7 3.7-2-2.3 0-4-0.7-5-0.7l-0.4 1zm-32.7 45.3h-1.7v1h2v3.7c0 2.7 0.4 4.4 0.7 5.1 0.7-1.7 0.7-4.1 0.7-6.8-0.4-0.7-0.4-1-0.4-1.7zm-29-23.3c0 0.7 0.4 1 1.4 1 0-0.3-0.4-0.6-0.7-1zm93.5-15.5l1-1c-0.3 0-0.3 0-0.7-0.3l-1.7 1.6 0.7 0.7c0.4-0.3 0.7-0.7 0.7-1zm-9.5 4.1c0 0.3-0.3 0.3-0.3 1h1.7c0.3 0 0.3 0 0.3-0.7l-0.3-0.3zm-14.9-76c0.7 1 1.7 1.7 3.4 1.7 0.7 0 1.4-0.3 2.4-1-0.7-2.4-2.7-2.4-6.8-2.4-1.3 0.7-1 2-1 2 0.4 0 0.4 0.4 0.4 0.7 0.3 0 0.6-0.3 1.6-1zm5.8-156.3c0 0.7 0.3 1 0.3 1.4l-0.7 0.6-1.6-1v0.4c0 2.7 2.7 20.9 2.7 21.2h3c3 0 5.1 0.4 5.1 2.1 1-0.7 2-4.4 2-6.1l-2-2 3-4.8c-0.7-0.6-2.4-1-3-1.3v-1.7l2-1.7c0-3.4-4.7-5.7-4.7-8.1l0.3-0.3c1 0.3 2.4 1 4 1.3 0-0.3 0.4 0 0.4-1-2.7-2-11.8-9.1-14.5-9.8 0 0.4-0.4 1-0.4 2 0 2.1 1.7 8.8 4.1 8.8zm1.7-1.3c1 0 2 0 2.7 0.3v0.7c-1 0.3-1.7 1-2.1 1.3-0.6-0.6-1-1.3-1-1.7 0.4-0.3 0.4-0.3 0.4-0.6zm10.1 226.1h1l0.3-0.7c-0.3 0-0.3-0.3-1-0.3-0.3 0.3-0.3 0.7-0.3 1zm9.8 14.2l-2.4 1.4c-0.3-1.7-0.7-1.4-1.3-3.8h-0.7v2.1c0.7 0.3 1 1 1 2.3h4.4c0-1-0.3-1.7-1-2zm-15.9-247.8c1-0.3 1.7-0.6 1.7-1.6l-1.7-0.4c0 0.7-0.3 0.7-0.3 1.7 0 0.3 0 0.3 0.3 0.3zm-2 182.3l-1.4-1v-3.7c-1.6-4.1-5-9.1-9.7-9.8v25c0.6 0 1 0.3 1.3 0.3 4.1-1.3 7.1-5.7 10.8-8.8 0-1-0.3-1.6-1-2zm-3.7-12.8c2 0 1-2 3.4-2 0 0.6 0.3 0 0.3 0.6h0.3c0-1-0.6-1.6-2-2-0.7 1.4-1.3 1.7-3 2.4v0.7c0.3 0.3 0.6 0.3 1 0.3zm2.3-114.1v2.4h0.7c2-3.4 7.1-2.4 7.1-4.1 0-1.7-2-2.4-6.4-2.4-6.1 0-5.7 0-7.8 4.4 1.4-0.6 2.7-0.6 4.1-0.6 0.7 0 1.3 0 2.3 0.3zm18.3-5.1v1.4c0.6 0 0.6-0.4 1-0.4v-0.6c-1 0-0.7-0.4-1-0.4zm-25-21.9c0-1.7-0.7-9.1-2.4-17.2h-0.6v19.9h3zm20.9 101.3l0.4-2.1c-3.4 0-5.4-0.3-7.8-1-2.4 0.7-6.1 1.4-9.5 1.4h-7v14.5c3.7-0.7 13.5-9.5 16.5-10.8 2.7-0.7 4.7-0.7 7.4-2zm-9.8 107.3c0.7 0 0-0.3 0.7-0.3v-1h-0.7zm27.7-153.3l0.7-0.3c0-0.4 0-0.4-0.4-0.4 0 0.4-0.3 0.4-0.3 0.7zm-14.5-28.7l-0.3 0.3h0.6c0-0.3 0-0.3-0.3-0.3zm13.5 31.7c0 0.4 0.3 0.4 0.3 0.4v-0.4c0 0 0-0.3 0-0.3-0.3 0.3-0.3 0.3-0.3 0.3zm-6.1 0.7c0 0 0 0 0-0.3 0 0.3 0 0.3 0 0.3zm0 0c0.4 0 0.4 0.4 0.4 0.7l0.3-0.7h-0.7c0 0 0 0 0 0zm0.4-0.7c-0.4 0-0.4 0.4-0.4 0.4 0.4 0 0.4 0 0.4-0.4zm-0.4 0.7c0 0 0 0 0 0 0 0 0 0 0 0v-0.3c0 0.3 0 0.3 0 0.3zm-0.3 0c0 0 0.3 0.4 0.3 0.4 0 0 0-0.4 0-0.4zm0.4 0.4c0 0.3 0 0.6 0.3 0.6 0 0 0-0.3 0-0.3h-0.3c0 0 0-0.3 0-0.3zm-10.2-35.2l-3-2c0 1 0.3 2 1.3 3.1 1.1 0 1.4-0.4 1.7-1.1zm56.7-62.4h-49.6v17.6c-0.3 1-0.7 1.6-1.7 2.3 1 1 1 0.7 1 2.4-0.6 0.7-1.6 1.3-3 1.3v-0.6c0.7-0.7 0.7-1.1 0.7-1.1 0-0.6-0.4-1.3-1.4-1.3-0.3 0.3-0.6 0.7-0.6 1l-3.1-1c0 0.3 0.4 1 1 2h-0.6c0 0 0 0-0.4 0 0 0-0.7 0.4-1 0.4v17.8c2.7 0 5.4 0.4 8.1 0.4v0.3c0 0 0 0.4-0.7 1 0 0 0.4 0.4 0.4 0.7 4 0 6.4-1 8.1-2.4 0.6 0 3 1.7 3.7 2.7v5.8c0.7 2 1.7 4.4 3.4 7.4h-13.5v4.7c-0.4 0-1.1 0.4-2.1 0.4v3.7c1.4 0 1 0.3 2.1 0.3v0.7c0 0 0 0-0.4 0.3h-4.7c-4.4 2.7-5.4 11.2-9.8 15.6-1.7 1.3-2.7 2.7-3.7 4-1.4 0-2.4-0.3-2.7-1 1.3-5.4 6.4-9.8 8.4-13.8-2.7-0.7-5.4-0.4-8.1-0.4l-7.7 0.4c0 2.7 1 1.6 1 4.3 0 2.4-1.4 1.7-1.4 4.1 0 7.8 5.4 7.1 5.4 13.2-0.6 1.3-2 2.7-3 3.7 1.3 0 0.7-1 1.7-1l1.3 1.3-0.3 2h-3.7c0.3 0.7 1.3 2.4 1.3 3.1h8.1v27.7c-2.3 0-4.7 0.3-7.1 0.3h-6.7v4c3.7 0 17.5 0.7 27.7 2.1h0.3c0 6 2 1.7-18.6 15.5-1.6 1.3-2.7 2.4-2.7 3h7.1v1.7c-6.4 0-7.1-0.3-13.8 2.7v8.1h0.7c1-1 4.4-1 7.1-1 0.6 0 1.6 0.4 2.3 0.4 1 0 1.7-0.4 1.7-0.4v-0.7c-0.7-0.3-1.3-1.6-1.3-4 0-2.4 0.6-2.7 2.3-2.7 5.4 0 14.9 1.3 14.9 2.7 0 4-4.8 5.4-7.5 7.4 0 0.4 7.1 5.1 7.8 7.4v36.2l-2.4 2.3c0.4 0.7 1.1 1 1.1 1 0.3 0 0.3-0.3 0.3-0.3 1 0 1 3 1 6.4 0 7.8 0 17.2-2.4 17.2 1.7 1.7 1.1 0.7 2.1 1.4v0.3c-1 0-0.4 0.3-1.7 0.3h-1c0 0.4-0.4 1.1-0.4 2.1 1 0.3 1.7 0.7 2.1 1.3 0-0.6 0.3-0.6 0.3-0.6 0-0.4-0.7-1.4-1.4-1.4 1.4-1.4 2.1-1 3.4-1.7 0-1.3-1-1-1-2 1 0 3.7 0.7 3.7 1.7v2h1c0 6.1 0.7 5.7-7.1 7.1v0.3c0.7 0 0.4 1 2.1 1v0.7c-1 0.4-1.7 1-2.1 2.4 3.1 0 2.7 2 5.1 2l1.4-1.3c0-0.7 0-1.4-0.4-1.7-0.3 0.3-1 0.3-1.7 0.3-0.3 0-1 0-2-0.7v-1c2.7 0 3 0 4.1-0.7 1 1.1 15.8 0.7 21.2 0.7h3.4v-9.1h24.6v-186h-16.8c0.6-2 0.6-7.1 0.6-9.8 0-4.4-0.3-4.7-1.6-8.1h1c1.7 1.7 3.3 5.1 6.7 5.1v-4.1c0-2.3-1.7-3.7-1.7-4.4h11.8zm-50.6 34.5l-0.7 1v-2l1 0.6zm-0.3-2.3c-0.3 0-0.3 0-0.3-0.4v-0.6h0.6c0.4 0.3 0.4 0.3 0.4 0.6-0.4 0.4-0.4 0.4-0.7 0.4zm-19.6 66.5v-1l1 0.6c-0.3 0.4-0.6 0.4-1 0.4zm5.1-1.4c0 0 0 0 0 0.4l-3 1c0.3-0.4 0.3-1 0.3-2.1 1 0 2.4 0.4 3 0.4 0 0.3 0 0.3-0.3 0.3zm29.4-8.1l0.3 0.4h-0.3zm1.6 2c-0.6 0.7 0.4 1-1.3 1-0.3 0-0.3 0-0.3-0.3 0.3-0.4 1-0.4 1.6-0.7zm0.7 0.3c0 0.4 0 0.7 0 0.7-0.7 0-1 0-1-0.3 0 0 0 0 0.3-0.4 0 0 0.4 0.4 0.4 0.4 0 0 0.3-0.4 0.3-0.4zm-0.3-3c0.3 0 0.3 0.3 0.3 0.3-0.3 0-0.3 0-0.3-0.3zm-0.4 5.7l-0.6 0.4c0 0 0-0.4 0.3-0.4zm-1.7 24c-0.3 0-0.3 0.3-0.7 0.3 0 0-0.3-0.3-0.3-0.3 0-0.4 0.3-0.4 0.3-0.7-1-0.3-1.6-2-2.7-2-0.3 0-0.6 0.3-1 0.3l-0.6-0.3c0.6 0 1.6-0.4 2.7-0.4 0.6 0 1.3 0.4 2 0.7v1.4c-0.4 0-0.4 0-0.7 0 0.3 0.3 1.4 0.3 1 1zm-5-5.1h1zm3-11.1v0.3c-0.7 0-0.3 0.7-0.7 1-0.3-0.3-0.3-0.6-0.6-1 0.3-0.3 1 0 1.3-0.3zm-0.7-4.4v-0.3c0 0.3 0.4 0.3 0.4 0.3l-0.7 0.3c0.3-0.3 0.3-0.3 0.3-0.3zm-0.3-10.5l0.3 0.4h-0.3zm0.3 3v0.7l-0.6-1c0.3 0 0.6 0 0.6 0.3zm-1 3c0.4 0 0.4-0.3 0.7-0.6v-0.4c0.7 1 1.7 1 2.7 2.1-0.3 0.3-0.3 0.6-0.3 1l0.3 0.3-1 0.7c-1-0.4-0.7-2-2-2.4 0.3 0 0.3 0 0.3-0.3 0 0 0 0-0.3 0l-0.4 0.3zm-0.3 3.1c-0.4-0.4-0.4-0.7-0.4-1.1h0.4c0 0.4 0.3 0.7 0.3 1.4 0 1-0.3 1.7-1.7 1.7l0.4 1c-0.7 0-1.4 0.3-1.4-0.7 0 0 0.4-0.3 0.4-0.3 0-0.4-0.4-0.7-0.4-1 0.7-0.4 1.4-0.4 2-0.7-0.3 0-0.3-0.3-0.3-0.7 0 0 0.3 0.4 0.7 0.4zm-2 18.5c-0.4 0.4-0.7 1-1.1 1.4-0.6 0-0.6-0.4-0.6-0.7 0-0.7 0.3-1.4 0.6-1.4 0.4 0 0.7 0.4 1.1 0.7zm0.3-18.2l-0.3-0.7h0.3zm-6.8-6.4h0.4l-0.7 0.3zm-0.7-16.8l0.4 1.3c-0.7 0.7-1 1-2.1 1l-0.3-0.3c0-1.7 1-1.4 2-2zm0 4c0 0.7-0.3 1-1 1 0-0.3 0-0.6 0.4-1zm-3.1-9.8c0.7 1.4 1 0.4 1 1.4-0.6-0.4-1-0.7-1.3-0.7 0.3-0.3 0.3-0.3 0.3-0.7zm0 9.8h0.7c0 0.4 0 0.4 0.3 0.7-0.3 0-0.6 0.3-1 0.3-0.3 0-0.3 0-0.3-0.6 0.3 0 0.3 0 0.3-0.4zm-10.8 16.2c0-0.7 0-1 0.4-1.3 0 0.3 0.3 0.6 0.6 1 0 0.3-0.3 0.3-1 0.3zm6.1 4.4h-5.1l0.4-1c2.3 0 3.7-0.3 4.4-0.7 0.6 0 0.6 0.7 0.6 1.4zm3.4 1.7c0.3-2.7 1.7-3.8 3-4.1 0 0-0.6 0.3-1 0.3-1.3 0-2.7-1.6-4.4-1.6v-0.7c0.4 0.3 1.1 0.7 1.4 0.7 1.3 0 2.4-1.1 3.7-1.7 1 1 3.7-0.4 4.4 1.3 0.3-0.3 1.3 0 1.7-0.3l0.3 0.3c1-0.3 1-1 2.7-1 0 1-1 1.4-1.3 2h0.6l-2 9.1c-1 0.4-1.7 0.7-2.3 0.7-3.4 0-2.4-5-6.8-5zm7.8 15.8c0.6 0.7 1 1.4 1 2 0 0.4 0 1.1-0.4 1.1-1 0-1.3-1.7-1.3-2.4 0-0.3 0.3-0.7 0.7-0.7zm0-6.4v-0.3c0.3 0.3 1 0 1 0.6-0.4 0-0.7-0.3-1-0.3zm11.4 47.3l-0.6-0.4c-0.7 0.7-1.7 0.4-1.7 0.4l-0.4-0.4c-1.3 0-3-0.3-4.7-0.3-1 0-2.3 0.3-3.4 0.7-1.3-1-3.7 0-4.7-1 0-2.1 1-4.4 1-6.8 0-1-1.3-1.7-1.3-3 0-0.4 0.3-0.7 0.7-1l-0.4-0.7c1.7 0 3.1 0 4.1-1.4 0-1-1.7-2.3-1.7-2.3-1 0-1.4 0.6-2 1v1.3c-0.4-2.7-0.7-5-0.7-7.4 0-3 0.3-6.1 0.3-9.8 0-1-1.3-2.4-1.3-3.7 0-0.7 0.3-1.4 1.3-1.7-0.3-0.3-0.7-0.7-1.3-0.7 0-1 0.3-2 1.3-2.7 1 3.4 3.4 5.1 6.8 5.4v1c-1 0-2.1-0.3-3.1-0.3-0.6 0-1.3 0.3-1.7 1 0 1 1.1 1.4 1.7 2 1-0.6 2.4-1 3.4-1 2.4 0 5.1 0.7 7.8 0.7v0.3l-0.4-0.3c-0.6 0-0.6 0.7-0.6 1 0 1 1.3 2.1 1.6 3.1h0.4c-1 2.3-1.4 5-1.4 7.7 0 2.4 0.4 5.1 0.4 7.5-1-0.4-2.1-0.4-3.1-0.4-1.7 0-9.8 0.7-9.8 1.4 0 1 0.7 1 1.1 1.7l-0.4 0.6c1 3.7 14.5 1 14.5 7.5 0 0.6-0.3 1-1.7 1zm4.4-68.6c-0.3 0-0.3 0-0.3-0.3 0 0 0 0 0.3-0.3zm0.4 14.1c0.3 0 0.6 0 0.6 0.4v0.7c-0.6-0.4-0.3-0.7-0.6-1.1zm1.7 3.1c-0.4 0.3-0.4 0.7-0.4 0.7-0.3 0-0.7-0.4-1-0.7 0-0.4 0-0.4 0.3-0.4 0.4 0 0.7 0.4 1.1 0.4zm1 1.7c0 0.3-0.4 0.6-0.7 0.6-0.3 0-0.7 0-0.7-0.3 0-0.3 1-0.3 1.4-0.3zm0 2.3c0 0-0.4 0.4-0.4 0.4-1 0-1.3-0.4-1.3-0.4 0-0.3 0.7-1 0.7-1 0.6 0 1 1 1 1zm0.3-3l-0.7-0.3 0.7-0.4zm2 1.7c-0.3 0.3-0.6 0.7-1 0.7-0.7 0-1-1.4-1-1.7 0-1 0.3-1.7 1.4-1.7 0.3 1 0.6 1 0.6 2.7zm-1-17.9c0 0.4 0 1-0.3 1 0 0 0-0.3 0-0.3 0 0-0.4 0-0.4 0.3l-0.3-0.3c0.3 0 1 0 1-0.7zm-1-2.7l1 0.4c0 0 0 0-0.3 0 0 0-0.4-0.4-0.7-0.4zm0.7 14.9l-0.4-0.4c0.4 0 0.4-0.3 0.7-0.3-0.7 0 0 1-0.7 1 0.4 0 0.4 0 0.4-0.3zm1-8.8l0.3-1v0.7zm0.7 13.1c-0.3 0-0.3-0.3-0.3-0.7 0 0 0.3 0 0.3 0.4zm0-5.1l0.3-0.7v0.7zm4.8-45.9c0 0.4 0 1 0.3 1.4h-3c-0.4-0.7-0.7-1.4-1.4-2.1h-3.4l-0.6 2.1h-2.4c0-1.4-0.7-4.4-0.7-5.1 0-3 1.4-1 2.1-4.1 0-0.3-0.4-0.3-0.4-0.3-4 0-3.7 1-5.7 2.4 0-6.4-2-10.2-2-14.2h17.2c-0.4 0.3-0.4 0.3-0.4 0.7 0 2 1.1 3.3 1.1 5.4 0 3.7-1.7 4-1.7 7.7 0 2.1 0.3 4.1 1 6.1zm2.7 74.6c0 0.4-0.4 0-0.4 0.4 0 0.3 0.4 0.3 0.4 0.3 0.3 0 0-1 0.3-1 0 0 0 0.3 0.4 0.3 0.3-0.3 1.3 0 1.3-1 0 0 0 0.3 0 0.3 0.3 0 0.7-0.3 1-0.3 0 0.3-0.3 0.3-0.3 0.3 0 0 0 0.4 0.3 0.4 0 0 0-0.4 0-0.4 0 0 0.4 0.4 0.4 0.4 0-0.4 0.3-0.4 0.3-0.7-0.3 0-0.7-0.3-1-0.7 0.7 0 0.3-1 0.7-1-0.4 0-0.4 0-0.4 0 0 0.3 0.7 0.3 1 0.3-0.3 0-0.3 1.7-0.3 1.7 0.3 0 1.7 0 1.7 1.1 0 0-0.7-0.4-1-0.4 0 2.4 1.3 3.1 1.3 3.1 0 0-0.3 0-0.3 0 0 0.3 0.3 0.6 0.3 1-0.3 0.3 0 2-1 1.7 0 0 0 0 0.3 0-0.3 0.3-0.6 0.3-0.6 0.3 0 0.3 1.3 0.3 1.3 0.3-0.3 0-0.3 0.4-0.3 0.4-0.4 0-0.4-0.4-0.4-0.4 0 0-0.3 0.4-0.3 0.4 0 0.6 0.3 1 0.7 1.3-1 0-1.4 0-1.4 0.4 0 0 0-0.4-0.3-0.7-0.3 0.3-0.3 0.7-0.7 1 0.4 0 1-0.3 1.4-0.3-0.7 0.6-1.4 0.6-1.4 1 0 0.3 0 0.3 0.4 0.3 0 0 0.3-0.3 0.3-0.7 0 0-0.3 0-0.3 0 0.3 0 1-0.3 1.3-0.6 0 0.6 0.3 0.3 0.3 1-0.3 0-0.3-0.4-0.3-0.4 0 0 0 0.4 0 0.4 0 0 0-0.4 0-0.4-0.7 0.7-1.3 1.4-1.3 1.7 0 0.4 0.3 0.4 0.3 0.4-0.7 0.3-0.3 0-0.7 0.6 0.4 0 0.7-0.3 1-0.3 0 0.3-0.6 0.7-0.6 0.7 0.6 0 0.6 0.3 2 0.3 0 0-1.7 1-1.7 1.4 0 0 0.3 0 0.3 0-0.6 0-0.6 0-1.3 0 0.7 0.6 2 0.6 2.7 1.6-0.4 0-0.7 0.4-0.7 0.4 0 0.3 1 1.3 1 1.3 0 0.7-1.7 1-1.7 1.4 0.4 0.3 1 0.7 1 1 0-0.3 0-0.7 0.4-0.7 0 0-0.4 0-0.4 0.4 0 1 0.4 0.6 0.7 1.3-0.3 0.3-0.3 0.3-0.3 0.7 0 0.3 0.3 0.7 0.3 1 0 1-2 0.7-4.4 0.7 0 0.3 1.7 2 3.4 2 0 0 0.3-0.3 0.7-0.3 0 0.3 0.3 1 0.3 1.6 0 0.4 0 1.1-0.7 1.1 0 0-0.3-0.4-0.3-0.4 0 0 0 0.4-0.3 0.7 0 0 0.3 0 0.3 0-1 0-0.7 0.3-1 0.3 1.7 0.4 2 0.7 2 3.1 0 0-0.3 3.7-0.3 4 0.3 0.4 0.7 1 0.7 1 0.3 0 0.3-1 0.3-2 0-2-0.3-5.4-0.3-7.1 0-0.3 0.6-4 1-6.1 0 3.4 0.3 6.8 0.3 10.2 0 1-0.3 2.3-0.3 3.3 0.3 0.4 0.3 2.1 0.3 3.8 0 5.4-0.3 6.4-0.3 10.4 0 1 0 2 0.3 2.7-0.3-0.7-0.3-1-0.3-1.7 0-1.3 0.3-3 0.3-4.4 0 0.7 0 1.4 0.3 2.1 0 0 0.4-0.7 0.4-1 0 0-0.4 0-0.4 0 0 0 0 0 0.4 0 0.3 0 0.7 1 0.7 1 0.3 0 0.3 0 0.3-0.4-0.3 0-0.3 0-0.3 0 0.6 0 1 2.4 1 5.1 0 3-0.4 6.4-0.4 6.7-0.3 0-1-0.3-1-0.3-0.3 0 0 0.7-0.3 1 0-0.3 0-0.3-0.4-0.7-0.3 0-0.3 0.7-0.3 1.4 0 1.7 0.3 3.7 0.3 3.7 0.4-0.7 1.1-2 1.4-2 0 9.1 0.3 15.8 0.3 23.6 0 0.4-0.3 0.7-0.3 1 0 0 0 0 0.3 0-0.3 0-0.3 0-0.3 0.4-0.3-0.4-0.3-0.4-0.7-0.4 0 0 0.7-1 0.7-1-0.3-0.3-1.4-1-1.4-2 0-0.3 0-0.3 0.4-0.3-0.4-0.4-0.4-3.1-0.4-3.4 0 0 0.4 1.7 0.4 1.7 0-0.7 0.3-1 0.3-1.4 0 0.4 0 0.4 0 0.4 0.4 0 0.4 0 0.7-0.4-1-0.7-0.7-0.7-1-1.7 0 0.4-0.4 0.4-0.7 0.4 0-1.1 0-2.7-0.3-4.1-0.4 0-0.4 0.3-0.4 0.7 0-0.4 0.4-1.4 0.4-2-0.7-0.4-0.7-1.1-0.7-1.7 0-0.7 0.3-1.7 0.3-2.7 0-0.4 0-1-0.3-1.4 0 8.8 0.3 20.3 0.3 21 0 0.6 0.4 2.3-1 6.4 1 0 1 0.3 1 1.3 0 1.7-0.6 4.4-0.6 5.4 0.3 0.4 0.3 0.4 0.3 0.4 0 0-1-0.4-1-0.4 0 0 0.3 0 0.3-0.3-0.3 0-2-1.4-2.3-1.7 0 0.3-0.4 0.7-0.4 1 0-0.7 0.4-0.7 0.4-0.7 0-0.6-1.7-0.6-1.7-1 0 0-0.7 0.7-1 0.7 0 0.3 0.3 1 0.3 1.3 0 0 0 0 0 0 0 0 0 0 0-0.3-0.3 0-0.7 0.3-0.7 0.3 0 0 0.4 0 0.4 0.4-0.7 0-1.1 0-1.4 0.3-0.3 0-0.7-6.4-0.7-10.8 0-2.7 0-4.4 0.7-4.4 0.3 0 0.3 0 0.3 0.7 0 0 0.4-0.3 0.4-0.3 0-0.4-0.4-0.4-0.4-0.7 0 0 0.4 0.3 0.7 0.7-0.3 0-0.3 0.6-0.3 0.6 0.3 0.4 0.3 0.4 0.7 0.4 0.3 0 0.3 0 0.6-0.4 0 1.1-0.6 0.7-0.6 1.1 0.6 0.3 0.3 0.3 1 1 0.3-0.4 0.3-0.4 0.3-0.7 0 0 0 0.3 0 0.3 0.3 0 0.3 0 0.3-0.3-0.3 0-0.3-0.3-0.3-0.7 0.3 0 1 0.4 1 0.4 0 0-0.3-0.4-0.3-0.4 0 0 0 0 0.3 0 0 0 0.4 0 0.4-0.3-0.4 0-0.7 0-0.7 0.3 0 0 0.3-0.7 0.3-0.7-0.3-0.3-0.3-0.3-1-0.3 0-0.3 0.3-0.3 0.3-0.3-1 0-1 0-1-0.4 0 0.4 0.4 0.4 0.4 0.4 0.3 0 0.3-0.4 0.3-0.4 0 0-0.7-0.3-0.7-0.6 0 0 0 0.3 0 0.3 0 0 0.4-0.3 0.4-0.3-0.4-0.4-1-0.4-1.4-0.4 0.7 0 0.4-0.3 0.7-0.7 0 0.4 0.3 0.4 0.7 0.4 0 0-0.7-0.7-0.7-0.7 0.3-0.3 0.7-1 0.7-1.3-0.4 0-0.4 0-0.4 0 0.4-0.4 0-0.7 1-1.1 0-0.3-0.3-0.3-0.3-0.3 0.3 0 0.3 0 0.7 0.3 0 0 0-0.3 0-0.3 0 0.3 0.3 0.3 0.7 0.3 0.3 0 0.3 0 0.6-0.3-0.3 0-0.3-0.3-0.3-0.7 0-0.3 0-0.3 0.3-0.6 0 0 0 0-0.3 0-0.3 0-0.3 1-0.7 1-0.3 0-0.7-0.4-1-0.4 0.3 0 0.7 0 0.7-0.3 0-0.3-0.4-0.3-0.7-0.3 0 0 0.3 0 0.3 0 0 0-0.3 0-0.3-0.4-0.3 0 1 0.7 1.4 0.4 0-0.4-0.7-0.7-1.1-0.7-0.3 0-0.3 0-0.3 0.3 0-0.3 0-0.3-0.3-0.3 0.3 0 2 0 2 0.7 0 0 0 0 0-0.4 0-0.3-0.7 0-0.7-1 0 0-0.7 0-0.7 0.3 0 0 0 0 0.4 0-0.7 0-0.7 0-1.4 0 0 0 0.4-0.3 0.4-0.3-0.4 0-1 0.3-1.7-0.7 0.3 0.4 0.3 0.4 0.7 0.7 0 0 0.3-0.3 0.3-0.3 0 0-0.3 0-0.3-0.4 0 0 0.3 0.4 0.3 0.4 0.3 0 0.3-0.7 0.7-0.7-1 0-1.4 0-1.4-0.7 0.4 0 0.7 0.3 1 0.3 0 0-0.3-0.6-0.3-0.6 0 0 0 0-0.3 0.3 0-0.3 0.3-0.3 0.6-0.3 0 0 0-0.4-0.3-0.4 0 0 0 0.4 0 0.4 0-0.4 0.3-0.7 0.3-0.7 0 0-0.3 0-0.3 0 0.7-0.3 1-0.7 1.3-1-0.3-0.4-0.3-0.4-0.3-0.4 0 0 0 0.4 0 0.4 0 0-0.3 0-0.3-0.7 0 0.3-1.4 0.3-1.4 0.3 0.7 0.7 0.4 1.1 0.7 1.1 0-0.4-0.3-0.4-0.3-0.4 0 0 0 0.4 0 0.4 0 0 0-0.7 0-0.7-0.4 0-0.7 0.7-0.7 0.7 0 0 0.3 0 0.3-0.4 0 0.4 0 0.4 0 0.4-0.3 0-0.3 0-0.3-0.4 0 0-0.4 1-0.4 1.4 0.4 0 0.4 0 0.7 0 0 0-1 0-1 0 0.3 0 0 0.3 0.3 0.3 0 0-0.3 0.3-0.3 0.7 0 0.3 0.3 0.7 0.3 1 0 0-0.3 0-0.3-0.3 0 0 0 1 0 1-0.7-3.4-0.7-7.1-0.7-11.2 0-14.1 0.4-27.6 0.4-41.8 0-2.4-0.4-6.4-0.4-10.1 0-1.7 0-3.1 0.4-4.1 0 0-0.4 0-0.4 0 0.4-0.7 0.7-2.7 1-3.4 0 0-0.6 0-0.6 0 0-0.6 0.3-0.3 0.3-1 0 0-0.3 0.4-0.3 0.4 0-0.7 0-0.4 0.6-0.7-0.6-0.7-0.3 0-0.6-1 0 0 0.3 0 0.6-0.4-1 0-0.3 0.4-0.6 0.4 0-0.4 0-0.7 0-1 0.3 0.3 0.3 0.3 0.3 0.6 0-0.3 0-0.6 0-1 0 0-0.3 0.4-0.3 0.4 0-0.7-0.4-1.7-0.4-2.7 0-1.4 0.4-2.7 1.4-3.1zm2 80.4c0 0-0.3 0-0.3 0 0 0 0.3 0 0.3 0zm-41.5-150.3c-0.4 0.4-0.4 0.7-0.4 1.1h1.1v-0.7zm13.1 35.1c0 0 0-0.4 0-0.4h-0.7c0.4 0 0.4 0.4 0.7 0.4zm-2-0.7c0 0 0 0 0 0l1.3 0.3c-0.3-0.3-1-0.3-1.3-0.3zm-4.1 3l2.4-0.3c0 0 0 0 0.3 0-0.3-0.7-0.3-1.3-0.3-2 0.3 0 0.7 0.3 0.7 0.7 0 0-0.4 0.3-0.4 0.3 0 0 0.4 0 0.4 0.3 0-0.6 0.7-1.3 1-2-1.7 1-3.7 0.7-5.4 1 1 0.4 1.3 1 1.3 2zm36.2 40.2c0-0.3-0.4-0.3-0.7-0.3 0 0 0.3 0.3 0.7 0.3zm229.8 44.6c0 0.3 0 0.3 0.4 0.3 1 0 1.7-1.7 1.7-3.4-0.4 0-1-0.6-1.7-1.3-0.4 1-0.4 2.3-0.4 4.4zm4.1 56.3c0.7 0 1-0.3 1-1.3h-0.7c0 0.7 0 1-0.3 1.3zm-47.6-81c-0.3 0-0.3 0-0.7 0.4zm12.5-9.8l3.7 0.7-1-0.7zm47.3 102.9v1.7c0.3 0 0.6-0.3 0.6-0.7v-0.3c0-0.3-0.3-0.7-0.6-0.7zm2.7-2c1 0 0.6 0.3 1 0.3 0.7-0.3 1-0.6 1-1.3-1 0-1.7 0.3-2 1zm-123.6-27.3c0 0.6-0.3 0-0.3 0.6h0.7c0-0.6-0.4 0-0.4-0.6zm123.9 28.7v2.3h1c0-1.3-0.3-2-1-2.3zm-3-1.7c-0.7-0.4-0.4 0-1-0.7-0.4 0.3-0.4 0.7-0.4 1l1 0.3c0-0.3 0-0.3 0.4-0.3zm-9.8-11.1l1-0.4c-0.3-0.3-0.7-0.6-0.7-1-0.3 0.7-0.3 1-0.3 1.4zm-110.4 9.8l-0.7-1.4h-14.2c0 2.7 4.8 2.4 9.8 2.4 2.1 0 4.1 0 5.1-1zm73.2-204.9l0.4-1.4h-0.7c0 0.7 0 1.4 0.3 1.4zm-35.1 0.6c0-0.6 0.4-1.3 0.4-2h-1c-0.4 0.3-0.4 1-0.4 1.4 0 0.3 0.4 0.6 0.7 1 0.3 0 0.3 0 0.3-0.4zm-13.8 2.1v2.7h0.7c2.3-4.1 7.1-2.1 7.1-5.4l-1.4-1.4h-11.8l-1 4.7c1.7-0.6 3-1 4.4-1 1 0 1.7 0 2 0.4zm52 7.1c0.3 0 0.7 0 0.7-0.4-2.1-2-0.4-6.7-3.1-8.8 0 0.4-0.3 1-0.3 1.7 0 2.7 1.7 7.5 2.7 7.5zm15.2 0c3.7 0 8.8 1.6 12.1 1.6 2.1 0 3.7-0.3 5.1-1 3 1 8.8 1.4 14.5 1.4 1.4 0 2.7-0.4 3.7-0.7-1.7-2.4-12.8 0-12.8-5.1 0-2.3-0.3-3.7-0.7-4.4h-1.3c0 2.4 0.3 4.4 1 6.1l-2 1.4c0 0-0.4-0.7-0.4-1.4 0.4-0.3 0.4-0.3 0.4-0.7 0-7.7-8.5-8.7-15.6-8.7-8.1 0-15.5-0.4-15.5 3.3 0 5.4 2.7 6.5 5.7 10.2 1.7-1.4 3.7-2 5.8-2zm-111.1 14.8c-0.3-0.7-1-0.7-1.7-0.7v1.4h1.7zm-17.2-13.5c0-0.7-0.7-0.7-2.4-0.7 0 0 0 0.3-0.3 0.3v1.1c0.7-0.4 1.7-0.4 2.7-0.4zm30 201.5h-0.6v1c0.3 0 0.6-0.3 0.6-1zm-73.5-95.2l0.6 0.4c0-0.4-0.3-0.4-0.6-0.4zm32.4-105.9h4.7c0-1.4-0.3-0.7-0.3-2.4h-6.5c-1 1.7-2 0.3-2.7 2l0.4 0.7c1.7-0.3 3-0.3 4.4-0.3zm46.9 166h1v-0.6l-1-0.4zm-25.7 6.1c-0.3 0-0.6-0.3-1-0.3 0 0-0.3 0.6-0.3 1.3 0.3 0 0.3 0.3 0.7 0.3 0.3-0.3 0.3-0.3 0.6-0.3zm131.7-63.1l-0.7-1.4c-0.3 0-0.3 0.4-0.3 0.7l0.3 1c0.3 0 0.3-0.3 0.7-0.3zm-147.2 52.3l-0.7-0.7c0 0.4-0.3 1-0.3 1.4 0.3 0 1 0 1-0.7zm96.5-81.3c0 0.6 1.1 0.6 2.1 0.6 0.3-0.6-0.7-0.6-1.4-0.6-0.3 0-0.3 0-0.7 0zm-1-7.8c-0.3 0.3-0.3 0.7-0.3 0.7 0 1 1 1.3 1.3 1.7 0.4-0.4 0.4-0.7 0.4-1.4 0-0.3-0.4-1-1.4-1zm6.4 32.1c-0.6-1.7-1.6-3.1-3-4.4 0.3 0.3 0.7 0.6 1 1-0.7 1.7-2 1.3-2 1.7 0.7 1 2 1.7 3.4 1.7 0 0 0.3 0 0.6 0zm-6.7-28.7c0 0 0.3 0 0.3-0.4-0.3 0-1 0-1.3 0.4 0.3 0 0.7 0 1 0zm3 25.6c-0.3-0.3-0.3-0.7-0.6-1l-0.7 0.7c0 0.3 0.7 1.3 1.3 1.3 0-0.3 0-0.6 0-1zm0.7-1.3c0 0 0 0 0 0 0 0 0 0 0 0zm1-19.3v-0.3c-0.3 0-1.3 0-1 0.3 0.3 0 0.7 0 1 0zm-2.3 19.6l1.3-0.3c-5.4-2.4-9.4-8.1-12.5-8.5 0.4 1.4 1 2.1 2.4 2.7-0.4 0.4-0.4 0.7-0.4 1.4 2.4 1.3 5.1 2 6.8 4.7 0.3-0.3 0.7-1 1-1 0.3 0 0.7 0.3 1.4 1zm-1.1-2.4c0.7 0.7 1.7 1.4 2.4 1.7-0.3-0.3-0.3-0.3-0.3-0.6 0-0.7 0.3-1.4 1-2.1-2-2 0.3-4.4-3.1-4.4 0.7 0.4 1.1 1.1 1.1 1.4 0 1.3-1.1 3-1.1 4zm0-17.5c0 0-0.3 0-0.3 0 0.3 0 0.3-0.7 0.3-0.7 0-1.7-1.6-1.7-2.7-1.7-0.3 0.4-1.3 1-1.3 1.7 0 1 2.4 1.4 3 1.7 0.4-0.3 0.7-0.3 1-1zm2.4 19.2c0 0 0 0.4 0 0.4zm0-18.9c-0.3 0-0.7 0.3-0.7 0.6 0 0 0 0.4 0.4 0.4 0-0.4 0.3-0.4 0.6-0.7 0 0 0-0.3-0.3-0.3zm-10.5-60.5c0-0.3-0.3-0.6-0.6-1-0.4 0.4-0.7 0.4-0.7 0.7 0 0.3 0.3 0.7 0.7 0.7 0.3 0 0.3 0 0.6-0.4zm117.8 126.6h-1.6v-21.6c2.3-2.3 2-4.4 5.4-4.4v-2.3c-1.1-0.4-3.8 0-5.4-1v-22c0.6 0 1.6 0 2.7 0 1 0 1.6 0 2.7-0.3v-3.4c-2.7 0-4.4-0.3-5.4-0.7v-15.2c0.6 0.4 1 0.4 1.3 0.4 2 0 4.4-0.4 4.4-10.2 0-10.8-1.7-7-4.4-8.4v-0.7c1 0 2.7-0.3 3.4-1-1-1.7-2.4-2.7-4.7-2.7v-4c0-1.7 0-3.7-0.4-5.4h1.7v-0.7l-1.7-1.4c-2.7-16.2-14.5-29.7-29.3-35.4-1.1-1.7-2.4-2.7-3.8-2.7-1.3 0-2.7 0.3-4 0.3-2.7-0.3-5.7-0.6-8.8-0.6h-35.4c-0.4-0.4-1-0.4-1.7-0.7l-0.4 0.3c0 0 0 0.4 0.4 0.4h-3.7c-2.1-5.4-5.1-8.5-6.1-14.9h-1c0 0.7-0.4 1.7-0.4 2.7 0 3 4.1 9.1 4.1 12.2h-2.7l-2.7-3.4c-0.7 1-1.4 2-1.7 3.4h-6.7c1.6-3.4 2.3-10.5 2.3-14.2 0-1.4-0.7-2-2-2-2.4 0-6.8 0.3-7.4 1.6 0.6 1.1 1.3 2.1 1.3 2.1 0 0.3-1 0.6-2 1.7 0 2.3 0.7 4.4 0.7 6.7 0 1.4-0.4 2.7-0.7 4.1h-1.7c0-1-0.7-1.7-1.7-1.7-0.3 0.7-1 1-2 1l-0.3-0.3c0-2.7 3-1.7 4.7-2.7v-2.4l-2.4-2.7c1.4-0.7 0.4-0.7 2.4-1.7-1.4-1.4-0.7-1-1.7-2l-0.7-0.7c0-0.3 0.7-0.7 0.7-3h-3v5c1.3 0 1.6 0.4 2.3 0.4l-0.7 1h-4.7c-3 2-3 5-5.4 9.8h-5.4c1.4-1.7 2.4-3.4 3.4-5.1l-0.3-0.3c-2.7 0-5.8-0.4-8.5-0.4-3.4 0-6.7 0.4-8.8 4.8 0.4 0.3 0.7 0.6 0.7 1h-18.2c0.3-1.7 0.7-3.1 1.3-4.4-0.6-1-1.7-1.4-2.7-1.4-0.3 1.4-1 4.1-1 5.8h-1.7v8.4c-0.3 0-0.3 0.3-0.3 0.7 0 0 0 0 0.3 0.3v10.1c-0.3 0.4-0.3 1.1-0.6 1.1h0.6v4.3c-0.6 0.7-1.3 0.7-1.7 0.7-5 0-17.8-2.3-17.8-5.4 0-1 0.6-1.7 2.7-1.7 1.6 0 2.7 0.7 4.3 1.4 0.7-0.7 1.1-1.4 2.4-1.4l-0.3-1c-6.1 0-9.1 1-9.1-7.7 0-2.7 0.3-5.4 0.3-8.1 0-7.1-2.4-7.8-5.1-7.8-2 0-4 0.3-6 0.3 1.3 3.7 1 3.1 3 3.7v2.1c-0.3 0-0.3 0-0.3 0h-62.8v49.6h15.8l-0.3 24.6c-1.4 2.1 0 1.7-1.4 3.1 0.7 0 0.4 0.3 1.1 0.3h0.6l-0.3 2.7c-0.7 0-0.3 0.3-0.7 0.3 0 0.4 0.4 2.1 1 2.7v3.8c-1.3 0.3-0.6 0.3-1.3 1 0.7 0.6 0.3 1.7 1 2.3l0.3-0.3v18.2c-0.3 0.4-1-0.7-1.7 1.7 0.7 0 1.1 0 1.7 0.3v75.3h49.7v-3c1-0.4 1.6-1 2-2.4h-1c-0.4 0.4-0.7 1-0.7 1.4l-0.3-1.7 1-5.1c-1-1.7-0.4-6.4-1-7.1v-12.8h3.7l0.3 1c-0.7 3.4-0.3 9.1-1 11.2 0 0.3 0 0.3 0.3 0.3h4.8l0.3 0.7c0 1-4.4 0.3-4.4 1.3 0 10.5-1 23-1 33.8 0 6.4 0.7 11.4 1.3 17.5h21.6c1.4-2 1.4-8.1 1.4-11.5 0-4 0-5-3-7.4l1-1.3-0.4-0.4c0 0.4-0.6 0.4-1.3 0.4-2.7 0-3.1-3.1-4.4-5.1-0.3 0-1.4 0.3-2.7 0.3 0.7 2.4 2.4 3.8 2.4 5.1 0 4.7-3.1 18.9-3.4 18.9-2-0.3-2.7-5.7-2.7-10.8 0-10.8 0.3-18.6 1.7-26-2.4-1.7-3.4-1.3-3.4-6.4-0.3 0.3-1 0.7-1.7 1.7-0.7-2-0.7-1.7-2.4-3.4 0.4-0.3 0.7-0.3 1.1-0.3h3l2-3.4c1 1 0.7 1 2 1 0.7 0 1.4-0.7 1.4-1 0 1.7 12.1 9.5 12.5 9.1 0.7-1 0.7-5.7 0.7-7.1 0-2 0-3.3-1.1-4.7l-1 1.4c0 0-0.3-0.4-0.3-0.7 0-2.4 1.7-1 2.4-2.4-2.1-1.7-2.4 0-2.4-4.7 1.7-0.7 2.4-2.7 2.4-5.4 0-9.1-10.8-1.4-10.8-15.2 0-1-0.4-1.7-1.1-2v-0.4c2.4-1 4.1-2 5.8-4.4 2.3 0.7 2.3 2.1 3 4.1 0.7-0.3 1.7-0.3 3.1-0.3 0-2.4-0.7-3.8-0.7-6.1 0-1 0.3-2 0.7-3.1-4.8-3-3.1-4.7-10.5-4.7-1.4-1.3-2.7-2.7-4.7-2.7-0.4 0 0 0.4-1.7 0.4 0.7 1 1 1.6 1 1.6l-0.7 1.1c-0.7-1.4-2 0.3-2-2.4-0.7 0-1 0.7-1 1.3h-0.7c0 0-0.3 0-0.3-0.3v-1.3c0-0.4 0.3-0.4 0.3-0.4 0.3 0.4 1 0.4 1.7 0.4 0-0.4 0.3-0.4 0.3-0.4l-0.3-1c0-0.3-0.7-0.3-1.4-0.3-1.3 0-1.3 1-2.7 1.7-1.3-0.7-2.3-1.1-4.7-1.1 0.7 0.7 1 2.4 1 2.7-0.3 0-0.3 0.7-0.6 0.7l-2.7-1.3v-6.4c1.6 0.3 3.3 0.3 5.7 0.3l2.4-2.4c1 2.1 2 3.1 3 3.4 0.7-2 2-3.4 3.4-4.4 0 2.7 0.6 1.7 1.7 3.4 0.6-0.7 1.3-0.3 1.3-0.7 0.3 0 0.7 0.7 1.4 1.4 0.6-0.7 1-1.4 2-1.4 0 0.4 0 1.4 1.3 1.4 0-0.4 0.4-0.4 0.7-0.4 1.4 4.1 2.7 4.4 5.4 7.8l-1 1 1.3 1.4c2.1 0 1.7-11.2 1.7-14.9 0-6.4-0.3-13.2-1.7-16.2 0.7 0 0.7-2.4 0.7-5.4 0-2 0-4 0-6.1l-2-1.3-1.7 2c-0.7-2.4-1-2.4-1.7-3.4-1.7 0.7-2.7 1-3.4 2.7-0.3 0-0.3-0.3-0.6-0.6v-0.7c0.6 0 1-0.7 1-1.7 0-1-0.7-1.7-2-2.4 1-0.6 2-1.3 3-1.3 1 0 2 0.3 3.4 0.3 0.6 0 1.3-0.7 2-1.7-1.4 0-2-0.3-2-0.6l0.3-1.1h0.7c0.3 0 1 1.1 2 2.4l-0.7 1.4c0.4 0.6 1 0.6 1.7 0.6 0-0.6 0-2 0-3.3 0-1.4 0-2.7 0.4-3.8-0.7-1.3-1.4-0.3-2.1-2-1 0.7-8.4 1.4-9.1 2.7-1.3-0.7-3-1.3-4-1.3l1.3-2.4 3.1 2.7 1.3-2.7 4.7 1 0.4-0.3c-0.7 0.3-8.1-4.8-9.8-5.8v-0.3c0.3 0 0.7-0.3 0.7-0.3 0.3 1 1 1.3 1.6 1.3 1.4 0 1.1-2.7 1.1-3.7 3.7 1.7 7 3.4 10.1 6.1 0.7-0.7 0.7-1.7 0.7-2.7 0-5.8-1.4-6.8-3.8-6.8-3.3 0-7 0-10.8 0.7v0.7c0 0.3 0.4 0.3 0.4 0.3 0 0.3 0 0.7-0.7 0.7l-2-2c-0.4 0-0.7 0-1.4 0.6-1.3-2-5.4-4.7-7.4-6 0 2.3-2.4 1.3-2.4 3 0 0.3 0.4 0.7 0.4 1.3 0 0.4-0.4 1.1-1 1.7 0-0.3-0.4-0.6-1-0.6v-3.8c0.3 0 0.6-0.3 1-0.3l-1-0.7v-2.3c9.1 0 10.8 6 25.9 6 1.4 0 2.7-0.6 4.1-0.6v-3.4l-0.7-1c-2.7 0.7-5.7 1-8.4 1-2.4 0-5.4-0.3-6.1-1.7 0.3 0 0.7 0.3 1 0.3 3.4 0 3.7-8.4 3.7-15.5 0-3.7 0-7.1 0-8.4h5.4v21.6h15.6l5.4 0.7c0 22.6 0.3 135.3 0.3 135.3h12.2v5.4c9.1 0 14.8 0 20.9 0 6.1 0 12.1 0 21.9-0.3 0-47.6 0.4-93.2 0.4-140.4 8.4 0 14.5-0.4 21.9-0.4 10.5 0 10.1 0.7 10.1 10.8h9.1v1.7c-1.3 0-3 0-4.3 0.3-0.7-0.6-1.7-1-2.7-1-0.4 0.4-0.4 0.4-1.1 0.4l-1 1.3v8.8h0.7c1.4-1.3 7.4-4.7 8.4-4.7v4c-3 0-9.1 8.5-9.1 9.5 0.7 0.7 1.4 0.7 2.1 0.7 1.3 0 2.7-0.4 3-0.4 1.3 0 2.4 0.4 2.7 1.4-0.7 0.6-2.4 1.3-4.7 1.3h-3.1v10.1h1.7c0-0.3 0.4-0.6 0.4-0.6-0.7-0.4-1.4-2.4-1.4-5.8 0-1 0.7-1.7 1.7-1.7 2 0 4.4 0.4 6.7 0.4v91.8c0 0-0.3 0.3-0.3 0.7 0 0 0.3 0 0.3 0.3v6.4h7.5v0.7c0.3 0 0.6-0.3 0.6-0.3l3.8-0.4c0 0 0.3 0 0.3 0.4l-1 1c0.3 0.3 0.7 0.3 0.7 0.3 1.6-0.3 3.3-1 4.7-1.7h5.4c0 0.7-0.4 1.7-0.4 3.1-4.7 0-11.1-0.7-13.8-1.4 0 1 0 1.7-0.3 2.4h0.3c1.4 0 3 0.3 4.4 0.3v0.7c1 0.7 2 1 3 1 1 0 2.4-0.7 3.4-0.7 0.7 0 1.7 0.4 3 1 0.4-0.3 0.7-1 0.7-1.3 3.7 0 9.1 2.3 9.1 2.3-4.7 6.5-9.8 10.5-19.2 11.2 0 1.7 11.1 2 21.3 2 8.4 0 18.9-0.3 21.6-0.3v-46.9c0-1.7 0.3-7.8 0.3-10.5 0-5.8-1.7-5.1-4.1-5.1zm-184.3 67.9h0.7c0 1 0.4 0.6 0.4 1.3 0 0 0 0-0.4 0h-1c0-0.7 0-1 0.3-1.3zm9.5-73.6c-1 0-3 0-3-1.7h1.3c1 0 1.7 0.7 1.7 1.7zm-4.1-14.9c0.4 0.7 0.7 1 1.1 1v0.4c-0.4 0-0.7 0.3-1.1 0.7l-0.6-1.1zm-2.4 15.9h2.7v0.7c0 0.3 0 0.3-1.7 0.3-0.3-0.3-0.7-0.3-1.3-0.3zm-2.1-2.7h0.7c0 0.7 0.4 0.3 0.4 1-0.4 0-0.7 0.3-1.4 0.3 0.3-0.3 0.3-0.6 0.3-1.3zm0 33.1c0-0.4 0.4-0.4 1.1-0.4v1c-0.7 0-0.4 0.4-1.1 0.4 0-0.4 0-0.4-0.3-0.4 0.3-0.3 0.3-0.3 0.3-0.6zm11.9-77.3l-0.4-0.4c0-0.3 0-0.6 0.4-0.6 0.3 0.3 0.3 0.6 0.6 0.6 0 0.4-0.3 0.4-0.6 0.4zm0-5.8c0.3 0 0.6 0 0.6 0.4l-0.3 0.6c-0.7 0-1.4 0.4-1.4-1zm-3.3-5.4c-0.7 0 0 0.4-0.7 0.4h-0.3c0.3-0.4 0.3-0.4 0.3-0.7 0.3 0 0.3 0 0.7 0.3zm-3.4-7.4l3 2c-0.6 0-0.3 0.7-1.3 0.7-0.7-1.7-1.4-0.3-2-2 0 0 0-0.4 0.3-0.7zm0 2.4c0 0 0 0.3 0.3 0.3-0.3 0.3-0.3 0.7-0.3 1h-0.7c0-0.3-0.3-0.7-0.3-1.3zm1.3-15.2l1 0.3c-0.3 0.7-1 1-1.3 1 0.3-0.3 0.3-0.7 0.3-1.3zm-23.9 1.7l0.3 0.3-1.3 1.3c0 0 0 0 0-0.3 0-0.3 0.6-0.7 1-1.3zm-5.4 2.7c0.3-0.7 0.3-1.4 0.3-1.7 0-1 0-1.7 0-2.4 0-0.7 0-1.3 0.7-2 1.3 0.7 1.7 1 1.7 1.7 0 1-1 2.3-1 3.7 0 0.3 0.3 1 1 1.7 0 1-0.7 2.3-0.7 3.4 0 0.6 0 1 0.7 1.6-0.4 1.7-1.4 3.1-2.1 4.4-0.6-0.6-1-1.3-1-2.3 0-1.4 0.4-2.7 0.4-4.1 0-0.7 0-1.3-0.4-2zm-8.1 28c0.4 0.3 0.7 0.7 0.7 1 0 0.4-0.3 0.7-0.7 0.7-0.3 0-0.6-0.3-0.6-0.7 0-0.3 0.3-0.7 0.6-1zm-7.4-21.9c-0.3-0.4-1.4-0.7-1.4-1.4 0-0.3 0.4-0.7 1.1-1 0.6 0.3 0.6 0.7 0.6 1.4 0 0.3 0 0.6-0.3 1zm10.8 89.1l2 1.3c-0.3 0.7-1.7 1.4-1.7 2.1 0 0.3 0 0.3 0 0.3-1.3-0.7-3-1.4-4-1.4-0.3 0-0.7 0-0.7 0-0.3-0.3-1-1-1-1.3 0-0.3 0-0.7 0.7-0.7l1.7 1.7c2.3-2 2.7-5.4 5.7-6.7l0.3 0.3c-0.3 2-3 1.7-3 3.7 0 0.3 0 0.3 0 0.7zm7.4-14.2c-0.3 1.7-0.3 3.7-1 6.1 0 1.3 1.7 1 2.4 2.3-1 1.4-2.7 2.7-2.7 4.8 0 0.3 0.3 0.6 0.3 1-0.3 0.7-0.7 0.7-1.3 0.7-1 0-1.7-0.4-1.7-1.1 0-0.3 0-0.6 0.3-1-0.3 0-0.3-0.3-0.7-0.6 0 0.3 1.7-5.8 1.7-9.2l-0.3-3c0.3-1.7 0.7-5.4 3.4-5.4 0.3 0 0.6 0.3 1 0.7-0.4 1-2.4 2-2.4 3.3 0 0.4 0.4 1.1 1 1.4zm2.4-18.6c-0.7 0-0.7-0.3-1-0.3-1 0-1.4 1-1.4 1 0 1 1 1.7 1.4 2.4l-2.4 8.1c-0.3 0-0.3 0.6-1 0.6 0.3 0 0.3 0.4 0.3 0.4 0 0.3 0 0.7 0 1l-1-0.7 0.7-0.7c-0.7-2.7-1-5.7-1-8.7 0-2.4 1.3-4.4 1.3-5.1 0-0.7-0.6-1-1.3-2 0.3-1 0.3-1.7 0.3-2.7 0-2.4-0.6-4.7-0.6-7.1 0-1.7 0.6-3.4 0.6-5.1 0-1.3 0-2.7 0-4 0-1.7 1-3.7 1-5.1 0-1-1-1.7-1-2.3 0-0.4 0-0.4 0.4-0.7-0.7-1-0.7-2.7-0.7-4.1 0-1.3 0-2.7 0-4 0-0.4 0-1 0-1.4 0.3-0.3 0.3-1 0.3-1.3 0-1-0.3-2-0.3-3.1 0-1 1-1.3 1-2.3 0-0.7-1-1.4-1-2 0 0 0.3-0.4 0.7-0.7 2 1 0.6 3.7 2.7 5 0 0.4 0 1.1 0 1.4 0 0.3 0 1 0 1.3 0 1.1-1.4 2.1-1.4 3.4 0 1.4 1 2.4 1 3.1 0 0.6-0.3 1.3-1.3 1.6 0.3 1.7 1 3.8 1 5.4 0 1.1 0 2.1-0.7 3.1 0.7 1.3 1 2.3 1 3.4 0 0.6-0.3 1.3-0.3 1.6 0 1.4 0.3 2.4 1.3 3.4-0.6 1-0.6 2-0.6 3.4 0 1.3 0.6 3 0.6 3.7 0 0.7-1 1.4-1 2 0 0.4 0 0.7 0 1 0 1.1-0.3 2.4-0.3 3.1 0 1 0.3 1.3 1.7 1.7l2.7 0.3c0 0 0 0.3 0 0.3 0 1.1-1 1.4-1.7 1.7zm14.5 8.1c0.3 0 0.3 0.4 0.3 0.4 0 0.3-1.6 2-2.7 2-0.3 0-0.3 0-0.6-0.3 0-1.4 2-1.4 3-2.1zm-3.4 17.9h-0.6c-0.7-1.3-1.7-2-2.4-3.7 0-0.3 0.3-0.7 0.7-0.7 2.7 0 2.3 3.1 2.3 4.4zm-2.7-21.6c0 0 0.4 0 0.7 0 0.7 0 1.4 0.4 1.4 1 0 1-0.4 5.4-1.7 6.4-0.7-2 0.3-4.7-1.7-5.7-0.7 0.7-1.7 1.4-2.7 1.4-1 0-2-0.7-2-1.7 0-0.7 1.6-0.7 1.6-2.4 0-0.3 0-1-0.3-1.3 1-0.4 1-1.4 1-2.1 0.7 0 2 0 2 1 0 0.4 0 0.7 0 0.7 0 1.4 0.7 2 1.7 2.7zm-1-16.5c-0.7 0-1-0.4-1-1 0 0 0-0.4 0.3-0.4 0.4 0 1.1 0 1.1 0.4 0 0.3 0 1-0.4 1zm13.5-46.6h1c0 1 0 1-1 1zm-0.7 40.5l0.7 1.4h-0.3c-4.7 0-9.5-0.4-13.5-0.4v-1c2 0 3.4 0 5.4-0.3v-0.4c-1.7-1-3.7-1-5.4-1v-6.7c0.3 0 0.3 0 0.3-0.4 3.1 1.7 7.1 3.4 10.1 6.1-0.6 0.7 0 2-0.6 2.7 1.3 0 1-0.3 2.7-1 0.3 0.7 0.3 1 0.6 1zm-10.8-38.1v-1c0.4 0.3 0.4 0.6 0.4 1zm8.1-7.8c0-0.3 0.7-0.3 2.3-0.3l-0.6 1.3c-0.4-0.3-0.7-0.3-1.7-0.3zm0 5.7h1.3c-0.3 0.7-0.6 1.4-1.3 1.7l1.3 0.7c-0.3 0.3-0.3 1-0.3 1.7h-0.3c-1.1 0-1.1-1.7-1.7-2.4zm-7.8-8.1c0.7 0 1.4 0.3 2.4 1 0-0.3 0.3-0.7 0.6-1.3 0.7 1.3 2.4 1.3 3.4 3l-6.7 0.4c-0.4-0.4-0.7-1.1-0.7-1.7zm-1 6c2 0 3.7-0.6 4.7-1.6h0.7c0 0.3 0.3 0.6 0.3 1v1.3l-1.7 1c-0.6-0.6-3.3-0.6-4-1.3zm-0.4 31.7l1.1 1c-0.7 0-0.7 0.4-1.4 0.4zm-0.3-18.9c0 0.3-0.4 0-0.4 0.6h-0.6v-1.3c0.3 0 0.6 0.3 1 0.7zm83.3-66.5v0.6h-0.6c0-0.3 0-0.6 0.6-0.6zm-10.1-22.7c0 1.1 0.7 0.4 0.7 1.7l-1.4-1zm-15.5 28.4c-0.3 0-0.7 0-0.7 0-1.3 0-2.3-1-3.7-1-0.3 0-1 0.3-1.3 0.6-1-0.6-1.7-1-2.7-1-1.4 0-3.1 0.7-4.4 0.7-1 0-1.7-0.7-2.7-0.7-2 0-3.7 1.4-5.8 1.4-1 0-3.7-1-5-3.1 0.7-0.6 1.3-0.6 2.3-0.6 1.7 0 3.8 0.6 5.4 0.6 0.4-0.3 1.1-0.3 1.4-0.3 1 0 2 0.3 3.4 0.3 0.6 0 1.3 0 2-0.6 0.3 0.3 1 0.6 1.7 0.6 1.3 0 2-2 3.4-2 1.3 0 1.6 3 3.7 3 0.6 0 1.3 0 2 0 0.7 0 1.7 0.4 2.4 1.1 0 0.3-0.7 1-1.4 1zm-1.7-7.8c0.4 0 0.7 0 1 0 0.4 0 1.1 0 1.1 0.7 0 1-0.4 1.3-1.1 1.3-0.6-0.3-1.3-1-1.3-1.3 0-0.4 0-0.4 0.3-0.7zm13.9 0.3c-0.4-0.6-0.7-0.6-1.4-0.6-2 0-2.7 1-2.7 2.3 0 0.7 0.4 1.4 0.7 2.1l1.7 1.6c-1.4 2.1-3.4 2.7-5.4 3.4-0.7-0.7-2.4-2.3-2.4-4 0-1.4 1.7-1.4 1.7-3.1 0-2.3-1.3-3.7-3.7-4.4-1 1.1-1.7 1.1-2.4 1.1-2 0-3.7-1.7-6.4-1.7 0.3 0 0.7-0.4 0.7-0.4 7.1 0 15.9 1.4 24.6 1.4 2.1 0 4.4 0 6.4-0.4l1.1 1.1c-3.1 1-5.1 3-8.1 3-0.7 0-1.1 0-1.7-0.3l-1.7-1.7zm-2 1.7h-0.7l0.7-0.4zm6.4 2c1.3 0.4 1 1.7 1 2.7l-1 0.7c0-0.3-1.7-1.7-1.7-2.7 0-0.3 0.3-0.7 1.7-0.7zm-1-1.3l0.3-0.7 0.7 0.7c-0.4 0-0.7 0-1 0zm12.1 108.7l-2-2.4c-0.4 0.4-0.7 1-1.7 1l-1-1 6.1-2c-1.4-1.7-1.7-3-1.7-4.7 0-3.1 1.3-6.1 1.3-8.8 0-1.7-0.3-3.4-2-5.1 0 0 0-0.3 0.3-0.3-0.6-0.7-1.3-0.7-2-1.4l1-0.3c-0.3-0.3-0.3-1-0.3-1.3l-1 0.6c-1 0.7-1.4 2.4-3.1 2.4 0 0-0.3 0-0.3 0 1.7 1.7 2.7 4.7 2.7 4.7 0 2.4-1 5.1-1.7 6.8 0.3-1 0.7-2.1 0.7-3.1 0-1.3-0.7-5-2-5-1.7 0-2.4 2-3.8 3 1.7 1 1.1 3 2.4 4.4l-2.7 0.3c0-1 0-2.3-1-2.7 0-0.3 0-0.6 0-1 0-1-0.3-2-0.3-3.4 0-1 0.3-2 1.3-2.7-0.3-1-0.3-2-0.3-2.7 0-2 0.3-3.7 1-5.7-1.4-1-2.7-2-3.7-3.7 0.6-0.3 1.3-0.3 1.7-0.3 0-0.4-0.4-0.7-0.4-1.1 0-1.3 0.4-2.7 1-3.3 1.7 4 5.4 4.7 9.5 5.4-0.4-0.4-0.7-0.4-0.7-0.4 1.7-1.3 1-3.7 1.4-5.7-1.7-1-0.7-3.7-1.7-5.1 0 0.4-0.4 0.4-0.7 0.7-1-0.3-2.7-1-2.7-2 0-0.7 1.7-1.7 1.7-2.4 0-0.3 0-1-0.7-1.3 0-0.7 0.3-0.7 1-0.7-1-0.7-1.3-1.4-1.7-2.4 0-1.3 1-2 2.4-2.3 0.3 0.3 1 0.6 1.3 1.3 0.4-0.3 0.4-0.3 0.7-0.7-1.7-0.6-1.3-3-2-4.7v-1l2.4-2.7c-0.4-0.3-0.7-0.7-0.7-1 0-0.7 1-1.4 1-2.7-0.3-0.7-0.7-2-0.7-3.1 0-1.3 0.4-3 1-4.3 0 0.6 1 2.3 1 3.7 0 0.6-0.3 1.3-0.6 1.7 0.3 0.3 0.3 0.3 0.3 0.6 0 0.7-0.3 1.4-0.3 1.7 0 0.4 0 0.7 1 1l-1.4 1c0.7 1.1 1 2.1 1 3.1 0 2.4-1 4.4-1 6.4 0 1 0.4 2 1 3-0.3 0.7-0.3 1.4-0.3 2.1 0 1 0 2 0.3 2.7 0-0.4 0.4-0.7 0.4-1.4 0-1.3-0.4-3-0.4-4.4 0-2.3 0.4-4.4 2.1-5.7 0-1-0.4-2.4-0.4-3.7 0-1 0.4-2.4 1.7-3.1 0.4 0 1 0 1 0.4 0 0.6 0 1 0 1.7 0 2 0.4 4 0.4 6 0 1.1 0 2.1-0.7 3.1l0.3 3c0 1.4 0.4 3.1 0.4 4.7 0 1.4-0.7 2.7-0.7 3.8 0 1.3 0.7 2.3 1 3l-0.3 10.5c-0.4 0.3-0.7 1-1 1.3 0 5.7 1 12.2 1 17.9 0 2.7 0 5.4-1 7.8 2.7 5.7 4.3 12.4 4.3 18.2v0.7c-3.3-5.1 0-16.2-8.4-16.9zm-5.1-40.5c0.4-0.4 0.7-0.4 1.1-0.4 1 0 2.3 1.4 2.3 2.4 0 0.7-1 1.7-2 2-1.4 0-2.4-1.3-2.4-2.3 0-0.7 0.7-1.4 1-1.7zm8.8-64.5c-1-1-2-1-3.4-1-1 0-2 0.3-2.3 0.3 0 0-2.4-1-2.4-1.7 0 0 0.4-0.3 0.4-0.3 0 0 0.3 0.3 0.3 0.3 2.4 0 3-3.3 5.7-3.3 1 0.3 1.7 2.3 2.7 2.3 0.7 0 1-1 2.4-2.3l-0.7-1.4c0.4 0 0.7 0.4 1 0.7v0.3c0 0 0.4 0 0.4 0 0.3 0 0.6 0.4 1 1.4 0 3-3.1 3.4-5.1 4.7zm7.8 78.7v-0.4l0.3 0.4zm12.5-82.4c-1.3 2-4.4 0.7-6.1 2.7-2.3-1-4.4-2-6.4-3 0.7-1.1 3.1-1.1 3.1-3.1 0-1-0.7-1.7-0.7-2.3 0-0.4 0.3-0.7 1-1.1 2.4 0.7 2.4 4.4 5.4 4.4 1.3 0 2.4-0.3 3.4-0.3 0.6 0 1.3 0.3 1.3 0.7 0 0.6-0.7 1.3-1 2zm12.5 0c-2 0.3-3 2.4-4.7 2.4-3.7 0-2.7-3.4-4.8-4.8 1.1-0.6 1.7-2.3 2.7-2.3 1.1 0 1.7 2.3 3.4 2.3 2 0 2.4-2.3 4.1-2.3 0 0.6 0.3 1 0.3 1.3 0 1.4-0.7 2.4-1 3.4zm1.7 8.4c0.3-1 1.3-0.3 2-0.6 0 0.3 0 0.6 0 0.6 0 0.7 0 1.4 0 1.7-1 0-1.3-1-2-1.7zm7.7-4.7c-0.6-0.3-1.6-0.7-2-1.7 0-0.7 0.7-1 1.4-1 0.6 0 1.3 0.3 1.7 1 0 0.7-0.4 1.4-1.1 1.7zm9.8 2c-0.3 0-0.3 0-0.6 0-1.7 0-2.7-2-3.1-2 0.4-0.7 1-0.7 2.1-0.7 1 0 2 0.4 2.7 1-0.4 0.7-0.4 1.4-1.1 1.7zm-58.7 52.4l0.3 0.3c0.7-0.3 0.7-0.3 0.7-0.7 0 0 0-0.3 0-0.3-0.3 0.3-0.7 0.7-1 0.7zm73.3 121.1v2.4h0.6l1.4-1.7c0-0.3-0.4 0-0.4-0.7zm-133.3-54.7c0.7 0 0.7 0.4 1 0.4 0.4-0.4 1-1 1.4-1-0.7 0-1-0.4-1.7-0.4-0.7 0-0.4 0.7-0.7 1zm63.5-61.4c0-0.3 0-0.7 0-1.3-0.4 0.3-0.4 0.6-0.4 1 0 0 0.4 0.3 0.4 0.3zm7.1-65.5c0 0-0.4 0.4-0.4 0.4l0.4 0.6zm-27.7 4.1c-0.7-0.7-1.4-0.7-1.7-0.7-1.7 0-2.7 0.7-3 2.4l3 0.3c1-0.3 1.7-1.3 1.7-2zm20.2 62.8c-0.3 0.3-0.6 0.7-0.6 1 0 0.7 1.3 1.7 1.3 3 0 0.4-0.3 1-1 1.4 0.7 0.7 0.7 1.7 0.7 2.3 0 1.1-0.4 2.1-0.4 3.1 0.7 0.3 1.4 0.3 2.1 0.7 0-0.7 0.3-1.4 0.6-2.1-0.3-3-2.7-6.4-2.7-9.4zm2.1 11.5c0 1.3 0.6 2.7 0.6 4 0 0.3 0 0.3 0 0.7 0.4 0.3 1 0.3 1.4 0.3 0-1.7 0-3 0.3-4.7-0.7 0-1.3-0.3-2.3-0.3z"/>
</svg>