<svg version="1.2" xmlns="http://www.w3.org/2000/svg" viewBox="0 0 1280 420" width="1280" height="420">
	<title>New Project</title>
	<defs>
		<linearGradient id="g1" x1="959" y1="372" x2="959" y2="70" gradientUnits="userSpaceOnUse">
			<stop offset="0" stop-color="#1be8b1"/>
			<stop offset="1" stop-color="#11d2d4" stop-opacity="0"/>
		</linearGradient>
		<linearGradient id="g2" x1="344" y1="41" x2="344" y2="378" gradientUnits="userSpaceOnUse">
			<stop offset="0" stop-color="#1be8b1"/>
			<stop offset="1" stop-color="#11d2d4" stop-opacity="0"/>
		</linearGradient>
	</defs>
	<style>
		.s0 { fill: url(#g1) } 
		.s1 { fill: url(#g2) } 
	</style>
	<path id="sim" class="s0" aria-label="sim"  d="m885.2 326.3c-0.4 0.3-0.4 0.7-0.4 1.3 0.7 0 1.1 1.1 1.4 1.4l2.4-1c-0.7-0.7-0.3-1-1-1.7zm-58.3 14.1c-0.6-0.7 0-0.7-0.6-1.4 0 0.4-0.4 0.7-0.4 1.4l0.4 0.7c0-0.4 0.3-0.7 0.6-0.7zm-7.5-1.4c-0.4 0.4-0.4 0.7-0.4 1.4h1.1v-0.7zm-84.1-68.2h-4.9l-2-2.8h-30.7c-2.4 0.7-2.1 1.4-2.1 2.8h-13.1c0 24.4 17.3 45.5 40.4 51.3 0.3 0 0.3 0.7 0.3 1.1h0.7c0-0.4 0-0.7 0.3-1.1 1.4 0.4 4.5 0.7 4.5 1.7-0.7 0-1 0.7-1 1.4 2.7 1.4 3.8 2.1 3.8 3.5v1c0 5.5 16.9 9.3 23.8 9.3v-54.8h-20zm20.6-120.3l0.4-0.3c0-0.3 0-0.3 0.3-0.7-0.3-0.3-0.3-0.7-0.3-1h-1v1.7c0.3 0 0.6 0 0.6 0.3zm22.8 38.6h65.5c0 0-0.4-1.7-0.4-3.7 0-2.8 0.4-5.6 1.4-5.6 10.7 0 25.5 7.6 30 9.7l1-0.7c-2.4-5.9-10-6.2-13.4-9 0-0.7 0-1 0.3-1.3h0.4c0.7 0.6 2 1.3 3.1 1.3 1.7 0 2.7-0.7 5.5-1.3l-2.1-3.5c-2.7 0-6.5 0.4-9.6 0.4-1.4-20.4-14.2-37.9-32.1-45.9h1c0-2-8.2-5.5-9.9-6.9 0 0.7-0.4 1.4-0.4 1.8l3.1 3.1c-5.8-1.4-7.2 0-9.3-6.9h-0.7v1c0 1.7 0 3.1 0.7 4.1-5.9-1.3-4.8-2-5.5-6.9h-1v1.8c0 1 0.3 2.7 0.6 4.8h-9.3v-6.9h-10c0.7 1 0.4 2.4 1.1 3.4-1.1 1.1-2.1 0.4-2.1 1.8 0 0.7 0.4 1 0.4 1.7h-3.8l2.4-4.1c-1.1-0.4-1.7-0.7-2.4-0.7 0-0.7 0.3-1.4 0.7-2.1h-3.1v3.8c0.3 0 2.7 0.3 2.7 1h-0.3c-0.7 0.7-5.5-0.7-6.9 2.1h-14.5v53.1h16.2zm1.4-64.1c0 0 0.3 0 0.3 0.3h-1zm68.2 77.2c0.4 0 0.4-0.7 0.4-1h-3.1v0.7zm-81.4-81c0-1.1-0.3-0.7-0.3-2.4h-2.8c0 1-0.3 1-0.3 2l0.3 0.4zm86.9 79.9v0.7c0.7 0.7 1.4 0.7 2.7 0.7 1.4 0 2.8-0.3 3.8-0.3v0.6c0 3.1-3.1 1.1-3.1 3.1 2.1 0 6.2 0.4 9.3 0.4 4.2 0 11.7-0.4 11.7-4.5 0-3.1-0.3-6.9-1-7.9-2.7 8.6-13.8 5.2-23.4 7.2zm-80.3-81.7c0.3-0.3 0.3-0.3 0.3-0.6h-1l0.7 1zm-21.7 16.9c0.3 0 1 0 1-0.4l0.3-0.7c-1 0-0.3-0.3-1.3-0.3 0 0.3 0 0.7-0.4 1 0.4 0 0.4 0 0.4 0.4zm61.7 225.4c0 0.3 0 0.6-0.4 1h1v-0.7c-0.3-0.3-0.3-0.3-0.6-0.3zm-76.5-214.7c0-0.4 0-0.7 0-0.7-0.4 0-0.4 0.3-0.4 0.3 0.4 0 0.4 0 0.4 0.4zm148.8 156.4v-0.7l1.7-0.3c0-2.4 1.1-8.3 1.1-12.8 0-2.7-0.7-5.1-1.4-6.5h-1c-0.4 0.3-0.4 1-0.4 1.7 0 2.8 1.1 3.8 1.1 5.9 0 3.8-3.5 11-3.5 14.1 0.7 0.7 2.4 0.7 3.5 0.7 0.6 0 1-0.4 1.7-0.4-1.4-1.3-0.4-1.7-2.8-1.7zm1.4 4.8l1.4-1v-0.7c-0.7 0-1.1 0-1.4-0.3zm-135.4-159.9l1.3-0.7c-1 0-0.6-0.4-1.3-0.4zm-25.9 174.4l-0.7 0.4c0 1-0.3 1 1.1 1v-1c0 0-0.4 0-0.4-0.4zm55.9-111l-1.1-0.3zm50.7 156.1c0-0.3 0-0.7 0.3-1-0.3 0-0.7 0-1-0.4 0 0.7 0 1.1 0.7 1.4zm-6.6-10.3c0.4 0 0.4 0.3 0.4 0.3l1-0.7c-0.3-0.3-1-0.3-1.4-0.3zm0.7-3.5h-0.3c0 0.4-0.4 0.4-0.4 1.1l1.1-0.4c0-0.3 0-0.7-0.4-0.7zm8.3-2.7l-3.5 3.1c0 1.7 1.1 2.7 2.1 3.4v-0.3c2.4-3.5 3.8-1.4 6.6-2.8v-5.5c-1.8 0-3.5 0.7-5.2 2.1zm-1.7 11.4c0 1.3-0.4 1-0.4 2.4l1.4-0.4c-0.7-0.7 0-1-0.7-2zm40.3-43.5v1.4l0.7-0.3c0-0.7 0-1.1-0.7-1.1zm3.5 1.1v1.7c0-0.4 0.3-0.7 1-0.7l-0.3-1zm-5.5-8.6c1.3-0.4 2-0.4 2.7-0.4v-0.7l-4.1-0.3c0 1 0.3 1.4 1.4 1.4zm-76.6 36.8c-0.3 0-0.3 0-0.3 0.4h0.3c0.4 0.3 0.4 0.3 0.7 0.3v-1.4h-0.7c0 0.4 0 0.7 0 0.7zm44.8-87.5v0.7h1.4c-0.7-0.7-0.7-0.7-1.4-0.7zm-84-105.1l2-1.4c0-2.1-0.3-3.1-1-3.8 0 2.8-15.9 12.8-16.9 13.8l-0.3-3.4c-1.8-0.4-2.4-0.7-2.8-0.7-0.3 0-0.7 0-1.4 0.3v-10.3c0.7-1.4 1.4-3.1 1.4-3.8 0-0.7-0.7-1.1-1-1.7l1.4-3.5-1.8-1.7c0 0 0 0 0-14.5-6.2 0-12.4 1-17.9 3.1h-2.1c-0.3 0.4-1 0.7-1.7 1.7-18.2 8.3-31 26.9-31 48.3v20.3c0 27.2 20.3 49.6 46.5 52.7 6.6 13.1 15.5 14.5 23.5 14.5 0.6 0 1.7-0.3 2.7-0.7v-84.1c0-6.8-0.3-14.4-2.4-19.6l0.3-0.3c0.7-0.4 1.8-0.4 3.2-0.4v-2.1c-1.8 0-1.1-0.3-2.5-0.3v-0.7zm-51.3 21h-0.7c0-0.7 0-1 0.7-1zm3.4-2.8l-0.3-0.3c0-0.3 0-0.3 0.3-0.3 0.7 0 1.1 0 1.8 0.6h1.3c-0.3 0.7-1 0.7-1.3 0.7-0.7 0-1.4 0-1.8-0.7zm-2-3.8c-0.7-0.3-0.7-0.6-0.7-1 0-1 1.4-2.1 1.4-3.1 0-0.3-0.4-0.7-1.1-1.4 0.7-0.7 2.4 0 2.4-1.3 0-0.4-0.3-1.1-0.3-1.4 0 0 0-0.4 0-0.4 3.1 0.4 5.2 5.5 5.9 6.9-0.4 2.1-1.4 2.4-2.5 2.4-1.7 0-3.4-0.7-5.1-0.7zm39.9 30.7l-0.6 0.4c0-0.4 0.3-0.4 0.6-0.4zm-0.6-32.4c0 0 0 0.4 0.3 0.7-0.3 0-0.3 0.4-0.7 0.4-0.7 0-1-0.4-1.7-0.4 0-0.7 1.4-0.7 2.1-0.7zm-3.5 16.9c-0.7 1.4-1.4 2.8-1.4 4.1 0 1.1 0.4 2.5 1.8 2.5-1.4 1.3 0 5.1-2.5 5.1-0.6-2.4-3.1-2.4-4.1-4.8 1.7-2.4 2.1-6.2 5.5-7.6zm-6.2 12.4h-1v-1h1.7c0 1-0.3 0.7-0.7 1zm5.2-16.9c-0.4 1.8-2.1 1.4-2.1 3.5h-0.7c0-1.7 0.4-3.1 2.8-3.5zm-3.8-19.9c0.7 0 1 0.3 1 1h-1zm1 23.8c-1.3 0.3-1.3 2-2.4 2-0.3-0.3-0.3-1-0.7-1.3 0.7-1.1 2.1-0.4 3.1-0.7zm-5.1-3.8v0.3c-0.7 0.4-1.1 0.7-1.1 1.4 0 0.7 0.4 1.4 0.4 1.7h-1.1c0-1.4-0.3-2.7-0.7-3.8zm-7.2-7.2l1 0.3h-1zm-9.6 2.5c0-0.7 0.3-0.7 1-0.7 0.7 0 2.1 0.7 2.1 1.7-0.4 0.3-0.7 0.3-0.7 0.3-1.1 0-2.1-0.7-2.4-1.3zm7.9 14.4c0.3-0.3 1-0.3 1.4-0.3 0.7 0 1.3 0.3 1.3 1.4 0 1-0.6 2.7-1.7 2.7-0.7 0 0-0.7-0.7-1 0.4-0.4 0.4-1.1 0.4-1.4-0.4-0.7-0.7-1-0.7-1.4zm1.7 9.7c-0.7-0.7-0.3-1.7-1.4-2.4 0.4-0.4 1.1-0.7 1.8-0.7 0.6 0 1.3 0.3 2 1.4-1 0.3-1 2-2 2 0 0-0.4-0.3-0.4-0.3zm2.4 8.6c-0.3 0-0.7 0.3-1 0.3 0 0 0-0.3 0-0.3 0-1.4 1.4-1.4 2.4-1.4 0 1-0.3 1.4-1.4 1.4zm7.3-14.5v1.1c-1.4 0-2.8 2-4.2 2-0.3 0-0.7-0.3-1-1.7 0.3 0.3 0.7 0.3 1 0.3 1.4 0 1.4-2.4 2.8-2.4 0.3 0 0.7 0 1.4 0.7zm-3.5 12.8c-0.7 0-1.4 0-1.4-0.7 0-0.7 0-0.7 0.4-0.7 0.7 0 1 0.7 1 1.4zm0-8.3l0.4-0.7c0 0.4 0 0.7-0.4 0.7zm1 47.2c0 0 0.4-0.3 0.4-0.3 0.3 0 0.3 0.3 0.7 0.7-0.4 0-1.1 0-1.1-0.4zm0.7-41c-0.3-0.3-0.3-0.7-0.3-1 0-0.7 0.7-1.8 1.7-2.1l2.4 0.3c0.7-1.7 0.7-3.7 2.8-3.7 0.3 0 0.7 0 0.7 0.3 0 0.7-0.4 0.3-0.7 0.7 0 0.3 0.3 0.7 0.3 1 0 1.1-1.7 1.4-2.7 1.7h-0.4c-0.7 0.4-1 0.7-1.4 1.4 1.4 3.5 4.2 6.2 5.9 8.6 0 0.4 0 0.4-0.3 0.7-3.8-1.4-3.8-7.2-8-7.9zm4.2 20.3c-0.4 0.7-0.4 1.4-1.4 1.8-0.4 0-0.7-0.7-0.7-1.1 0-1 0.7-1.7 1.7-1.7 0.4 0 0.7 0.3 0.7 0.3 0 0.4-0.3 0.4-0.3 0.7zm2.4-2c-1.4 0-1-1.1-1.7-1.1-0.4 0-0.4 0-0.4 0 1.1-0.7 2.1-2.7 3.1-3.4 0.4 0.3 0.4 1 0.4 1.4 0 1-1.1 2-1.4 3.1zm3.8 11.3l-0.7 0.4c0 0-0.4-0.4-0.4-1.1 0-0.3 0.4-0.6 0.7-0.6 0.4 0.3 0.4 0.6 0.4 1.3zm2.7-9.3c-0.3-1-2.4-1.3-2.4-2.4 0-0.3 0-0.7 0.4-1-1.4-1-2.4-5.9-2.8-5.9 0 0 0 0 0 0.4 0-1.1 0.7-2.1 1.7-2.8 0 0.4-0.3 1-0.3 1.4 0 2.1 1.4 4.1 2.4 6.2l1 0.3c-0.3 0.4-0.7 0.7-0.7 1.1 0 1 1.4 2 1.4 2.4 0 0-0.3 0-0.7 0.3zm1.8-41.7c-0.4-1-1.4-2-1.4-2.7 0-0.7 0-1.1 0.7-1.4 1.3 0.3 0.7 2.8 1.7 3.8-0.4 0.3-0.7 0-1 0.3zm103 111c0.7-0.3 1.4-0.3 2.1-0.3 0.7 0 1.3 0 2.4 0.3 0.3 0 0.7-0.3 0.7-1 0-0.7-1.1 0-1.1-0.7 0-1.1 1.1 0 1.4-1.1-0.7-1.3-0.3-2.7-1-4.1-1.1 1-1.7 1.4-2.4 1.4-0.7 0-1.1-0.4-1.4-0.4-2.1 2.1-1 6.2-4.2 6.2 0.4 0.4 0.4 0.4 0.7 0.4 1.1 0 1.8-0.7 2.8-0.7zm33.4-0.7v-2.1c-0.3 0-1 0.4-1.7 1.1l-0.3-0.4c0-2.7 0.6-1.7 0.6-2.7v-0.4c-0.3-0.3-0.3-0.7-0.3-0.7 2.1-2 1.7-2.7 1.7-5.1-1 0.7-2.7 1.4-3.4 1.4-1.4 0-2.1-1.1-2.4-3.2h-5.5c0 5.2-3.5 4.5-7.6 4.5-1.4 0-2.1-0.3-2.1-1.7 0-4.1 4.8-1.7 7.6-6.2h0.7c0.3 0 0.3 0 0.3 0.3-0.3 0.4-0.7 1.4-1 3.1h1.7c2.1-4.1 2.1-6.8 2.1-9.9 0-1.1-0.4-2.1-0.7-3.5l2.4-2.1c-0.7-0.6-2.8-11.3-4.5-11.3 0 1 0 1.3-0.3 1.7-1.4 0-2.4-0.7-3.5-1.7v-0.7c0-4.8-6.2-9.3-8.6-11.7l-1-4.9 0.3-1-1-0.7c-6.6-21.7-26.9-37.5-50.3-37.5h-45.9v53h16.2c0 8.6 0 13.8 1.1 14.2h28.2v4.1h-45.5v53.4h16.9v15.5c3.1 0 6.9 0 8.6-1 0.4 0.7 0.7 0.7 1.4 1 0-0.3 0.4-0.7 0.4-1.4-0.4 0-0.4 0-0.4-0.3 0-0.4 0.4-1 1.1-2.1-0.4-1-0.7-1.7-1.1-1.7l1.4-1c0-1.8-1.4-4.2-1.4-7.3 0-0.7 0-1.4 0.4-1.7l13.1 0.3 1.7 1.1v3.1c-2.4 0.7-7.3 1-9.3 1.4 0 3.1 0.3 6.5 0.3 9.6l2.1-2.4h9.3c0 0.7-0.3 1.4-0.7 1.4l-0.3-0.4c-0.7 0-0.7 0.4-0.7 1.4 5.5 0 4.8-2.4 9.6-2.4 4.5 0 3.5 2.4 7.3 2.4 3.4 0 7.2-1.7 10.6-1.7-6.5 6.5-17.9 24.5-19.3 32.7 0.4 0 0.7 0.4 1.1 0.4 2.4-6.9 11-16.2 11-18.6h0.3c0.4 0 1.4 0.3 2.8 1 0-7.6 10.7-13.1 11.7-17.2 3.5 0 15.2-11.4 15.2-11.1 1.4 0.7 0.3 0 2.1 0.7 2-4.1 5.8-1.4 6.8-6.9 0.4-2 0.7-3.4 1.4-4.1-0.3 0-0.7 0-1-0.3-4.1 7.9-18.3 11.3-24.5 17.5-2.7 3.1-4.5 4.9-5.1 5.2h-1.8v-1l1.1-1.4c-1.8-0.7-0.7-3.1-1.4-5.2h-7.6v-1c2.4-1.4 6.2-0.4 8.6-2.1-1.7-1.7-4.5 1.4-4.5-4.8 0-0.7 0-1.4-0.3-2.1 3.1-1.4 7.9-5.1 10.3-5.1 2.4 0 5.9 0.3 9 0.3 3.8 0 7.2-0.3 8.6-2.4-5.2 0-10-1.4-14.5-1.4 6.2-4.5 6.6-4.1 11.8-4.1-1.1-1.1-2.8-1.4-5.6-1.4v-1c5.9-2.5 14.2-7.3 16.6-8.3 4.1 4.1 11 3.1 11 10l1.7-1.7c0.4 1 1.4 1.3 2.4 1.3l0.7 2.8c0-0.7 0.4-0.3 0.4-1.4 0-0.7-0.7-1.7-0.7-2.4 2.7-2.4 4.1-5.5 4.1-10zm-13.1-31c1.8 1.7 2.1 3.8 2.1 6.9-0.3 0.3-0.3 0.7-0.3 1.4h-1.1c0-2.4-1-4.9-1-6.9 0-0.7 0-1.1 0.3-1.4zm-98.5-55.5h-0.7c0-1 0.3-1.4 1-1.7 0 0.7 0 1.4-0.3 1.7zm3.4 24.8c0 0 0 0.4-0.3 0.4 0 0-0.4-0.4-0.7-1.1 0 0 0.3-0.3 0.3-0.3 0.4 0 0.4 0.3 0.7 0.3zm15.2-22c-0.4 0.3-1.1 0.7-1.7 0.7 0-0.7 0-1.8 1-1.8 0.3 0 0.7 0.4 0.7 1.1zm-10 4.5c0 1.3 0 1.7 0.7 2-1.1 0.7-2.4 1.1-3.1 2.1 0-1.7 1.3-3.5 1.3-4.8 0-0.7-1-1.8-1-2.4 0-0.7 1.4-1.4 2.4-2.1 0 0.3 0.4 0.3 0.7 0.3 2.1 0 3.5-5.8 4.8-5.8 0.4 0 1.1 0.3 1.1 1 0 1.4-1.7 1.7-1.7 2.8 0 0.3 0.3 0.7 0.6 1 0 0.7-1.3 0.3-1.3 1.4 0 2.4 3.4 0.3 4.8 2.4-1.7 0.3-1 3.4-2.4 3.4-0.4 0-0.7-0.3-1.1-0.7 0.4-1.3 1.4-1.3 1.8-2.4-1.1-1-2.8-1-4.2-1.3-2 0.6-1.3 2.7-3.4 3.1zm5.8 8.2v1.1l-0.6-1.4c0.3 0 0.3 0 0.6 0.3zm0 16.2v-2h0.7c0 0.6-0.3 1.7-0.7 2zm1.1 2.4c0-1.3 0.7-1.3 1.4-2.4 0 0 0.3 0.4 0.6 0.4-0.6 1-1.3 1.7-2 2zm2.4 12.8c-0.7-0.4-1-1.4-1-2.1 0.3 0.7 1 1.1 1 2.1zm1-5.2c-0.3-0.3-1 0-1.4-0.3 0-1.1 0.7-1.4 1.1-2.1 0.7 0 0.7 0.4 1.4 0.7-0.7 0.3-0.4 1.4-1.1 1.7zm-6.5 63.1c-0.4 2.1-2.1 4.5-3.8 4.5 0.3-1.1 1.7-1.8 1.7-2.8 0 0 0-0.3 0-0.3l1.7-1.4c0 0 0 0.3 0 0.3 0 0 0.4-0.3 0.4-0.3zm-2.4-17.6c0.3-0.3 0.7-1 1-1 0.3 0 0.7 0 1 0.3 0 0.7-0.7 1.4-1 1.4-0.3 0-0.7-0.3-1-0.7zm2-18.6c0 0.3 0 0.3 0 0.7h-1c0-0.4 0.3-1 0.7-1 0 0 0.3 0.3 0.3 0.3zm-5.5-0.7c0 1-0.3 1-0.7 1 0 0-0.3 0-0.3 0 0 0 0.3 0 1-1zm-2.1 5.5c3.1 0 3.5 4.2 3.8 4.2l-0.7 0.7c0 0 0.4 0.3 0.4 0.3 1.4 0 2.4-2.1 3.4-2.1 0 0 0.4 0 0.7 0.7-0.3 1.1-5.5 4.8-8.2 5.9-0.4-0.4-0.4-0.4-0.4-0.7 0-1 1.7-1.7 1.7-2.8-0.7-0.3-2-4.1-2.4-4.1 0 0 0 0 0 0.3 0-1 1.4-1.7 1.7-2.4zm-0.6 40.7c0-0.4-0.4-0.7-0.4-1 0-0.4 0-0.4 0.4-0.7 0 0 0.6 0.3 0.6 1 0 0.3-0.3 0.3-0.6 0.7zm3.4-13.1c-0.7 0-0.7 1-1 1.4 0-2.1-2.8-2.1-2.8-3.5 0-1.4 1-2 3.1-2-0.3 0.6-1.7 0.3-1.7 1.7 1 0.7 1.4 2.4 2.7 2.4 0 0-0.3 0-0.3 0zm3.5 15.8c0.3-1 0.3-2 0.6-3.1h-1.3l-0.4 3.5c-0.7-0.4-1.4-0.4-1.7-1.4 0.3-0.7 0.7-1.7 1.7-2.1v0.4c0.4-2.4 2.1-4.5 4.2-4.8 0 0.7-0.4 1.3-1.4 2 1 0.7 1.7 1.4 1.7 1.8 0 1-1.4 0.6-1.4 1.7 0 0 0.4 0.3 0.4 0.3 0.3 0 0.7-0.3 1-0.3-0.7 1-1.4 2.4-2.4 2.4-0.4 0-0.7 0-1-0.4zm3.7 12.1l-0.6-1 0.6-0.4zm0.7-29.3c-0.3 0-0.3 0.4-0.7 0.4-0.3 0-0.6-0.4-0.6-1.1 0 0 0.6 0 1.3 0.4zm0.7-22.8h-1c0-1 0.7-1.3 1.7-1.3 0 0.7-0.3 1-0.7 1.3zm57.6-39.9c0.3-0.4 0.3-0.4 0.7-0.4 0.6 0 1 0.7 1.7 0.7 0.3 0 0.7 0 1-0.3l0.4-0.4c1 2.1 3.8 1.8 5.5 2.8-1.7 0-2.8 1.4-3.8 1.4-2.4 0-0.4-2.8-2.1-3.5-0.7 0.7-1.4 1.4-2.1 1.4-1.7 0-0.6-1-1.3-1.7zm-2.8 11.7c-0.3 0.3-1 0-1.4 0.3-0.3-0.3-0.3-0.7-0.3-1 0-0.3 0-1 0.7-1 1 0 0.7 1 1 1.7zm-0.7-5.5c0 2-2 0.7-2 2.4 0 0-0.4-0.4-0.4-0.4 0-0.6 1-0.6 1-1 0-0.3-0.3-0.3-0.3-0.7 0 0 1-0.3 1.7-0.3zm-1.4-3.1l-2.4 1.4c0-1.4 0.7-2.1 1.4-2.1 0.7 0 1 0.3 1 0.7zm-3.4 11c1.7 0.7 2.4 2.1 4.1 2.1l0.7-1.4v0.3l0.7-2c0.4 0.3 1.7 0.7 1.7 1.3 0 0.4-1 0.7-1.3 0.7l-0.4 0.4c0.4 0.3 0.4 0.3 0.7 0.3-0.3 0.4-3.1 2.8-3.1 2.4v1.1c-1.7 0-2.1-0.7-2.4-2.1-0.4 0-0.4 0.3-0.4 0.3-0.6-0.3-0.6-0.6-0.6-1.3 0-0.7 0-1.4 0.3-2.1zm-0.7-11.4c-0.7 1.1 0 2.1-1 2.1-0.4 0-0.4-0.7-0.4-0.7 0-1 0.7-0.7 1.4-1.4zm-2.7 2.8c0.6 1.4 2.7 0.7 2.7 2.7l-0.7 0.7c-0.3-0.3-1-1.3-1.7-1.3-0.3 0-0.7 0.3-0.7 0.6 0 0-0.3-0.3-0.3-0.6 0-0.7 0.3-1.4 0.7-2.1zm1.3 4.1c-0.3 0.4 0 2.1-1.3 2.1 0-1.4 0-2.1 1.3-2.1zm-8.6-8.2c0 0 0 0.6 0.4 0.6h-1.1zm-0.7 8.3c0.7 0.4 0.7 1 1.1 1.7 0 0 0 0.4-0.4 0.4-0.3-0.4-1-1.1-1-1.4 0-0.3 0-0.3 0.3-0.7zm-2.7 75.8c-6.2 0-14.1-1.4-14.1-2 1.3-6.9 6.5-4.5 11-6.2 0.3 0.6 0.3 1.3 0.3 2 0 0.7-0.3 1.4-0.3 1.7 0 1.4 0.3 2.8 0.7 3.8 0.7 0 1-0.3 1.3-0.3 0.4 0 0.7 0.3 1.4 1zm1.4-78.2c-0.3 0.3-0.7 0.3-0.7 0.3-1 0-1-1-1.4-1.7 0.7 0.7 2.1 0 2.1 1.4zm1 71l-1-2.4 1.7-0.7c0 1.7-0.3 2.7-0.7 3.1zm2.1-52.7c-1 0-1.4-0.4-1.4-1.1 0 0.4 1.1-4.4 2.4-4.4 0.4 0 1.1 0.3 1.1 1.7 0 1.7-1.7 2.7-2.1 3.8zm4.1-2.4c-1.3-1.4 0-4.2-2-5.2 0.3-0.7 0-2.1 1-2.1 0 0 0.4 0 0.4 0l0.6 3.5c1.1 1 1.8 2 2.8 2 0.3 0 0.7 0 1.4-0.3 0.3 0 0.7 0.3 0.7 0.7 0 2.4-3.1 1-3.1 2.4 0 1 1.7 1 1.7 3.1l-0.7 0.3c-0.7-1-2.8-2.4-2.8-4.4zm6.9 8.6c0.4 0 0.4 0 0.4 0-1.4 0-3.8 0-3.8-1.8l2.1-2c0.3 1 1.7 0.3 2.4 0.7 0 1-1.4 1.7-1.4 2.4 0 0.3 0.3 0.3 0.3 0.7zm0.7-5.2c1.4-0.7 0.7-2.8 2.1-3.4 1.4 2 3.8 4.1 6.5 4.1 0 0 0.4 0 0.4-0.4 0-0.6-0.4-1-0.7-1.7 0-1 1.4-1 1.4-1.7 0-1.4-2.4-1.4-3.5-1.7 0.7 0 0-1.1 0.7-1.1-0.7-0.3-0.7-1-0.7-1.3 0-1.1 1.1-1.8 1.1-2.5 0-0.3-0.4-0.6-1.4-1 0.3-0.7 0.3-1.4 0.3-2.1 0-1.3-0.7-3.1-0.7-4.4 0-0.7 1.4-1.1 2.1-1.8 0.3 0.7 0.7 1.8 1.4 1.8 0 0 0.3 0 0.7-0.4 0 0.4 0 0.4-0.4 0.4-0.3 0-0.7-0.4-1-0.4-0.4 0-0.7 0.4-0.7 0.4 0 0.3 0.3 0.3 0.7 0.3 0.3 0.7 0.7 1 1 1 0 0 0.4 0 0.4 0 0 0.7-0.7 1.4-0.7 1.8 0 1 2.1 0.3 2.1 1.7 0 0.7-0.4 1.7-0.4 2.7 0 0.4 0 0.4 0.4 0.7l-1.1 1.1c1.7 0.3 3.5 3.4 3.5 4.1 0 0.7-0.4 1.7-0.4 2.4 0 0.4 0 1.1 0.7 1.4l-0.3 0.3 1.3 0.4c0 2.1-3.7 3.1-3.7 4.1 0 0.4 0 0.4 0 0.4l0.3 0.7c-0.3 0.3-0.7 0.3-0.7 0.6 0 0.4 1 1.1 1 1.4 0 2.8-2.7 2.4-3.8 3.1 0-1.4-2.7-2-3.7-3.1l-0.4 0.4-0.3-0.7c0-0.4 0.3-0.7 0.3-0.7 0.4 0 0.7 0.3 1 0.3 0.7 0 1.8-3.4 2.8-4.1-2.1-2.1-6.9 0-7.6-3.1zm14.2 6.9c-0.4 0.7-0.7 0.7-1.4 0.7 0-0.4 0.3-1.1 1-1.1 0 0 0.4 0.4 0.4 0.4zm-13.5 2.4c0.4 0 0.7-0.7 1.4-0.7 0.3 0 0.3 0.4 0.7 0.4v1c-0.7-0.4-1.7 0.3-2.1-0.7zm16.6 14.1c-2.1 1.4-4.9 3.5-7.6 3.5-0.4 0-1.1 0-1.4-0.4h-1.7c0.3-0.7 1-1 1-2 0-0.7-1.4-3.5-2.8-3.5-0.3 1.4 0 3.5-2 3.8-0.4-0.3-0.7-0.7-0.7-1 0-0.7 0.7-1.4 0.7-2.1 0-0.7-0.4-1-1.4-1v-0.7c0.3 0 1 0.3 1.4 0.3 0.3 0 0.3 0 0.7-0.3-1.4-1.4-1.4-3.5-2.4-4.8 2.7-0.4-0.4-3.8 3.7-3.8 0 0 0.4 0.3 0.7 0.3v0.7c-1 0-0.7 0.3-1 0.7 0 1 1.7 2.4 1.7 3.8 0 0.3-0.3 0.7-0.3 1 0.7 0.7-0.4 2.1 1.4 2.1 2 0 4.8-3.1 7.5-3.8 1.8 1.7 2.5 4.8 2.5 7.2zm-1.1-18.2c1.4-0.4 0.4-2.4 2.4-2.4 0 1.3-1.7 1.7-2.4 2.4zm-45.1 89.6c0 0 0 0 0 0.3h0.7c0-0.3-0.4-0.3-0.4-0.7 0 0.4-0.3 0.4-0.3 0.4zm48.9-50.3c1.4-0.7 3.8-1.8 3.8-2.1-2.4 0-4.1-0.7-5.2-0.7l-0.3 1zm-33.4 46.2h-1.8v1h2.1v3.8c0 2.8 0.3 4.5 0.7 5.2 0.7-1.7 0.7-4.1 0.7-6.9-0.4-0.7-0.4-1-0.4-1.7zm-29.6-23.8c0 0.7 0.3 1 1.4 1 0-0.3-0.4-0.6-0.7-1zm95.4-15.8l1.1-1.1c-0.4 0-0.4 0-0.7-0.3l-1.7 1.7 0.7 0.7c0.3-0.4 0.6-0.7 0.6-1zm-9.6 4.1c0 0.3-0.3 0.3-0.3 1h1.7c0.3 0 0.3 0 0.3-0.7l-0.3-0.3zm-15.2-77.5c0.7 1 1.7 1.7 3.5 1.7 0.7 0 1.3-0.4 2.4-1.1-0.7-2.4-2.8-2.4-6.9-2.4-1.4 0.7-1.1 2.1-1.1 2.1 0.4 0 0.4 0.3 0.4 0.7 0.3 0 0.7-0.4 1.7-1zm5.9-159.6c0 0.7 0.3 1 0.3 1.4l-0.7 0.7-1.7-1.1v0.4c0 2.7 2.8 21.3 2.8 21.7h3.1c3.1 0 5.1 0.3 5.1 2.1 1.1-0.7 2.1-4.5 2.1-6.2l-2.1-2.1 3.1-4.8c-0.7-0.7-2.4-1.1-3.1-1.4v-1.7l2.1-1.8c0-3.4-4.8-5.8-4.8-8.2l0.3-0.4c1.1 0.4 2.4 1.1 4.2 1.4 0-0.3 0.3 0 0.3-1-2.8-2.1-12.1-9.3-14.8-10 0 0.3-0.4 1-0.4 2 0 2.1 1.8 9 4.2 9zm1.7-1.4c1 0 2.1 0 2.8 0.4v0.7c-1.1 0.3-1.8 1-2.1 1.3-0.7-0.7-1-1.3-1-1.7 0.3-0.3 0.3-0.3 0.3-0.7zm10.3 230.9h1.1l0.3-0.7c-0.3 0-0.3-0.3-1-0.3-0.4 0.3-0.4 0.7-0.4 1zm10 14.5l-2.4 1.4c-0.3-1.8-0.7-1.4-1.4-3.8h-0.7v2c0.7 0.4 1.1 1.1 1.1 2.5h4.5c0-1.1-0.4-1.8-1.1-2.1zm-16.2-253c1.1-0.3 1.8-0.7 1.8-1.7l-1.8-0.3c0 0.7-0.3 0.7-0.3 1.7 0 0.3 0 0.3 0.3 0.3zm-2 186.1l-1.4-1v-3.8c-1.7-4.1-5.2-9.3-10-10v25.5c0.7 0 1 0.4 1.4 0.4 4.1-1.4 7.2-5.9 11-9 0-1-0.3-1.7-1-2.1zm-3.8-13.1c2 0 1-2 3.4-2 0 0.7 0.4 0 0.4 0.7h0.3c0-1.1-0.7-1.8-2.1-2.1-0.6 1.4-1.3 1.7-3.1 2.4v0.7c0.4 0.3 0.7 0.3 1.1 0.3zm2.4-116.4v2.4h0.7c2-3.5 7.2-2.4 7.2-4.2 0-1.7-2.1-2.4-6.5-2.4-6.2 0-5.9 0-8 4.5 1.4-0.7 2.8-0.7 4.2-0.7 0.7 0 1.4 0 2.4 0.4zm18.6-5.2v1.4c0.7 0 0.7-0.4 1-0.4v-0.7c-1 0-0.7-0.3-1-0.3zm-25.5-22.4c0-1.7-0.7-9.3-2.4-17.6h-0.7v20.3h3.1zm21.4 103.4l0.3-2c-3.4 0-5.5-0.4-7.9-1.1-2.4 0.7-6.2 1.4-9.7 1.4h-7.2v14.8c3.8-0.7 13.8-9.6 16.9-11 2.7-0.7 4.8-0.7 7.6-2.1zm-10 109.6c0.7 0 0-0.3 0.7-0.3v-1.1h-0.7zm28.2-156.4l0.7-0.4c0-0.3 0-0.3-0.3-0.3 0 0.3-0.4 0.3-0.4 0.7zm-14.8-29.3l-0.3 0.3h0.7c0-0.3 0-0.3-0.4-0.3zm13.8 32.4c0 0.3 0.3 0.3 0.3 0.3v-0.3c0 0 0-0.4 0-0.4-0.3 0.4-0.3 0.4-0.3 0.4zm-6.2 0.7c0 0 0 0 0-0.4 0 0.4 0 0.4 0 0.4zm0 0c0.3 0 0.3 0.3 0.3 0.7l0.4-0.7h-0.7c0 0 0 0 0 0zm0.3-0.7c-0.3 0-0.3 0.3-0.3 0.3 0.3 0 0.3 0 0.3-0.3zm-0.3 0.7c0 0 0 0 0 0 0 0 0 0 0 0v-0.4c0 0.4 0 0.4 0 0.4zm-0.4 0c0 0 0.4 0.3 0.4 0.3 0 0 0-0.3 0-0.3zm0.3 0.3c0 0.4 0 0.7 0.4 0.7 0 0 0-0.3 0-0.3h-0.4c0 0 0-0.4 0-0.4zm-10.3-35.8l-3.1-2.1c0 1 0.3 2.1 1.4 3.1 1 0 1.3-0.3 1.7-1zm57.9-63.8h-50.7v17.9c-0.3 1.1-0.7 1.8-1.7 2.5 1 1 1 0.6 1 2.4-0.6 0.7-1.7 1.3-3.1 1.3v-0.6c0.7-0.7 0.7-1.1 0.7-1.1 0-0.7-0.3-1.4-1.3-1.4-0.4 0.4-0.7 0.7-0.7 1.1l-3.1-1.1c0 0.4 0.3 1.1 1 2.1h-0.7c0 0 0 0-0.3 0 0 0-0.7 0.4-1.1 0.4v18.2c2.8 0 5.5 0.4 8.3 0.4v0.3c0 0 0 0.4-0.7 1 0 0 0.4 0.4 0.4 0.7 4.1 0 6.5-1 8.2-2.4 0.7 0 3.1 1.7 3.8 2.8v5.8c0.7 2.1 1.7 4.5 3.5 7.6h-13.8v4.8c-0.4 0-1.1 0.4-2.1 0.4v3.8c1.4 0 1 0.3 2.1 0.3v0.7c0 0 0 0-0.4 0.4h-4.8c-4.5 2.7-5.5 11.3-10 15.8-1.7 1.4-2.7 2.8-3.8 4.1-1.4 0-2.4-0.3-2.7-1 1.3-5.5 6.5-10 8.6-14.1-2.8-0.7-5.5-0.4-8.3-0.4l-7.9 0.4c0 2.7 1 1.7 1 4.5 0 2.4-1.4 1.7-1.4 4.1 0 7.9 5.6 7.2 5.6 13.4-0.7 1.4-2.1 2.8-3.1 3.8 1.3 0 0.6-1 1.7-1l1.4 1.4-0.4 2h-3.8c0.4 0.7 1.4 2.5 1.4 3.1h8.3v28.3c-2.4 0-4.9 0.3-7.3 0.3h-6.9v4.2c3.8 0 18 0.7 28.3 2h0.3c0 6.2 2.1 1.8-18.9 15.9-1.7 1.4-2.8 2.4-2.8 3.1h7.3v1.7c-6.6 0-7.3-0.3-14.2 2.8v8.3h0.7c1.1-1.1 4.5-1.1 7.3-1.1 0.7 0 1.7 0.4 2.4 0.4 1 0 1.7-0.4 1.7-0.4v-0.7c-0.7-0.3-1.4-1.7-1.4-4.1 0-2.4 0.7-2.8 2.4-2.8 5.5 0 15.2 1.4 15.2 2.8 0 4.1-4.8 5.5-7.6 7.6 0 0.3 7.3 5.1 7.9 7.6v36.8l-2.4 2.4c0.4 0.7 1.1 1.1 1.1 1.1 0.3 0 0.3-0.4 0.3-0.4 1 0 1 3.1 1 6.6 0 7.9 0 17.6-2.4 17.6 1.8 1.7 1.1 0.6 2.1 1.3v0.4c-1 0-0.3 0.3-1.7 0.3h-1.1c0 0.4-0.3 1.1-0.3 2.1 1 0.3 1.7 0.7 2.1 1.4 0-0.7 0.3-0.7 0.3-0.7 0-0.4-0.7-1.4-1.4-1.4 1.4-1.4 2.1-1 3.5-1.7 0-1.4-1.1-1.1-1.1-2.1 1.1 0 3.8 0.7 3.8 1.7v2.1h1.1c0 6.2 0.7 5.9-7.3 7.2v0.4c0.7 0 0.4 1 2.1 1v0.7c-1 0.3-1.7 1-2.1 2.4 3.1 0 2.8 2.1 5.2 2.1l1.4-1.4c0-0.7 0-1.4-0.4-1.7-0.3 0.3-1 0.3-1.7 0.3-0.3 0-1 0-2.1-0.7v-1c2.8 0 3.1 0 4.2-0.7 1 1 16.2 0.7 21.7 0.7h3.4v-9.3h25.2v-189.9h-17.2c0.6-2.1 0.6-7.2 0.6-10 0-4.5-0.3-4.8-1.7-8.2h1.1c1.7 1.7 3.4 5.1 6.9 5.1v-4.1c0-2.4-1.8-3.8-1.8-4.5h12.1zm-51.7 35.2l-0.7 1v-2.1l1 0.7zm-0.3-2.4c-0.3 0-0.3 0-0.3-0.3v-0.7h0.6c0.4 0.3 0.4 0.3 0.4 0.7-0.4 0.3-0.4 0.3-0.7 0.3zm-20 67.9v-1l1 0.6c-0.3 0.4-0.6 0.4-1 0.4zm5.2-1.4c0 0 0 0 0 0.4l-3.1 1c0.3-0.4 0.3-1 0.3-2.1 1.1 0 2.4 0.4 3.1 0.4 0 0.3 0 0.3-0.3 0.3zm30-8.3l0.3 0.4h-0.3zm1.7 2.1c-0.7 0.6 0.3 1-1.4 1-0.3 0-0.3 0-0.3-0.4 0.3-0.3 1-0.3 1.7-0.6zm0.7 0.3c0 0.3 0 0.7 0 0.7-0.7 0-1.1 0-1.1-0.4 0 0 0 0 0.4-0.3 0 0 0.3 0.3 0.3 0.3 0 0 0.4-0.3 0.4-0.3zm-0.4-3.1c0.4 0 0.4 0.3 0.4 0.3-0.4 0-0.4 0-0.4-0.3zm-0.3 5.9l-0.7 0.3c0 0 0-0.3 0.3-0.3zm-1.7 24.4c-0.3 0-0.3 0.4-0.7 0.4 0 0-0.3-0.4-0.3-0.4 0-0.3 0.3-0.3 0.3-0.7-1-0.3-1.7-2-2.7-2-0.4 0-0.7 0.3-1.1 0.3l-0.7-0.3c0.7 0 1.8-0.4 2.8-0.4 0.7 0 1.4 0.4 2.1 0.7v1.4c-0.4 0-0.4 0-0.7 0 0.3 0.3 1.4 0.3 1 1zm-5.2-5.1h1.1zm3.1-11.4v0.3c-0.7 0-0.4 0.7-0.7 1.1-0.4-0.4-0.4-0.7-0.7-1.1 0.3-0.3 1 0 1.4-0.3zm-0.7-4.5v-0.3c0 0.3 0.3 0.3 0.3 0.3l-0.7 0.3c0.4-0.3 0.4-0.3 0.4-0.3zm-0.4-10.7l0.4 0.4h-0.4zm0.4 3.1v0.7l-0.7-1.1c0.3 0 0.7 0 0.7 0.4zm-1 3.1c0.3 0 0.3-0.4 0.6-0.7v-0.4c0.7 1.1 1.8 1.1 2.8 2.1-0.3 0.3-0.3 0.7-0.3 1l0.3 0.4-1 0.7c-1.1-0.4-0.7-2.1-2.1-2.4 0.3 0 0.3 0 0.3-0.4 0 0 0 0-0.3 0l-0.3 0.4zm-0.4 3.1c-0.3-0.4-0.3-0.7-0.3-1.1h0.3c0 0.4 0.4 0.7 0.4 1.4 0 1-0.4 1.7-1.8 1.7l0.4 1.1c-0.7 0-1.4 0.3-1.4-0.7 0 0 0.3-0.4 0.3-0.4 0-0.3-0.3-0.7-0.3-1 0.7-0.4 1.4-0.4 2.1-0.7-0.4 0-0.4-0.3-0.4-0.7 0 0 0.4 0.4 0.7 0.4zm-2.1 18.9c-0.3 0.4-0.6 1-1 1.4-0.7 0-0.7-0.4-0.7-0.7 0-0.7 0.4-1.4 0.7-1.4 0.4 0 0.7 0.4 1 0.7zm0.4-18.6l-0.4-0.7h0.4zm-6.9-6.5h0.3l-0.6 0.3zm-0.7-17.2l0.3 1.4c-0.7 0.6-1 1-2.1 1l-0.3-0.4c0-1.7 1-1.3 2.1-2zm0 4.1c0 0.7-0.4 1-1.1 1 0-0.3 0-0.6 0.4-1zm-3.1-10c0.7 1.4 1 0.4 1 1.4-0.7-0.3-1-0.7-1.4-0.7 0.4-0.3 0.4-0.3 0.4-0.7zm0 10h0.7c0 0.4 0 0.4 0.3 0.7-0.3 0-0.7 0.3-1 0.3-0.4 0-0.4 0-0.4-0.6 0.4 0 0.4 0 0.4-0.4zm-11.1 16.6c0-0.7 0-1.1 0.4-1.4 0 0.3 0.3 0.7 0.7 1 0 0.4-0.4 0.4-1.1 0.4zm6.2 4.4h-5.1l0.3-1c2.4 0 3.8-0.3 4.5-0.7 0.7 0 0.7 0.7 0.7 1.4zm3.4 1.7c0.4-2.7 1.8-3.8 3.1-4.1 0 0-0.6 0.3-1 0.3-1.4 0-2.7-1.7-4.5-1.7v-0.7c0.4 0.4 1.1 0.7 1.4 0.7 1.4 0 2.4-1 3.8-1.7 1 1 3.8-0.4 4.5 1.4 0.3-0.4 1.4 0 1.7-0.4l0.3 0.4c1.1-0.4 1.1-1.1 2.8-1.1 0 1.1-1 1.4-1.4 2.1h0.7l-2.1 9.3c-1 0.3-1.7 0.7-2.4 0.7-3.4 0-2.4-5.2-6.9-5.2zm8 16.2c0.7 0.7 1 1.4 1 2.1 0 0.3 0 1-0.3 1-1.1 0-1.4-1.7-1.4-2.4 0-0.3 0.3-0.7 0.7-0.7zm0-6.5v-0.4c0.3 0.4 1 0 1 0.7-0.3 0-0.7-0.3-1-0.3zm11.7 48.2l-0.7-0.3c-0.7 0.7-1.7 0.3-1.7 0.3l-0.4-0.3c-1.4 0-3.1-0.4-4.8-0.4-1 0-2.4 0.4-3.4 0.7-1.4-1-3.8 0-4.9-1 0-2.1 1.1-4.5 1.1-6.9 0-1.1-1.4-1.7-1.4-3.1 0-0.4 0.3-0.7 0.7-1.1l-0.4-0.6c1.8 0 3.1 0 4.2-1.4 0-1.1-1.8-2.4-1.8-2.4-1 0-1.3 0.7-2 1v1.4c-0.4-2.8-0.7-5.2-0.7-7.6 0-3.1 0.3-6.2 0.3-10 0-1-1.3-2.4-1.3-3.8 0-0.7 0.3-1.4 1.3-1.7-0.3-0.4-0.7-0.7-1.3-0.7 0-1 0.3-2.1 1.3-2.8 1.1 3.5 3.5 5.2 6.9 5.6v1c-1 0-2-0.4-3.1-0.4-0.7 0-1.4 0.4-1.7 1.1 0 1 1 1.4 1.7 2 1.1-0.6 2.4-1 3.5-1 2.4 0 5.1 0.7 7.9 0.7v0.3l-0.4-0.3c-0.6 0-0.6 0.7-0.6 1 0 1.1 1.3 2.1 1.7 3.1h0.3c-1 2.5-1.4 5.2-1.4 8 0 2.4 0.4 5.1 0.4 7.5-1-0.3-2.1-0.3-3.1-0.3-1.7 0-10 0.7-10 1.4 0 1 0.7 1 1 1.7l-0.3 0.7c1 3.8 14.8 1 14.8 7.6 0 0.7-0.3 1-1.7 1zm4.5-69.9c-0.4 0-0.4 0-0.4-0.4 0 0 0 0 0.4-0.3zm0.3 14.4c0.4 0 0.7 0 0.7 0.4v0.7c-0.7-0.4-0.3-0.7-0.7-1.1zm1.7 3.1c-0.3 0.4-0.3 0.7-0.3 0.7-0.4 0-0.7-0.3-1-0.7 0-0.3 0-0.3 0.3-0.3 0.3 0 0.7 0.3 1 0.3zm1.1 1.8c0 0.3-0.4 0.6-0.7 0.6-0.4 0-0.7 0-0.7-0.3 0-0.3 1-0.3 1.4-0.3zm0 2.4c0 0-0.4 0.3-0.4 0.3-1 0-1.4-0.3-1.4-0.3 0-0.4 0.7-1.1 0.7-1.1 0.7 0 1.1 1.1 1.1 1.1zm0.3-3.1l-0.7-0.4 0.7-0.3zm2.1 1.7c-0.4 0.3-0.7 0.7-1.1 0.7-0.6 0-1-1.4-1-1.7 0-1.1 0.4-1.8 1.4-1.8 0.3 1.1 0.7 1.1 0.7 2.8zm-1.1-18.3c0 0.4 0 1.1-0.3 1.1 0 0 0-0.4 0-0.4 0 0-0.3 0-0.3 0.4l-0.4-0.4c0.4 0 1 0 1-0.7zm-1-2.7l1 0.3c0 0 0 0-0.3 0 0 0-0.3-0.3-0.7-0.3zm0.7 15.1l-0.3-0.3c0.3 0 0.3-0.3 0.6-0.3-0.6 0 0 1-0.6 1 0.3 0 0.3 0 0.3-0.4zm1-8.9l0.4-1v0.6zm0.7 13.5c-0.4 0-0.4-0.4-0.4-0.7 0 0 0.4 0 0.4 0.3zm0-5.1l0.3-0.7v0.7zm4.8-46.9c0 0.3 0 1 0.4 1.4h-3.1c-0.4-0.7-0.7-1.4-1.4-2.1h-3.4l-0.7 2.1h-2.4c0-1.4-0.7-4.5-0.7-5.2 0-3.1 1.3-1 2-4.1 0-0.4-0.3-0.4-0.3-0.4-4.1 0-3.8 1.1-5.9 2.4 0-6.5-2-10.3-2-14.4h17.5c-0.3 0.3-0.3 0.3-0.3 0.7 0 2 1 3.4 1 5.5 0 3.8-1.7 4.1-1.7 7.9 0 2.1 0.3 4.1 1 6.2zm2.8 76.2c0 0.3-0.4 0-0.4 0.3 0 0.3 0.4 0.3 0.4 0.3 0.3 0 0-1 0.3-1 0 0 0 0.4 0.4 0.4 0.3-0.4 1.4 0 1.4-1.1 0 0 0 0.4 0 0.4 0.3 0 0.6-0.4 1-0.4 0 0.4-0.4 0.4-0.4 0.4 0 0 0 0.3 0.4 0.3 0 0 0-0.3 0-0.3 0 0 0.3 0.3 0.3 0.3 0-0.3 0.4-0.3 0.4-0.7-0.4 0-0.7-0.3-1.1-0.7 0.7 0 0.4-1 0.7-1-0.3 0-0.3 0-0.3 0 0 0.3 0.7 0.3 1 0.3-0.3 0-0.3 1.8-0.3 1.8 0.3 0 1.7 0 1.7 1 0 0-0.7-0.3-1-0.3 0 2.4 1.4 3.1 1.4 3.1 0 0-0.4 0-0.4 0 0 0.3 0.4 0.7 0.4 1-0.4 0.3 0 2.1-1.1 1.7 0 0 0 0 0.4 0-0.4 0.4-0.7 0.4-0.7 0.4 0 0.3 1.4 0.3 1.4 0.3-0.4 0-0.4 0.4-0.4 0.4-0.3 0-0.3-0.4-0.3-0.4 0 0-0.4 0.4-0.4 0.4 0 0.6 0.4 1 0.7 1.3-1 0-1.4 0-1.4 0.4 0 0 0-0.4-0.3-0.7-0.4 0.3-0.4 0.7-0.7 1 0.3 0 1-0.3 1.4-0.3-0.7 0.7-1.4 0.7-1.4 1 0 0.4 0 0.4 0.3 0.4 0 0 0.4-0.4 0.4-0.7 0 0-0.4 0-0.4 0 0.4 0 1.1-0.4 1.4-0.7 0 0.7 0.4 0.3 0.4 1-0.4 0-0.4-0.3-0.4-0.3 0 0 0 0.3 0 0.3 0 0 0-0.3 0-0.3-0.7 0.7-1.4 1.3-1.4 1.7 0 0.3 0.4 0.3 0.4 0.3-0.7 0.4-0.4 0-0.7 0.7 0.3 0 0.7-0.3 1-0.3 0 0.3-0.7 0.7-0.7 0.7 0.7 0 0.7 0.3 2.1 0.3 0 0-1.7 1-1.7 1.4 0 0 0.3 0 0.3 0-0.7 0-0.7 0-1.4 0 0.7 0.7 2.1 0.7 2.8 1.7-0.3 0-0.7 0.4-0.7 0.4 0 0.3 1.1 1.3 1.1 1.3 0 0.7-1.8 1.1-1.8 1.4 0.4 0.4 1.1 0.7 1.1 1 0-0.3 0-0.6 0.3-0.6 0 0-0.3 0-0.3 0.3 0 1 0.3 0.7 0.7 1.4-0.4 0.3-0.4 0.3-0.4 0.7 0 0.3 0.4 0.7 0.4 1 0 1-2.1 0.7-4.5 0.7 0 0.3 1.7 2.1 3.4 2.1 0 0 0.4-0.4 0.7-0.4 0 0.4 0.4 1.1 0.4 1.7 0 0.4 0 1.1-0.7 1.1 0 0-0.4-0.4-0.4-0.4 0 0 0 0.4-0.3 0.7 0 0 0.3 0 0.3 0-1 0-0.7 0.4-1 0.4 1.7 0.3 2.1 0.7 2.1 3.1 0 0-0.4 3.8-0.4 4.1 0.4 0.3 0.7 1 0.7 1 0.3 0 0.3-1 0.3-2 0-2.1-0.3-5.5-0.3-7.3 0-0.3 0.7-4.1 1-6.2 0 3.5 0.4 6.9 0.4 10.4 0 1-0.4 2.4-0.4 3.4 0.4 0.4 0.4 2.1 0.4 3.8 0 5.5-0.4 6.5-0.4 10.7 0 1 0 2.1 0.4 2.7-0.4-0.6-0.4-1-0.4-1.7 0-1.4 0.4-3.1 0.4-4.5 0 0.7 0 1.4 0.3 2.1 0 0 0.4-0.7 0.4-1 0 0-0.4 0-0.4 0 0 0 0 0 0.4 0 0.3 0 0.7 1 0.7 1 0.3 0 0.3 0 0.3-0.3-0.3 0-0.3 0-0.3 0 0.6 0 1 2.4 1 5.1 0 3.1-0.4 6.6-0.4 6.9-0.3 0-1-0.3-1-0.3-0.3 0 0 0.7-0.3 1 0-0.3 0-0.3-0.4-0.7-0.3 0-0.3 0.7-0.3 1.4 0 1.7 0.3 3.8 0.3 3.8 0.4-0.7 1.1-2.1 1.4-2.1 0 9.3 0.3 16.2 0.3 24.1 0 0.4-0.3 0.7-0.3 1.1 0 0 0 0 0.3 0-0.3 0-0.3 0-0.3 0.3-0.3-0.3-0.3-0.3-0.7-0.3 0 0 0.7-1.1 0.7-1.1-0.3-0.3-1.4-1-1.4-2 0-0.4 0-0.4 0.4-0.4-0.4-0.3-0.4-3.1-0.4-3.4 0 0 0.4 1.7 0.4 1.7 0-0.7 0.3-1 0.3-1.4 0 0.4 0 0.4 0 0.4 0.4 0 0.4 0 0.7-0.4-1-0.7-0.7-0.7-1-1.7 0 0.4-0.4 0.4-0.7 0.4 0-1.1 0-2.8-0.4-4.2-0.3 0-0.3 0.4-0.3 0.7 0-0.3 0.3-1.4 0.3-2.1-0.7-0.3-0.7-1-0.7-1.7 0-0.7 0.4-1.7 0.4-2.7 0-0.4 0-1.1-0.4-1.4 0 8.9 0.4 20.7 0.4 21.3 0 0.7 0.3 2.5-1 6.6 1 0 1 0.3 1 1.4 0 1.7-0.7 4.5-0.7 5.5 0.3 0.3 0.3 0.3 0.3 0.3 0 0-1-0.3-1-0.3 0 0 0.4 0 0.4-0.4-0.4 0-2.1-1.3-2.5-1.7 0 0.4-0.3 0.7-0.3 1.1 0-0.7 0.3-0.7 0.3-0.7 0-0.7-1.7-0.7-1.7-1.1 0 0-0.7 0.7-1 0.7 0 0.4 0.3 1.1 0.3 1.4 0 0 0 0 0 0 0 0 0 0 0-0.3-0.3 0-0.7 0.3-0.7 0.3 0 0 0.4 0 0.4 0.3-0.7 0-1.1 0-1.4 0.4-0.3 0-0.7-6.6-0.7-11 0-2.8 0-4.5 0.7-4.5 0.3 0 0.3 0 0.3 0.7 0 0 0.4-0.4 0.4-0.4 0-0.3-0.4-0.3-0.4-0.7 0 0 0.4 0.4 0.7 0.7-0.3 0-0.3 0.7-0.3 0.7 0.3 0.4 0.3 0.4 0.7 0.4 0.3 0 0.3 0 0.7-0.4 0 1-0.7 0.7-0.7 1 0.7 0.4 0.3 0.4 1 1.1 0.4-0.4 0.4-0.4 0.4-0.7 0 0 0 0.3 0 0.3 0.3 0 0.3 0 0.3-0.3-0.3 0-0.3-0.4-0.3-0.7 0.3 0 1 0.3 1 0.3 0 0-0.4-0.3-0.4-0.3 0 0 0 0 0.4 0 0 0 0.3 0 0.3-0.3-0.3 0-0.7 0-0.7 0.3 0 0 0.4-0.7 0.4-0.7-0.4-0.3-0.4-0.3-1-0.3 0-0.4 0.3-0.4 0.3-0.4-1 0-1 0-1-0.3 0 0.3 0.3 0.3 0.3 0.3 0.4 0 0.4-0.3 0.4-0.3 0 0-0.7-0.4-0.7-0.7 0 0 0 0.3 0 0.3 0 0 0.3-0.3 0.3-0.3-0.3-0.4-1-0.4-1.4-0.4 0.7 0 0.4-0.3 0.7-0.6 0 0.3 0.4 0.3 0.7 0.3 0 0-0.7-0.7-0.7-0.7 0.4-0.3 0.7-1 0.7-1.4-0.3 0-0.3 0-0.3 0 0.3-0.3 0-0.7 1-1 0-0.3-0.3-0.3-0.3-0.3 0.3 0 0.3 0 0.6 0.3 0 0 0-0.3 0-0.3 0 0.3 0.4 0.3 0.7 0.3 0.4 0 0.4 0 0.7-0.3-0.3 0-0.3-0.4-0.3-0.7 0-0.4 0-0.4 0.3-0.7 0 0 0 0-0.3 0-0.4 0-0.4 1-0.7 1-0.4 0-0.7-0.3-1-0.3 0.3 0 0.6 0 0.6-0.4 0-0.3-0.3-0.3-0.6-0.3 0 0 0.3 0 0.3 0 0 0-0.3 0-0.3-0.4-0.4 0 1 0.7 1.3 0.4 0-0.4-0.7-0.7-1-0.7-0.3 0-0.3 0-0.3 0.3 0-0.3 0-0.3-0.4-0.3 0.4 0 2.1 0 2.1 0.7 0 0 0 0 0-0.4 0-0.3-0.7 0-0.7-1 0 0-0.7 0-0.7 0.3 0 0 0 0 0.3 0-0.6 0-0.6 0-1.3 0 0 0 0.3-0.3 0.3-0.3-0.3 0-1 0.3-1.7-0.7 0.3 0.4 0.3 0.4 0.7 0.7 0 0 0.3-0.3 0.3-0.3 0 0-0.3 0-0.3-0.4 0 0 0.3 0.4 0.3 0.4 0.4 0 0.4-0.7 0.7-0.7-1 0-1.4 0-1.4-0.7 0.4 0 0.7 0.3 1.1 0.3 0 0-0.4-0.7-0.4-0.7 0 0 0 0-0.3 0.4 0-0.4 0.3-0.4 0.7-0.4 0 0 0-0.3-0.4-0.3 0 0 0 0.3 0 0.3 0-0.3 0.4-0.7 0.4-0.7 0 0-0.4 0-0.4 0 0.7-0.3 1.1-0.6 1.4-1-0.3-0.3-0.3-0.3-0.3-0.3 0 0 0 0.3 0 0.3 0 0-0.4 0-0.4-0.7 0 0.4-1.4 0.4-1.4 0.4 0.7 0.7 0.4 1 0.7 1 0-0.3-0.3-0.3-0.3-0.3 0 0 0 0.3 0 0.3 0 0 0-0.7 0-0.7-0.4 0-0.7 0.7-0.7 0.7 0 0 0.3 0 0.3-0.3 0 0.3 0 0.3 0 0.3-0.3 0-0.3 0-0.3-0.3 0 0-0.4 1-0.4 1.3 0.4 0 0.4 0 0.7 0 0 0-1 0-1 0 0.3 0 0 0.4 0.3 0.4 0 0-0.3 0.3-0.3 0.7 0 0.3 0.3 0.7 0.3 1 0 0-0.3 0-0.3-0.3 0 0 0 1 0 1-0.7-3.5-0.7-7.2-0.7-11.4 0-14.5 0.4-28.2 0.4-42.7 0-2.4-0.4-6.6-0.4-10.4 0-1.7 0-3.1 0.4-4.1 0 0-0.4 0-0.4 0 0.4-0.7 0.7-2.7 1-3.4 0 0-0.6 0-0.6 0 0-0.7 0.3-0.4 0.3-1.1 0 0-0.3 0.4-0.3 0.4 0-0.7 0-0.4 0.6-0.7-0.6-0.7-0.3 0-0.6-1 0 0 0.3 0 0.6-0.4-1 0-0.3 0.4-0.6 0.4 0-0.4 0-0.7 0-1.1 0.3 0.4 0.3 0.4 0.3 0.7 0-0.3 0-0.7 0-1 0 0-0.3 0.3-0.3 0.3 0-0.7-0.4-1.7-0.4-2.7 0-1.4 0.4-2.8 1.4-3.1zm2.1 82c0 0-0.4 0-0.4 0 0 0 0.4 0 0.4 0zm-42.4-153.4c-0.4 0.4-0.4 0.7-0.4 1.1h1.1v-0.7zm13.4 35.8c0 0 0-0.3 0-0.3h-0.7c0.4 0 0.4 0.3 0.7 0.3zm-2.1-0.7c0 0 0 0 0 0l1.4 0.4c-0.3-0.4-1-0.4-1.4-0.4zm-4.1 3.1l2.4-0.3c0 0 0 0 0.4 0-0.4-0.7-0.4-1.4-0.4-2.1 0.4 0 0.7 0.4 0.7 0.7 0 0-0.3 0.3-0.3 0.3 0 0 0.3 0 0.3 0.4 0-0.7 0.7-1.4 1-2.1-1.7 1.1-3.8 0.7-5.5 1.1 1.1 0.3 1.4 1 1.4 2zm36.9 41c0-0.3-0.4-0.3-0.7-0.3 0 0 0.3 0.3 0.7 0.3zm234.7 45.5c0 0.4 0 0.4 0.3 0.4 1 0 1.7-1.8 1.7-3.5-0.3 0-1-0.7-1.7-1.4-0.3 1.1-0.3 2.5-0.3 4.5zm4.1 57.6c0.7 0 1-0.4 1-1.4h-0.7c0 0.7 0 1-0.3 1.4zm-48.6-82.7c-0.3 0-0.3 0-0.7 0.3zm12.8-10l3.8 0.7-1.1-0.7zm48.3 105.1v1.7c0.3 0 0.7-0.3 0.7-0.6v-0.4c0-0.3-0.4-0.7-0.7-0.7zm2.7-2c1.1 0 0.7 0.3 1.1 0.3 0.6-0.3 1-0.7 1-1.4-1 0-1.7 0.4-2.1 1.1zm-126.1-28c0 0.7-0.4 0-0.4 0.7h0.7c0-0.7-0.3 0-0.3-0.7zm126.5 29.3v2.4h1c0-1.3-0.3-2-1-2.4zm-3.1-1.7c-0.7-0.3-0.4 0-1.1-0.7-0.3 0.4-0.3 0.7-0.3 1.1l1 0.3c0-0.3 0-0.3 0.4-0.3zm-10-11.4l1-0.4c-0.3-0.3-0.7-0.7-0.7-1-0.3 0.7-0.3 1-0.3 1.4zm-112.7 10l-0.7-1.4h-14.5c0 2.8 4.8 2.4 10 2.4 2.1 0 4.1 0 5.2-1zm74.8-209.2l0.3-1.4h-0.7c0 0.7 0 1.4 0.4 1.4zm-35.9 0.7c0-0.7 0.4-1.4 0.4-2.1h-1.1c-0.3 0.4-0.3 1-0.3 1.4 0 0.3 0.3 0.7 0.7 1 0.3 0 0.3 0 0.3-0.3zm-14.1 2.1v2.7h0.7c2.4-4.1 7.2-2.1 7.2-5.5l-1.4-1.4h-12l-1.1 4.8c1.8-0.6 3.1-1 4.5-1 1.1 0 1.7 0 2.1 0.4zm53.1 7.2c0.3 0 0.7 0 0.7-0.4-2.1-2-0.4-6.8-3.1-8.9 0 0.3-0.4 1-0.4 1.7 0 2.8 1.7 7.6 2.8 7.6zm15.5 0c3.8 0 8.9 1.7 12.4 1.7 2 0 3.8-0.3 5.1-1 3.1 1 9 1.4 14.9 1.4 1.3 0 2.7-0.4 3.8-0.7-1.8-2.4-13.1 0-13.1-5.2 0-2.4-0.4-3.8-0.7-4.5h-1.4c0 2.4 0.3 4.5 1 6.2l-2 1.4c0 0-0.4-0.7-0.4-1.4 0.4-0.3 0.4-0.3 0.4-0.7 0-7.9-8.7-8.9-15.9-8.9-8.3 0-15.8-0.4-15.8 3.4 0 5.5 2.7 6.6 5.8 10.4 1.7-1.4 3.8-2.1 5.9-2.1zm-113.4 15.2c-0.4-0.7-1-0.7-1.7-0.7v1.3h1.7zm-17.6-13.7c0-0.7-0.7-0.7-2.4-0.7 0 0 0 0.3-0.3 0.3v1c0.7-0.3 1.7-0.3 2.7-0.3zm30.7 205.7h-0.7v1.1c0.3 0 0.7-0.4 0.7-1.1zm-75.1-97.1l0.7 0.3c0-0.3-0.4-0.3-0.7-0.3zm33-108.3h4.9c0-1.3-0.4-0.6-0.4-2.4h-6.5c-1.1 1.8-2.1 0.4-2.8 2.1l0.4 0.7c1.7-0.4 3.1-0.4 4.4-0.4zm47.9 169.6h1.1v-0.7l-1.1-0.3zm-26.1 6.2c-0.4 0-0.7-0.4-1.1-0.4 0 0-0.3 0.7-0.3 1.4 0.3 0 0.3 0.3 0.7 0.3 0.3-0.3 0.3-0.3 0.7-0.3zm134.4-64.4l-0.7-1.4c-0.4 0-0.4 0.3-0.4 0.7l0.4 1c0.3 0 0.3-0.3 0.7-0.3zm-150.3 53.4l-0.7-0.7c0 0.3-0.3 1-0.3 1.4 0.3 0 1 0 1-0.7zm98.6-83.1c0 0.7 1 0.7 2 0.7 0.4-0.7-0.7-0.7-1.3-0.7-0.4 0-0.4 0-0.7 0zm-1.1-7.9c-0.3 0.3-0.3 0.7-0.3 0.7 0 1 1 1.4 1.4 1.7 0.3-0.3 0.3-0.7 0.3-1.4 0-0.3-0.3-1-1.4-1zm6.6 32.7c-0.7-1.7-1.7-3.1-3.1-4.4 0.3 0.3 0.7 0.6 1 1-0.7 1.7-2.1 1.4-2.1 1.7 0.7 1 2.1 1.7 3.5 1.7 0 0 0.3 0 0.7 0zm-6.9-29.3c0 0 0.3 0 0.3-0.3-0.3 0-1 0-1.3 0.3 0.3 0 0.6 0 1 0zm3.1 26.2c-0.4-0.3-0.4-0.7-0.7-1l-0.7 0.7c0 0.3 0.7 1.4 1.4 1.4 0-0.4 0-0.7 0-1.1zm0.7-1.3c0 0 0 0 0 0 0 0 0 0 0 0zm1-19.7v-0.3c-0.3 0-1.4 0-1 0.3 0.3 0 0.7 0 1 0zm-2.4 20l1.4-0.3c-5.5-2.5-9.7-8.3-12.8-8.7 0.4 1.4 1.1 2.1 2.4 2.8-0.3 0.3-0.3 0.7-0.3 1.4 2.4 1.3 5.2 2 6.9 4.8 0.3-0.3 0.7-1 1-1 0.4 0 0.7 0.3 1.4 1zm-1-2.4c0.7 0.7 1.7 1.4 2.4 1.7-0.4-0.3-0.4-0.3-0.4-0.7 0-0.7 0.4-1.4 1.1-2.1-2.1-2 0.3-4.4-3.1-4.4 0.7 0.3 1 1 1 1.3 0 1.4-1 3.1-1 4.2zm0-17.9c0 0-0.4 0-0.4 0 0.4 0 0.4-0.7 0.4-0.7 0-1.7-1.8-1.7-2.8-1.7-0.3 0.3-1.4 1-1.4 1.7 0 1 2.4 1.4 3.1 1.7 0.4-0.3 0.7-0.3 1.1-1zm2.4 19.6c0 0 0 0.4 0 0.4zm0-19.3c-0.4 0-0.7 0.3-0.7 0.6 0 0 0 0.4 0.3 0.4 0-0.4 0.4-0.4 0.7-0.7 0 0 0-0.3-0.3-0.3zm-10.7-61.7c0-0.4-0.4-0.7-0.7-1.1-0.3 0.4-0.7 0.4-0.7 0.7 0 0.4 0.4 0.7 0.7 0.7 0.3 0 0.3 0 0.7-0.3zm120.3 129.2h-1.8v-22.1c2.5-2.4 2.1-4.4 5.6-4.4v-2.5c-1.1-0.3-3.8 0-5.6-1v-22.4c0.7 0 1.8 0 2.8 0 1 0 1.7 0 2.8-0.3v-3.5c-2.8 0-4.5-0.3-5.6-0.7v-15.5c0.7 0.4 1.1 0.4 1.4 0.4 2.1 0 4.5-0.4 4.5-10.4 0-11-1.7-7.2-4.5-8.6v-0.7c1.1 0 2.8-0.3 3.5-1-1.1-1.7-2.4-2.8-4.9-2.8v-4.1c0-1.7 0-3.8-0.3-5.5h1.7v-0.7l-1.7-1.4c-2.8-16.5-14.8-30.3-30-36.2-1-1.7-2.4-2.7-3.8-2.7-1.4 0-2.7 0.3-4.1 0.3-2.8-0.3-5.9-0.7-9-0.7h-36.2c-0.3-0.3-1-0.3-1.7-0.7l-0.3 0.4c0 0 0 0.3 0.3 0.3h-3.8c-2-5.5-5.1-8.6-6.2-15.1h-1c0 0.7-0.4 1.7-0.4 2.7 0 3.1 4.2 9.3 4.2 12.4h-2.8l-2.7-3.4c-0.7 1-1.4 2.1-1.8 3.4h-6.8c1.7-3.4 2.4-10.6 2.4-14.4 0-1.4-0.7-2.1-2.1-2.1-2.4 0-6.9 0.3-7.6 1.7 0.7 1.1 1.4 2.1 1.4 2.1 0 0.3-1 0.7-2.1 1.7 0 2.4 0.7 4.5 0.7 6.9 0 1.4-0.3 2.8-0.7 4.1h-1.7c0-1-0.7-1.7-1.7-1.7-0.4 0.7-1.1 1-2.1 1l-0.3-0.3c0-2.8 3.1-1.7 4.8-2.8v-2.4l-2.4-2.7c1.4-0.7 0.3-0.7 2.4-1.7-1.4-1.4-0.7-1.1-1.7-2.1l-0.7-0.7c0-0.3 0.7-0.7 0.7-3.1h-3.1v5.2c1.3 0 1.7 0.3 2.4 0.3l-0.7 1h-4.8c-3.1 2.1-3.1 5.2-5.5 10h-5.6c1.4-1.7 2.5-3.4 3.5-5.1l-0.4-0.4c-2.7 0-5.8-0.3-8.6-0.3-3.4 0-6.9 0.3-8.9 4.8 0.3 0.3 0.7 0.7 0.7 1h-18.7c0.4-1.7 0.7-3.1 1.4-4.4-0.7-1.1-1.7-1.4-2.7-1.4-0.4 1.4-1.1 4.1-1.1 5.8h-1.7v8.7c-0.3 0-0.3 0.3-0.3 0.6 0 0 0 0 0.3 0.4v10.3c-0.3 0.4-0.3 1.1-0.7 1.1h0.7v4.4c-0.7 0.7-1.4 0.7-1.7 0.7-5.2 0-18.3-2.4-18.3-5.5 0-1 0.7-1.7 2.8-1.7 1.7 0 2.7 0.7 4.5 1.4 0.7-0.7 1-1.4 2.4-1.4l-0.4-1c-6.2 0-9.3 1-9.3-8 0-2.7 0.4-5.5 0.4-8.2 0-7.3-2.4-8-5.2-8-2.1 0-4.1 0.4-6.2 0.4 1.4 3.8 1 3.1 3.1 3.8v2c-0.3 0-0.3 0-0.3 0h-64.1v50.7h16.2l-0.4 25.2c-1.4 2 0 1.7-1.4 3.1 0.7 0 0.4 0.3 1.1 0.3h0.7l-0.4 2.8c-0.7 0-0.3 0.3-0.7 0.3 0 0.3 0.4 2.1 1.1 2.8v3.7c-1.4 0.4-0.7 0.4-1.4 1.1 0.7 0.7 0.3 1.7 1 2.4l0.4-0.4v18.7c-0.4 0.3-1.1-0.7-1.8 1.7 0.7 0 1.1 0 1.8 0.3v76.9h50.6v-3.1c1-0.4 1.7-1.1 2.1-2.4h-1.1c-0.3 0.3-0.6 1-0.6 1.3l-0.4-1.7 1-5.2c-1-1.7-0.3-6.5-1-7.2v-13.1h3.8l0.3 1c-0.6 3.5-0.3 9.4-1 11.4 0 0.4 0 0.4 0.4 0.4h4.8l0.3 0.7c0 1-4.5 0.3-4.5 1.3 0 10.7-1 23.5-1 34.5 0 6.5 0.7 11.7 1.4 17.9h22c1.4-2.1 1.4-8.3 1.4-11.7 0-4.1 0-5.2-3.1-7.6l1.1-1.4-0.4-0.3c0 0.3-0.7 0.3-1.4 0.3-2.7 0-3.1-3.1-4.4-5.1-0.4 0-1.4 0.3-2.8 0.3 0.7 2.4 2.4 3.8 2.4 5.2 0 4.8-3.1 19.3-3.4 19.3-2.1-0.4-2.8-5.9-2.8-11 0-11.1 0.4-19 1.7-26.6-2.4-1.7-3.4-1.4-3.4-6.5-0.4 0.3-1.1 0.7-1.7 1.7-0.7-2.1-0.7-1.7-2.5-3.5 0.4-0.3 0.7-0.3 1.1-0.3h3.1l2.1-3.4c1 1 0.6 1 2 1 0.7 0 1.4-0.7 1.4-1 0 1.7 12.4 9.6 12.7 9.3 0.7-1.1 0.7-5.9 0.7-7.3 0-2 0-3.4-1-4.8l-1 1.4c0 0-0.4-0.4-0.4-0.7 0-2.4 1.7-1 2.4-2.4-2-1.7-2.4 0-2.4-4.8 1.7-0.7 2.4-2.8 2.4-5.6 0-9.3-11-1.3-11-15.5 0-1-0.3-1.7-1-2v-0.4c2.4-1 4.1-2.1 5.8-4.5 2.4 0.7 2.4 2.1 3.1 4.2 0.7-0.4 1.8-0.4 3.1-0.4 0-2.4-0.7-3.8-0.7-6.2 0-1 0.4-2 0.7-3.1-4.8-3.1-3.1-4.8-10.6-4.8-1.4-1.4-2.8-2.8-4.9-2.8-0.3 0 0 0.4-1.7 0.4 0.7 1 1 1.7 1 1.7l-0.6 1c-0.7-1.3-2.1 0.4-2.1-2.4-0.7 0-1.1 0.7-1.1 1.4h-0.6c0 0-0.4 0-0.4-0.3v-1.4c0-0.4 0.4-0.4 0.4-0.4 0.3 0.4 1 0.4 1.7 0.4 0-0.4 0.3-0.4 0.3-0.4l-0.3-1c0-0.3-0.7-0.3-1.4-0.3-1.4 0-1.4 1-2.8 1.7-1.3-0.7-2.4-1-4.8-1 0.7 0.6 1.1 2.4 1.1 2.7-0.4 0-0.4 0.7-0.7 0.7l-2.8-1.4v-6.5c1.7 0.3 3.5 0.3 5.9 0.3l2.4-2.4c1 2.1 2 3.1 3.1 3.5 0.7-2.1 2.1-3.5 3.4-4.5 0 2.7 0.7 1.7 1.8 3.4 0.6-0.7 1.3-0.3 1.3-0.7 0.4 0 0.7 0.7 1.4 1.4 0.7-0.7 1-1.4 2.1-1.4 0 0.4 0 1.4 1.4 1.4 0-0.3 0.3-0.3 0.6-0.3 1.4 4.1 2.8 4.4 5.6 7.9l-1.1 1 1.4 1.4c2.1 0 1.7-11.4 1.7-15.2 0-6.5-0.3-13.4-1.7-16.5 0.7 0 0.7-2.4 0.7-5.5 0-2.1 0-4.2 0-6.2l-2.1-1.4-1.7 2.1c-0.7-2.4-1-2.4-1.7-3.5-1.7 0.7-2.8 1.1-3.5 2.8-0.3 0-0.3-0.4-0.7-0.7v-0.7c0.7 0 1.1-0.7 1.1-1.7 0-1.1-0.7-1.7-2.1-2.4 1-0.7 2.1-1.4 3.1-1.4 1 0 2.1 0.3 3.5 0.3 0.6 0 1.3-0.7 2-1.7-1.4 0-2-0.3-2-0.7l0.3-1h0.7c0.3 0 1 1 2.1 2.4l-0.7 1.4c0.3 0.7 1 0.7 1.7 0.7 0-0.7 0-2.1 0-3.5 0-1.4 0-2.7 0.3-3.8-0.7-1.4-1.3-0.3-2-2-1.1 0.6-8.6 1.3-9.3 2.7-1.4-0.7-3.1-1.4-4.2-1.4l1.4-2.4 3.1 2.8 1.4-2.8 4.8 1.1 0.4-0.4c-0.7 0.4-8.3-4.8-10-5.8v-0.4c0.3 0 0.7-0.3 0.7-0.3 0.3 1 1 1.3 1.7 1.3 1.4 0 1-2.7 1-3.7 3.8 1.7 7.2 3.4 10.3 6.2 0.7-0.7 0.7-1.8 0.7-2.8 0-5.9-1.3-6.9-3.8-6.9-3.4 0-7.2 0-11 0.7v0.7c0 0.3 0.4 0.3 0.4 0.3 0 0.4 0 0.7-0.7 0.7l-2.1-2c-0.3 0-0.7 0-1.4 0.6-1.4-2-5.5-4.8-7.6-6.2 0 2.5-2.4 1.4-2.4 3.1 0 0.4 0.4 0.7 0.4 1.4 0 0.4-0.4 1.1-1.1 1.7 0-0.3-0.3-0.6-1-0.6v-3.8c0.4 0 0.7-0.4 1-0.4l-1-0.7v-2.4c9.3 0 11 6.2 26.5 6.2 1.4 0 2.8-0.7 4.2-0.7v-3.4l-0.7-1c-2.8 0.6-5.9 1-8.6 1-2.4 0-5.5-0.4-6.2-1.7 0.3 0 0.7 0.3 1 0.3 3.5 0 3.8-8.6 3.8-15.8 0-3.8 0-7.3 0-8.7h5.5v22.1h15.9l5.5 0.7c0 23.1 0.3 138.2 0.3 138.2h12.4v5.5c9.3 0 15.2 0 21.4 0 6.2 0 12.4 0 22.4-0.4 0-48.5 0.3-95.1 0.3-143.3 8.7 0 14.9-0.4 22.4-0.4 10.7 0 10.4 0.7 10.4 11.1h9.3v1.7c-1.4 0-3.1 0-4.5 0.3-0.7-0.7-1.7-1-2.8-1-0.3 0.3-0.3 0.3-1 0.3l-1 1.4v9h0.7c1.3-1.4 7.5-4.8 8.6-4.8v4.1c-3.1 0-9.3 8.6-9.3 9.6 0.7 0.7 1.4 0.7 2 0.7 1.4 0 2.8-0.3 3.1-0.3 1.4 0 2.5 0.3 2.8 1.4-0.7 0.7-2.4 1.3-4.8 1.3h-3.1v10.4h1.7c0-0.4 0.3-0.7 0.3-0.7-0.6-0.4-1.3-2.4-1.3-5.9 0-1 0.7-1.7 1.7-1.7 2.1 0 4.5 0.4 6.9 0.4v93.7c0 0-0.4 0.3-0.4 0.7 0 0 0.4 0 0.4 0.3v6.6h7.6v0.7c0.3 0 0.7-0.4 0.7-0.4l3.7-0.3c0 0 0.4 0 0.4 0.3l-1 1.1c0.3 0.3 0.6 0.3 0.6 0.3 1.8-0.3 3.5-1 4.9-1.7h5.5c0 0.7-0.4 1.7-0.4 3.1-4.8 0-11.3-0.7-14.1-1.4 0 1 0 1.7-0.3 2.4h0.3c1.4 0 3.1 0.4 4.5 0.4v0.6c1 0.7 2.1 1.1 3.1 1.1 1 0 2.4-0.7 3.4-0.7 0.7 0 1.8 0.3 3.1 1 0.4-0.3 0.7-1 0.7-1.4 3.8 0 9.3 2.5 9.3 2.5-4.8 6.5-10 10.6-19.6 11.3 0 1.8 11.4 2.1 21.7 2.1 8.6 0 19.3-0.3 22.1-0.3v-48c0-1.7 0.3-7.9 0.3-10.6 0-5.9-1.7-5.2-4.1-5.2zm-188.2 69.3h0.7c0 1 0.3 0.7 0.3 1.3 0 0 0 0-0.3 0h-1c0-0.6 0-1 0.3-1.3zm9.7-75.2c-1.1 0-3.1 0-3.1-1.7h1.3c1.1 0 1.8 0.7 1.8 1.7zm-4.2-15.1c0.4 0.7 0.7 1 1.1 1v0.4c-0.4 0-0.7 0.3-1.1 0.6l-0.7-1zm-2.4 16.2h2.8v0.7c0 0.3 0 0.3-1.7 0.3-0.4-0.3-0.7-0.3-1.4-0.3zm-2.1-2.8h0.7c0 0.7 0.3 0.4 0.3 1.1-0.3 0-0.7 0.3-1.3 0.3 0.3-0.3 0.3-0.7 0.3-1.4zm0 33.8c0-0.3 0.3-0.3 1-0.3v1c-0.7 0-0.3 0.3-1 0.3 0-0.3 0-0.3-0.3-0.3 0.3-0.3 0.3-0.3 0.3-0.7zm12.1-78.9l-0.4-0.4c0-0.3 0-0.6 0.4-0.6 0.3 0.3 0.3 0.6 0.7 0.6 0 0.4-0.4 0.4-0.7 0.4zm0-5.9c0.3 0 0.7 0 0.7 0.4l-0.4 0.7c-0.7 0-1.4 0.3-1.4-1.1zm-3.4-5.5c-0.7 0 0 0.4-0.7 0.4h-0.3c0.3-0.4 0.3-0.4 0.3-0.7 0.3 0 0.3 0 0.7 0.3zm-3.5-7.6l3.1 2.1c-0.6 0-0.3 0.7-1.3 0.7-0.7-1.7-1.4-0.3-2.1-2.1 0 0 0-0.3 0.3-0.7zm0 2.5c0 0 0 0.3 0.4 0.3-0.4 0.3-0.4 0.7-0.4 1h-0.6c0-0.3-0.4-0.7-0.4-1.3zm1.4-15.6l1 0.4c-0.3 0.7-1 1-1.4 1 0.4-0.3 0.4-0.7 0.4-1.4zm-24.5 1.8l0.4 0.3-1.4 1.4c0 0 0 0 0-0.4 0-0.3 0.7-0.6 1-1.3zm-5.5 2.7c0.3-0.7 0.3-1.4 0.3-1.7 0-1 0-1.7 0-2.4 0-0.7 0-1.4 0.7-2.1 1.4 0.7 1.8 1.1 1.8 1.7 0 1.1-1.1 2.5-1.1 3.8 0 0.4 0.4 1.1 1.1 1.8 0 1-0.7 2.4-0.7 3.4 0 0.7 0 1 0.7 1.7-0.4 1.8-1.4 3.1-2.1 4.5-0.7-0.7-1-1.4-1-2.4 0-1.4 0.3-2.8 0.3-4.1 0-0.7 0-1.4-0.3-2.1zm-8.3 28.6c0.3 0.3 0.7 0.7 0.7 1 0 0.4-0.4 0.7-0.7 0.7-0.4 0-0.7-0.3-0.7-0.7 0-0.3 0.3-0.7 0.7-1zm-7.6-22.4c-0.3-0.3-1.4-0.7-1.4-1.4 0-0.3 0.4-0.7 1.1-1 0.7 0.3 0.7 0.7 0.7 1.4 0 0.3 0 0.7-0.4 1zm11 91l2.1 1.4c-0.3 0.6-1.7 1.3-1.7 2 0 0.4 0 0.4 0 0.4-1.4-0.7-3.1-1.4-4.2-1.4-0.3 0-0.6 0-0.6 0-0.4-0.4-1.1-1-1.1-1.4 0-0.3 0-0.7 0.7-0.7l1.7 1.7c2.4-2 2.8-5.5 5.9-6.9l0.3 0.4c-0.3 2.1-3.1 1.7-3.1 3.8 0 0.3 0 0.3 0 0.7zm7.6-14.5c-0.3 1.7-0.3 3.8-1 6.2 0 1.4 1.7 1 2.4 2.4-1 1.4-2.8 2.8-2.8 4.8 0 0.4 0.4 0.7 0.4 1.1-0.4 0.7-0.7 0.7-1.4 0.7-1 0-1.7-0.4-1.7-1.1 0-0.3 0-0.7 0.3-1-0.3 0-0.3-0.3-0.7-0.7 0 0.4 1.8-5.9 1.8-9.3l-0.4-3.1c0.4-1.7 0.7-5.5 3.5-5.5 0.3 0 0.6 0.3 1 0.7-0.4 1-2.4 2-2.4 3.4 0 0.4 0.3 1.1 1 1.4zm2.4-19c-0.7 0-0.7-0.3-1-0.3-1 0-1.4 1-1.4 1 0 1.1 1 1.8 1.4 2.4l-2.4 8.3c-0.4 0-0.4 0.7-1.1 0.7 0.4 0 0.4 0.4 0.4 0.4 0 0.3 0 0.6 0 1l-1-0.7 0.6-0.7c-0.6-2.7-1-5.9-1-9 0-2.4 1.4-4.4 1.4-5.1 0-0.7-0.7-1.1-1.4-2.1 0.4-1 0.4-1.7 0.4-2.7 0-2.5-0.7-4.9-0.7-7.3 0-1.7 0.7-3.4 0.7-5.2 0-1.3 0-2.7 0-4.1 0-1.7 1-3.8 1-5.2 0-1-1-1.7-1-2.4 0-0.3 0-0.3 0.3-0.7-0.7-1-0.7-2.7-0.7-4.1 0-1.4 0-2.8 0-4.1 0-0.4 0-1.1 0-1.4 0.4-0.4 0.4-1 0.4-1.4 0-1-0.4-2.1-0.4-3.1 0-1 1-1.4 1-2.4 0-0.7-1-1.4-1-2.1 0 0 0.4-0.3 0.7-0.7 2.1 1.1 0.7 3.8 2.8 5.2 0 0.4 0 1 0 1.4 0 0.3 0 1 0 1.4 0 1-1.4 2-1.4 3.4 0 1.4 1 2.4 1 3.1 0 0.7-0.3 1.4-1.4 1.7 0.4 1.8 1.1 3.8 1.1 5.6 0 1 0 2-0.7 3.1 0.7 1.3 1 2.4 1 3.4 0 0.7-0.3 1.4-0.3 1.7 0 1.4 0.3 2.4 1.3 3.5-0.6 1-0.6 2-0.6 3.4 0 1.4 0.6 3.1 0.6 3.8 0 0.7-1 1.4-1 2.1 0 0.3 0 0.7 0 1 0 1-0.3 2.4-0.3 3.1 0 1 0.3 1.4 1.7 1.7l2.8 0.4c0 0 0 0.3 0 0.3 0 1.1-1.1 1.4-1.8 1.7zm14.8 8.3c0.4 0 0.4 0.4 0.4 0.4 0 0.3-1.7 2-2.8 2-0.3 0-0.3 0-0.7-0.3 0-1.4 2.1-1.4 3.1-2.1zm-3.4 18.3h-0.7c-0.7-1.4-1.7-2.1-2.4-3.8 0-0.4 0.3-0.7 0.7-0.7 2.7 0 2.4 3.1 2.4 4.5zm-2.8-22.1c0 0 0.4 0 0.7 0 0.7 0 1.4 0.4 1.4 1.1 0 1-0.3 5.5-1.7 6.5-0.7-2.1 0.3-4.8-1.7-5.9-0.7 0.7-1.8 1.4-2.8 1.4-1 0-2.1-0.7-2.1-1.7 0-0.7 1.8-0.7 1.8-2.4 0-0.4 0-1-0.4-1.4 1.1-0.3 1.1-1.4 1.1-2.1 0.6 0 2 0 2 1.1 0 0.3 0 0.7 0 0.7 0 1.3 0.7 2 1.7 2.7zm-1-16.9c-0.7 0-1-0.3-1-1 0 0 0-0.3 0.3-0.3 0.4 0 1.1 0 1.1 0.3 0 0.4 0 1-0.4 1zm13.8-47.5h1c0 1 0 1-1 1zm-0.7 41.4l0.7 1.3h-0.4c-4.8 0-9.6-0.3-13.7-0.3v-1c2 0 3.4 0 5.5-0.4v-0.3c-1.7-1.1-3.8-1.1-5.5-1.1v-6.8c0.3 0 0.3 0 0.3-0.4 3.1 1.7 7.2 3.5 10.3 6.2-0.6 0.7 0 2.1-0.6 2.8 1.3 0 1-0.4 2.7-1.1 0.4 0.7 0.4 1.1 0.7 1.1zm-11-39v-1c0.3 0.3 0.3 0.7 0.3 1zm8.3-7.9c0-0.3 0.7-0.3 2.4-0.3l-0.7 1.3c-0.3-0.3-0.7-0.3-1.7-0.3zm0 5.9h1.4c-0.4 0.6-0.7 1.3-1.4 1.7l1.4 0.7c-0.4 0.3-0.4 1-0.4 1.7h-0.3c-1.1 0-1.1-1.7-1.7-2.4zm-8-8.3c0.7 0 1.4 0.3 2.4 1 0-0.3 0.4-0.7 0.7-1.3 0.7 1.3 2.4 1.3 3.5 3.1l-6.9 0.3c-0.4-0.3-0.7-1-0.7-1.7zm-1 6.2c2 0 3.8-0.7 4.8-1.7h0.7c0 0.3 0.3 0.7 0.3 1v1.4l-1.7 1c-0.7-0.7-3.4-0.7-4.1-1.4zm-0.4 32.4l1.1 1.1c-0.7 0-0.7 0.3-1.4 0.3zm-0.4-19.3c0 0.3-0.3 0-0.3 0.7h-0.7v-1.4c0.3 0 0.7 0.4 1 0.7zm85.2-67.9v0.7h-0.7c0-0.3 0-0.7 0.7-0.7zm-10.4-23.1c0 1.1 0.7 0.4 0.7 1.7l-1.4-1zm-15.8 29c-0.4 0-0.7 0-0.7 0-1.4 0-2.4-1.1-3.8-1.1-0.4 0-1 0.4-1.4 0.7-1-0.7-1.7-1-2.7-1-1.4 0-3.1 0.7-4.5 0.7-1.1 0-1.7-0.7-2.8-0.7-2 0-3.8 1.4-5.8 1.4-1.1 0-3.8-1.1-5.2-3.1 0.7-0.7 1.4-0.7 2.4-0.7 1.7 0 3.8 0.7 5.5 0.7 0.4-0.4 1.1-0.4 1.4-0.4 1 0 2.1 0.4 3.4 0.4 0.7 0 1.4 0 2.1-0.7 0.4 0.3 1 0.7 1.7 0.7 1.4 0 2.1-2.1 3.5-2.1 1.4 0 1.7 3.1 3.8 3.1 0.7 0 1.3 0 2 0 0.7 0 1.8 0.3 2.4 1 0 0.4-0.6 1.1-1.3 1.1zm-1.8-8c0.4 0 0.7 0 1.1 0 0.3 0 1 0 1 0.7 0 1.1-0.3 1.4-1 1.4-0.7-0.3-1.4-1-1.4-1.4 0-0.3 0-0.3 0.3-0.7zm14.2 0.4c-0.4-0.7-0.7-0.7-1.4-0.7-2.1 0-2.8 1-2.8 2.4 0 0.7 0.4 1.4 0.7 2.1l1.8 1.7c-1.4 2.1-3.5 2.8-5.6 3.4-0.6-0.6-2.4-2.4-2.4-4.1 0-1.4 1.8-1.4 1.8-3.1 0-2.4-1.4-3.8-3.8-4.5-1.1 1.1-1.8 1.1-2.5 1.1-2 0-3.7-1.8-6.5-1.8 0.3 0 0.7-0.3 0.7-0.3 7.2 0 16.2 1.4 25.1 1.4 2.1 0 4.5 0 6.6-0.4l1 1.1c-3.1 1-5.1 3.1-8.2 3.1-0.7 0-1.1 0-1.8-0.4l-1.7-1.7zm-2.1 1.7h-0.6l0.6-0.3zm6.6 2c1.4 0.4 1 1.8 1 2.8l-1 0.7c0-0.4-1.7-1.7-1.7-2.8 0-0.3 0.3-0.7 1.7-0.7zm-1-1.3l0.3-0.7 0.7 0.7c-0.4 0-0.7 0-1 0zm12.4 110.9l-2.1-2.4c-0.3 0.4-0.7 1-1.7 1l-1.1-1 6.2-2.1c-1.3-1.7-1.7-3.1-1.7-4.8 0-3.1 1.4-6.2 1.4-8.9 0-1.8-0.3-3.5-2.1-5.2 0 0 0-0.4 0.4-0.4-0.7-0.6-1.4-0.6-2.1-1.3l1-0.4c-0.3-0.3-0.3-1-0.3-1.4l-1 0.7c-1.1 0.7-1.4 2.4-3.1 2.4 0 0-0.4 0-0.4 0 1.7 1.8 2.8 4.9 2.8 4.9 0 2.4-1.1 5.1-1.8 6.9 0.4-1.1 0.7-2.1 0.7-3.1 0-1.4-0.7-5.2-2-5.2-1.8 0-2.4 2.1-3.8 3.1 1.7 1 1 3.1 2.4 4.5l-2.8 0.3c0-1 0-2.4-1-2.7 0-0.4 0-0.7 0-1.1 0-1-0.3-2-0.3-3.4 0-1.1 0.3-2.1 1.3-2.8-0.3-1-0.3-2-0.3-2.7 0-2.1 0.3-3.8 1-5.9-1.4-1-2.7-2.1-3.8-3.8 0.7-0.3 1.4-0.3 1.8-0.3 0-0.4-0.4-0.7-0.4-1.1 0-1.3 0.4-2.7 1-3.4 1.8 4.1 5.6 4.8 9.7 5.5-0.3-0.3-0.7-0.3-0.7-0.3 1.7-1.4 1-3.8 1.4-5.9-1.7-1-0.7-3.8-1.7-5.2 0 0.4-0.4 0.4-0.7 0.7-1.1-0.3-2.8-1-2.8-2 0-0.7 1.7-1.8 1.7-2.5 0-0.3 0-1-0.7-1.3 0-0.7 0.4-0.7 1.1-0.7-1.1-0.7-1.4-1.4-1.7-2.4 0-1.4 1-2.1 2.4-2.4 0.3 0.3 1 0.6 1.4 1.3 0.3-0.3 0.3-0.3 0.6-0.7-1.7-0.6-1.3-3.1-2-4.8v-1l2.4-2.8c-0.4-0.3-0.7-0.7-0.7-1 0-0.7 1-1.4 1-2.8-0.3-0.7-0.7-2-0.7-3.1 0-1.3 0.4-3.1 1.1-4.4 0 0.6 1 2.4 1 3.7 0 0.7-0.3 1.4-0.7 1.8 0.4 0.3 0.4 0.3 0.4 0.7 0 0.6-0.4 1.3-0.4 1.7 0 0.3 0 0.7 1.1 1l-1.4 1c0.7 1.1 1 2.1 1 3.1 0 2.5-1 4.5-1 6.6 0 1 0.3 2.1 1 3.1-0.3 0.7-0.3 1.4-0.3 2.1 0 1 0 2 0.3 2.7 0-0.3 0.4-0.7 0.4-1.4 0-1.3-0.4-3.1-0.4-4.4 0-2.4 0.4-4.5 2.1-5.9 0-1-0.4-2.4-0.4-3.8 0-1 0.4-2.4 1.8-3.1 0.3 0 1 0 1 0.4 0 0.6 0 1 0 1.7 0 2 0.3 4.1 0.3 6.2 0 1 0 2.1-0.7 3.1l0.4 3.1c0 1.4 0.3 3.1 0.3 4.8 0 1.4-0.7 2.8-0.7 3.8 0 1.4 0.7 2.4 1.1 3.1l-0.4 10.7c-0.3 0.3-0.7 1-1 1.4 0 5.8 1 12.4 1 18.2 0 2.8 0 5.5-1 8 2.8 5.8 4.5 12.7 4.5 18.6v0.7c-3.5-5.2 0-16.6-8.6-17.3zm-5.2-41.3c0.3-0.4 0.7-0.4 1-0.4 1.1 0 2.4 1.4 2.4 2.4 0 0.7-1 1.8-2 2.1-1.4 0-2.4-1.4-2.4-2.4 0-0.7 0.6-1.4 1-1.7zm9-65.9c-1.1-1-2.1-1-3.5-1-1 0-2.1 0.4-2.4 0.4 0 0-2.4-1.1-2.4-1.8 0 0 0.3-0.3 0.3-0.3 0 0 0.4 0.3 0.4 0.3 2.4 0 3.1-3.4 5.8-3.4 1.1 0.3 1.8 2.4 2.8 2.4 0.7 0 1-1 2.4-2.4l-0.7-1.4c0.4 0 0.7 0.4 1 0.7v0.3c0 0 0.4 0 0.4 0 0.3 0 0.7 0.4 1 1.4 0 3.1-3.1 3.5-5.1 4.8zm7.9 80.3v-0.3l0.3 0.3zm12.8-84c-1.4 2-4.5 0.6-6.2 2.7-2.4-1-4.5-2.1-6.6-3.1 0.7-1 3.1-1 3.1-3.1 0-1-0.7-1.7-0.7-2.4 0-0.3 0.4-0.7 1.1-1 2.4 0.7 2.4 4.4 5.5 4.4 1.4 0 2.4-0.3 3.4-0.3 0.7 0 1.4 0.3 1.4 0.7 0 0.7-0.7 1.4-1 2.1zm12.7 0c-2 0.3-3.1 2.4-4.8 2.4-3.8 0-2.8-3.5-4.8-4.9 1-0.6 1.7-2.4 2.7-2.4 1.1 0 1.8 2.4 3.5 2.4 2 0 2.4-2.4 4.1-2.4 0 0.7 0.4 1.1 0.4 1.4 0 1.4-0.7 2.4-1.1 3.5zm1.7 8.6c0.4-1.1 1.4-0.4 2.1-0.7 0 0.3 0 0.7 0 0.7 0 0.7 0 1.4 0 1.7-1 0-1.4-1-2.1-1.7zm8-4.9c-0.7-0.3-1.7-0.6-2.1-1.7 0-0.7 0.7-1 1.4-1 0.7 0 1.4 0.3 1.7 1 0 0.7-0.3 1.4-1 1.7zm10 2.1c-0.4 0-0.4 0-0.7 0-1.7 0-2.8-2.1-3.1-2.1 0.3-0.6 1-0.6 2-0.6 1.1 0 2.1 0.3 2.8 1-0.3 0.7-0.3 1.4-1 1.7zm-60 53.4l0.4 0.4c0.6-0.4 0.6-0.4 0.6-0.7 0 0 0-0.4 0-0.4-0.3 0.4-0.6 0.7-1 0.7zm74.8 123.7v2.5h0.7l1.4-1.8c0-0.3-0.4 0-0.4-0.7zm-136.1-55.8c0.7 0 0.7 0.4 1 0.4 0.4-0.4 1.1-1.1 1.4-1.1-0.7 0-1-0.3-1.7-0.3-0.7 0-0.4 0.7-0.7 1zm64.8-62.7c0-0.3 0-0.7 0-1.4-0.4 0.4-0.4 0.7-0.4 1.1 0 0 0.4 0.3 0.4 0.3zm7.2-66.9c0 0-0.3 0.4-0.3 0.4l0.3 0.7zm-28.2 4.1c-0.7-0.7-1.4-0.7-1.8-0.7-1.7 0-2.7 0.7-3.1 2.4l3.1 0.4c1.1-0.4 1.8-1.4 1.8-2.1zm20.6 64.1c-0.3 0.4-0.7 0.7-0.7 1 0 0.7 1.4 1.8 1.4 3.1 0 0.4-0.3 1.1-1 1.4 0.7 0.7 0.7 1.8 0.7 2.4 0 1.1-0.4 2.1-0.4 3.1 0.7 0.4 1.4 0.4 2.1 0.7 0-0.7 0.3-1.3 0.7-2-0.4-3.1-2.8-6.6-2.8-9.7zm2.1 11.7c0 1.4 0.7 2.8 0.7 4.2 0 0.3 0 0.3 0 0.7 0.3 0.3 1 0.3 1.4 0.3 0-1.7 0-3.1 0.3-4.8-0.7 0-1.4-0.4-2.4-0.4z"/>
	<path id="Nas" class="s1" aria-label="Nas"  d="m55.8 307.5c-2 0-3.4-0.4-5.5-1.1 0 0.4-0.3 1.1-0.3 1.4l1.7 1.4c1.7-1.1 3.4-0.4 4.1-1.7zm149.2-242c0-0.3 0-0.3-0.6-0.3 0 0.3 0.3 0.3 0.3 0.3zm0 0.4c0 0 0 0 0 0 0 0 0 0 0 0zm-119.9 210.5c0 1.1 0 1.8 0.7 2.5 0 0 0-0.4 0-0.4 0-1 0.7-1.7 0.7-2.4 0-0.7-2.5-3.1-3.5-3.4l2.8 3.1zm125.4-212.3c0 0-0.3 0-0.7 0.3 0.7 0.4 1 0.4 1.7 0.4-0.3-0.4-0.7-0.7-1-0.7zm-134.4 218.5c0.3 0 0.7 0 1 0 0.7 0 1.1 0 1.4 0.6 0-0.6-0.3-1.3-0.7-1.7-1 0-2 0-2.4 1.1-0.3-0.7-0.7-1.1-1.4-1.1l1.4 1.7zm132-220.9c0-0.6 0.3 0 0.3-0.6-0.3 0-0.6 0-0.6 0.3 0 0.3 0.3 0.3 0.3 0.3zm-163 243.7c-0.3 0-0.7 0.3-0.7 1 0 2.4 1 5.5 2.1 7.3 1.4-0.7 1.7-1.4 1.7-2.1 0-4.5-1.7-6.2-3.1-6.2zm160.6-240.9c0 0-0.4 0-0.4 0.3h0.7zm-0.3 2.8c0 0 0 0 0.7-0.7-0.4 0-0.7 0-1.1 0.4 0.4 0 0.4 0 0.4 0.3zm1.7-1.4l-0.7-0.7c0 0.7 0.4 1.1 0.4 1.1 0-0.4 0.3-0.4 0.3-0.4zm-186.8-20h-6.2c-0.7 0.4-1.3 1.4-1.3 3.8 0 5.5 3.4 2.8 3.4 5.2 0 0.3-0.3 0.7-1 0.7-0.7 0-1.8-0.7-2.4-0.7 0 8.6 6.5 6.2 6.5 7.6 0 0.3-0.7 1.4-2.1 1.4h3.1c0.7 0 0.7-2.1 0.7-10 0-3.5 0-8-0.7-8zm142 5.9c0-1.7 0.4-4.5-1-6.5-0.7 1.3-1.4 2.4-1.4 3.4 0 2.8 0.7 2.4 2.4 3.1zm-107.2 268.8c-0.3 0-0.7 0.3-0.7 0.7 1.1 0 1.4 0 1.4-0.4 0-0.3 0-0.3-0.7-0.3zm149.9-255c0 0-0.3 0-0.3 0 0 0 0 0 0.3 0zm-165.7 249.1l7.9 0.4c0 0-0.3-0.7-0.7-1.4-1.4 1-3.4 1-7.2 1zm7.9 1.4c-0.3 0.4-0.7 1.1-0.7 1.7 0 0.4 0.4 0.4 0.4 0.4 0-0.7 1-1 1-1.7 0-0.4 0-0.4-0.7-0.4zm115.1-254.3c-0.7-0.7-0.7-2.4-2.4-3.1 0 1.4 0.3 2.7 0.3 4.1 1.1 0 1.8-0.3 2.1-1zm42.7 6.2c0-0.3-0.3-0.3-0.6-0.3v0.6c0.6 0 0.3-0.3 0.6-0.3zm-145 251.6c0 2 1.7 1.7 1.7 2.7 0 0.4 0 0.7-0.7 1.1 1.4 0.6 0 2 1.4 2 0.3 0 0.3-0.3 0.3-1 0-3.5-1-3.8-2.7-4.8zm118.5-212c0-0.3 0.4-0.3 0.4-0.7-0.7 0-1.1 0-1.1 0.4 0.4 0.3 0.7 0.3 0.7 0.3zm-101 234.4c-1.3-0.7-4.1 0.3-4.8-2.8 0 0 0.4 0 1-0.7-2.7-0.7-4.8-3.4-7.9-3.4 0 1 1.7 2.4 1.7 3.8 0 1.3-0.6 2-0.6 2 0 1.1 1 0.7 1 1.4 0 0.4-0.4 0.7-1 1.4 1.7 0 3.1 0.3 5.5 0.3 1.7 0 5.8-0.3 5.8-2h-0.3c-0.4 0-0.4 0-0.4 0zm93.1-284.7c4.1 0 9.3-0.7 12-6.5 1.4-3.8 2.5-2.1 2.5-3.5 0-1.4-5.9-1.4-9-1.4-4.1 0-2.1-0.3-4.5-0.3-1 0-2.4 4.5-2.4 5.5 0-0.3 1.4 5.5 1.4 6.2zm32 12.1c0.4 0 0.7-0.4 1.1-0.7l-1.8-1c0 1 0.4 1.7 0.7 1.7zm1.1-2.4v-0.7l-0.4 0.3v-0.3c0 0.3 0 0.3-0.3 0.7l0.3 0.3c0.4 0 0.4 0 0.4-0.3zm-124.4 78.5c-0.4-0.3-0.7-0.7-1.1-0.7l0.4 3.1c0.7 0 0.7-0.6 0.7-1.3 0-0.4 0-0.7 0-1.1zm96.5 37.3c0-1.1 0.3-2.5 0.3-3.8 0-1.4-0.3-2.8-0.3-3.8zm8.2-1.4v-1c-0.7-1.4-2-1.1-3.1-1.1v1.1c0 0.3 0.4 0.6 0.4 1zm-3.1-9.7c0.3-0.6 1-0.6 1-1.3 0-0.7-0.7-0.7-1-1.1-0.4 1.1-0.4 2.4-0.4 3.8 0 1.1 0 2.4 0 3.1 0.4-0.7 0.7-1 0.7-1.7 0-1-0.3-1.7-0.3-2.8zm4.4 15.6h2.1c0-2.5 1.7-4.2 1.7-6.3l-1-1.3c-0.3 0-0.3 0-0.7-0.4zm-4.5-1.4l1.1 3.1 2-2c-0.7-1.1-2-1.1-3.1-1.1zm0 9.4h0.7c0 0-0.3 0-0.3 0.3 0.3 0 0.7-0.3 1-0.3 0.4 0 0.4 0.3 0.7 0.3 0-1.7-0.7-2.1-2.1-2.8zm8.3-14.1l0.3 0.4 1.1-1.1c-1.7-0.7-2.8-2.7-4.8-2.7l2.4 2c0.7 0.4 1 0.7 1 1.4zm-13.8 9.3c0.4 0.4 0.4 0.4 0.4 0.7l-0.4-4.5zm4.8 8.6c-0.3-0.3-1-0.3-1.7-0.3 0.4 0.3 0.7 1 1.1 1.4 0.3-0.4 0.3-0.7 0.6-1.1zm-104.7 96.2l3.1-2.1-1.7-2.4c-1.1 0.4-1.4 0.7-1.4 1.4 0 0.7 0.7 1.4 0.7 2.1 0 0.3 0 0.6-0.7 1zm-18.3 13.4l-0.3 0.7c1-0.3 2-0.3 3.4-0.3-1.4 0-2.4 0-3.1-0.4zm-18.6-55.5h24.8c0.4 0 0.7-0.3 0.7-0.3-0.7 0-15.5-12.8-26.2-15.5v13.1c0.7 0 0.7-0.4 3.5 1.7-0.7 0.4-2.1 0.7-3.8 0.7 0 0 0.7 0.3 1 0.3zm19.3-2c0 0.7 0.7 0.3 0.7 1 0 0.4 0 0.7-0.7 0.7-0.3 0-0.7-0.3-0.7-1.4 0-0.3 0.4-0.3 0.7-0.3zm-6.5-25.9h-13.1c-0.7 0-1.1 0-1.1 0.7 0 2.1 3.1 2.1 5.2 2.1 4.1 0 11.4-0.7 11.4-1.7 0-0.7-0.7-1.1-2.4-1.1zm-11.4-79.6c-0.4 0 0-0.3-1-0.3l0.3 1zm169.2 186.8c0-0.4 0-0.7-0.7-0.7-0.7 0-1 0.7-1 1.4l0.3 0.3c0.4 0 0.7-0.3 1.4-1zm-28.3-146.8c0.4-0.7 0.7-1.4 0.7-2.1 0-0.7-0.3-1.4-0.3-2l-0.4-1.1c-0.3-0.7-0.3-1.7-0.3-2.4l-0.3 12.1c1-0.4 1-1.1 1-1.4 0-1-0.4-2.1-0.4-3.1zm87.6 138.5v-282.9h-50.3v33.1c-10 0-20.4-0.4-30.4-0.4 0 13.1 0.7 29.7-5.5 29.7-0.7 0-1 0.3-1 1 2.4 3.4 6.5-1.4 6.5 5.5-0.3 1.1-0.3 1.7-0.7 1.7-1 0-1-2.4-1.3-2.4-0.7 1.4-3.1 1.4-5.5 2.1-1.4 0-1.4-1-3.1-1-0.7 0-0.7 0.7-1.4 0.7 0 0-0.7-0.7-1.1-0.7-1.3 2-5.1 3.8-8.2 6.9l-38.3-76.2h-81.7v4.5c-22.4 0-17.5-1.4-20.6 14.4 0 1.8-0.7 3.1-1.8 4.5 0.4 0.4 1.8 0.4 3.1 0.4 4.9 0 10.7 0 10.7-0.7 0-0.7-2.4-2.1-2.4-4.2 0.7-2.4 5.5-0.3 5.5-3.1 0-0.3-0.3-1.7-1-2.7 0.7 0 1.4-0.4 2.1-0.7-0.4-0.3-0.7-1-0.7-1 0-0.4 0.3-0.7 1-0.7 1.7 0 2.8 3.1 4.1 4.5v1c-0.3 0.3-0.3 0.7-0.3 1 0 0 0 0.4 0.3 0.4v14.4c-4.8 0-5.5 6.9-5.5 14.2 0 12.7 0.7 21 0.7 32.4h21.4c0.3 0 0.7 1 0.7 2.7 0 2.1-0.4 3.5-0.4 4.5v4.8c0 1.8-1.7 1.8-3.1 1.8-0.7 0-1.3 0-1.7 0v0.3c0 0 0.4 0.3 0.7 0.3h4.1v2.5c0 0.3-0.3 0.6-0.3 2 0 3.5 2.4 1.1 2.4 4.2-2.4 1.3-5.5 1.7-7.6 1.7-5.2 0-8.3-0.4-13.8-0.4-1 0-1.3 0.7-1.3 1.8 2 0 3.1 1 3.1 3.1 0 1.3-8.3 1.3-8.3 7.2 0.3 0.3 0.3 0.7 0.3 1.4 0 0.7-0.3 1-0.3 2.4 0 1.7 1.4 3.4 2.1 4.5 0.6-0.7 1-1.1 1.3-1.1 1.1 0 2.4 1.8 3.1 1.8 1.1 0 2.1-0.7 3.5-0.7 0.7 0 5.8 0.3 5.8 1.7 0 1.7-11.7 0.7-11.7 1.4 2.1 2 3.8 2.7 5.5 2.7h2.4c1.4 0 15.9 0.4 15.9 4.2 0 0.6-0.3 1-0.3 1.3-1.8 0-5.6-0.3-8.3-0.3-3.8 0-5.5 0.3-5.5 1v20.4c0 0.6-0.7 1-2.1 1-1 0-2.8-0.4-3.4-0.4-1.4 0-7.6 0.7-7.6 0.7 0.3 0.4 0.3 0.7 0.7 0.7 1 0 1.7-0.3 2.4-0.3 14.8 0 24.1 9.6 24.1 9.6 0 0.7-0.3 1.4-0.7 1.4-8.6 0-18.3-6.2-25.8-6.2-1.8 0-1.8 1.7-1.8 6.6 0 4.1 0.4 5.1 3.1 5.1 2.1 0 2.8-0.3 6.2-0.3 1.8 0 2.8 0.3 2.8 1.7-0.3 0.7-1.4 1.4-3.1 1.4-2.1 0-3.4-0.4-5.2-0.4-2.4 0-3.4 0.7-3.4 2.4 0 2.8 5.8 3.5 14.5 3.5 1.3 0 2-0.3 2-1v-4.5c0-1.1-0.3-1.4-1-1.4-0.4 0-1 0.3-1.4 0.3-0.7 0-0.7-0.3-0.7-1 0-1.4 2.1-1.4 3.8-1.4 2.1 0 3.1 0.4 3.1 1.8 0 0.6-0.7 1.3-0.7 3.1l1.8 1c0.3 0 0.6-0.4 0.6-0.4v-2c0-3.5 1.4-3.1 3.8-3.1l0.4 0.7c0 0.7-1.4 1.7-1.4 2.7 1 0 3.1 0 3.1 2.1 0 0.7-2.4 0.7-3.1 2.1l2.4 1c0.4 0 0.7 0.3 0.7 1 0 1.8-3.1 0.4-3.1 2.4 2.4 0 3.4 4.9 3.4 11.4 0 9.7-0.6 21.4-0.6 21-1.1 0-1.4-0.3-1.4-0.7 0-0.3 0.3-1 0.3-1.3 0-0.4-0.3-0.4-0.7-0.4-2.4 0-2.7 3.1-4.4 3.1-1.1 0-2.5-1.7-3.5-1.7-1.4 0-1 2.1-2.1 2.1-1 0-2.7-1.4-3.1-1.4-2 0-3.1 1.4-4.1 1.4-1 0-2.8-1.1-3.8-1.1-1.7 0-2.4 1.8-3.4 1.8-0.7 0-1.1-0.4-1.4-0.4 0 2.4-0.4 5.2-0.4 7.3 0 2 0.4 5.8 1.4 5.8 0.4-0.3 1.4-1.7 1.4-2.4-0.7 0-1-0.3-1-0.3v-0.7c0-0.4 0.7-1.1 2-1.1-0.7-0.3-1-0.7-1-0.7 0-0.6 0.3-1 1-1 2.1 0 1.8 1.7 1.8 3.1 0.6-0.3 1.3-1 1.7-1l1.7 1.7-1.4 2.4c0 0.4 0.4 0.4 0.7 0.4l0.4 0.3c0.6 0 0.6-0.3 2.4-0.3 0.7 0 1 0.3 1 1.3 0 1.8-2.4 1.4-2.4 4.2 0 0.3 0.3 0.3 0.3 0.7 3.8 0 8-1.4 12.8-2.1 2.4 0-1 2.4 4.1 2.4 0.7 0 1.4 0 1.4 0.3v28.3c0 0.7-6.5 4.5-6.9 4.8-0.7 0-2.1-0.3-3.8-1-0.3 0.3-0.3 0.3-0.3 0.7 0 1 0 1.4 0.3 1.4h0.7c0.7 0 1.7 0.3 2.8 2.4 0.3-0.4 0.7-0.4 1-0.4l1.4 1.1c0-0.7-1.7-2.1-1.7-3.1 0-0.4 0.6-0.4 2-0.4 3.1 0 11 1.1 13.8 2.4v6.9h4.1v4.8c3.8 0 6.6 0.4 9 0.4 3.4 0 5.2-1.4 5.9-5.2h31.7v-96.5c8.6 20.4 19.3 44.5 26.2 59 0.3-0.4 0.6-1.1 0.6-2.1 0-4.5-0.3-6.9-0.3-11.4v-72l21.7 43.1v84.1c0 0.3 0.7 0.6 1.7 0.6h6.2c2.1 0 3.1-2.4 3.1-7.5 0-0.7-1-3.5-1-5.5 0-6.3 0.3-12.8 0.3-19 0-4.8-0.3-8.6-0.3-15.2 0-8.6 1-14.8 1.4-14.4 0.3 0 0.3 0 0.3 0.3l2.4 4.5c0 8.3-0.3 18.6-0.3 27.6 0 4.8 0.3 9.6 0.3 14.4 0 2.1-1 4.2-1 6.2 0 0.4 0.3 0.4 0.7 0.4 3.4 0 3.8-3.5 7.2-3.5 0.7 0 1.1 0.4 1.1 1.4 0 6.6-1.8 7.2-8 7.2-1-0.3-1.3-0.3-2-0.3 0.3 0.3 1 0.7 2 0.7l0.4 3.1c0 0.7 0.3 1 0.7 1 0.7 0 1-1 1.7-1 4.1 0 5.2 1.4 5.2 3.8 0 1-0.4 4.1-1.4 4.1-1.4-1.4-2.4-2.4-3.8-4.5-0.4 0-0.7 0.4-0.7 0.7 0 10 6.2 11.1 11.4 11.1 3.8 0 7.9-1.1 11-1.1 3.8 0 6.2 0.4 8.6 0.4 7.9 0 9.3-1.1 9.3-13.8 0-5.5-0.7-5.2-8.2-5.2-3.8 0-4.9 2.4-6.9 2.4h-12.1c0-1 10.3-4.8 15.2-8.2v5.1zm-22.4-270.2c1 1.8 2 2.1 3.4 2.1 1.7 0 3.5-1 5.2-1 1.4 0 2.7 0.7 3.8 2.7-1.1 2.1-2.1 3.5-2.1 5.5 0 0.4 0.3 1.1 0.3 1.4l0.7 0.7c-1.7 1.4-2 3.1-2 4.5 0 1 0.3 2.4 0.3 3.8 0 1.7-2.1 3.1-2.1 5.2 0 2 1.8 4.1 1.8 6.2 0 0.6-0.4 1.7-1.8 2.4 1.4 0.7 1.8 1 1.8 1.7 0 1.4-2.1 2.8-2.1 4.1 0 0.7 0.3 1.1 1.4 1.8-1.4 2-1.7 4.4-1.7 6.8 0 4.2 1.3 8.3 3.7 11.4 0 2.4-1.3 3.1-3.4 3.1-2.4 0-5.5-0.3-7.2-0.3v-9.7c1 0 1.3-0.3 2-0.7-0.7-0.7-1-1-2-1v-2.8c1.3 0 2.4 1.8 3.4 1.8 0.4 0 0.7 0 1.4-1.1-3.1-1.7 0-5.5-4.8-5.5v-3.1c1 0 1.3-0.3 2-0.7-1-2.7-2-2-2-5.8 1 0 1.3-0.4 2-1.1-0.7-1.3-2 0.4-2-1.7v-3.8c1 0 2.4 0 3.1-1 0-1-0.7-1.4-1.1-2.1h-2v-16.9c1.3 0 2-1 2-2 0-1.8-2.4-1.4-2.4-3.5 0-0.3 0-0.7 0.4-1.4zm-199.6 108.9c-0.7 0-1.3-0.3-1.3-0.6 0-0.4 0.3-0.7 0.3-1.1 0.7 0.7 1.4 0 1.4 1.4zm11.3 4.5h-2.7c0-2.1 2.1-1.7 3.4-1.7 0.7 0 1.1 0.3 1.1 0.6 0 0.7-0.7 1.1-1.8 1.1zm2.8 0c0-0.7-0.3 0-0.3-0.7 0-0.4 0.3-0.4 0.3-1 1 0.3 1.4 0.6 1.4 1zm-5.5 111.6c-0.7-0.3-1.1-0.6-1.1-1l0.4-0.7c1 1.1 1 1.1 1 1.4 0 0.3 0 0.3-0.3 0.3zm17.5 31.7h-1.7c0.4-1.3-0.3-3.1 0.7-4.4 1 1 1.7 1.7 1.7 2.7 0 0.4-0.3 1.1-0.7 1.7zm26.6 2.5c-0.7-2.1-3.1-1.1-3.1-3.1 1 0.3 1.7 1.3 2.4 1.3 0.3 0 1 0 1.4-0.7zm0.7-22.4c-1.1 0.4-2.5-0.3-2.8 0.7 1.4 2.5 1 1.1 1 1.8-0.3 0-0.3-0.7-0.3-1.1l-0.7-0.7c-0.7-0.3-1.4-1-2.1-1-0.3 0-0.7 0.3-1 0.3l-0.7 0.7c-0.3-0.3-1-0.7-1.7-0.7l-0.7 0.7c0.7 0.7 0.7 1.1 0.7 1.8 0-0.4-0.7-1.1-1.4-1.1l-0.7 1.1 0.7 0.7c-0.7 0-1 0-1.4 0-0.3 0-0.7 0-0.7 0.6l-3.1-3.1c-0.3 0.4-0.6 1.1-0.6 1.8l0.6 0.7c-0.6 0-1-0.4-1.3-0.7-0.7 0.7-0.7 0.7-0.7 1.3l2 2.1-0.6 0.7-0.7-0.7c-0.4 0.4-0.7 1-0.7 1.7l0.7 0.7-1.8 1.4c1.8 1.4 2.8 4.1 5.2 4.1 0.4 0 0.7 0 1-0.3-1.3 3.1-4.4 1.7-4.4 5.2l-2.5-2.1c0.7 0 2.5 0 2.5-1.4 0-0.7-1.8-1.7-2.1-1.7-0.7 0-1 1-1.7 1.4-0.7-1.4-2.8-4.2-4.9-4.2-0.6 0-1.3 0.4-2 1.4 0 0.7 0 1.7 0.7 2.1l-2.8-1.4c1.4 0 2.8-3.1 4.5-3.1 0.3 0 0.7 0.3 1.4 0.7 0.7-0.4 1-0.7 1-1.4-1-0.7-1.7-2.4-3.1-2.4-0.3 1-0.7 1-0.7 1.7-0.3-0.3-0.7-0.7-1-0.7-1.1 0-1.4 1.1-1.4 1.4l1 0.7h-1.7c0.4-4.8-0.3-10.3 0.7-14.8l-0.7-0.7 2.1-2.1c-0.4-1-1.4-1-2.1-1 0.4-0.7 0.7-1.4 0.7-2.1 0-1.7-0.7-3.4-0.7-5.1 0-0.7 0-1.8 0.7-2.5l1 0.7c-0.7 0.4-1 1.1-1 1.8l1 0.6c0-0.6 0.7-0.6 1.4-0.6l1.4 1.3c-0.7 0-1 0-1.4-0.7-0.3 0.4-1 0.7-1 1.4 0.3 1.4 0.7 1.7 1.4 1.7 0.6 0 1.7-0.6 2.7-0.6 0.4 0 1 0.3 1.4 1.3 0.3-1.3 3.1-2 3.1-3.1 0-0.3-0.4-0.7-1-1.3h-0.7c1.3-0.4 2-3.1 3.4-3.1 0.7 0 1.1 0.3 1.7 0.6 0-0.6 0.7-0.6 1.1-0.6 1.4 0 2 0.6 2 1.3l-1.7 1.8 2.4 2c0.4-0.3 0.7-0.7 1.4-0.7l1.4 1.4c0 0 0.3 0.4 0.3 0.4-0.3 0-1-1.1-1.7-1.1-0.7 0-0.7 0.4-0.7 1.1 0 2 1.7 2.7 2.4 2.7 2.1 0 5.5-1.4 5.5-2.7 0-0.4 0-0.7-0.3-1.1l-2.4-2 5.2 4.4 1.7-1.7 1.4 1.7-3.1 2.1 1.7 2.4c-1.4-1.4-2.8-2.4-4.5-2.4l-1 0.7-0.7-0.7c-0.4 0.3-0.7 0.7-0.7 1.7l0.7 0.7c-0.4 0.4-0.7 0.7-0.7 1.4l0.7 0.7 0.7-0.7c1.3 1 3.8 2.1 3.8 3.4 0 0.7 0 1.1-0.7 1.8zm-24.5-97.2c2.1 1 3.8 2.7 5.9 2.7l2.4-2c-0.4 2.7-2.4 4.8-3.8 7.2-0.7-1.7-1.7-2.1-2.4-2.1-0.7 0-1.8 0.4-2.4 0.4-1.1 0-1.8-0.7-2.5-2.8l-1.7 1.1v-3.1c0.4 0 1.1 0.3 1.7 0.3 0.4 0 1.1-0.3 1.4-1 0.4 0.3 0.7 0.7 1.4 0.7l0.7-0.7zm9-64.1c3.7 0 5.1 2 7.2 3.4-1 1.4-1 3.1-2.4 3.1-1.7 0-2.8-2.1-4.2-2.1-2.4 0-3.1 4.9-4.4 6.6 2 0 6.2-0.3 6.2 1.7-0.7 1.1-1.8 1.4-2.4 1.4-0.7 0-1.4-0.3-2.1-0.3-1.1 0-2.1 0.3-2.4 1.7 0.3 0.7 0.7 1.4 0.7 2 0 1.8-1.1 3.5-2.5 4.2-0.6-1.4-1.3-3.5-1.3-5.2 0-1.7 0.3-3.1 1-4.5v-1.3c-1-1.8-1.4-3.5-1.4-5.2 0-3.1 1.1-6.2 1.1-9.7 0-1.7-0.4-3.1-1.1-4.8 0.7-1.4 2.1-1.7 3.5-1.7 3.4 0 4.1 2.4 4.1 3.8 0 1.4-0.7 3.1-0.7 4.8 0 0.7 0.4 1.4 1.1 2.1zm11 45.1l-0.7-0.7c0.3-0.3 0.7-0.7 0.7-1-0.7-0.4-0.7-0.7-1.4-0.7l-0.7 0.7-1-1.4c-0.4-0.3-0.4-0.3-0.7-0.3-0.7 0-1.7 2-2.4 2.7 0.3-0.7 1-1 1-1.4 0 0 0-0.3 0-0.3l-0.7-0.7c-0.3 0.7-0.7 1-1 1-0.4 0-1-0.3-2.1-0.3 0.4-1.4-0.3-3.4 0.7-4.5 3.8 0 10.3 5.9 10.3 6.6 0 0.3-1.3 2.4-2.7 2.4 0.7-0.4 0.7-1.4 0.7-2.1zm-9 30c-0.3 0.7-1 1-1.4 1-0.3 0-0.6 0-1.3-0.3 0-0.4 1-1 2-1 0.4 0 0.7 0 0.7 0.3zm-4.8-36.5c1 1.3 1.4 1.7 3.1 1.7v5.2zm4.8 53.4c0.4 0 0.4 0 0.7-0.4l1-1c0.4 0.3 0.7 0.7 0.7 1.7-0.3-0.7-0.7-1-1-1-0.3 0-0.7 0.3-0.7 0.3l-0.7 0.7c0 0 0-0.3 0-0.3 0 0-0.3 0.3-0.3 0.3-0.4 0-0.7-0.3-1.1-1 0.7 0 1.1 0.3 1.4 0.7zm8.3-67.2c-1.4 0-4.5 0-4.8 0.3l-1.8 1.7-1.3-8.2c0.3 0.3 1.3 0.7 1.7 1.3 0.7-0.3 1-0.3 2.1-0.3 2.4 0 5.8 1.7 8.6 1.7-0.4 2.4-3.1 2.4-4.5 3.5zm-16.2 32.4c-0.7-1.1-1-2.8-1-4.9 0-1.7 0.3-3.4 0.6-5.1 1.4 0 2.1 0.3 2.8 1.4 0 0.3-0.3 1-0.3 1.3 0 1.1 0.3 2.4 0.3 3.5 0 1.7-0.3 3.1-2.4 3.8zm0.7-28.3c1 1.4 1.4 3.8 1.4 5.9 0 2.4 0 5.1-2.1 5.1-0.7-1.7-1.4-3.8-1.4-6.2 0-1.7 0.7-3.4 2.1-4.8zm-1.1-5.2c0.7 0.4 2.1-0.3 2.1 1.4 0 1.1-1 1.4-1.7 2.1-0.7-0.4-1-1-1-1.7 0-0.7 0-1.1 0.6-1.8zm2.5 19.3c0 0.7 0 1.1 0 1.4 0 0.4 0 0.7-0.7 0.7h-1.4v-3.1c0.7 0.3 1.7 0 2.1 1zm-6.6 53.1c-0.3 0.4-1 0.7-1 1.4l1 0.7 1.4-1.4 1.4 1.4c0.7-0.4 1-0.7 1-1.4l-1-0.7c1.3 0 2.4 2.1 3.4 2.1 0.4 0 0.7 0 1.1-0.7-1.8-1.7-0.4-2.4-1.4-4.5 3.1 0 3.1 3.8 4.8 3.8 0.3 0 1-0.7 1.7-1.7l1.7 1.7c0.4 0 0.7-0.3 0.7-0.7 0-0.7-0.7-1.7-0.7-2.4 0.4 0.7 0.7 0.7 1.4 0.7l0.7-0.7 0.7 0.7c0 0-0.3 0-0.3 0-0.7 0-1.1 1-1.8 1.7 2.8 4.5 9.3 2.1 11.1 7.2-0.7 0.4-0.7 0.7-0.7 1.1 0 1 2.4 1.7 2.4 3.4-1.1 0.4-1.1 1.4-1.1 2.1l0.4 0.3c0.3 0.4 0.7 0.7 1 1.1l1.1 1c0 0-0.4-0.3-1.1-1l-1-1.1c-0.4 0-0.7-0.3-1.4-0.3-1 0-1 0.7-1 0.7 0.3 0 0.7-1.7 2-2.8-0.3-0.3-0.3-0.7-0.6-0.7-0.7 0-1.4 0.7-2.1 0.7l1.4-1.4c-1.1-2.7-1.8-3.4-2.8-3.4-1.7 0-3.4 2.1-4.8 2.1-1 0-2.1-0.7-2.8-3.1-0.7 0.7-0.7 0.7-0.7 1.3-1-1-2.4-2-3.4-2-0.7 0-1.4 0.3-1.7 0.7l1.4-1.8c-0.4-0.3-0.4-0.6-0.7-0.6-0.7 0-1.4 0.6-2.4 0.6l-2.8-2.7-1.7 1.4-1.4-1.4c-0.7 0.3-0.7 0.3-0.7 0.7 0 0.7 0.7 1.4 0.7 2-0.4-0.6-1.4-0.6-2.4-0.6l-0.4 0.6c0-0.6 0-1.7-1-2l-0.7 0.7v-3.8c1 0 1.4 1 3.1 1zm31 24.5l-0.7-1.1c0 0 0 0 0.4 0 0.7 0 0.3 1.1 2.1 1.8-0.7 1-1.4 1.3-2.5 1.3-1 0-2.7-1.3-2.7-3.4 0-0.3 0.3-0.7 0.7-1h0.7c-0.7 0.7-0.7 0.7-0.7 1.3l2 2.5c0.4-0.4 0.7-0.7 0.7-1.4zm3.1 9.3c0.4 0 0.7 0 1.1 0 0.7 0 1 0 1.3-0.7l-1.7-1.4c0.7 0 1.4 1 2.4 1 0 0 0.4 0 0.7-0.3l1.4-1.4 0.7 0.7-2.1 1.4 1.4 1.7 0.7-1 0.7 3.1c-1.1-1.7-2.1-2.1-3.1-2.1-1.7 0-3.5 2.8-5.9 3.8 0-1 1.1-1.7 1.1-3.1l0.6 0.7c0.7-0.4 0.7-1.4 0.7-2.4zm9 7.6v0.7l-2.4-2.1c1.4 0 1.7 0.7 2.4 1.4zm-3.8 0c-0.7-0.7-1-0.7-1.4-0.7-1 0-2 0.7-2.7 0.7-0.4 0-0.7-0.4-1.1-1.4 0.4 0.3 0.7 0.7 1.1 0.7 1 0 2-0.7 2.7-0.7 0.7 0 1.4 0.3 1.4 1.4zm-7.6 3.1c-0.3-0.7-1-0.7-2-0.7l-0.7 0.7c0 0 0-0.4 0-0.4 0-0.7 0.7-1.4 0.7-2-0.4 0-1.1 0-1.4 0l-0.7 0.6-1.7-1.3c0 0.3-0.4 0.7-0.7 0.7l-0.7 0.6-0.7-0.6c0.3 0 0.7 0.3 1 0.3 0 0 0.4-0.3 0.4-0.3l0.7-0.7c1 0.3 1.7 0.7 2.4 0.7l0.7-0.7c0.3 0.3 0.7 0.3 0.7 0.7 1 0 1.7-0.4 3.1-0.7l-1.8 1.3c0.4 1.1 0.7 1.1 0.7 1.8zm-1.4 4.4c-0.3-0.6-0.6-0.6-0.6-0.6-0.7 0-1.4 0.6-2.1 0.6 0-1 1-1.3 2.1-1.7 0.3 0.4 0.6 1.1 0.6 1.7zm-11-14.1c0.4-0.3 0.7-1 0.7-1.7-0.3-0.4-0.3-0.7-0.7-0.7-0.7 0-1.7 1-1.7 1 0 0 0-0.3 0-0.3l1.7-1.4-1-0.7 3.1 2.1c-0.7 0.7-1.1 1.7-1.7 1.7 0 0-0.4 0-0.4 0zm0.7 15.5v0.7c-1 0-2.4-1-2.4-2.1 1.4 0 1.7 0.7 2.4 1.4zm-0.7-32c0.4-0.7 1.4-0.7 2.1-0.7 0.3 0 0.7 0.3 0.7 0.3 0 0.4-1.8 0.4-2.8 0.4zm2.4-5.9c-0.7 0-1.4 1-2 1 0 0-0.4-0.3-0.4-0.3 0.7 0 1.4 0 1.4-1 0-0.4-0.4-0.7-0.7-1.1-0.3 0.7-0.7 0.7-1 0.7-1.1 0-1.8-0.7-2.4-0.7-0.4 0-0.7 0.4-1.1 0.7l1.4 1.4c-0.3 0.7-1.4 1-1.4 2.1 0 0 0 0.3 0 0.3l0.7 0.7c-0.3 0.4-0.7 0.7-0.7 1.4l0.7 0.7c-0.7 0-1.7 0-2.1 1-0.3-0.7-1-1-1.7-1 0-0.7 0.7-1.4 0.7-2.1 0 0 0-0.3-0.7-0.7-0.3 0.4-1 0.4-1.4 0.4-0.6 0-1.7-0.4-2-1.4 0.7-0.4 0.7-1.4 0.7-2.1l-0.7-0.7c0.3-1 1-1.4 1.4-1.4 1.3 0 2.7 2.1 4.1 2.1 0.7 0 1.7-1.4 1.7-2.1 0.4 0.7 0.7 0.7 1.4 0.7 0.7 0 1.7-0.3 2.4-0.7l1.7 2.1c0 0.4 0.4 0.4 0.4 0.7zm-6.9 32.7l-0.7-0.6c0.3-0.4 0.7-0.7 0.7-1.8 0.7 0 1 0.7 1.4 1.1v0.7l-0.7-0.7c-0.7 0.7-0.7 0.7-0.7 1.3zm-4.5-1.3l-1.4-1.1c0.7-0.3 1.1-1.3 1.7-1.3 0.7 0 1.1 0.3 1.1 0.3 0 0.3-1.7 0-1.7 1 0 0.4 0 0.7 0.3 1.1zm-11.4-13.5c0.7-0.7 1.1-1 1.4-1 0.7 0 0.7 2.1 1.4 2.1 0.3 0 0.3-0.4 1-1.1l1.7 1.4c-0.3 1-0.7 1.4-1.3 1.4-0.7 0-1.4-0.7-2.1-0.7-0.4 0-0.7 0.3-1 0.7 0-0.7 0-0.7 0.6-1.4zm-1.3-17.2h1l2.8 3.1zm3.1 5.1c2 0.4 3.1 3.8 4.8 3.8 0.7 0 1-0.3 1.7-0.7-0.7-0.3-0.7-0.6-1.4-0.6l0.7-0.7c0-0.4 0-1.1 0.4-1.4-0.4 0-0.7-0.4-1.1-0.4v-0.6c0.7 0 1.1 0.3 1.4 0.6 0 0.4-0.3 0.4-0.3 0.4 0.3 0.3 0.3 0.3 0.3 0.7l-0.7 0.7c0 1 0.7 1.3 0.7 2 0 0.7-0.3 1.8-1.7 1.8-2.8 0-1.7-4.2-4.8-5.6zm3.1-12.4c0.3 0.4 0.7 0.7 0.7 1.4-1.1 0-1.4-0.7-1.4-1 0-0.7 0.3-1.4 1.4-2.1 1.7 0.4 2.7 2.4 4.4 3.8-1.7 0-2.7-2.8-4.1-2.8-0.3 0-0.7 0.4-1 0.7zm5.1 28c0.7 0 1.8 0 2.1 1-0.3 0.3-1.4 1.4-2.1 1.4-0.3 0-0.7 0-1-0.7 0-0.7 0.7-1.1 1-1.7zm2.1-4.2l-0.7-1 0.7-0.7c0 0.7 0 1.4 0 1.7l0.7 0.7c-0.4 0-0.4-0.3-0.7-0.7zm14.8 1.4v1.4c-0.7-0.7-1-1.1-1.4-1.1-0.3 0-1 0.4-2.4 0.4 0.7-0.7 1.4-1.4 2.1-1.4 0.7 0 1 0.3 1.7 0.7zm1.7 2.4c0 0 0 0 0-0.3 0 0.7 0.4 1 0.7 1 0.7 0 1.4-1 2.1-1 0 1-0.7 1.7-0.7 2.4 0 0.3 0 0.7 0.7 0.7-0.7 0-1 0-1.4-0.7l-1.4 1.4c0-0.7 0.4-1.1 0.4-1.8 0-0.7 0-1-0.4-1.7zm1.4 38.3l-1.4-1.4h2.8zm5.2 1.7c-1.1 0-2.4-1-2.4-2.4 1 0.7 1.3 1.7 2 1.7 0 0 0.4 0 0.4 0zm9.6 16.9c-2.4-2.4-3.8-6.2-7.2-9l1.4-1.7c3.1 3.1 5.8 6.9 5.8 10.7zm3.8-22.7c-0.7 0-1.7 0.3-1.7 1 0 0.7 1 1 1.7 1.7-1 1-3.1 1-3.1 3.5 0 0.3 0 1 0.7 1-0.7 0-1 0-1.4-0.7l-1.4 1.4 0.7 1-1.4-1.7 1.4-1.4-2.4-2.4c-0.7 0.3-0.7 1.7-0.7 2.4l-3.1-3.1c1.1 0 1.7 0.7 2.4 0.7 0.4 0 0.4 0 0.7-0.7l-3.1-3.8c1.1 0 1.4 0.7 1.7 1.1 0.4-0.4 0.7-0.7 0.7-1.8 0.7 1.1 1.1 1.8 2.4 1.8l0.7-1.1-3.8-3.4c-1 0.7-1.7 2-3.1 2l5.2-4.4c-0.3 0.3-0.7 0.7-0.7 1.7 0 0.3 0.4 0.7 0.7 0.7 0.4 0 2.4-1.4 2.4-2.1 0-0.7-1-1-1.4-1.7l1.4-1.4c-0.3-1.7-1-2.1-2-2.1-0.7 0-1.8 0.4-2.5 0.4-1 0-1.3-0.7-2.4-2.1-0.7 0.4-0.7 0.7-0.7 1 0 0.7 1.4 1.4 1.4 2.8-1.4-3.8-5.8-2.1-6.5-6.2l3.8 3.1 1.3-1.4c0.7 0 1.4 1.7 1.8 1.7 0.3 0 0.3-0.3 0.7-0.3l2-2.4c-0.7-1.7-3.1-2.1-4.5-2.1l1.4-1.4c3.1 0.4 3.8 5.2 5.9 5.2 0.7 0 1-0.3 1.7-0.7-0.7-0.3-0.7-1-0.7-1.7l3.1 3.1c-0.7 0.3-1.7 2.4-2.4 3.1 2.1 2.1 3.1 5.5 3.1 9.7zm0.7-243c-1.7-0.7-3.4-1-5.5-1-1.4 0-3.1 0.3-4.8 0.3-1.4 0-3.5-0.7-4.9-0.7-3.4 0-8.6 1.7-13.4 1.7-0.7-0.3-1.4-0.6-2.1-0.6-0.7 0-1.4 0.3-2.4 0.3-2.7 0-4.1-1.7-6.9-1.7-1.4 0-2.4 1-3.4 1-0.7 0-1.4-0.3-2.1-0.3-0.3 0-0.7 0-1 0.3-1.4-0.7-2.8-1-4.2-1-1.7 0-3.4 0.3-4.8 1-0.7-0.7-1.7-1-3.1-1-0.7 0.7-1 1.4-1.7 1.4-0.4 0-1.7-1.4-2.8-1.8h-1c0.3 0 0.7 0 1 0l68.3 0.4c-0.4 0.7-0.7 1-1.4 1-0.7 0-1.4-0.7-2.1-0.7-0.7 0-1.4 0.4-1.7 1.4zm15.5 123.4v-0.4l1 2.8c-0.7-0.4-1-1-1-2.4zm80.3 108.2c-0.7 0-2.4 1.7-5.2 1.7-0.7 0-1.7 0-1.7-2.1 0-2.4 1-5.1 1.7-5.1 0.4 0 1.1 0.7 1.8 2 0-1.3 0-2.7-0.4-3.8 0-1.7 0.4-3.4 0.4-4.1-1.4-1.4-1.1-2.4-1.1-3.8l1.4-0.7c1.4 0 1.7 0.4 2.4 0.4l0.7-0.7zm-7.9-24.8c-1.4 0-2.1-0.4-2.1-1.1 0-1 0.4-1.3 0.7-1.3 1.4 0 1.4 1 2.1 1.3-0.7 0.7-0.7 1.1-0.7 1.1zm1.7 7.9c0 0.7 0 1-0.3 1-0.4 0-0.7 0-1.4-0.3 0.3-0.4 0.7-1 0.7-1.4 0.3 0 0.7 0.4 1 0.7zm-7.2-16.2c-1.8-3.1-2.8-6.2-2.8-9.3 4.8 1.4 7.2 10 7.9 14.1-1.7 0-3.4-1.7-5.1-4.8zm0.6 34.1c1.8-1 2.5-1.7 2.5-2 0.3 0 0.7 0 1 0.3-0.7 2.1-2.8 6.2-5.2 6.2-0.7 0-1 0-1-0.3 0-1.1 1-2.5 2.7-4.2zm2.8-3.4c0-1.4 0.4-2.1 1-2.1 0.4 0.4 0.7 0.4 0.7 0.4 0 1.7-0.3 2.4-1 2.4zm1-3.5c0-0.3 0.4-0.7 0.7-0.7l1.1 1.1c-0.7 0 0 0.3-0.7 0.3 0 0-0.4-0.3-1.1-0.7zm1.1-6.9c0.3-0.3 0.7-1.4 0.7-1.7 0.3 0.3 0.6 0.7 0.6 0.7l0.4-0.4c0 0 0 0.4 0 1.4zm7.9-12c-1 0-2.1 0.3-3.4 0.3-0.7 0-3.1-0.3-3.1-1 0-1.7 0.7-2.8 2-3.1 1.1 0.7 0.7 2 2.1 2 0.7-0.6 1.4-1.3 2.4-1.3zm0-6.2c-0.7 0-2.1 0.6-2.7 0.6-1.1 0-1.8-0.6-1.8-1.3 0-1.8 1.1-2.4 2.4-2.4 0.7 0 1.4 1 2.1 1.3zm0-12.4c-4.5 0-2.7 3.5-6.2 3.5-1 0-0.7-1.1-2.1-1.1 0 0.7-0.3 1.4-1 2.1-0.3 0-0.7-0.3-0.7-1 0-3.8 4.2-6.9 9-8.3 0.3 0 0.7 0.3 1 0.3zm0-5.5c-5.8-1-12.4-1.7-16.2-1.7 1-2.1-0.3-3.4 4.5-3.4 4.5 0 6.9 1 11.7 1zm0-38.3c-0.3 0.4-0.7 0.4-1 0.4-5.5 0-9-3.1-13.5-5.5 0-1.1 10.4-1.7 14.5-1.7zm0-9.3c-1.4 0.3-2.1 0.3-2.7 0.3-2.8 0-13.1 0-13.1-1.7v-12.1c0-1 2.4-1 4.8-1 5.5 0 6.2 0.3 8.6 1.4 1.4-0.7 1.7-1.1 2.4-1.1zm-14.5-88.5c0-0.4-0.7-1.8-0.7-2.5 7.3-3.4 8-3.7 15.2-6.2v19l-2.4 1h-10.3c0 0-0.4-0.3-0.7-0.7 0-0.7 8.6-5.1 13.4-8.2-2.7 0-11.7 5.5-13.8 5.5-1 0-1.7-0.4-2.4-0.7 1-2.4-0.7-5.5 1.7-7.2zm-0.3 14.4c2.4 0 2.4-1 3.4-1 0.7 0 0.7 0 0.7 0.3 0 0.7-0.7 1.4-0.7 2.1 0 1 0.7 1.7 1.4 1.7 0.7 0 1.1 0 1.1-0.3 0-0.7-1.1-1.4-1.1-2.1 0.4-0.7 4.5-1.7 5.5-1.7 0.4 0 1.1 0.3 2.1 0.7 0.3-1 0.7-1 2.4-1v9.6c-4.5 2.1-7.9 2.8-11.7 2.8-2.4 0-4.1-0.4-4.1-6.2 0-1.8 0.6-2.8 1.3-2.8 0.7 0 0.7 0 0.7 0.3l-0.3 0.4c0 0.3 0.3 0.3 0.7 0.7l0.7-0.7c0-0.7-2.1-1.4-3.5-2.1 0-0.3 0.4-0.7 1.4-0.7zm0.3 32.8c4.9 0 12.8 0 12.8 1.7 0 0.7-1 1.4-2.4 1.4-0.4 0-0.7-0.4-1.1-0.4-4.1 0-4.4 0.4-7.9 0.4-1.4 0-2.4-0.7-3.1-1.8 0-0.6 0.7-1 1.7-1.3zm-1.7 9.6c0-3.4 1-3.8 3.5-3.8 0.7 0 1.3 0 1.3 0.7 2.1 0 2.8-1.4 5.9-1.4h5.5v15.2c-1.7 0-3.8-1.4-5.8-1.4h-6.6c-3.1 0-3.8 0-3.8-2 0-2.1 0.4-3.8 0.4-5.6-0.4-0.6-0.4-1-0.4-1.7zm0 44.5c0-3.1 0.4-4.5 0.7-4.5 4.1 0 8.3 4.1 15.5 5.2v2.4c-5.8 0 4.1 5.1-15.8 5.1-0.4 0-0.7-0.3-0.7-1 0-2.1 0-4.5 0.3-7.2zm1.4 14.8c6.5 0 11 3.4 14.5 8.6 0-0.3 0.3-0.3 0.3-0.3v5.5c-4.5 0-6.9 0.3-10 0.3-3.8 0-6.5 0-6.5-6.9 0-3.1 0.7-5.5 1.7-7.2zm-15.5-66.5c0 3.4-1.7 4.8-4.5 4.8l-2.4-5.2c2.1 0.4 4.5 0.4 6.9 0.4zm-28.6 60.3c0-0.7 1-0.7 1.4-1.4 1 0 1.3 1.4 1.3 1.7 0 0.4 0 0.4-0.3 0.7-0.7-0.3-1.7-0.3-2.4-1zm3.4 10c-1-0.7-1.3-2.1-1.3-3.5 0-2.7 0.3-2.7 2-2.7 0 0.3-0.3 0.3-0.3 0.7 0 0.7 2 2 2 3.1 0 0.3-0.3 1-0.3 1.3 0 0.4 0.3 0.7 0.3 0.7-0.3 0.4-0.3 0.7-1 0.7-0.3 0-1-0.3-1.4-0.3zm3.5 5.5c-0.4-0.3-0.7 0.3-0.7-0.7 0-0.3 0.3-0.3 0.3-0.3 0.4 0 0.7 0.3 0.7 0.7 0 0.3 0 0.3-0.3 0.3zm0.3-13.4c0-0.7 0.7-0.7 1.1-1.1 0.3 0 1 0 1 0.4 0 1-0.4 1-0.7 1-0.7 0-1 0-1.4-0.3zm3.8 11c-1.4-0.7-2.7-1.4-3.1-3.1 1.4 0 3.8 0.7 4.8 2.4-0.7 0.3-1 1-1.3 1 0 0-0.4 0-0.4-0.3zm1-6.2c0-0.4-1.7-0.7-1.7-0.7 0-0.4 0.4-0.4 1.1-0.4 0 0 0.3 0.4 0.3 0.4 0.7 0 1.4-0.7 2.1-0.7 0.3 0 0.7 0.3 1 0.7l0.3 0.3c0 0 0 0.4 0 0.4 0 0.3-1.3 1.4-1.3 1.4-1.1 0-1.4-0.7-1.8-1.4zm0-27.2v1.7c-0.3-0.4-0.3-0.7-0.3-1.1 0 0 0-0.3 0.3-0.6zm0.7 13.1c0-0.4-0.7-0.7-0.7-1.1 0 0 0-0.3 0.4-0.3 0.7 0.3 1.7-0.4 2.1 0.7-0.4 0.7-0.7 1-1.1 1-0.3 0-0.3-0.3-0.7-0.3zm2.1 10.3c0 0.3-0.7 0.7-1 1-0.7 0-1.1-0.7-1.4-0.7 0-0.3 0.3-0.7 0.7-0.7 0.3 0 1 0.4 1.7 0.4zm0 8.3l0.3 0.3c-0.3 0 0 0.3-0.3 0.3h-0.3zm-1.1-0.6l-0.7-0.4c0.4-0.3 0.7-0.7 1.1-0.7 0.3 0 0.7 0 0.7 0.4zm0.3 10.7c-0.3-0.4-1-1.1-1-1.4 0-0.4 0-0.4 0.3-0.7 1 0.3 2.4 0.3 3.1 1.4-0.7 0.3-1 1-1.7 1-0.4 0-0.4 0-0.7-0.3zm1.7-13.5c0.4-0.3 0.7-1 1.7-1 0.7 0.7 1.4 0.7 1.8 1.7 0 0.7-0.7 1.7-1.8 1.7-1 0-1-1.7-1.7-2.4zm0.4-15.8v-3.8l0.3 3.8zm1.7 25.8c0 0 0-0.3 0-0.3 0-1.1 1.1-2.1 1.4-2.1 1.4 0 2.1 1.4 2.1 2.4 0 0.4-0.7 1.7-1.4 1.7-1 0-1-1.3-2.1-1.7zm3.1-17.6c0 0 0.4-0.3 0.7-0.3 0.4 0 0.4 0 0.7 0.3-0.3 0-0.7 0.4-1 0.4 0 0 0 0-0.4-0.4zm-1 24.5c-0.3 0-0.7-0.3-1.4-0.3 0-0.7 0.4-1.4 0.7-1.8 1 0 1.7 0.7 1.7 1.4 0 0.7-0.3 0.4-1 0.7zm-1.7 2.4c0.3-0.3 1-0.7 1.4-0.7 0.3 0 0.6 0.4 1 0.4 0 0.3-0.7 1-1 1-0.4 0-1.4 0-1.4-0.7zm2.7 8.6c-0.3 0-0.7 0.4-1 0.4-0.7 0-1-0.4-1-1.1 0.3-1 0.7-4.8 1.7-4.8 1 0 1.7 0.4 2.1 1.4-0.4 1.7-1.1 3.1-1.8 4.1zm3.1-7.9l-0.3-0.3c0.3 0 0.7 0 1 0-0.3 0.3-0.3 0.3-0.7 0.3zm2.5 2.1l-1.8-9c0 0.4 0 0.7-0.3 1-0.7-0.3-2.1 0.4-2.1-1 0-1 1.1-1 2.1-1 0.3 0 0.3 0.3 0.3 0.3v-0.3l3.8 4.1zm6.6-10c-2.1-2.1-5.5-4.5-5.5-7.2 0-0.7 0-1.7 0.6-2.4-1-3.1-5.1-4.9-5.1-8 0-0.6 0.3-1.7 1-2.7-2.1-4.5-5.5-6.6-5.9-7.3 0-0.3 0.7-0.3 1.1-0.3-0.7-1.4-1.1-2.4-1.1-3.4 0-0.7 0.4-1.1 0.4-1.8-0.7-0.7-1.4-1.7-2.1-2.4l-0.3-0.7c-0.4-1-1.1-2-1.4-3.1 0.3 0 0.7-0.3 1-0.7-0.3-2.4-2.4-4.8-2.4-7.2 0-0.7 0.4-1.7 0.7-2.4-0.7-2.4-3.4-4.8-3.4-7.2 0-0.7 0.3-1.1 0.7-1.8-1.1-2.7-4.5-5.8-4.5-8.9 0-1.1 5.5-8.3 10-9.3 2 2.4 3.1 3.8 3.4 6.9 2.8 6.5 9.3 9.3 11.7 15.5-0.7 0.7-1 1.3-1 2 0 2.1 2.4 4.2 2.4 6.6 0 0.7-0.3 1.7-1.4 2.7 0.4 0.7 1.1 1.8 1.1 2.8 0 0.3 0 0.7-0.4 1-0.3-0.3-0.7-0.7-1-0.7-1.4 0.7-1.4 2.1-1.4 3.1-1-0.6-1.7-0.6-2.1-0.6-2.4 0-2.4 4.1-4.8 4.4 1.7 1.4 3.5 2.4 5.2 4.2l-2.1 1.7c-1.7-0.7-1.7-2.8-2.7-3.8 0 0.7 0 1-1.1 1.7l-0.3-0.3-1 1c1.7 1.7 2 4.1 5.5 6.6l0.7-3.5c1.3 0.7 10.6 13.5 10.6 16.2 0 1-1 1.4-1 2.8 0 1.7 1 2.7 2.1 4.1-2.1 0.7-2.8 3.1-4.5 3.1-0.7 0-1 0-1.7-0.7zm-15.2-32l0.3-0.4v0.4zm13.1 3.1c0 0 0 0.3 0 0.3h-0.6c0-0.3 0.3-0.3 0.6-0.3zm15.6 132.6c0.3-0.6 1-1 2-1 2.4 0 5.5 0.7 7.6 0.7 1 0 0.7-1 1.7-1 3.5 0.7 9 1.3 9 2-2.4 4.5-13.1 11.4-20.7 11.4-3.1 0-4.8-1-4.8-2.7l0.7-1.4c-0.7-0.4-1.8-1.4-1.8-2.1 0-1.4 2.1-2.4 2.1-3.4 0-0.7-1-1.8-1-3.1 0-0.7 0.3-1.4 0.3-1.8 1.8 0.7 3.5 1.4 4.9 2.4zm9.6-10.6c-6.2 2.7-12.1 4.8-13.8 4.8-0.3 0-2.1 0-2.1-1.4 0-1.7 2.1-3.1 3.2-4.1-1.4-1.1-2.1-1.7-2.1-2.4 0-0.4 1-0.7 3.1-0.7 0-1.1-0.7-1.8-0.7-2.8 0-0.7 3.1-0.3 4.8-1.4 3.1-1 6.2-2 10.4-3.8v10.4zm-11.1 12v1.8l0.7-1.1zm-23.4-136.4h-0.4c0 0 0 0 0 0.3 0 0 0 0.4 0.4 0.4 0 0 0.3-0.4 0.3-0.4 0 0 0 0-0.3 0zm-95.1 95.5c0 1 1.7 1 2.4 2.4v-1.1c-1.7-0.3-1.4-1.3-2.1-1.3-0.3 0-0.3 0-0.3 0zm0.7-9.7c-0.4 1.1-0.7 1.4-1.4 1.4-1.1 0-2.4-1-3.1-2.1 0.7-0.3 1-0.7 1-1.3-0.7-0.4-1-0.7-1-1.1 0-1 1.4-1.4 1.7-2-0.7-0.7-1-1.4-2.4-1.4l1.7 1.4-3.1 3.1 4.5 4.4-0.7 0.7c-1.4 0-1.7-1-2.4-1.4 0 0.7 0.7 1.4 0.7 2.1 0 0.4 0 0.4-0.7 0.7-0.7-0.3-0.7-0.7-1.4-0.7l2.1 1.4c0.3-0.4 0.7-0.7 1-0.7 0.7 0 1.7 0.7 2.1 0.7 0.7 0 1-0.4 1.4-1.4l-1.4-1.4 3.1-3.1c-0.7 0-1 0-1.7 0.7zm5.8 3.1l1.1-0.7c0-0.7-0.4-1.3-1.1-1.7-0.7 0.4-2 0.7-2 1.7l1.3-0.7c0.4 0.7 0.7 0.7 0.7 1.4zm6.2 3.8c-0.7-0.3-1-0.7-1.4-0.7 0.4 0.4 0.7 0.7 1.4 0.7zm-3.8 0l-1.3-1.7-1.8 1.7c0.4-0.3 1.1-0.7 1.4-0.7 0.7 0 1.4 1.4 2.1 1.4 0.7 0 1-1 1.7-1.7-0.3 0-0.7-0.4-0.7-0.4-0.3 0-0.7 0.4-1.4 1.4zm94.1-80.6c0-1.1-2.1-2.1-2.7-2.8l-1.4 4.5c0.3 0 0.3 0.3 0.7 0.3 1.3 0 2.4-1.3 3.4-2zm-113.4 78.9c0 0.3 0 0.3 0 0.3 0 1.1 0.7 1.8 0.7 2.1 0.7-0.7 1.4-1.4 2.4-1.4 0.7 0 1.4 0 2.1 0.7-0.3-1.4-1-1.7-1.7-1.7-0.7 0-1.7 0.7-2.4 0.7-0.4 0-0.7-0.4-1.1-0.7zm0.7 2.4c-0.3 0.3-0.3 0.3-0.7 0.7 0.4-0.4 0.7-0.4 0.7-0.7zm4.5 8.6c0.3 1.4 0.7 1.7 0.7 1.7 0 0 0-1-0.7-1.7zm-0.7-3.4c0 0.7 0.7 1.4 0.7 2 0 0.4-0.3 0.7-0.7 0.7l-0.7-0.7v0.7c0.4 0 1.1 0.4 1.4 0.7 0.3-0.3 0.7-1 0.7-1.4 0-0.6-0.7-1.3-1.4-2zm37.2 0.7c-0.7 0.3-0.7 0.7-0.7 0.7 0 0.6 0.7 1.3 0.7 2 0.7-0.7 2.4 0 2.4-1 0-1.7-1.3-1.7-2.4-1.7zm-33.4-145.1c-0.3 0.3-1 1-1 2 0 1.8 1 2.5 2.7 2.8 0-2.4-0.3-3.4-1.7-4.8zm100.3 77.5v0.7c0.3 0 0.3-0.3 0.3-0.3 0 0-0.3-0.4-0.3-0.4zm-104.4-86.5c0 0.7-0.4 1.1-0.7 1.4 0.7 0 1.4-0.7 1.7-1.4-0.3 0-0.7 0-1 0zm-0.7 1.4c0-0.3-0.4-0.7-0.7-1 0 0.3 0 0.3-0.4 0.7l0.4 1.3c0.3-0.3 0.7-0.7 0.7-1zm-0.4-1.4c0.4 0 0.7 0 1.1 0 0-0.3-0.7-1-1.8-1.4v1.1c0 0.3 0.4 0.7 0.4 0.7 0 0 0.3-0.4 0.3-0.4zm-0.3 4.5v-2.1c-0.4 0.4-0.7 0.7-0.7 1.1 0 0.3 0.3 0.7 0.7 1zm18.6 142c0.3 0 0.3 0.3 0.3 0.3 0-0.3 0-0.3-0.3-0.3zm318.8 39.3l-0.4 0.3c0 0-0.3 0.4-0.3 0.4 0 0.6 0.3 0.6 0.7 0.6 0-1.3 0-1.3 0-1.3zm2.7-17.3c-1 0-1.4 0.7-1.4 2.1 0.7-0.3 1.4-1.4 2.1-1.7zm-7.6-11.7c0.4 0 0.7-0.4 0.7-0.7-0.7 0-0.7 0.3-0.7 0.7zm0.4-2.1c0 0 0 0 0 0l0.7-0.3c-0.4 0-0.7 0-0.7 0.3zm-42.8-131c0 0 0.4-0.3 1.1-1l-2.1-1c0 0.3-0.3 0.3-0.3 0.7 0.7 0.7 0.3 1.3 1.3 1.3zm4.2 12.1l0.3-0.3c-1-0.7-1.4-0.7-1.4-1.1 0-0.3 0.4-0.7 0.4-1.7l1-1c0-0.4-0.3-0.4-0.7-0.4-1 1.1-1.7 1.7-1.7 2.1 0 1 0.7 2.1 2.1 2.4zm81.3 34.1c-3.8-0.3-7.9-0.3-11.7-0.3v-16.2c1.7 0 5.2 1.7 7.9 2 0-0.3 0-0.6 0.4-0.6-1.8-2.5-2.1-2.1-3.1-2.8v-0.7c0.3-0.7 0.7-1 0.7-1 0-3.1-4.2-2.8-5.9-2.8v-3.1c0-27.9-22.8-50.3-50.3-50.3v27.6c-1.4 0-2.4 0.3-3.5 0.3-1.7 0-3.4-0.7-5.1-2 0.7-8.7 5.5-11.8 5.5-18.3 0-1 0-2.4-0.7-4.1h-5.9c-1 4.1-1.3 19.9-1.3 29.9 0 6.9 0.3 11.4 4.1 11.4h6.9v144.4h3.8v8.6c1.3 0.7 2.4 1 3.8 1h3.8c7.2 0 14.8-1.3 21.3-1.3 4.8 0 8.6 2 11.4 2 1.4 0 2.4-0.3 4.8-0.3 2.8 0 3.1 1.7 3.1 3.8v2.7h-1l-4.5-4.4-0.3 0.3c0 5.2 2 6.2 2.7 11h13.1v-2.4h-3.1c-1-1.4-2.1-3.1-2.7-5.8 0.6-0.7 1-1.8 1-2.8 0-0.3-0.4-1.4-0.7-3.4 0.7-0.7 1-2.1 2.4-3.5h3.1c0-0.7-0.3-1.4-1-2.1h-0.7c-1.4 0-2.1 1.1-3.1 1.1 0-0.4-0.7-1.1-1.4-1.7l2.4-4.5-2.4-2.1c2.1-1.4 3.1-1 3.8-2.4-0.3 0-0.7 0-1.4-0.7v-0.3c1.4-0.7 1.4-1.4 3.8-1.4v-23.8h-1c-0.7 0.7-1.4 1-2.1 1-0.7 0-1-0.3-1.4-1l4.5-3.8v-33.4c-2.7-3.5-8.6-5.9-10-10 2.4-0.7 3.1-1 4.8-3.5 3.5 0 2.1 1.4 5.2 2.1v-7.6c-2.1 0-7.6-0.3-11.4-0.3l-0.3-14.5c0.3 0 0.3 0 0.3 0 3.5-2.7 7.3-4.5 11.4-4.8zm-22.7 63.4c0.3 0.3 0.7 0.3 0.7 0.3 1 0 1.7-1.3 2.4-1.3 0.3 0 0.7 0.3 1 1-3.1 1.7-5.5 5.2-9 5.2-0.6 0-1-0.4-1.3-0.4 1.3-3.4 6.2-0.7 6.2-4.8zm-6.2-21c1.3 0 2 1.4 3.1 1.4 0.3 0 1-0.4 1.3-0.7 0 0-0.3 0.3-0.3 0.7 0 0.3 0.3 0.6 0.3 1l-0.3-0.7c0-0.3-0.3-0.3-0.7-0.3-1 0-2.1 0.3-2.7 0.3-0.7 0-0.7-0.3-0.7-1.7zm-4.5 15.1l4.5-0.3c-1.1 1-2.1 3.1-3.8 3.1-0.7-0.3-1.1-0.7-1.1-1 0-0.7 0.4-1.1 0.4-1.8zm-1.7 29.7c-0.7-0.7-1.1-1.7-1.1-2.8 0-0.3 0-0.3 0.4-0.3-0.4 0-0.7 0-0.7 0.3-0.7-1.4-2.1-2.4-2.1-4.1 0-0.4 0-0.7 0.4-1.4 1.7 0.7 3.4 2.1 3.7 4.1h-0.3c2.1 0 1-0.6 1.7-1.7 0 1.7-0.3 5.2-2 5.9zm0.6 3.1c0 0 0 0.3-0.3 0.3 0 0-0.3-0.3-0.7-1l0.4-1.7c0.6 0 1 0.3 1 1 0 0.3-0.4 1-0.4 1.4zm-3.7-18.6c-0.4 1-1.1 1.7-1.8 2 0 0 1.4 0.4 1.4-0.3 1.7 0 2.1 2.1 2.8 2.7-1.1 0-1.8 0-2.8-1.3-0.3 0-0.7 0.3-0.7 0.3-0.7 0-3.4-1-4.5-1.7 2.1 0 2.8-2.4 4.2-2.4 0.3 0 0.7 0.3 1.4 0.7zm-5.6 0.3l-1.3-1.7c0.7-0.4 2.4-1.4 3.8-1.4 0.6 0 1.3 0.4 1.3 1.4-2 0.3-2 1.7-3.4 1.7 0 0-0.4 0-0.4 0zm6.6 1.4c0.3 0 1 0 1.4 0 0.7 0 1.3 0 1.7 0.7l-0.7 4.1c-0.3-1.7-1.4-3.4-2.4-4.8zm2.4-26.2c1 0 0.3 1.7 0.7 2.1 0 0-0.4 0.3-0.4 0.3-0.6 0-0.6-0.7-0.6-2.1 0 0 0-0.3 0.3-0.3zm-1.4 15.2h-1.7c0-0.7-0.7-1.8-1-2.1 0 0 0.3 0 1 0 1 0 2.4 0 2.4 1 0 0.4-0.3 0.7-0.7 1.1zm-3.8-10.7l1.1-1.4c1.3 0.7 2.4 2.1 2.4 3.8l-3.1 2.8c-0.7-0.7-1.4-1.4-1.4-2.8 0-0.7 0.3-1.7 1-2.4zm-3.4 13.8c0.7-0.4 1-1.1 1-1.8 0-0.6-1-1.3-1-2 0-1.1 1.7-1.4 2.1-2.4 2 1.3 3.4 2.4 3.4 5.5-1 0.3-2.4 0.7-3.8 1 0 0 0.4 0.4 0.4 0.7-0.4 0.3-0.7 0.3-1.1 0.3-1.4 0-2-1.3-2.7-1.3-0.4 0-0.7 0.3-1.1 0.7 0.4 0.6 0.4 1.3 0.4 2 0 1.1-0.4 2.4-0.4 3.5 0 1 0.4 1.7 2.4 2 0 2.1-1.3 2.1-3.1 2.8-1.7-0.7-2-2.1-2-3.5 0-1.7 1-4.1 1-6.5l2.8-2.1c0.3 1.1 1 1.1 1.7 1.1zm-3.1-9.7c1 1.1 0.3 3.1 0.7 4.2l-2.1 0.3c0.7-1.4 1.4-2.8 1.4-4.5zm2.4-3.1c-2.1 0-2.8-0.3-3.1-1.7 0.3-1 0.3-1.7 1.4-2.4 1.4 1.4 1.7 2.4 1.7 4.1zm-5.9-7.9c1.4 0.7 4.5 0.3 4.5 1.7 0 2.4-1.7 3.1-3.4 3.5-0.4-1.8-1.4-5.9-1.4-5.9 0.3 0.3 0.3 0.3 0.3 0.7zm1.4 11h-1v-1h1.7c0 0.7-0.3 1-0.7 1zm-2.7 5.2h2.4c-0.4 0.7-0.4 1-0.7 1l2.4 1.1h-1.7l-1.1-1.1c0 0-0.3 0.4-0.3 0.4-0.3 0-0.7-0.4-1-0.7zm-1.1-8.3l-0.7 2.4-3.1-1.7c0.7-0.7 1.4-0.7 2.1-0.7 0.7 0 1 0 1.7 0zm-0.7 30.3l-0.6 1.4v-0.7c0-0.3 0.3-0.7 0.6-0.7zm4.9 4.2c-0.7-3.8 0.3-3.1-3.1-6.6l-0.4-0.7 3.1 1.8c0-2.5 2.8-4.9 3.1-5.2 2.4 0.3 3.1 1.7 3.1 3.4 0 0.7 0 1.4-0.7 1.4-0.7 0-1-0.3-1.7-0.3-0.7 1.7-1 2.7-1 3.4 0 0 0.3 0.4 0.3 0.4 0.4-0.7 0.4-1.4 0.7-2.1 0.7 0.3 1.4 0.7 1.7 1.4 0.7-1.1 1.4-2.1 1.4-3.5 0-0.3 0-1-0.3-1.7 0.3-0.3 0.7-0.3 0.7-1 0.3 1 0.3 2 0.3 3.1 0 1.3 0 2.4-1 3.4 0.3 0 0.3 0 0.3 0l2.4-1-2 2c0 0.4 0 1.1-0.7 1.1l-1.1 1c0 0.4-0.3 0.4-0.3 0.7 0 1 0.7 2.1 0.7 3.1 0 0.3 0 0.7-0.4 0.7 0-1.4-0.3-2.4-1.3-3.5l-7.6 7.6-5.5-5.5zm8.9 1c-0.7 0-0.7 0.4-1 0.4l-0.4-0.4 1.4-1.3zm-11.4 31c-0.3 0.3-0.6 0.3-1 0.3-0.7 0-1.4-0.7-1.7-1.4-0.4 0-0.4 0-0.4 0.4v-0.7c-0.6-0.3-1-1.4-1-2.1 0-2 2.1-4.8 3.5-4.8 0.3 0 0.6 0.4 1 0.4 0-0.7 0.3-0.7 0.3-1.4l0.4 1.4c1.4 1 2 2 2 3.4 0 2.1-1 3.8-3.1 4.5zm4.9-5.2c0 0 0 0 0.3 0 0.4 0 0.7-0.3 1.4-0.3 0 0 0.3 0 0.3 0.3 0 0.4-0.3 0.7-1 0.7-0.3 0-1 0-1-0.7zm4.5 0.4h-1.4c0-0.4-0.4-0.7-0.4-1.1l1.8-0.7zm3.7 3.8c-1-1-2-1-2.4-1.7l1.8-0.7c0.6 0.4 1.3 1.4 1.3 1.7 0 0.4 0 0.7-0.7 0.7zm5.2-2c-2.1 0-2.7-4.9-3.8-8 0-0.3 0.4-0.3 0.7-0.3 0.7 0 1 1 1 1 0-4.1-1-4.8-2.7-4.8-1.4 0-3.8 1-5.5 1-0.4-3.8-1.4-7.2-3.5-10 0.4 0 0.7-0.3 1.1-0.3 1 0 1.7 1.7 3.1 2.1-0.7 0.6-0.7 2.4-0.7 3.4 1 0.4 2.7 1.4 4.1 1.4 0.7 0 1 0 1.7-1-0.3 0.3-0.7 0.3-1 0.3 0 0-0.3 0-0.7-0.3 0-2.1 2.8-1.1 2.8-3.5 0-1.7-1.8-3.4-1.8-5.5 0-0.7 0-1.4 0.7-2.1 1.4 0.4 1.8 1.4 1.8 2.8 0 0.7 0 1.4 0 2 0 1.4 0.3 2.8 2.7 3.1-0.3 1.8-1 3.5-1 5.2 0 3.5 3.8 4.2 3.8 5.9 0 2.4-2.8 4.8-2.8 7.6zm3.1-22.1l1 5.9c-1.7 0-2.4 0.7-4.1 0.7 0-3.8 3.5-7.3 3.5-10.4 0-1-2.5-2.4-2.5-3.4 0-0.4 0.7-0.7 2.1-1.1 2.1 1.1 2.8 2.4 2.8 4.2 0 1.7-1.1 3.4-2.8 4.1zm18.6 14.8c0.7 0.7 0.7 2.8 0.7 4.8 0 5.9-2.7 5.2-5.8 5.2-1.4 0-3.1 0-4.9-1l-0.3-0.4c0-2.7 1.7-3.8 2.7-4.1h6.6v-3.4zm5.2-106.2c-2.1 1-3.8 2.1-6.2 2.8v-4.2c0.6 0 2 1.1 3.7 1.4l2.1-1 0.4 0.3zm-36.2 63.1c-0.4-0.4-1.1-0.4-1.7-0.4 0 0 0 0-0.4 0.4 0.7 0 1.4 0 2.1 0zm-34.1-113c-0.4 0-0.7 0-0.7-0.4l-0.4 1.4h0.7c0-0.4 0-0.7 0.4-1zm-5.6 1c0-0.4 0-0.7 0.4-1l-2.1-1.1v1.7c1.1 0 0 0.4 1.7 0.4zm-46.1-14.1c0-0.4 0.3-0.4 0.3-0.7 0-0.4-0.3-0.7-0.7-1.1 0 1.1 0 1.8 0.4 2.1 0-0.3 0-0.3 0-0.3zm117.5 81.3c0 0 0 0 0 0.3l0.3 0.4c0.7 0 0.7-0.4 2.1-0.4 0-0.3-0.4-0.7-0.4-1h-1.7c0 0.3-0.3 0.3-0.3 0.7zm-40 41c0 0 0 0 0.3 0l-0.6-0.3zm-69.3 56.8h0.7c0-0.7 0.3 0 0.3-0.7v-0.3c-0.3 0-0.7-0.4-1-0.7zm84.8-10c0 0.3-0.4 0.7-0.7 0.7 0.3 0.3 0.3 0.3 0.3 0.3 0.4-0.3 0.4-0.7 0.4-1zm32.4 12.1h-1.4c0 1 0.3 1.7 1 1.7 0.4-0.4 1.4-0.4 2.4-0.4v-1h-1c-0.4 0-0.7-0.3-1-0.3zm-45.2-39.3c1-1.1 2.8 0.3 2.8-2.1-0.4-1-1.4-1-2.1-1 0 1 0 2.4-0.7 3.1zm2.1 4.1c-0.4-0.3-0.4-0.7-0.4-1-0.3 0.7-0.7 1-1 1.7zm-30.3-122.3c-0.7 0-1.4-0.4-1.7-0.4v-8.3h-1.1c-0.7 2.8-1 5.2-1 7.3 0 2 0 5.5 2.1 6.9 0.6-3.8-0.4-3.1 3.4-4.9-0.3-0.6-0.7-0.6-1.7-0.6zm36.5 111.3c0-0.4 0 0.7 1-0.4-0.3-0.3-0.3-0.7-0.6-0.7-0.4 0.4 0 0.7-0.4 1.1zm-3.8 10.7c1.1 1-0.3 1 0.7 1l0.7-1c0-0.4 0-1.1-0.3-1.1h-0.4c-0.3 0.4-0.3 0.7-0.7 1.1zm7.9-2.5c-0.3 0.4-1 0.4-1 1.1 0 0 0.4 0 0.4 0zm-8 1.7c0-0.3-0.3-0.3-0.3-0.7-0.4 0.4-0.4 0.7-0.7 1zm-44.8-119.2c0-0.3 1-1.7 2.1-2.4l-0.4-0.7h-1c-0.4 0-0.7 0-0.7 0.3v-23.4c0 0 0 0 0-15.1h-39.3v25.8c-0.7 1-1 2.1-1 3.1v5.5l1-1v17.2h13.1v14.8h33.1l0.3-20.3c-2.7-0.7-5.1-0.7-7.2-0.7zm42.7 122.3c0 0.4 0.4 0.4 0.4 0.7l1.3-1c0-0.3 0-0.3 0-0.7-0.6 0.7-1 1-1.7 1zm-4.8 23.5c0 0-0.3 0-0.7 0 0.4 0 0.7 0 0.7 0zm-2.1 7.2v-1c-0.3 0.3-0.7 0.3-1 0.3-0.3 0-0.7 0-1-0.3v0.3c0.3 0.7 1 1.1 1.7 1.1 0 0 0.3-0.4 0.3-0.4zm8-33.4l-1.4 0.7c0 0.3 0.3 0.7 0.7 1 0-0.7 0.3-1 0.7-1.7zm-2.8 2.7c0.3 0.4 0.7 0.4 0.7 0.4 0.3 0 0.7 0 1-0.4 0 0-0.3 0-0.3 0zm0 0c-0.4 0-0.4-0.3-0.7-0.6 0.3-0.4 0.3-0.7 0.7-0.7l-1.7 0.7c0 0 0 0.3 0.3 0.6zm-2.1-6.2c0 0 0 0 0.4 0zm7.9-7.9c0 0 0 0 0 0.4 0.4-0.4 0.4-0.4 0.7-0.4-0.3 0-0.7 0-0.7 0zm-2.1 12.1c0 0 0 0 0 0.3 0-0.3 0-0.3 0-1.4-0.3 0.4-0.3 0.4-0.3 0.7 0 0 0 0.4 0.3 0.4zm-46.5-30.3c3.1 0 5.9 0 9-0.4 0-16.2-0.4-32.7-0.4-48.6h-6.9v-13.8h-22c-29.7 0-51.4 22.4-50.7 50.3l0.4 20c0.3 23.1 14.8 42.4 35.8 48.3v0.7l1 0.7c-0.3 1-0.3 1-1 1.7 0.4 0.3 1.7 0.7 2.4 0.7 0.4 0 0.7-0.7 0.7-1.4-1-0.4-1.7-1-1.7-2.1 1.4 1.4 1.7 1.7 3.8 1.7l0.7-0.6c0.3 0 0.3 0 0.7 0.3-0.4 0.3-0.4 0.3-0.4 0.3 0 0 0 0 0.4 0-1.1 0.4-1.8 1.1-2.1 2.1 2.4 1.7 1.4 1.4 2.7 2.1 0.7-1.4 0-4.2 2.5-4.2 2 0 2.4 0.7 2.4 1.8 0 2-0.7 2.7-1.1 2.7h-3.4v0.7c0.3 0.7 1 0.7 1.4 0.7h1.7v0.7c-0.4 0.3-2.1 0.7-2.8 0.7 4.9 1.7 3.8 4.8 6.2 4.8 0-1.4-0.3-0.7-0.3-1.4 0-0.7 0.3-1.3 1-1.7 0.4 0 0.4 0.4 0.7 0.4v2c0 3.8 1.4 7.6 5.5 7.6 1.1 0 1.8-0.3 1.8-1v-2.4c-2.1-0.4-3.5-1.1-4.2-1.8 0-0.7 0.4-4.1 1.1-4.8 3.7 0 7.9 0 12 0.4 4.1 0 8.3 0 12.1-0.7-0.4-8-0.4-16.2-0.4-24.2v-24.8h-6.9v-10.3h-10.6v-7.2zm-9 15.8c0 1.4-1 2.1-1.7 2.1-1.1 0-1.4-0.4-1.4-1.4l0.3-3.5c1.8 0 2.1 1.8 2.8 2.8zm-3.1-2.4h-0.4c0-0.4-0.3-0.7-0.3-1 0 0 0.3-0.4 0.3-0.4 0.4 0.4 0.7 0.7 0.7 1 0 0 0 0.4-0.3 0.4zm0.3 24.1c1.4 0 1.8 1.7 1.8 1.7 0 1.4-1.1 2.5-1.8 3.5-1-0.4-2-1.7-2-2.8 0-1 0.7-1.7 2-2.4zm-6.9-19.6c0.7 0 2.5 3.4 3.5 3.4 0.3 0 0.3 0 0.3-0.3 0 0.7-0.3 0.7-0.3 0.7-0.7 0-0.7 0-1-0.4 0 1.4-0.4 2.4-1.4 3.1-2.4 0-2.4-4.1-2.4-4.8 0-0.7 0.3-1.4 1.3-1.7zm-11 29.6c-1.4-0.7-2-1.4-2-2.4 0-1.7 2.7-4.8 4.1-4.8 1.4 0 2.1 2.4 2.7 3.1zm2.5-42.4c0.3-0.7 0.3-1 1.3-1l0.4 1.3c-0.4 0-0.7 0-1.1 0-0.3 0-0.6 0-0.6-0.3zm3.1-1c-0.4 0-0.4 0-0.4 0 0.7 0 1-0.4 1.4-0.7l0.3 0.3c-0.7 0-1 0.7-1 0.7-0.3 0-0.3 0-0.3-0.3zm1 37.2c-0.7 0-0.4-0.7-0.7-0.7l0.3-0.4c0 0.4 0 0.7 0.4 1.1h0.7c-0.4 0-0.4 0-0.7 0zm-0.7-54.5c-2.1-2-5.9-0.7-6.9-4.5 0-1.7 0.7-3.4 2.1-4.4 1.7 0 3.8 0 4.8 1.7-0.3 0.3-0.3 1-0.3 1.4 0 1.3 1.3 2.7 1.3 4.1 0 0.7-0.3 1-1 1.7zm1.7-8.2c-0.3-0.4-0.7-0.7-0.7-1.1 0-0.3 0.4-0.3 0.4-0.7 0 0-0.4-0.3-0.4-0.3 0-0.4 0.4-0.7 0.4-1.1 0.3 0.4 0.3 0.7 0.3 0.7 0 0.7-0.3 1.4-0.3 2.1 0.3 0 0.3 0.7 0.7 0.7v0.7c0-0.4-0.4-0.7-0.4-1zm0.4 11c0-0.4-0.4-0.7-0.4-1.1 0 0 0-0.3 0.4-0.3 0 0.3 0.3 0.3 0.3 0.7 0 0.3-0.3 0.7-0.3 0.7zm0.3 45.5l0.7-1.1c0 1.8 1 1.4 1 1.8 0 0.3 0 0.3 0 0.3-0.3-0.7-1.3-0.3-1.7-1zm2.1 26.2h-1.1c0-0.7 0.4-0.7 0.4-1.1h0.7c0 0.4 0 0.4 0.3 0.4-0.3 0.3-0.3 0.3-0.3 0.7zm4.1-24.9c-1 0.4-1.4 1.1-1.4 1.8 0 2 1.4 4.4 1.4 5.1 0 1.1-1 1.8-1.4 2.8 0.4 0.3 0.4 0.3 0.4 0.7 0-0.7-1.1-1.4-1.7-1.4-1.4 0-1.1 1-1.8 1-0.7 0-0.7-0.3-0.7-0.6 0-1.4 1.1-2.5 1.1-3.8 0-0.4 0-1.1-0.7-1.4 0.7-0.7 2.1 0.3 2.7-1.1 0-1.3-0.3-2.4-1-3.1 1-0.3 1.4-1 1.4-1.7 0-0.7-0.4-1.7-0.4-2.4 0-0.3 0-0.7 0.7-0.7 0.7 0 1.8 0.4 1.8 1.7 0 0.4-0.4 0.7-1.1 0.7 0.4 1.4 0.7 1.4 0.7 2.4zm1.7 25.9l-1.3-1.4c0-1 0.3-2.1 0.3-3.1 1.7 0.7 3.1 0 3.1 2.8 0 1-0.7 1.7-2.1 1.7zm9.7-34.1c-0.7 0-1.4-0.7-2.1-1.1 0-2 1.1-3.1 2.1-4.4 0 1 0.7 2.4 0.7 3.8 0 0.6-0.4 1-0.7 1.7zm0.7-15.5c1 0.7 1.4 1.3 1.4 2 0 1.1-0.4 1.8-1.4 1.8-1.4 0-3.1-1.1-3.1-2.1 0-0.7 0.7-2.1 1.7-2.1 0.3 0 1 0.4 1.4 0.4zm-4.2-2.4c0.7 0 1.4 0.6 1.4 1.3 0 0.4 0 0.4-0.3 0.4-0.4 0-0.7-0.4-1.1-0.4zm-0.6 19c0.6 0.3 0.6 1 0.6 1.7 0 0.7-0.3 1.7-1.3 1.7zm0.3 12.8c0 1.4 0.4 2.7 0.4 3.4 0 0.4-0.4 0.7-0.7 0.7-2.1 0-1.1-2-2.4-3.1 1-1 1.3-1 2.7-1zm315 24.5c-0.4 0.3-0.4 0.6-0.4 1.3 0.7 0 1.1 1.1 1.4 1.4l2.4-1c-0.7-0.7-0.3-1.1-1-1.7zm-58.2 14.1c-0.7-0.7 0-0.7-0.7-1.4 0 0.3-0.4 0.7-0.4 1.4l0.4 0.7c0-0.4 0.3-0.7 0.7-0.7zm-7.6-1.4c-0.4 0.3-0.4 0.7-0.4 1.4h1.1v-0.7zm-84.1-68.2h-4.8l-2.1-2.8h-30.7c-2.4 0.7-2 1.4-2 2.8h-13.1c0 24.4 17.2 45.4 40.3 51.3 0.3 0 0.3 0.7 0.3 1h0.7c0-0.3 0-0.6 0.4-1 1.3 0.4 4.4 0.7 4.4 1.7-0.7 0-1 0.7-1 1.4 2.8 1.4 3.8 2.1 3.8 3.5v1c0 5.5 16.9 9.3 23.8 9.3v-54.8h-20zm20.7-120.3l0.3-0.3c0-0.4 0-0.4 0.3-0.7-0.3-0.4-0.3-0.7-0.3-1h-1v1.7c0.3 0 0.7 0 0.7 0.3zm22.7 38.6h65.5c0 0-0.4-1.7-0.4-3.8 0-2.7 0.4-5.5 1.4-5.5 10.7 0 25.5 7.6 30 9.7l1-0.7c-2.4-5.9-10-6.2-13.4-9 0-0.7 0-1 0.3-1.4h0.4c0.7 0.7 2 1.4 3.1 1.4 1.7 0 2.7-0.7 5.5-1.4l-2.1-3.4c-2.7 0-6.5 0.3-9.6 0.3-1.4-20.3-14.2-37.9-32.1-45.8h1.1c0-2.1-8.3-5.5-10-6.9 0 0.7-0.4 1.4-0.4 1.7l3.1 3.1c-5.8-1.3-7.2 0-9.3-6.9h-0.7v1.1c0 1.7 0 3.1 0.7 4.1-5.8-1.4-4.8-2.1-5.5-6.9h-1v1.7c0 1.1 0.3 2.8 0.7 4.9h-9.3v-6.9h-10c0.7 1 0.3 2.4 1 3.4-1 1.1-2.1 0.4-2.1 1.7 0 0.7 0.4 1.1 0.4 1.8h-3.8l2.4-4.2c-1-0.3-1.7-0.7-2.4-0.7 0-0.6 0.3-1.3 0.7-2h-3.1v3.8c0.3 0 2.7 0.3 2.7 1h-0.3c-0.7 0.7-5.5-0.7-6.9 2.1h-14.5v53h16.2zm1.4-64.1c0 0 0.3 0 0.3 0.4h-1zm68.2 77.2c0.4 0 0.4-0.7 0.4-1.1h-3.1v0.7zm-81.3-80.9c0-1.1-0.4-0.7-0.4-2.5h-2.8c0 1.1-0.3 1.1-0.3 2.1l0.3 0.4zm86.9 79.9v0.7c0.7 0.7 1.4 0.7 2.7 0.7 1.4 0 2.8-0.4 3.8-0.4v0.7c0 3.1-3.1 1.1-3.1 3.1 2.1 0 6.2 0.4 9.3 0.4 4.2 0 11.8-0.4 11.8-4.5 0-3.1-0.4-6.9-1.1-7.9-2.7 8.6-13.8 5.1-23.4 7.2zm-80.3-81.7c0.3-0.3 0.3-0.3 0.3-0.7h-1l0.7 1.1zm-21.7 16.9c0.3 0 1 0 1-0.4l0.4-0.7c-1.1 0-0.4-0.3-1.4-0.3 0 0.3 0 0.7-0.4 1 0.4 0 0.4 0 0.4 0.4zm61.7 225.3c0 0.4 0 0.7-0.4 1.1h1.1v-0.7c-0.4-0.4-0.4-0.4-0.7-0.4zm-76.5-214.7c0-0.3 0-0.6 0-0.6-0.4 0-0.4 0.3-0.4 0.3 0.4 0 0.4 0 0.4 0.3zm148.8 156.5v-0.7l1.8-0.3c0-2.4 1-8.3 1-12.8 0-2.7-0.7-5.2-1.4-6.5h-1c-0.4 0.3-0.4 1-0.4 1.7 0 2.7 1.1 3.8 1.1 5.8 0 3.8-3.5 11.1-3.5 14.2 0.7 0.7 2.4 0.7 3.5 0.7 0.7 0 1-0.4 1.7-0.4-1.4-1.4-0.3-1.7-2.8-1.7zm1.4 4.8l1.4-1v-0.7c-0.7 0-1 0-1.4-0.3zm-135.4-159.9l1.4-0.7c-1.1 0-0.7-0.4-1.4-0.4zm-25.9 174.4l-0.6 0.3c0 1.1-0.4 1.1 1 1.1v-1.1c0 0-0.4 0-0.4-0.3zm55.9-111l-1.1-0.3zm50.7 156.1c0-0.3 0-0.7 0.3-1-0.3 0-0.7 0-1-0.4 0 0.7 0 1.1 0.7 1.4zm-6.6-10.3c0.4 0 0.4 0.3 0.4 0.3l1-0.7c-0.3-0.3-1-0.3-1.4-0.3zm0.7-3.5h-0.3c0 0.4-0.4 0.4-0.4 1.1l1.1-0.4c0-0.3 0-0.7-0.4-0.7zm8.3-2.7l-3.4 3.1c0 1.7 1 2.7 2 3.4v-0.3c2.4-3.5 3.8-1.4 6.6-2.8v-5.5c-1.7 0-3.5 0.7-5.2 2.1zm-1.7 11.3c0 1.4-0.4 1.1-0.4 2.4l1.4-0.3c-0.7-0.7 0-1-0.7-2.1zm40.3-43.4v1.4l0.7-0.4c0-0.6 0-1-0.7-1zm3.5 1v1.8c0-0.4 0.3-0.7 1-0.7l-0.3-1.1zm-5.5-8.6c1.3-0.3 2-0.3 2.7-0.3v-0.7l-4.1-0.3c0 1 0.3 1.3 1.4 1.3zm-76.5 36.9c-0.4 0-0.4 0-0.4 0.4h0.4c0.3 0.3 0.3 0.3 0.7 0.3v-1.4h-0.7c0 0.4 0 0.7 0 0.7zm44.8-87.5v0.7h1.3c-0.6-0.7-0.6-0.7-1.3-0.7zm-84.1-105.1l2-1.4c0-2.1-0.3-3.1-1-3.8 0 2.8-15.8 12.7-16.9 13.8l-0.3-3.5c-1.7-0.3-2.4-0.7-2.8-0.7-0.3 0-0.7 0-1.4 0.4v-10.3c0.7-1.4 1.4-3.1 1.4-3.8 0-0.7-0.7-1.1-1-1.8l1.4-3.4-1.8-1.7c0 0 0 0 0-14.5-6.2 0-12.4 1-17.9 3.1h-2c-0.4 0.3-1.1 0.7-1.8 1.7-18.2 8.3-31 26.9-31 48.3v20.3c0 27.2 20.4 49.6 46.5 52.7 6.6 13.1 15.5 14.5 23.5 14.5 0.7 0 1.7-0.3 2.7-0.7v-84.1c0-6.9-0.3-14.4-2.4-19.6l0.4-0.4c0.7-0.3 1.7-0.3 3.1-0.3v-2.1c-1.8 0-1.1-0.3-2.4-0.3v-0.7zm-51.4 21h-0.7c0-0.7 0-1 0.7-1zm3.5-2.8l-0.4-0.3c0-0.4 0-0.4 0.4-0.4 0.6 0 1 0 1.7 0.7h1.4c-0.4 0.7-1.1 0.7-1.4 0.7-0.7 0-1.4 0-1.7-0.7zm-2.1-3.8c-0.7-0.3-0.7-0.7-0.7-1 0-1 1.4-2.1 1.4-3.1 0-0.3-0.4-0.7-1.1-1.4 0.7-0.7 2.5 0 2.5-1.4 0-0.3-0.4-1-0.4-1.3 0 0 0-0.4 0-0.4 3.1 0.4 5.2 5.5 5.9 6.9-0.4 2.1-1.4 2.4-2.4 2.4-1.8 0-3.5-0.7-5.2-0.7zm40 30.7l-0.7 0.3c0-0.3 0.3-0.3 0.7-0.3zm-0.7-32.4c0 0 0 0.4 0.3 0.7-0.3 0-0.3 0.3-0.7 0.3-0.7 0-1-0.3-1.7-0.3 0-0.7 1.4-0.7 2.1-0.7zm-3.5 16.9c-0.7 1.4-1.4 2.8-1.4 4.1 0 1.1 0.4 2.4 1.8 2.4-1.4 1.4 0 5.2-2.4 5.2-0.7-2.4-3.1-2.4-4.2-4.8 1.7-2.4 2.1-6.2 5.5-7.6zm-6.2 12.4h-1v-1h1.7c0 1-0.3 0.7-0.7 1zm5.2-16.9c-0.3 1.7-2.1 1.4-2.1 3.5h-0.7c0-1.8 0.4-3.1 2.8-3.5zm-3.8-20c0.7 0 1 0.4 1 1.1h-1zm1 23.7c-1.3 0.4-1.3 2.1-2.4 2.1-0.3-0.3-0.3-1-0.7-1.4 0.7-1 2.1-0.3 3.1-0.7zm-5.1-3.7v0.3c-0.7 0.3-1.1 0.7-1.1 1.4 0 0.7 0.4 1.4 0.4 1.7h-1c0-1.4-0.4-2.8-0.7-3.8zm-7.3-7.2l1.1 0.3h-1.1zm-9.6 2.4c0-0.7 0.3-0.7 1-0.7 0.7 0 2.1 0.7 2.1 1.8-0.4 0.3-0.7 0.3-0.7 0.3-1 0-2.1-0.7-2.4-1.4zm7.9 14.5c0.3-0.3 1-0.3 1.4-0.3 0.7 0 1.4 0.3 1.4 1.3 0 1.1-0.7 2.8-1.8 2.8-0.7 0 0-0.7-0.7-1 0.4-0.4 0.4-1.1 0.4-1.4-0.4-0.7-0.7-1-0.7-1.4zm1.7 9.7c-0.7-0.7-0.3-1.8-1.4-2.5 0.4-0.3 1.1-0.6 1.8-0.6 0.7 0 1.3 0.3 2 1.3-1 0.4-1 2.1-2 2.1 0 0-0.4-0.3-0.4-0.3zm2.4 8.6c-0.3 0-0.7 0.3-1 0.3 0 0 0-0.3 0-0.3 0-1.4 1.4-1.4 2.4-1.4 0 1-0.3 1.4-1.4 1.4zm7.3-14.5v1c-1.4 0-2.8 2.1-4.2 2.1-0.3 0-0.6-0.3-1-1.7 0.4 0.3 0.7 0.3 1 0.3 1.4 0 1.4-2.4 2.8-2.4 0.3 0 0.7 0 1.4 0.7zm-3.5 12.7c-0.7 0-1.3 0-1.3-0.6 0-0.7 0-0.7 0.3-0.7 0.7 0 1 0.7 1 1.3zm0-8.2l0.4-0.7c0 0.3 0 0.7-0.4 0.7zm1.1 47.2c0 0 0.3-0.4 0.3-0.4 0.4 0 0.4 0.4 0.7 0.7-0.3 0-1 0-1-0.3zm0.7-41c-0.4-0.4-0.4-0.7-0.4-1.1 0-0.6 0.7-1.7 1.7-2l2.4 0.3c0.7-1.7 0.7-3.8 2.8-3.8 0.3 0 0.7 0 0.7 0.4 0 0.7-0.4 0.3-0.7 0.7 0 0.3 0.3 0.7 0.3 1 0 1-1.7 1.4-2.7 1.7h-0.4c-0.6 0.4-1 0.7-1.3 1.4 1.3 3.4 4.1 6.2 5.8 8.6 0 0.4 0 0.4-0.3 0.7-3.8-1.4-3.8-7.2-7.9-7.9zm4.1 20.3c-0.4 0.7-0.4 1.4-1.4 1.7-0.3 0-0.7-0.7-0.7-1 0-1 0.7-1.7 1.7-1.7 0.4 0 0.7 0.3 0.7 0.3 0 0.4-0.3 0.4-0.3 0.7zm2.4-2.1c-1.4 0-1-1-1.7-1-0.4 0-0.4 0-0.4 0 1.1-0.7 2.1-2.7 3.1-3.4 0.4 0.3 0.4 1 0.4 1.3 0 1.1-1.1 2.1-1.4 3.1zm3.8 11.4l-0.7 0.4c0 0-0.3-0.4-0.3-1.1 0-0.3 0.3-0.7 0.6-0.7 0.4 0.4 0.4 0.7 0.4 1.4zm2.7-9.3c-0.3-1-2.4-1.4-2.4-2.4 0-0.3 0-0.7 0.4-1-1.4-1.1-2.4-5.9-2.8-5.9 0 0 0 0 0 0.4 0-1.1 0.7-2.1 1.7-2.8 0 0.3-0.3 1-0.3 1.4 0 2 1.4 4.1 2.4 6.2l1 0.3c-0.3 0.4-0.6 0.7-0.6 1.1 0 1 1.3 2 1.3 2.4 0 0-0.3 0-0.7 0.3zm1.8-41.7c-0.4-1-1.4-2.1-1.4-2.7 0-0.7 0-1.1 0.7-1.4 1.4 0.3 0.7 2.7 1.7 3.8-0.3 0.3-0.7 0-1 0.3zm103 111c0.7-0.4 1.4-0.4 2.1-0.4 0.7 0 1.4 0 2.4 0.4 0.3 0 0.7-0.4 0.7-1.1 0-0.6-1.1 0-1.1-0.6 0-1.1 1.1 0 1.4-1.1-0.7-1.4-0.3-2.7-1-4.1-1 1-1.7 1.4-2.4 1.4-0.7 0-1.1-0.4-1.4-0.4-2.1 2.1-1 6.2-4.1 6.2 0.3 0.4 0.3 0.4 0.7 0.4 1 0 1.7-0.7 2.7-0.7zm33.4-0.7v-2.1c-0.3 0-1 0.4-1.7 1.1l-0.3-0.4c0-2.7 0.7-1.7 0.7-2.7v-0.4c-0.4-0.3-0.4-0.7-0.4-0.7 2.1-2 1.7-2.7 1.7-5.1-1 0.6-2.7 1.3-3.4 1.3-1.4 0-2.1-1-2.4-3.1h-5.5c0 5.2-3.5 4.5-7.6 4.5-1.4 0-2.1-0.3-2.1-1.7 0-4.1 4.8-1.7 7.6-6.2h0.7c0.3 0 0.3 0 0.3 0.3-0.3 0.4-0.7 1.4-1 3.1h1.7c2.1-4.1 2.1-6.9 2.1-10 0-1-0.4-2-0.7-3.4l2.4-2.1c-0.7-0.7-2.7-11.3-4.5-11.3 0 1 0 1.3-0.3 1.7-1.4 0-2.4-0.7-3.5-1.7v-0.7c0-4.9-6.2-9.3-8.6-11.8l-1-4.8 0.3-1-1-0.7c-6.5-21.7-26.9-37.6-50.3-37.6h-45.8v53.1h16.2c0 8.6 0 13.8 1 14.1h28.2v4.2h-45.4v53.4h16.8v15.5c3.1 0 6.9 0 8.7-1 0.3 0.6 0.6 0.6 1.3 1 0-0.4 0.4-0.7 0.4-1.4-0.4 0-0.4 0-0.4-0.3 0-0.4 0.4-1.1 1.1-2.1-0.4-1-0.7-1.7-1.1-1.7l1.4-1.1c0-1.7-1.4-4.1-1.4-7.2 0-0.7 0-1.4 0.4-1.7l13.1 0.3 1.7 1.1v3.1c-2.4 0.7-7.2 1-9.3 1.3 0 3.1 0.3 6.6 0.3 9.7l2.1-2.4h9.3c0 0.7-0.3 1.4-0.7 1.4l-0.3-0.4c-0.7 0-0.7 0.4-0.7 1.4 5.5 0 4.8-2.4 9.6-2.4 4.5 0 3.5 2.4 7.3 2.4 3.4 0 7.2-1.7 10.7-1.7-6.6 6.5-18 24.4-19.3 32.7 0.3 0 0.6 0.4 1 0.4 2.4-6.9 11-16.2 11-18.7h0.4c0.3 0 1.3 0.4 2.7 1.1 0-7.6 10.7-13.1 11.7-17.3 3.5 0 15.2-11.3 15.2-11 1.4 0.7 0.3 0 2.1 0.7 2-4.1 5.8-1.4 6.9-6.9 0.3-2.1 0.7-3.4 1.3-4.1-0.3 0-0.6 0-1-0.4-4.1 8-18.3 11.4-24.5 17.6-2.7 3.1-4.4 4.8-5.1 5.2h-1.8v-1.1l1.1-1.3c-1.7-0.7-0.7-3.1-1.4-5.2h-7.6v-1c2.4-1.4 6.2-0.4 8.6-2.1-1.7-1.7-4.4 1.4-4.4-4.8 0-0.7 0-1.4-0.4-2.1 3.1-1.4 7.9-5.2 10.3-5.2 2.5 0 5.9 0.4 9 0.4 3.8 0 7.2-0.4 8.6-2.4-5.1 0-10-1.4-14.4-1.4 6.2-4.5 6.5-4.1 11.7-4.1-1.1-1.1-2.8-1.4-5.5-1.4v-1.1c5.8-2.4 14.1-7.2 16.5-8.2 4.1 4.1 11 3.1 11 10l1.7-1.8c0.4 1.1 1.4 1.4 2.5 1.4l0.6 2.8c0-0.7 0.4-0.4 0.4-1.4 0-0.7-0.7-1.7-0.7-2.4 2.8-2.4 4.1-5.5 4.1-10zm-13.1-31c1.8 1.7 2.1 3.8 2.1 6.9-0.3 0.3-0.3 0.7-0.3 1.3h-1.1c0-2.4-1-4.8-1-6.8 0-0.7 0-1.1 0.3-1.4zm-98.5-55.5h-0.7c0-1 0.3-1.4 1-1.7 0 0.7 0 1.3-0.3 1.7zm3.4 24.8c0 0 0 0.4-0.3 0.4 0 0-0.4-0.4-0.7-1.1 0 0 0.3-0.3 0.3-0.3 0.4 0 0.4 0.3 0.7 0.3zm15.2-22c-0.4 0.3-1 0.7-1.7 0.7 0-0.7 0-1.8 1-1.8 0.3 0 0.7 0.4 0.7 1.1zm-10 4.4c0 1.4 0 1.8 0.7 2.1-1 0.7-2.4 1-3.1 2.1 0-1.7 1.4-3.5 1.4-4.8 0-0.7-1.1-1.8-1.1-2.5 0-0.6 1.4-1.3 2.4-2 0 0.3 0.4 0.3 0.7 0.3 2.1 0 3.5-5.8 4.9-5.8 0.3 0 1 0.3 1 1 0 1.4-1.7 1.7-1.7 2.7 0 0.4 0.3 0.7 0.7 1.1 0 0.7-1.4 0.3-1.4 1.4 0 2.4 3.4 0.3 4.8 2.4-1.7 0.3-1 3.4-2.4 3.4-0.4 0-0.7-0.3-1-0.7 0.3-1.3 1.3-1.3 1.7-2.4-1.1-1-2.8-1-4.2-1.4-2 0.7-1.3 2.8-3.4 3.1zm5.9 8.3v1l-0.7-1.3c0.3 0 0.3 0 0.7 0.3zm0 16.2v-2.1h0.6c0 0.7-0.3 1.8-0.6 2.1zm1 2.4c0-1.4 0.7-1.4 1.4-2.4 0 0 0.3 0.4 0.7 0.4-0.7 1-1.4 1.7-2.1 2zm2.4 12.8c-0.7-0.4-1-1.4-1-2.1 0.3 0.7 1 1 1 2.1zm1-5.2c-0.3-0.3-1 0-1.3-0.3 0-1.1 0.6-1.4 1-2.1 0.7 0 0.7 0.3 1.4 0.7-0.7 0.3-0.4 1.4-1.1 1.7zm-6.5 63.1c-0.4 2-2.1 4.4-3.8 4.4 0.3-1 1.7-1.7 1.7-2.7 0 0 0-0.4 0-0.4l1.7-1.3c0 0 0 0.3 0 0.3 0 0 0.4-0.3 0.4-0.3zm-2.4-17.6c0.3-0.4 0.7-1 1-1 0.4 0 0.7 0 1 0.3 0 0.7-0.6 1.4-1 1.4-0.3 0-0.7-0.4-1-0.7zm2-18.6c0 0.3 0 0.3 0 0.7h-1c0-0.4 0.4-1.1 0.7-1.1 0 0 0.3 0.4 0.3 0.4zm-5.5-0.7c0 1-0.3 1-0.7 1 0 0-0.3 0-0.3 0 0 0 0.3 0 1-1zm-2 5.5c3.1 0 3.4 4.1 3.8 4.1l-0.7 0.7c0 0 0.3 0.4 0.3 0.4 1.4 0 2.4-2.1 3.5-2.1 0 0 0.3 0 0.6 0.7-0.3 1-5.5 4.8-8.2 5.9-0.4-0.4-0.4-0.4-0.4-0.7 0-1.1 1.8-1.8 1.8-2.8-0.7-0.3-2.1-4.1-2.5-4.1 0 0 0 0 0 0.3 0-1 1.4-1.7 1.8-2.4zm-0.7 40.7c0-0.4-0.4-0.7-0.4-1.1 0-0.3 0-0.3 0.4-0.7 0 0 0.7 0.4 0.7 1.1 0 0.3-0.4 0.3-0.7 0.7zm3.4-13.1c-0.7 0-0.7 1-1 1.4 0-2.1-2.8-2.1-2.8-3.5 0-1.4 1.1-2.1 3.1-2.1-0.3 0.7-1.7 0.4-1.7 1.8 1 0.7 1.4 2.4 2.8 2.4 0 0-0.4 0-0.4 0zm3.5 15.8c0.3-1 0.3-2 0.7-3.1h-1.4l-0.4 3.5c-0.7-0.4-1.3-0.4-1.7-1.4 0.4-0.7 0.7-1.7 1.7-2.1v0.4c0.4-2.4 2.1-4.5 4.2-4.9 0 0.7-0.4 1.4-1.4 2.1 1 0.7 1.7 1.4 1.7 1.7 0 1.1-1.4 0.7-1.4 1.8 0 0 0.4 0.3 0.4 0.3 0.3 0 0.7-0.3 1-0.3-0.7 1-1.4 2.4-2.4 2.4-0.3 0-0.7 0-1-0.4zm3.8 12.1l-0.7-1 0.7-0.4zm0.6-29.3c-0.3 0-0.3 0.4-0.6 0.4-0.4 0-0.7-0.4-0.7-1.1 0 0 0.7 0 1.3 0.4zm0.7-22.8h-1c0-1 0.7-1.3 1.7-1.3 0 0.6-0.3 1-0.7 1.3zm57.6-39.9c0.3-0.4 0.3-0.4 0.7-0.4 0.7 0 1 0.7 1.7 0.7 0.3 0 0.7 0 1-0.3l0.4-0.4c1 2.1 3.8 1.7 5.5 2.8-1.7 0-2.8 1.3-3.8 1.3-2.4 0-0.3-2.7-2.1-3.4-0.7 0.7-1.3 1.4-2 1.4-1.8 0-0.7-1.1-1.4-1.7zm-2.8 11.7c-0.3 0.3-1 0-1.3 0.3-0.4-0.3-0.4-0.7-0.4-1 0-0.4 0-1.1 0.7-1.1 1 0 0.7 1.1 1 1.8zm-0.7-5.5c0 2-2 0.6-2 2.4 0 0-0.4-0.4-0.4-0.4 0-0.7 1.1-0.7 1.1-1 0-0.4-0.4-0.4-0.4-0.7 0 0 1.1-0.3 1.7-0.3zm-1.3-3.1l-2.5 1.3c0-1.3 0.7-2 1.4-2 0.7 0 1.1 0.3 1.1 0.7zm-3.5 11c1.7 0.7 2.4 2.1 4.2 2.1l0.6-1.4v0.3l0.7-2c0.4 0.3 1.8 0.6 1.8 1.3 0 0.4-1.1 0.7-1.4 0.7l-0.4 0.4c0.4 0.3 0.4 0.3 0.7 0.3-0.3 0.4-3.1 2.8-3.1 2.4v1.1c-1.7 0-2.1-0.7-2.4-2.1-0.3 0-0.3 0.3-0.3 0.3-0.7-0.3-0.7-0.7-0.7-1.3 0-0.7 0-1.4 0.3-2.1zm-0.7-11.4c-0.7 1 0 2.1-1 2.1-0.4 0-0.4-0.7-0.4-0.7 0-1 0.7-0.7 1.4-1.4zm-2.7 2.8c0.7 1.3 2.7 0.7 2.7 2.7l-0.7 0.7c-0.3-0.3-1-1.4-1.7-1.4-0.3 0-0.7 0.4-0.7 0.7 0 0-0.3-0.3-0.3-0.7 0-0.7 0.3-1.3 0.7-2zm1.3 4.1c-0.3 0.3 0 2.1-1.3 2.1 0-1.4 0-2.1 1.3-2.1zm-8.6-8.3c0 0 0 0.7 0.4 0.7h-1.1zm-0.6 8.3c0.6 0.3 0.6 1 1 1.7 0 0 0 0.4-0.4 0.4-0.3-0.4-1-1.1-1-1.4 0-0.4 0-0.4 0.4-0.7zm-2.8 75.8c-6.2 0-14.1-1.4-14.1-2.1 1.3-6.9 6.5-4.4 11-6.2 0.3 0.7 0.3 1.4 0.3 2.1 0 0.7-0.3 1.4-0.3 1.7 0 1.4 0.3 2.8 0.7 3.8 0.7 0 1-0.3 1.4-0.3 0.3 0 0.7 0.3 1.3 1zm1.4-78.2c-0.3 0.3-0.7 0.3-0.7 0.3-1 0-1-1-1.3-1.7 0.6 0.7 2 0 2 1.4zm1.1 71l-1.1-2.4 1.7-0.7c0 1.7-0.3 2.7-0.6 3.1zm2-52.8c-1 0-1.4-0.3-1.4-1 0 0.4 1.1-4.5 2.5-4.5 0.3 0 1 0.4 1 1.8 0 1.7-1.7 2.7-2.1 3.7zm4.2-2.4c-1.4-1.3 0-4.1-2.1-5.1 0.3-0.7 0-2.1 1-2.1 0 0 0.4 0 0.4 0l0.7 3.4c1 1.1 1.7 2.1 2.7 2.1 0.4 0 0.7 0 1.4-0.3 0.3 0 0.7 0.3 0.7 0.7 0 2.4-3.1 1-3.1 2.4 0 1 1.7 1 1.7 3.1l-0.7 0.3c-0.7-1-2.7-2.4-2.7-4.5zm6.8 8.6c0.4 0 0.4 0 0.4 0-1.4 0-3.8 0-3.8-1.7l2.1-2c0.3 1 1.7 0.3 2.4 0.6 0 1.1-1.4 1.8-1.4 2.5 0 0.3 0.3 0.3 0.3 0.6zm0.7-5.1c1.4-0.7 0.7-2.8 2.1-3.5 1.4 2.1 3.8 4.2 6.6 4.2 0 0 0.3 0 0.3-0.4 0-0.7-0.3-1-0.7-1.7 0-1 1.4-1 1.4-1.7 0-1.4-2.4-1.4-3.5-1.7 0.7 0 0-1.1 0.7-1.1-0.7-0.3-0.7-1-0.7-1.4 0-1 1.1-1.7 1.1-2.4 0-0.3-0.4-0.7-1.4-1 0.3-0.7 0.3-1.4 0.3-2.1 0-1.3-0.6-3.1-0.6-4.5 0-0.6 1.3-1 2-1.7 0.4 0.7 0.7 1.7 1.4 1.7 0 0 0.3 0 0.7-0.3 0 0.3 0 0.3-0.4 0.3-0.3 0-0.6-0.3-1-0.3-0.3 0-0.7 0.3-0.7 0.3 0 0.4 0.4 0.4 0.7 0.4 0.4 0.7 0.7 1 1 1 0 0 0.4 0 0.4 0 0 0.7-0.7 1.4-0.7 1.8 0 1 2.1 0.3 2.1 1.7 0 0.7-0.4 1.7-0.4 2.7 0 0.4 0 0.4 0.4 0.7l-1.1 1.1c1.8 0.3 3.5 3.4 3.5 4.1 0 0.7-0.4 1.7-0.4 2.4 0 0.3 0 1 0.7 1.4l-0.3 0.3 1.4 0.4c0 2-3.8 3.1-3.8 4.1 0 0.3 0 0.3 0 0.3l0.3 0.7c-0.3 0.4-0.7 0.4-0.7 0.7 0 0.4 1.1 1.1 1.1 1.4 0 2.8-2.8 2.4-3.8 3.1 0-1.4-2.8-2.1-3.8-3.1l-0.4 0.4-0.3-0.7c0-0.4 0.3-0.7 0.3-0.7 0.4 0 0.7 0.3 1.1 0.3 0.7 0 1.7-3.4 2.7-4.1-2-2.1-6.9 0-7.6-3.1zm14.2 6.9c-0.4 0.7-0.7 0.7-1.4 0.7 0-0.4 0.3-1.1 1-1.1 0 0 0.4 0.4 0.4 0.4zm-13.5 2.4c0.4 0 0.7-0.7 1.4-0.7 0.4 0 0.4 0.3 0.7 0.3v1.1c-0.7-0.4-1.7 0.3-2.1-0.7zm16.6 14.1c-2.1 1.4-4.9 3.5-7.6 3.5-0.4 0-1 0-1.4-0.4h-1.7c0.3-0.7 1-1 1-2.1 0-0.6-1.4-3.4-2.7-3.4-0.4 1.4 0 3.4-2.1 3.8-0.3-0.4-0.7-0.7-0.7-1 0-0.7 0.7-1.4 0.7-2.1 0-0.7-0.3-1-1.4-1v-0.7c0.4 0 1.1 0.3 1.4 0.3 0.3 0 0.3 0 0.7-0.3-1.4-1.4-1.4-3.5-2.4-4.9 2.7-0.3-0.4-3.7 3.8-3.7 0 0 0.3 0.3 0.7 0.3v0.7c-1.1 0-0.7 0.3-1.1 0.7 0 1 1.7 2.4 1.7 3.8 0 0.3-0.3 0.7-0.3 1 0.7 0.7-0.3 2.1 1.4 2.1 2 0 4.8-3.1 7.6-3.8 1.7 1.7 2.4 4.8 2.4 7.2zm-1.1-18.3c1.4-0.3 0.4-2.4 2.4-2.4 0 1.4-1.7 1.8-2.4 2.4zm-45.1 89.6c0 0 0 0 0 0.4h0.7c0-0.4-0.4-0.4-0.4-0.7 0 0.3-0.3 0.3-0.3 0.3zm48.9-50.3c1.4-0.7 3.8-1.7 3.8-2-2.4 0-4.1-0.7-5.2-0.7l-0.3 1zm-33.4 46.2h-1.7v1h2v3.8c0 2.8 0.4 4.5 0.7 5.2 0.7-1.7 0.7-4.2 0.7-6.9-0.3-0.7-0.3-1-0.3-1.7zm-29.7-23.8c0 0.7 0.4 1 1.4 1 0-0.3-0.3-0.7-0.7-1z"/>
</svg>